<?xml version="1.0" encoding="utf-8" standalone="no"?>
<!DOCTYPE svg PUBLIC "-//W3C//DTD SVG 1.1//EN"
  "http://www.w3.org/Graphics/SVG/1.1/DTD/svg11.dtd">
<!-- Created with matplotlib (http://matplotlib.org/) -->
<svg height="344.16pt" version="1.1" viewBox="0 0 460.8 344.16" width="460.8pt" xmlns="http://www.w3.org/2000/svg" xmlns:xlink="http://www.w3.org/1999/xlink">
 <defs>
  <style type="text/css">
*{stroke-linecap:butt;stroke-linejoin:round;}
  </style>
 </defs>
 <g id="figure_1">
  <g id="patch_1">
   <path d="M 0 344.16 
L 460.8 344.16 
L 460.8 0 
L 0 0 
z
" style="fill:#ffffff;"/>
  </g>
  <g id="axes_1">
   <g id="patch_2">
    <path d="M 57.6 119.241318 
L 414.72 119.241318 
L 414.72 41.2992 
L 57.6 41.2992 
z
" style="fill:#ffffff;"/>
   </g>
   <g id="matplotlib.axis_1">
    <g id="xtick_1">
     <g id="line2d_1">
      <path clip-path="url(#peaceb27634)" d="M 73.832727 119.241318 
L 73.832727 41.2992 
" style="fill:none;stroke:#b0b0b0;stroke-linecap:square;stroke-width:0.8;"/>
     </g>
     <g id="line2d_2">
      <defs>
       <path d="M 0 0 
L 0 3.5 
" id="mdd8dae2e03" style="stroke:#000000;stroke-width:0.8;"/>
      </defs>
      <g>
       <use style="stroke:#000000;stroke-width:0.8;" x="73.832727" xlink:href="#mdd8dae2e03" y="119.241318"/>
      </g>
     </g>
     <g id="text_1">
      <!-- 0 -->
      <defs>
       <path d="M 31.78125 66.40625 
Q 24.171875 66.40625 20.328125 58.90625 
Q 16.5 51.421875 16.5 36.375 
Q 16.5 21.390625 20.328125 13.890625 
Q 24.171875 6.390625 31.78125 6.390625 
Q 39.453125 6.390625 43.28125 13.890625 
Q 47.125 21.390625 47.125 36.375 
Q 47.125 51.421875 43.28125 58.90625 
Q 39.453125 66.40625 31.78125 66.40625 
z
M 31.78125 74.21875 
Q 44.046875 74.21875 50.515625 64.515625 
Q 56.984375 54.828125 56.984375 36.375 
Q 56.984375 17.96875 50.515625 8.265625 
Q 44.046875 -1.421875 31.78125 -1.421875 
Q 19.53125 -1.421875 13.0625 8.265625 
Q 6.59375 17.96875 6.59375 36.375 
Q 6.59375 54.828125 13.0625 64.515625 
Q 19.53125 74.21875 31.78125 74.21875 
z
" id="DejaVuSans-30"/>
      </defs>
      <g transform="translate(70.651477 133.839755)scale(0.1 -0.1)">
       <use xlink:href="#DejaVuSans-30"/>
      </g>
     </g>
    </g>
    <g id="xtick_2">
     <g id="line2d_3">
      <path clip-path="url(#peaceb27634)" d="M 138.763636 119.241318 
L 138.763636 41.2992 
" style="fill:none;stroke:#b0b0b0;stroke-linecap:square;stroke-width:0.8;"/>
     </g>
     <g id="line2d_4">
      <g>
       <use style="stroke:#000000;stroke-width:0.8;" x="138.763636" xlink:href="#mdd8dae2e03" y="119.241318"/>
      </g>
     </g>
     <g id="text_2">
      <!-- 1 -->
      <defs>
       <path d="M 12.40625 8.296875 
L 28.515625 8.296875 
L 28.515625 63.921875 
L 10.984375 60.40625 
L 10.984375 69.390625 
L 28.421875 72.90625 
L 38.28125 72.90625 
L 38.28125 8.296875 
L 54.390625 8.296875 
L 54.390625 0 
L 12.40625 0 
z
" id="DejaVuSans-31"/>
      </defs>
      <g transform="translate(135.582386 133.839755)scale(0.1 -0.1)">
       <use xlink:href="#DejaVuSans-31"/>
      </g>
     </g>
    </g>
    <g id="xtick_3">
     <g id="line2d_5">
      <path clip-path="url(#peaceb27634)" d="M 203.694545 119.241318 
L 203.694545 41.2992 
" style="fill:none;stroke:#b0b0b0;stroke-linecap:square;stroke-width:0.8;"/>
     </g>
     <g id="line2d_6">
      <g>
       <use style="stroke:#000000;stroke-width:0.8;" x="203.694545" xlink:href="#mdd8dae2e03" y="119.241318"/>
      </g>
     </g>
     <g id="text_3">
      <!-- 2 -->
      <defs>
       <path d="M 19.1875 8.296875 
L 53.609375 8.296875 
L 53.609375 0 
L 7.328125 0 
L 7.328125 8.296875 
Q 12.9375 14.109375 22.625 23.890625 
Q 32.328125 33.6875 34.8125 36.53125 
Q 39.546875 41.84375 41.421875 45.53125 
Q 43.3125 49.21875 43.3125 52.78125 
Q 43.3125 58.59375 39.234375 62.25 
Q 35.15625 65.921875 28.609375 65.921875 
Q 23.96875 65.921875 18.8125 64.3125 
Q 13.671875 62.703125 7.8125 59.421875 
L 7.8125 69.390625 
Q 13.765625 71.78125 18.9375 73 
Q 24.125 74.21875 28.421875 74.21875 
Q 39.75 74.21875 46.484375 68.546875 
Q 53.21875 62.890625 53.21875 53.421875 
Q 53.21875 48.921875 51.53125 44.890625 
Q 49.859375 40.875 45.40625 35.40625 
Q 44.1875 33.984375 37.640625 27.21875 
Q 31.109375 20.453125 19.1875 8.296875 
z
" id="DejaVuSans-32"/>
      </defs>
      <g transform="translate(200.513295 133.839755)scale(0.1 -0.1)">
       <use xlink:href="#DejaVuSans-32"/>
      </g>
     </g>
    </g>
    <g id="xtick_4">
     <g id="line2d_7">
      <path clip-path="url(#peaceb27634)" d="M 268.625455 119.241318 
L 268.625455 41.2992 
" style="fill:none;stroke:#b0b0b0;stroke-linecap:square;stroke-width:0.8;"/>
     </g>
     <g id="line2d_8">
      <g>
       <use style="stroke:#000000;stroke-width:0.8;" x="268.625455" xlink:href="#mdd8dae2e03" y="119.241318"/>
      </g>
     </g>
     <g id="text_4">
      <!-- 3 -->
      <defs>
       <path d="M 40.578125 39.3125 
Q 47.65625 37.796875 51.625 33 
Q 55.609375 28.21875 55.609375 21.1875 
Q 55.609375 10.40625 48.1875 4.484375 
Q 40.765625 -1.421875 27.09375 -1.421875 
Q 22.515625 -1.421875 17.65625 -0.515625 
Q 12.796875 0.390625 7.625 2.203125 
L 7.625 11.71875 
Q 11.71875 9.328125 16.59375 8.109375 
Q 21.484375 6.890625 26.8125 6.890625 
Q 36.078125 6.890625 40.9375 10.546875 
Q 45.796875 14.203125 45.796875 21.1875 
Q 45.796875 27.640625 41.28125 31.265625 
Q 36.765625 34.90625 28.71875 34.90625 
L 20.21875 34.90625 
L 20.21875 43.015625 
L 29.109375 43.015625 
Q 36.375 43.015625 40.234375 45.921875 
Q 44.09375 48.828125 44.09375 54.296875 
Q 44.09375 59.90625 40.109375 62.90625 
Q 36.140625 65.921875 28.71875 65.921875 
Q 24.65625 65.921875 20.015625 65.03125 
Q 15.375 64.15625 9.8125 62.3125 
L 9.8125 71.09375 
Q 15.4375 72.65625 20.34375 73.4375 
Q 25.25 74.21875 29.59375 74.21875 
Q 40.828125 74.21875 47.359375 69.109375 
Q 53.90625 64.015625 53.90625 55.328125 
Q 53.90625 49.265625 50.4375 45.09375 
Q 46.96875 40.921875 40.578125 39.3125 
z
" id="DejaVuSans-33"/>
      </defs>
      <g transform="translate(265.444205 133.839755)scale(0.1 -0.1)">
       <use xlink:href="#DejaVuSans-33"/>
      </g>
     </g>
    </g>
    <g id="xtick_5">
     <g id="line2d_9">
      <path clip-path="url(#peaceb27634)" d="M 333.556364 119.241318 
L 333.556364 41.2992 
" style="fill:none;stroke:#b0b0b0;stroke-linecap:square;stroke-width:0.8;"/>
     </g>
     <g id="line2d_10">
      <g>
       <use style="stroke:#000000;stroke-width:0.8;" x="333.556364" xlink:href="#mdd8dae2e03" y="119.241318"/>
      </g>
     </g>
     <g id="text_5">
      <!-- 4 -->
      <defs>
       <path d="M 37.796875 64.3125 
L 12.890625 25.390625 
L 37.796875 25.390625 
z
M 35.203125 72.90625 
L 47.609375 72.90625 
L 47.609375 25.390625 
L 58.015625 25.390625 
L 58.015625 17.1875 
L 47.609375 17.1875 
L 47.609375 0 
L 37.796875 0 
L 37.796875 17.1875 
L 4.890625 17.1875 
L 4.890625 26.703125 
z
" id="DejaVuSans-34"/>
      </defs>
      <g transform="translate(330.375114 133.839755)scale(0.1 -0.1)">
       <use xlink:href="#DejaVuSans-34"/>
      </g>
     </g>
    </g>
    <g id="xtick_6">
     <g id="line2d_11">
      <path clip-path="url(#peaceb27634)" d="M 398.487273 119.241318 
L 398.487273 41.2992 
" style="fill:none;stroke:#b0b0b0;stroke-linecap:square;stroke-width:0.8;"/>
     </g>
     <g id="line2d_12">
      <g>
       <use style="stroke:#000000;stroke-width:0.8;" x="398.487273" xlink:href="#mdd8dae2e03" y="119.241318"/>
      </g>
     </g>
     <g id="text_6">
      <!-- 5 -->
      <defs>
       <path d="M 10.796875 72.90625 
L 49.515625 72.90625 
L 49.515625 64.59375 
L 19.828125 64.59375 
L 19.828125 46.734375 
Q 21.96875 47.46875 24.109375 47.828125 
Q 26.265625 48.1875 28.421875 48.1875 
Q 40.625 48.1875 47.75 41.5 
Q 54.890625 34.8125 54.890625 23.390625 
Q 54.890625 11.625 47.5625 5.09375 
Q 40.234375 -1.421875 26.90625 -1.421875 
Q 22.3125 -1.421875 17.546875 -0.640625 
Q 12.796875 0.140625 7.71875 1.703125 
L 7.71875 11.625 
Q 12.109375 9.234375 16.796875 8.0625 
Q 21.484375 6.890625 26.703125 6.890625 
Q 35.15625 6.890625 40.078125 11.328125 
Q 45.015625 15.765625 45.015625 23.390625 
Q 45.015625 31 40.078125 35.4375 
Q 35.15625 39.890625 26.703125 39.890625 
Q 22.75 39.890625 18.8125 39.015625 
Q 14.890625 38.140625 10.796875 36.28125 
z
" id="DejaVuSans-35"/>
      </defs>
      <g transform="translate(395.306023 133.839755)scale(0.1 -0.1)">
       <use xlink:href="#DejaVuSans-35"/>
      </g>
     </g>
    </g>
   </g>
   <g id="matplotlib.axis_2">
    <g id="ytick_1">
     <g id="line2d_13">
      <path clip-path="url(#peaceb27634)" d="M 57.6 89.953345 
L 414.72 89.953345 
" style="fill:none;stroke:#b0b0b0;stroke-linecap:square;stroke-width:0.8;"/>
     </g>
     <g id="line2d_14">
      <defs>
       <path d="M 0 0 
L -3.5 0 
" id="mbb43e3144c" style="stroke:#000000;stroke-width:0.8;"/>
      </defs>
      <g>
       <use style="stroke:#000000;stroke-width:0.8;" x="57.6" xlink:href="#mbb43e3144c" y="89.953345"/>
      </g>
     </g>
     <g id="text_7">
      <!-- −2 -->
      <defs>
       <path d="M 10.59375 35.5 
L 73.1875 35.5 
L 73.1875 27.203125 
L 10.59375 27.203125 
z
" id="DejaVuSans-2212"/>
      </defs>
      <g transform="translate(35.857813 93.752564)scale(0.1 -0.1)">
       <use xlink:href="#DejaVuSans-2212"/>
       <use x="83.789062" xlink:href="#DejaVuSans-32"/>
      </g>
     </g>
    </g>
    <g id="ytick_2">
     <g id="line2d_15">
      <path clip-path="url(#peaceb27634)" d="M 57.6 44.842024 
L 414.72 44.842024 
" style="fill:none;stroke:#b0b0b0;stroke-linecap:square;stroke-width:0.8;"/>
     </g>
     <g id="line2d_16">
      <g>
       <use style="stroke:#000000;stroke-width:0.8;" x="57.6" xlink:href="#mbb43e3144c" y="44.842024"/>
      </g>
     </g>
     <g id="text_8">
      <!-- 0 -->
      <g transform="translate(44.2375 48.641242)scale(0.1 -0.1)">
       <use xlink:href="#DejaVuSans-30"/>
      </g>
     </g>
    </g>
   </g>
   <g id="line2d_17">
    <path clip-path="url(#peaceb27634)" d="M 73.832727 44.842024 
L 75.131345 44.930532 
L 76.429964 45.196042 
L 77.728582 45.638504 
L 79.0272 46.257767 
L 80.325818 47.053543 
L 82.273745 48.576989 
L 84.221673 50.492616 
L 86.1696 52.793076 
L 88.117527 55.465935 
L 90.065455 58.493199 
L 92.662691 63.031154 
L 95.259927 68.056695 
L 98.506473 74.832095 
L 106.947491 92.828559 
L 109.544727 97.826546 
L 112.141964 102.330126 
L 114.089891 105.327593 
L 116.037818 107.968766 
L 117.985745 110.235686 
L 119.933673 112.116594 
L 121.8816 113.605035 
L 123.180218 114.377398 
L 124.478836 114.973122 
L 125.777455 115.391868 
L 127.076073 115.633677 
L 128.374691 115.698494 
L 129.673309 115.586206 
L 130.971927 115.296988 
L 132.270545 114.830861 
L 133.569164 114.187773 
L 134.867782 113.368165 
L 136.815709 111.809034 
L 138.763636 109.857653 
L 140.711564 107.521802 
L 142.659491 104.813909 
L 144.607418 101.753995 
L 147.204655 97.176377 
L 149.801891 92.118651 
L 153.697745 83.917389 
L 160.840145 68.65027 
L 163.437382 63.576168 
L 166.034618 58.977803 
L 167.982545 55.899608 
L 169.930473 53.172178 
L 171.8784 50.815349 
L 173.826327 48.84234 
L 175.774255 47.260712 
L 177.722182 46.074688 
L 179.0208 45.504816 
L 180.319418 45.111929 
L 181.618036 44.896058 
L 182.916655 44.857187 
L 184.215273 44.9953 
L 185.513891 45.310422 
L 186.812509 45.802494 
L 188.111127 46.471436 
L 189.409745 47.316846 
L 191.357673 48.91448 
L 193.3056 50.903682 
L 195.253527 53.276466 
L 197.201455 56.019449 
L 199.149382 59.112211 
L 201.746618 63.72813 
L 204.343855 68.81602 
L 208.239709 77.042457 
L 215.382109 92.281921 
L 217.979345 97.32416 
L 220.576582 101.882331 
L 222.524509 104.926243 
L 224.472436 107.617367 
L 226.420364 109.936506 
L 228.368291 111.871214 
L 230.316218 113.414084 
L 232.264145 114.561197 
L 233.562764 115.105147 
L 234.861382 115.472189 
L 236.16 115.662279 
L 237.458618 115.675346 
L 238.757236 115.51138 
L 240.055855 115.170354 
L 241.354473 114.652318 
L 242.653091 113.957531 
L 243.951709 113.086332 
L 245.899636 111.450239 
L 247.847564 109.423469 
L 249.795491 107.014262 
L 251.743418 104.2363 
L 253.691345 101.110937 
L 256.288582 96.456779 
L 258.885818 91.339082 
L 262.781673 83.088136 
L 269.274764 69.192575 
L 271.872 64.076965 
L 274.469236 59.425395 
L 276.417164 56.301565 
L 278.365091 53.525073 
L 280.313018 51.116682 
L 282.260945 49.090345 
L 284.208873 47.454566 
L 286.1568 46.214043 
L 287.455418 45.607696 
L 288.754036 45.178239 
L 290.052655 44.925774 
L 291.351273 44.850339 
L 292.649891 44.951939 
L 293.948509 45.230599 
L 295.247127 45.686251 
L 296.545745 46.318768 
L 297.844364 47.127885 
L 299.792291 48.671405 
L 301.740218 50.607205 
L 303.688145 52.927938 
L 305.636073 55.621073 
L 307.584 58.667178 
L 310.181236 63.22796 
L 312.778473 68.271632 
L 316.025018 75.06047 
L 324.466036 93.040426 
L 327.063273 98.019979 
L 329.660509 102.500867 
L 331.608436 105.479462 
L 333.556364 108.100588 
L 335.504291 110.346482 
L 337.452218 112.205853 
L 339.400145 113.672451 
L 340.698764 114.430158 
L 341.997382 115.011219 
L 343.296 115.415301 
L 344.594618 115.642501 
L 345.893236 115.692765 
L 347.191855 115.565926 
L 348.490473 115.262037 
L 349.789091 114.781081 
L 351.087709 114.123387 
L 352.386327 113.289151 
L 354.334255 111.708022 
L 356.282182 109.735521 
L 358.230109 107.37852 
L 360.178036 104.651169 
L 362.125964 101.572003 
L 364.7232 96.973125 
L 367.320436 91.897191 
L 371.216291 83.686945 
L 378.358691 68.4351 
L 380.955927 63.376397 
L 383.553164 58.798455 
L 385.501091 55.738525 
L 387.449018 53.029878 
L 389.396945 50.692194 
L 391.344873 48.738955 
L 393.2928 47.17807 
L 395.240727 46.013253 
L 396.539345 45.457495 
L 397.837964 45.07855 
L 398.487273 44.955451 
L 398.487273 44.955451 
" style="fill:none;stroke:#1f77b4;stroke-linecap:square;stroke-width:1.5;"/>
   </g>
   <g id="patch_3">
    <path d="M 57.6 119.241318 
L 57.6 41.2992 
" style="fill:none;stroke:#000000;stroke-linecap:square;stroke-linejoin:miter;stroke-width:0.8;"/>
   </g>
   <g id="patch_4">
    <path d="M 414.72 119.241318 
L 414.72 41.2992 
" style="fill:none;stroke:#000000;stroke-linecap:square;stroke-linejoin:miter;stroke-width:0.8;"/>
   </g>
   <g id="patch_5">
    <path d="M 57.6 119.241318 
L 414.72 119.241318 
" style="fill:none;stroke:#000000;stroke-linecap:square;stroke-linejoin:miter;stroke-width:0.8;"/>
   </g>
   <g id="patch_6">
    <path d="M 57.6 41.2992 
L 414.72 41.2992 
" style="fill:none;stroke:#000000;stroke-linecap:square;stroke-linejoin:miter;stroke-width:0.8;"/>
   </g>
   <g id="text_9">
    <!-- Pendulum -->
    <defs>
     <path d="M 19.671875 64.796875 
L 19.671875 37.40625 
L 32.078125 37.40625 
Q 38.96875 37.40625 42.71875 40.96875 
Q 46.484375 44.53125 46.484375 51.125 
Q 46.484375 57.671875 42.71875 61.234375 
Q 38.96875 64.796875 32.078125 64.796875 
z
M 9.8125 72.90625 
L 32.078125 72.90625 
Q 44.34375 72.90625 50.609375 67.359375 
Q 56.890625 61.8125 56.890625 51.125 
Q 56.890625 40.328125 50.609375 34.8125 
Q 44.34375 29.296875 32.078125 29.296875 
L 19.671875 29.296875 
L 19.671875 0 
L 9.8125 0 
z
" id="DejaVuSans-50"/>
     <path d="M 56.203125 29.59375 
L 56.203125 25.203125 
L 14.890625 25.203125 
Q 15.484375 15.921875 20.484375 11.0625 
Q 25.484375 6.203125 34.421875 6.203125 
Q 39.59375 6.203125 44.453125 7.46875 
Q 49.3125 8.734375 54.109375 11.28125 
L 54.109375 2.78125 
Q 49.265625 0.734375 44.1875 -0.34375 
Q 39.109375 -1.421875 33.890625 -1.421875 
Q 20.796875 -1.421875 13.15625 6.1875 
Q 5.515625 13.8125 5.515625 26.8125 
Q 5.515625 40.234375 12.765625 48.109375 
Q 20.015625 56 32.328125 56 
Q 43.359375 56 49.78125 48.890625 
Q 56.203125 41.796875 56.203125 29.59375 
z
M 47.21875 32.234375 
Q 47.125 39.59375 43.09375 43.984375 
Q 39.0625 48.390625 32.421875 48.390625 
Q 24.90625 48.390625 20.390625 44.140625 
Q 15.875 39.890625 15.1875 32.171875 
z
" id="DejaVuSans-65"/>
     <path d="M 54.890625 33.015625 
L 54.890625 0 
L 45.90625 0 
L 45.90625 32.71875 
Q 45.90625 40.484375 42.875 44.328125 
Q 39.84375 48.1875 33.796875 48.1875 
Q 26.515625 48.1875 22.3125 43.546875 
Q 18.109375 38.921875 18.109375 30.90625 
L 18.109375 0 
L 9.078125 0 
L 9.078125 54.6875 
L 18.109375 54.6875 
L 18.109375 46.1875 
Q 21.34375 51.125 25.703125 53.5625 
Q 30.078125 56 35.796875 56 
Q 45.21875 56 50.046875 50.171875 
Q 54.890625 44.34375 54.890625 33.015625 
z
" id="DejaVuSans-6e"/>
     <path d="M 45.40625 46.390625 
L 45.40625 75.984375 
L 54.390625 75.984375 
L 54.390625 0 
L 45.40625 0 
L 45.40625 8.203125 
Q 42.578125 3.328125 38.25 0.953125 
Q 33.9375 -1.421875 27.875 -1.421875 
Q 17.96875 -1.421875 11.734375 6.484375 
Q 5.515625 14.40625 5.515625 27.296875 
Q 5.515625 40.1875 11.734375 48.09375 
Q 17.96875 56 27.875 56 
Q 33.9375 56 38.25 53.625 
Q 42.578125 51.265625 45.40625 46.390625 
z
M 14.796875 27.296875 
Q 14.796875 17.390625 18.875 11.75 
Q 22.953125 6.109375 30.078125 6.109375 
Q 37.203125 6.109375 41.296875 11.75 
Q 45.40625 17.390625 45.40625 27.296875 
Q 45.40625 37.203125 41.296875 42.84375 
Q 37.203125 48.484375 30.078125 48.484375 
Q 22.953125 48.484375 18.875 42.84375 
Q 14.796875 37.203125 14.796875 27.296875 
z
" id="DejaVuSans-64"/>
     <path d="M 8.5 21.578125 
L 8.5 54.6875 
L 17.484375 54.6875 
L 17.484375 21.921875 
Q 17.484375 14.15625 20.5 10.265625 
Q 23.53125 6.390625 29.59375 6.390625 
Q 36.859375 6.390625 41.078125 11.03125 
Q 45.3125 15.671875 45.3125 23.6875 
L 45.3125 54.6875 
L 54.296875 54.6875 
L 54.296875 0 
L 45.3125 0 
L 45.3125 8.40625 
Q 42.046875 3.421875 37.71875 1 
Q 33.40625 -1.421875 27.6875 -1.421875 
Q 18.265625 -1.421875 13.375 4.4375 
Q 8.5 10.296875 8.5 21.578125 
z
M 31.109375 56 
z
" id="DejaVuSans-75"/>
     <path d="M 9.421875 75.984375 
L 18.40625 75.984375 
L 18.40625 0 
L 9.421875 0 
z
" id="DejaVuSans-6c"/>
     <path d="M 52 44.1875 
Q 55.375 50.25 60.0625 53.125 
Q 64.75 56 71.09375 56 
Q 79.640625 56 84.28125 50.015625 
Q 88.921875 44.046875 88.921875 33.015625 
L 88.921875 0 
L 79.890625 0 
L 79.890625 32.71875 
Q 79.890625 40.578125 77.09375 44.375 
Q 74.3125 48.1875 68.609375 48.1875 
Q 61.625 48.1875 57.5625 43.546875 
Q 53.515625 38.921875 53.515625 30.90625 
L 53.515625 0 
L 44.484375 0 
L 44.484375 32.71875 
Q 44.484375 40.625 41.703125 44.40625 
Q 38.921875 48.1875 33.109375 48.1875 
Q 26.21875 48.1875 22.15625 43.53125 
Q 18.109375 38.875 18.109375 30.90625 
L 18.109375 0 
L 9.078125 0 
L 9.078125 54.6875 
L 18.109375 54.6875 
L 18.109375 46.1875 
Q 21.1875 51.21875 25.484375 53.609375 
Q 29.78125 56 35.6875 56 
Q 41.65625 56 45.828125 52.96875 
Q 50 49.953125 52 44.1875 
z
" id="DejaVuSans-6d"/>
    </defs>
    <g transform="translate(211.131094 35.2992)scale(0.1 -0.1)">
     <use xlink:href="#DejaVuSans-50"/>
     <use x="60.255859" xlink:href="#DejaVuSans-65"/>
     <use x="121.779297" xlink:href="#DejaVuSans-6e"/>
     <use x="185.158203" xlink:href="#DejaVuSans-64"/>
     <use x="248.634766" xlink:href="#DejaVuSans-75"/>
     <use x="312.013672" xlink:href="#DejaVuSans-6c"/>
     <use x="339.796875" xlink:href="#DejaVuSans-75"/>
     <use x="403.175781" xlink:href="#DejaVuSans-6d"/>
    </g>
   </g>
   <g id="legend_1">
    <g id="patch_7">
     <path d="M 288.021563 89.109321 
L 407.72 89.109321 
Q 409.72 89.109321 409.72 87.109321 
L 409.72 73.431196 
Q 409.72 71.431196 407.72 71.431196 
L 288.021563 71.431196 
Q 286.021563 71.431196 286.021563 73.431196 
L 286.021563 87.109321 
Q 286.021563 89.109321 288.021563 89.109321 
z
" style="fill:#ffffff;opacity:0.8;stroke:#cccccc;stroke-linejoin:miter;"/>
    </g>
    <g id="line2d_18">
     <path d="M 290.021563 79.529634 
L 310.021563 79.529634 
" style="fill:none;stroke:#1f77b4;stroke-linecap:square;stroke-width:1.5;"/>
    </g>
    <g id="line2d_19"/>
    <g id="text_10">
     <!-- revolute.phi [rad] -->
     <defs>
      <path d="M 41.109375 46.296875 
Q 39.59375 47.171875 37.8125 47.578125 
Q 36.03125 48 33.890625 48 
Q 26.265625 48 22.1875 43.046875 
Q 18.109375 38.09375 18.109375 28.8125 
L 18.109375 0 
L 9.078125 0 
L 9.078125 54.6875 
L 18.109375 54.6875 
L 18.109375 46.1875 
Q 20.953125 51.171875 25.484375 53.578125 
Q 30.03125 56 36.53125 56 
Q 37.453125 56 38.578125 55.875 
Q 39.703125 55.765625 41.0625 55.515625 
z
" id="DejaVuSans-72"/>
      <path d="M 2.984375 54.6875 
L 12.5 54.6875 
L 29.59375 8.796875 
L 46.6875 54.6875 
L 56.203125 54.6875 
L 35.6875 0 
L 23.484375 0 
z
" id="DejaVuSans-76"/>
      <path d="M 30.609375 48.390625 
Q 23.390625 48.390625 19.1875 42.75 
Q 14.984375 37.109375 14.984375 27.296875 
Q 14.984375 17.484375 19.15625 11.84375 
Q 23.34375 6.203125 30.609375 6.203125 
Q 37.796875 6.203125 41.984375 11.859375 
Q 46.1875 17.53125 46.1875 27.296875 
Q 46.1875 37.015625 41.984375 42.703125 
Q 37.796875 48.390625 30.609375 48.390625 
z
M 30.609375 56 
Q 42.328125 56 49.015625 48.375 
Q 55.71875 40.765625 55.71875 27.296875 
Q 55.71875 13.875 49.015625 6.21875 
Q 42.328125 -1.421875 30.609375 -1.421875 
Q 18.84375 -1.421875 12.171875 6.21875 
Q 5.515625 13.875 5.515625 27.296875 
Q 5.515625 40.765625 12.171875 48.375 
Q 18.84375 56 30.609375 56 
z
" id="DejaVuSans-6f"/>
      <path d="M 18.3125 70.21875 
L 18.3125 54.6875 
L 36.8125 54.6875 
L 36.8125 47.703125 
L 18.3125 47.703125 
L 18.3125 18.015625 
Q 18.3125 11.328125 20.140625 9.421875 
Q 21.96875 7.515625 27.59375 7.515625 
L 36.8125 7.515625 
L 36.8125 0 
L 27.59375 0 
Q 17.1875 0 13.234375 3.875 
Q 9.28125 7.765625 9.28125 18.015625 
L 9.28125 47.703125 
L 2.6875 47.703125 
L 2.6875 54.6875 
L 9.28125 54.6875 
L 9.28125 70.21875 
z
" id="DejaVuSans-74"/>
      <path d="M 10.6875 12.40625 
L 21 12.40625 
L 21 0 
L 10.6875 0 
z
" id="DejaVuSans-2e"/>
      <path d="M 18.109375 8.203125 
L 18.109375 -20.796875 
L 9.078125 -20.796875 
L 9.078125 54.6875 
L 18.109375 54.6875 
L 18.109375 46.390625 
Q 20.953125 51.265625 25.265625 53.625 
Q 29.59375 56 35.59375 56 
Q 45.5625 56 51.78125 48.09375 
Q 58.015625 40.1875 58.015625 27.296875 
Q 58.015625 14.40625 51.78125 6.484375 
Q 45.5625 -1.421875 35.59375 -1.421875 
Q 29.59375 -1.421875 25.265625 0.953125 
Q 20.953125 3.328125 18.109375 8.203125 
z
M 48.6875 27.296875 
Q 48.6875 37.203125 44.609375 42.84375 
Q 40.53125 48.484375 33.40625 48.484375 
Q 26.265625 48.484375 22.1875 42.84375 
Q 18.109375 37.203125 18.109375 27.296875 
Q 18.109375 17.390625 22.1875 11.75 
Q 26.265625 6.109375 33.40625 6.109375 
Q 40.53125 6.109375 44.609375 11.75 
Q 48.6875 17.390625 48.6875 27.296875 
z
" id="DejaVuSans-70"/>
      <path d="M 54.890625 33.015625 
L 54.890625 0 
L 45.90625 0 
L 45.90625 32.71875 
Q 45.90625 40.484375 42.875 44.328125 
Q 39.84375 48.1875 33.796875 48.1875 
Q 26.515625 48.1875 22.3125 43.546875 
Q 18.109375 38.921875 18.109375 30.90625 
L 18.109375 0 
L 9.078125 0 
L 9.078125 75.984375 
L 18.109375 75.984375 
L 18.109375 46.1875 
Q 21.34375 51.125 25.703125 53.5625 
Q 30.078125 56 35.796875 56 
Q 45.21875 56 50.046875 50.171875 
Q 54.890625 44.34375 54.890625 33.015625 
z
" id="DejaVuSans-68"/>
      <path d="M 9.421875 54.6875 
L 18.40625 54.6875 
L 18.40625 0 
L 9.421875 0 
z
M 9.421875 75.984375 
L 18.40625 75.984375 
L 18.40625 64.59375 
L 9.421875 64.59375 
z
" id="DejaVuSans-69"/>
      <path id="DejaVuSans-20"/>
      <path d="M 8.59375 75.984375 
L 29.296875 75.984375 
L 29.296875 69 
L 17.578125 69 
L 17.578125 -6.203125 
L 29.296875 -6.203125 
L 29.296875 -13.1875 
L 8.59375 -13.1875 
z
" id="DejaVuSans-5b"/>
      <path d="M 34.28125 27.484375 
Q 23.390625 27.484375 19.1875 25 
Q 14.984375 22.515625 14.984375 16.5 
Q 14.984375 11.71875 18.140625 8.90625 
Q 21.296875 6.109375 26.703125 6.109375 
Q 34.1875 6.109375 38.703125 11.40625 
Q 43.21875 16.703125 43.21875 25.484375 
L 43.21875 27.484375 
z
M 52.203125 31.203125 
L 52.203125 0 
L 43.21875 0 
L 43.21875 8.296875 
Q 40.140625 3.328125 35.546875 0.953125 
Q 30.953125 -1.421875 24.3125 -1.421875 
Q 15.921875 -1.421875 10.953125 3.296875 
Q 6 8.015625 6 15.921875 
Q 6 25.140625 12.171875 29.828125 
Q 18.359375 34.515625 30.609375 34.515625 
L 43.21875 34.515625 
L 43.21875 35.40625 
Q 43.21875 41.609375 39.140625 45 
Q 35.0625 48.390625 27.6875 48.390625 
Q 23 48.390625 18.546875 47.265625 
Q 14.109375 46.140625 10.015625 43.890625 
L 10.015625 52.203125 
Q 14.9375 54.109375 19.578125 55.046875 
Q 24.21875 56 28.609375 56 
Q 40.484375 56 46.34375 49.84375 
Q 52.203125 43.703125 52.203125 31.203125 
z
" id="DejaVuSans-61"/>
      <path d="M 30.421875 75.984375 
L 30.421875 -13.1875 
L 9.71875 -13.1875 
L 9.71875 -6.203125 
L 21.390625 -6.203125 
L 21.390625 69 
L 9.71875 69 
L 9.71875 75.984375 
z
" id="DejaVuSans-5d"/>
     </defs>
     <g transform="translate(318.021563 83.029634)scale(0.1 -0.1)">
      <use xlink:href="#DejaVuSans-72"/>
      <use x="41.082031" xlink:href="#DejaVuSans-65"/>
      <use x="102.605469" xlink:href="#DejaVuSans-76"/>
      <use x="161.785156" xlink:href="#DejaVuSans-6f"/>
      <use x="222.966797" xlink:href="#DejaVuSans-6c"/>
      <use x="250.75" xlink:href="#DejaVuSans-75"/>
      <use x="314.128906" xlink:href="#DejaVuSans-74"/>
      <use x="353.337891" xlink:href="#DejaVuSans-65"/>
      <use x="414.861328" xlink:href="#DejaVuSans-2e"/>
      <use x="446.648438" xlink:href="#DejaVuSans-70"/>
      <use x="510.125" xlink:href="#DejaVuSans-68"/>
      <use x="573.503906" xlink:href="#DejaVuSans-69"/>
      <use x="601.287109" xlink:href="#DejaVuSans-20"/>
      <use x="633.074219" xlink:href="#DejaVuSans-5b"/>
      <use x="672.087891" xlink:href="#DejaVuSans-72"/>
      <use x="713.201172" xlink:href="#DejaVuSans-61"/>
      <use x="774.480469" xlink:href="#DejaVuSans-64"/>
      <use x="837.957031" xlink:href="#DejaVuSans-5d"/>
     </g>
    </g>
   </g>
  </g>
  <g id="axes_2">
   <g id="patch_8">
    <path d="M 57.6 212.771859 
L 414.72 212.771859 
L 414.72 134.829741 
L 57.6 134.829741 
z
" style="fill:#ffffff;"/>
   </g>
   <g id="matplotlib.axis_3">
    <g id="xtick_7">
     <g id="line2d_20">
      <path clip-path="url(#pe15da36db7)" d="M 73.832727 212.771859 
L 73.832727 134.829741 
" style="fill:none;stroke:#b0b0b0;stroke-linecap:square;stroke-width:0.8;"/>
     </g>
     <g id="line2d_21">
      <g>
       <use style="stroke:#000000;stroke-width:0.8;" x="73.832727" xlink:href="#mdd8dae2e03" y="212.771859"/>
      </g>
     </g>
     <g id="text_11">
      <!-- 0 -->
      <g transform="translate(70.651477 227.370296)scale(0.1 -0.1)">
       <use xlink:href="#DejaVuSans-30"/>
      </g>
     </g>
    </g>
    <g id="xtick_8">
     <g id="line2d_22">
      <path clip-path="url(#pe15da36db7)" d="M 138.763636 212.771859 
L 138.763636 134.829741 
" style="fill:none;stroke:#b0b0b0;stroke-linecap:square;stroke-width:0.8;"/>
     </g>
     <g id="line2d_23">
      <g>
       <use style="stroke:#000000;stroke-width:0.8;" x="138.763636" xlink:href="#mdd8dae2e03" y="212.771859"/>
      </g>
     </g>
     <g id="text_12">
      <!-- 1 -->
      <g transform="translate(135.582386 227.370296)scale(0.1 -0.1)">
       <use xlink:href="#DejaVuSans-31"/>
      </g>
     </g>
    </g>
    <g id="xtick_9">
     <g id="line2d_24">
      <path clip-path="url(#pe15da36db7)" d="M 203.694545 212.771859 
L 203.694545 134.829741 
" style="fill:none;stroke:#b0b0b0;stroke-linecap:square;stroke-width:0.8;"/>
     </g>
     <g id="line2d_25">
      <g>
       <use style="stroke:#000000;stroke-width:0.8;" x="203.694545" xlink:href="#mdd8dae2e03" y="212.771859"/>
      </g>
     </g>
     <g id="text_13">
      <!-- 2 -->
      <g transform="translate(200.513295 227.370296)scale(0.1 -0.1)">
       <use xlink:href="#DejaVuSans-32"/>
      </g>
     </g>
    </g>
    <g id="xtick_10">
     <g id="line2d_26">
      <path clip-path="url(#pe15da36db7)" d="M 268.625455 212.771859 
L 268.625455 134.829741 
" style="fill:none;stroke:#b0b0b0;stroke-linecap:square;stroke-width:0.8;"/>
     </g>
     <g id="line2d_27">
      <g>
       <use style="stroke:#000000;stroke-width:0.8;" x="268.625455" xlink:href="#mdd8dae2e03" y="212.771859"/>
      </g>
     </g>
     <g id="text_14">
      <!-- 3 -->
      <g transform="translate(265.444205 227.370296)scale(0.1 -0.1)">
       <use xlink:href="#DejaVuSans-33"/>
      </g>
     </g>
    </g>
    <g id="xtick_11">
     <g id="line2d_28">
      <path clip-path="url(#pe15da36db7)" d="M 333.556364 212.771859 
L 333.556364 134.829741 
" style="fill:none;stroke:#b0b0b0;stroke-linecap:square;stroke-width:0.8;"/>
     </g>
     <g id="line2d_29">
      <g>
       <use style="stroke:#000000;stroke-width:0.8;" x="333.556364" xlink:href="#mdd8dae2e03" y="212.771859"/>
      </g>
     </g>
     <g id="text_15">
      <!-- 4 -->
      <g transform="translate(330.375114 227.370296)scale(0.1 -0.1)">
       <use xlink:href="#DejaVuSans-34"/>
      </g>
     </g>
    </g>
    <g id="xtick_12">
     <g id="line2d_30">
      <path clip-path="url(#pe15da36db7)" d="M 398.487273 212.771859 
L 398.487273 134.829741 
" style="fill:none;stroke:#b0b0b0;stroke-linecap:square;stroke-width:0.8;"/>
     </g>
     <g id="line2d_31">
      <g>
       <use style="stroke:#000000;stroke-width:0.8;" x="398.487273" xlink:href="#mdd8dae2e03" y="212.771859"/>
      </g>
     </g>
     <g id="text_16">
      <!-- 5 -->
      <g transform="translate(395.306023 227.370296)scale(0.1 -0.1)">
       <use xlink:href="#DejaVuSans-35"/>
      </g>
     </g>
    </g>
   </g>
   <g id="matplotlib.axis_4">
    <g id="ytick_3">
     <g id="line2d_32">
      <path clip-path="url(#pe15da36db7)" d="M 57.6 202.080897 
L 414.72 202.080897 
" style="fill:none;stroke:#b0b0b0;stroke-linecap:square;stroke-width:0.8;"/>
     </g>
     <g id="line2d_33">
      <g>
       <use style="stroke:#000000;stroke-width:0.8;" x="57.6" xlink:href="#mbb43e3144c" y="202.080897"/>
      </g>
     </g>
     <g id="text_17">
      <!-- −5 -->
      <g transform="translate(35.857813 205.880116)scale(0.1 -0.1)">
       <use xlink:href="#DejaVuSans-2212"/>
       <use x="83.789062" xlink:href="#DejaVuSans-35"/>
      </g>
     </g>
    </g>
    <g id="ytick_4">
     <g id="line2d_34">
      <path clip-path="url(#pe15da36db7)" d="M 57.6 173.802217 
L 414.72 173.802217 
" style="fill:none;stroke:#b0b0b0;stroke-linecap:square;stroke-width:0.8;"/>
     </g>
     <g id="line2d_35">
      <g>
       <use style="stroke:#000000;stroke-width:0.8;" x="57.6" xlink:href="#mbb43e3144c" y="173.802217"/>
      </g>
     </g>
     <g id="text_18">
      <!-- 0 -->
      <g transform="translate(44.2375 177.601436)scale(0.1 -0.1)">
       <use xlink:href="#DejaVuSans-30"/>
      </g>
     </g>
    </g>
    <g id="ytick_5">
     <g id="line2d_36">
      <path clip-path="url(#pe15da36db7)" d="M 57.6 145.523537 
L 414.72 145.523537 
" style="fill:none;stroke:#b0b0b0;stroke-linecap:square;stroke-width:0.8;"/>
     </g>
     <g id="line2d_37">
      <g>
       <use style="stroke:#000000;stroke-width:0.8;" x="57.6" xlink:href="#mbb43e3144c" y="145.523537"/>
      </g>
     </g>
     <g id="text_19">
      <!-- 5 -->
      <g transform="translate(44.2375 149.322756)scale(0.1 -0.1)">
       <use xlink:href="#DejaVuSans-35"/>
      </g>
     </g>
    </g>
   </g>
   <g id="line2d_38">
    <path clip-path="url(#pe15da36db7)" d="M 73.832727 173.802218 
L 85.520291 193.567926 
L 88.766836 198.638854 
L 91.364073 202.279895 
L 93.312 204.642293 
L 95.259927 206.592965 
L 96.558545 207.623227 
L 97.857164 208.411877 
L 99.155782 208.941545 
L 100.4544 209.200485 
L 101.753018 209.182494 
L 103.051636 208.887973 
L 104.350255 208.323766 
L 105.648873 207.502639 
L 106.947491 206.442441 
L 108.895418 204.452426 
L 110.843345 202.05759 
L 113.440582 198.384954 
L 116.687127 193.287362 
L 121.8816 184.591073 
L 140.711564 152.700583 
L 143.958109 147.745779 
L 145.906036 145.083297 
L 147.853964 142.753701 
L 149.801891 140.844816 
L 151.100509 139.846628 
L 152.399127 139.092913 
L 153.697745 138.600796 
L 154.996364 138.381118 
L 156.294982 138.438972 
L 157.5936 138.773612 
L 158.892218 139.37695 
L 160.190836 140.234764 
L 161.489455 141.329383 
L 163.437382 143.364103 
L 165.385309 145.794749 
L 167.982545 149.50064 
L 171.229091 154.623445 
L 176.423564 163.336275 
L 195.253527 195.205374 
L 198.500073 200.128656 
L 200.448 202.762315 
L 202.395927 205.054324 
L 204.343855 206.917648 
L 205.642473 207.881113 
L 206.941091 208.597196 
L 208.239709 209.050023 
L 209.538327 209.229035 
L 210.836945 209.130023 
L 212.135564 208.755063 
L 213.434182 208.113249 
L 214.7328 207.2185 
L 216.031418 206.090754 
L 217.979345 204.012584 
L 219.927273 201.547406 
L 222.524509 197.808464 
L 225.771055 192.664195 
L 231.614836 182.836358 
L 249.146182 153.133502 
L 252.392727 148.136937 
L 254.989964 144.601443 
L 256.937891 142.347449 
L 258.236509 141.082717 
L 259.535127 140.036961 
L 260.833745 139.231368 
L 262.132364 138.683857 
L 263.430982 138.407053 
L 264.7296 138.407762 
L 266.028218 138.685474 
L 267.326836 139.234949 
L 268.625455 140.042272 
L 269.924073 141.091326 
L 271.872 143.06651 
L 273.819927 145.447645 
L 276.417164 149.104791 
L 279.663709 154.189846 
L 284.858182 162.881671 
L 303.688145 194.777517 
L 306.934691 199.743435 
L 308.882618 202.416389 
L 310.830545 204.759308 
L 312.778473 206.685081 
L 314.077091 207.696154 
L 315.375709 208.464009 
L 316.674327 208.971802 
L 317.972945 209.20795 
L 319.271564 209.166989 
L 320.570182 208.849894 
L 321.8688 208.264008 
L 323.167418 207.422543 
L 324.466036 206.3437 
L 326.413964 204.329399 
L 328.361891 201.915055 
L 330.959127 198.223483 
L 334.205673 193.112045 
L 339.400145 184.408182 
L 358.230109 152.529133 
L 361.476655 147.591798 
L 363.424582 144.945285 
L 365.372509 142.636569 
L 367.320436 140.75316 
L 368.619055 139.775026 
L 369.917673 139.043467 
L 371.216291 138.574128 
L 372.514909 138.377148 
L 373.813527 138.457437 
L 375.112145 138.813544 
L 376.410764 139.437771 
L 377.709382 140.315612 
L 379.008 141.427559 
L 380.955927 143.484134 
L 382.903855 145.931713 
L 385.501091 149.654932 
L 388.747636 154.789892 
L 393.942109 163.510907 
L 398.487273 171.27103 
L 398.487273 171.27103 
" style="fill:none;stroke:#1f77b4;stroke-linecap:square;stroke-width:1.5;"/>
   </g>
   <g id="patch_9">
    <path d="M 57.6 212.771859 
L 57.6 134.829741 
" style="fill:none;stroke:#000000;stroke-linecap:square;stroke-linejoin:miter;stroke-width:0.8;"/>
   </g>
   <g id="patch_10">
    <path d="M 414.72 212.771859 
L 414.72 134.829741 
" style="fill:none;stroke:#000000;stroke-linecap:square;stroke-linejoin:miter;stroke-width:0.8;"/>
   </g>
   <g id="patch_11">
    <path d="M 57.6 212.771859 
L 414.72 212.771859 
" style="fill:none;stroke:#000000;stroke-linecap:square;stroke-linejoin:miter;stroke-width:0.8;"/>
   </g>
   <g id="patch_12">
    <path d="M 57.6 134.829741 
L 414.72 134.829741 
" style="fill:none;stroke:#000000;stroke-linecap:square;stroke-linejoin:miter;stroke-width:0.8;"/>
   </g>
   <g id="legend_2">
    <g id="patch_13">
     <path d="M 286.729375 182.639863 
L 407.72 182.639863 
Q 409.72 182.639863 409.72 180.639863 
L 409.72 166.961738 
Q 409.72 164.961738 407.72 164.961738 
L 286.729375 164.961738 
Q 284.729375 164.961738 284.729375 166.961738 
L 284.729375 180.639863 
Q 284.729375 182.639863 286.729375 182.639863 
z
" style="fill:#ffffff;opacity:0.8;stroke:#cccccc;stroke-linejoin:miter;"/>
    </g>
    <g id="line2d_39">
     <path d="M 288.729375 173.060175 
L 308.729375 173.060175 
" style="fill:none;stroke:#1f77b4;stroke-linecap:square;stroke-width:1.5;"/>
    </g>
    <g id="line2d_40"/>
    <g id="text_20">
     <!-- revolute.w [rad/s] -->
     <defs>
      <path d="M 4.203125 54.6875 
L 13.1875 54.6875 
L 24.421875 12.015625 
L 35.59375 54.6875 
L 46.1875 54.6875 
L 57.421875 12.015625 
L 68.609375 54.6875 
L 77.59375 54.6875 
L 63.28125 0 
L 52.6875 0 
L 40.921875 44.828125 
L 29.109375 0 
L 18.5 0 
z
" id="DejaVuSans-77"/>
      <path d="M 25.390625 72.90625 
L 33.6875 72.90625 
L 8.296875 -9.28125 
L 0 -9.28125 
z
" id="DejaVuSans-2f"/>
      <path d="M 44.28125 53.078125 
L 44.28125 44.578125 
Q 40.484375 46.53125 36.375 47.5 
Q 32.28125 48.484375 27.875 48.484375 
Q 21.1875 48.484375 17.84375 46.4375 
Q 14.5 44.390625 14.5 40.28125 
Q 14.5 37.15625 16.890625 35.375 
Q 19.28125 33.59375 26.515625 31.984375 
L 29.59375 31.296875 
Q 39.15625 29.25 43.1875 25.515625 
Q 47.21875 21.78125 47.21875 15.09375 
Q 47.21875 7.46875 41.1875 3.015625 
Q 35.15625 -1.421875 24.609375 -1.421875 
Q 20.21875 -1.421875 15.453125 -0.5625 
Q 10.6875 0.296875 5.421875 2 
L 5.421875 11.28125 
Q 10.40625 8.6875 15.234375 7.390625 
Q 20.0625 6.109375 24.8125 6.109375 
Q 31.15625 6.109375 34.5625 8.28125 
Q 37.984375 10.453125 37.984375 14.40625 
Q 37.984375 18.0625 35.515625 20.015625 
Q 33.0625 21.96875 24.703125 23.78125 
L 21.578125 24.515625 
Q 13.234375 26.265625 9.515625 29.90625 
Q 5.8125 33.546875 5.8125 39.890625 
Q 5.8125 47.609375 11.28125 51.796875 
Q 16.75 56 26.8125 56 
Q 31.78125 56 36.171875 55.265625 
Q 40.578125 54.546875 44.28125 53.078125 
z
" id="DejaVuSans-73"/>
     </defs>
     <g transform="translate(316.729375 176.560175)scale(0.1 -0.1)">
      <use xlink:href="#DejaVuSans-72"/>
      <use x="41.082031" xlink:href="#DejaVuSans-65"/>
      <use x="102.605469" xlink:href="#DejaVuSans-76"/>
      <use x="161.785156" xlink:href="#DejaVuSans-6f"/>
      <use x="222.966797" xlink:href="#DejaVuSans-6c"/>
      <use x="250.75" xlink:href="#DejaVuSans-75"/>
      <use x="314.128906" xlink:href="#DejaVuSans-74"/>
      <use x="353.337891" xlink:href="#DejaVuSans-65"/>
      <use x="414.861328" xlink:href="#DejaVuSans-2e"/>
      <use x="446.648438" xlink:href="#DejaVuSans-77"/>
      <use x="528.435547" xlink:href="#DejaVuSans-20"/>
      <use x="560.222656" xlink:href="#DejaVuSans-5b"/>
      <use x="599.236328" xlink:href="#DejaVuSans-72"/>
      <use x="640.349609" xlink:href="#DejaVuSans-61"/>
      <use x="701.628906" xlink:href="#DejaVuSans-64"/>
      <use x="765.105469" xlink:href="#DejaVuSans-2f"/>
      <use x="798.796875" xlink:href="#DejaVuSans-73"/>
      <use x="850.896484" xlink:href="#DejaVuSans-5d"/>
     </g>
    </g>
   </g>
  </g>
  <g id="axes_3">
   <g id="patch_14">
    <path d="M 57.6 306.3024 
L 414.72 306.3024 
L 414.72 228.360282 
L 57.6 228.360282 
z
" style="fill:#ffffff;"/>
   </g>
   <g id="matplotlib.axis_5">
    <g id="xtick_13">
     <g id="line2d_41">
      <path clip-path="url(#p05cfefa3fb)" d="M 73.832727 306.3024 
L 73.832727 228.360282 
" style="fill:none;stroke:#b0b0b0;stroke-linecap:square;stroke-width:0.8;"/>
     </g>
     <g id="line2d_42">
      <g>
       <use style="stroke:#000000;stroke-width:0.8;" x="73.832727" xlink:href="#mdd8dae2e03" y="306.3024"/>
      </g>
     </g>
     <g id="text_21">
      <!-- 0 -->
      <g transform="translate(70.651477 320.900838)scale(0.1 -0.1)">
       <use xlink:href="#DejaVuSans-30"/>
      </g>
     </g>
    </g>
    <g id="xtick_14">
     <g id="line2d_43">
      <path clip-path="url(#p05cfefa3fb)" d="M 138.763636 306.3024 
L 138.763636 228.360282 
" style="fill:none;stroke:#b0b0b0;stroke-linecap:square;stroke-width:0.8;"/>
     </g>
     <g id="line2d_44">
      <g>
       <use style="stroke:#000000;stroke-width:0.8;" x="138.763636" xlink:href="#mdd8dae2e03" y="306.3024"/>
      </g>
     </g>
     <g id="text_22">
      <!-- 1 -->
      <g transform="translate(135.582386 320.900838)scale(0.1 -0.1)">
       <use xlink:href="#DejaVuSans-31"/>
      </g>
     </g>
    </g>
    <g id="xtick_15">
     <g id="line2d_45">
      <path clip-path="url(#p05cfefa3fb)" d="M 203.694545 306.3024 
L 203.694545 228.360282 
" style="fill:none;stroke:#b0b0b0;stroke-linecap:square;stroke-width:0.8;"/>
     </g>
     <g id="line2d_46">
      <g>
       <use style="stroke:#000000;stroke-width:0.8;" x="203.694545" xlink:href="#mdd8dae2e03" y="306.3024"/>
      </g>
     </g>
     <g id="text_23">
      <!-- 2 -->
      <g transform="translate(200.513295 320.900838)scale(0.1 -0.1)">
       <use xlink:href="#DejaVuSans-32"/>
      </g>
     </g>
    </g>
    <g id="xtick_16">
     <g id="line2d_47">
      <path clip-path="url(#p05cfefa3fb)" d="M 268.625455 306.3024 
L 268.625455 228.360282 
" style="fill:none;stroke:#b0b0b0;stroke-linecap:square;stroke-width:0.8;"/>
     </g>
     <g id="line2d_48">
      <g>
       <use style="stroke:#000000;stroke-width:0.8;" x="268.625455" xlink:href="#mdd8dae2e03" y="306.3024"/>
      </g>
     </g>
     <g id="text_24">
      <!-- 3 -->
      <g transform="translate(265.444205 320.900838)scale(0.1 -0.1)">
       <use xlink:href="#DejaVuSans-33"/>
      </g>
     </g>
    </g>
    <g id="xtick_17">
     <g id="line2d_49">
      <path clip-path="url(#p05cfefa3fb)" d="M 333.556364 306.3024 
L 333.556364 228.360282 
" style="fill:none;stroke:#b0b0b0;stroke-linecap:square;stroke-width:0.8;"/>
     </g>
     <g id="line2d_50">
      <g>
       <use style="stroke:#000000;stroke-width:0.8;" x="333.556364" xlink:href="#mdd8dae2e03" y="306.3024"/>
      </g>
     </g>
     <g id="text_25">
      <!-- 4 -->
      <g transform="translate(330.375114 320.900838)scale(0.1 -0.1)">
       <use xlink:href="#DejaVuSans-34"/>
      </g>
     </g>
    </g>
    <g id="xtick_18">
     <g id="line2d_51">
      <path clip-path="url(#p05cfefa3fb)" d="M 398.487273 306.3024 
L 398.487273 228.360282 
" style="fill:none;stroke:#b0b0b0;stroke-linecap:square;stroke-width:0.8;"/>
     </g>
     <g id="line2d_52">
      <g>
       <use style="stroke:#000000;stroke-width:0.8;" x="398.487273" xlink:href="#mdd8dae2e03" y="306.3024"/>
      </g>
     </g>
     <g id="text_26">
      <!-- 5 -->
      <g transform="translate(395.306023 320.900838)scale(0.1 -0.1)">
       <use xlink:href="#DejaVuSans-35"/>
      </g>
     </g>
    </g>
    <g id="text_27">
     <!-- time [s] -->
     <g transform="translate(216.768594 334.578963)scale(0.1 -0.1)">
      <use xlink:href="#DejaVuSans-74"/>
      <use x="39.208984" xlink:href="#DejaVuSans-69"/>
      <use x="66.992188" xlink:href="#DejaVuSans-6d"/>
      <use x="164.404297" xlink:href="#DejaVuSans-65"/>
      <use x="225.927734" xlink:href="#DejaVuSans-20"/>
      <use x="257.714844" xlink:href="#DejaVuSans-5b"/>
      <use x="296.728516" xlink:href="#DejaVuSans-73"/>
      <use x="348.828125" xlink:href="#DejaVuSans-5d"/>
     </g>
    </g>
   </g>
   <g id="matplotlib.axis_6">
    <g id="ytick_6">
     <g id="line2d_53">
      <path clip-path="url(#p05cfefa3fb)" d="M 57.6 303.444377 
L 414.72 303.444377 
" style="fill:none;stroke:#b0b0b0;stroke-linecap:square;stroke-width:0.8;"/>
     </g>
     <g id="line2d_54">
      <g>
       <use style="stroke:#000000;stroke-width:0.8;" x="57.6" xlink:href="#mbb43e3144c" y="303.444377"/>
      </g>
     </g>
     <g id="text_28">
      <!-- −20 -->
      <g transform="translate(29.495313 307.243595)scale(0.1 -0.1)">
       <use xlink:href="#DejaVuSans-2212"/>
       <use x="83.789062" xlink:href="#DejaVuSans-32"/>
       <use x="147.412109" xlink:href="#DejaVuSans-30"/>
      </g>
     </g>
    </g>
    <g id="ytick_7">
     <g id="line2d_55">
      <path clip-path="url(#p05cfefa3fb)" d="M 57.6 267.331952 
L 414.72 267.331952 
" style="fill:none;stroke:#b0b0b0;stroke-linecap:square;stroke-width:0.8;"/>
     </g>
     <g id="line2d_56">
      <g>
       <use style="stroke:#000000;stroke-width:0.8;" x="57.6" xlink:href="#mbb43e3144c" y="267.331952"/>
      </g>
     </g>
     <g id="text_29">
      <!-- 0 -->
      <g transform="translate(44.2375 271.13117)scale(0.1 -0.1)">
       <use xlink:href="#DejaVuSans-30"/>
      </g>
     </g>
    </g>
    <g id="ytick_8">
     <g id="line2d_57">
      <path clip-path="url(#p05cfefa3fb)" d="M 57.6 231.219526 
L 414.72 231.219526 
" style="fill:none;stroke:#b0b0b0;stroke-linecap:square;stroke-width:0.8;"/>
     </g>
     <g id="line2d_58">
      <g>
       <use style="stroke:#000000;stroke-width:0.8;" x="57.6" xlink:href="#mbb43e3144c" y="231.219526"/>
      </g>
     </g>
     <g id="text_30">
      <!-- 20 -->
      <g transform="translate(37.875 235.018745)scale(0.1 -0.1)">
       <use xlink:href="#DejaVuSans-32"/>
       <use x="63.623047" xlink:href="#DejaVuSans-30"/>
      </g>
     </g>
    </g>
   </g>
   <g id="line2d_59">
    <path clip-path="url(#p05cfefa3fb)" d="M 73.832727 302.758241 
L 79.0272 302.671338 
L 81.624436 302.389581 
L 83.572364 301.882641 
L 85.520291 300.994943 
L 86.818909 300.052873 
L 88.117527 298.865033 
L 89.416145 297.356231 
L 90.714764 295.459546 
L 92.013382 293.150897 
L 93.312 290.437144 
L 94.610618 287.306579 
L 96.558545 281.906023 
L 99.155782 273.652569 
L 104.999564 254.212003 
L 106.947491 248.614398 
L 108.895418 243.845969 
L 110.194036 241.180131 
L 111.492655 238.928416 
L 112.791273 237.078075 
L 114.089891 235.599561 
L 115.388509 234.448426 
L 116.687127 233.58603 
L 117.985745 232.963634 
L 119.284364 232.53367 
L 121.232291 232.143826 
L 123.829527 231.938989 
L 128.374691 231.906048 
L 133.569164 231.986744 
L 135.517091 232.178455 
L 137.465018 232.60746 
L 138.763636 233.085153 
L 140.062255 233.771012 
L 141.360873 234.716691 
L 142.659491 235.94755 
L 143.958109 237.525718 
L 145.256727 239.492858 
L 146.555345 241.846577 
L 147.853964 244.622832 
L 149.152582 247.820008 
L 151.100509 253.297275 
L 153.048436 259.469396 
L 160.190836 282.972909 
L 162.138764 288.235733 
L 163.437382 291.230181 
L 164.736 293.850045 
L 166.034618 296.035197 
L 167.333236 297.811685 
L 168.631855 299.252055 
L 169.930473 300.365917 
L 171.229091 301.201689 
L 172.527709 301.792523 
L 174.475636 302.342975 
L 176.423564 302.618322 
L 179.0208 302.743649 
L 186.1632 302.741536 
L 188.760436 302.615541 
L 190.708364 302.334386 
L 192.656291 301.765295 
L 193.954909 301.157453 
L 195.253527 300.313132 
L 196.552145 299.187833 
L 197.850764 297.729655 
L 199.149382 295.913997 
L 200.448 293.698172 
L 201.746618 291.064806 
L 203.045236 288.023052 
L 204.993164 282.726215 
L 206.941091 276.697514 
L 210.836945 263.541217 
L 213.434182 255.018927 
L 215.382109 249.310407 
L 217.330036 244.43325 
L 218.628655 241.678973 
L 219.927273 239.352008 
L 221.225891 237.426596 
L 222.524509 235.880243 
L 223.823127 234.66103 
L 225.121745 233.750326 
L 226.420364 233.079895 
L 227.718982 232.607055 
L 229.666909 232.186844 
L 231.614836 231.9931 
L 234.861382 231.911592 
L 242.003782 231.971289 
L 243.951709 232.143417 
L 245.899636 232.532426 
L 247.198255 232.975051 
L 248.496873 233.612798 
L 249.795491 234.497127 
L 251.094109 235.664565 
L 252.392727 237.172907 
L 253.691345 239.043055 
L 254.989964 241.322974 
L 256.288582 244.011599 
L 257.5872 247.125444 
L 259.535127 252.49901 
L 261.483055 258.582794 
L 269.274764 284.093314 
L 271.222691 289.1831 
L 272.521309 292.058158 
L 273.819927 294.523234 
L 275.118545 296.587245 
L 276.417164 298.261237 
L 277.715782 299.606002 
L 279.0144 300.615473 
L 280.313018 301.37372 
L 281.611636 301.919336 
L 282.910255 302.284485 
L 284.858182 302.592923 
L 287.455418 302.730825 
L 294.597818 302.747298 
L 297.844364 302.575823 
L 299.792291 302.249108 
L 301.090909 301.865332 
L 302.389527 301.298987 
L 303.688145 300.506559 
L 304.986764 299.440372 
L 306.285382 298.055449 
L 307.584 296.311192 
L 308.882618 294.175391 
L 310.181236 291.627044 
L 311.479855 288.666261 
L 313.427782 283.484817 
L 315.375709 277.551517 
L 318.622255 266.676942 
L 321.8688 255.896327 
L 323.816727 250.095576 
L 325.764655 245.08446 
L 327.063273 242.244768 
L 328.361891 239.820886 
L 329.660509 237.804275 
L 330.959127 236.171247 
L 332.257745 234.89029 
L 333.556364 233.911664 
L 334.854982 233.199868 
L 336.1536 232.685656 
L 338.101527 232.220284 
L 340.698764 231.959313 
L 345.243927 231.904323 
L 351.087709 231.993248 
L 353.035636 232.196721 
L 354.983564 232.640905 
L 356.282182 233.135408 
L 357.5808 233.840363 
L 358.879418 234.801803 
L 360.178036 236.064843 
L 361.476655 237.680463 
L 362.775273 239.664988 
L 364.073891 242.058855 
L 365.372509 244.874053 
L 366.671127 248.094404 
L 368.619055 253.634797 
L 371.216291 261.993071 
L 377.060073 281.359011 
L 379.008 286.837754 
L 380.955927 291.453217 
L 382.254545 294.01984 
L 383.553164 296.180593 
L 384.851782 297.946412 
L 386.1504 299.350044 
L 387.449018 300.43641 
L 388.747636 301.249094 
L 390.046255 301.835688 
L 391.994182 302.373209 
L 393.942109 302.631834 
L 396.539345 302.745606 
L 398.487273 302.759576 
L 398.487273 302.759576 
" style="fill:none;stroke:#1f77b4;stroke-linecap:square;stroke-width:1.5;"/>
   </g>
   <g id="patch_15">
    <path d="M 57.6 306.3024 
L 57.6 228.360282 
" style="fill:none;stroke:#000000;stroke-linecap:square;stroke-linejoin:miter;stroke-width:0.8;"/>
   </g>
   <g id="patch_16">
    <path d="M 414.72 306.3024 
L 414.72 228.360282 
" style="fill:none;stroke:#000000;stroke-linecap:square;stroke-linejoin:miter;stroke-width:0.8;"/>
   </g>
   <g id="patch_17">
    <path d="M 57.6 306.3024 
L 414.72 306.3024 
" style="fill:none;stroke:#000000;stroke-linecap:square;stroke-linejoin:miter;stroke-width:0.8;"/>
   </g>
   <g id="patch_18">
    <path d="M 57.6 228.360282 
L 414.72 228.360282 
" style="fill:none;stroke:#000000;stroke-linecap:square;stroke-linejoin:miter;stroke-width:0.8;"/>
   </g>
   <g id="legend_3">
    <g id="patch_19">
     <path d="M 274.037188 276.170404 
L 407.72 276.170404 
Q 409.72 276.170404 409.72 274.170404 
L 409.72 260.492279 
Q 409.72 258.492279 407.72 258.492279 
L 274.037188 258.492279 
Q 272.037188 258.492279 272.037188 260.492279 
L 272.037188 274.170404 
Q 272.037188 276.170404 274.037188 276.170404 
z
" style="fill:#ffffff;opacity:0.8;stroke:#cccccc;stroke-linejoin:miter;"/>
    </g>
    <g id="line2d_60">
     <path d="M 276.037188 266.590716 
L 296.037188 266.590716 
" style="fill:none;stroke:#1f77b4;stroke-linecap:square;stroke-width:1.5;"/>
    </g>
    <g id="line2d_61"/>
    <g id="text_31">
     <!-- revolute.a [rad/s^2] -->
     <defs>
      <path d="M 46.6875 72.90625 
L 73.1875 45.703125 
L 63.375 45.703125 
L 41.890625 64.984375 
L 20.40625 45.703125 
L 10.59375 45.703125 
L 37.109375 72.90625 
z
" id="DejaVuSans-5e"/>
     </defs>
     <g transform="translate(304.037188 270.090716)scale(0.1 -0.1)">
      <use xlink:href="#DejaVuSans-72"/>
      <use x="41.082031" xlink:href="#DejaVuSans-65"/>
      <use x="102.605469" xlink:href="#DejaVuSans-76"/>
      <use x="161.785156" xlink:href="#DejaVuSans-6f"/>
      <use x="222.966797" xlink:href="#DejaVuSans-6c"/>
      <use x="250.75" xlink:href="#DejaVuSans-75"/>
      <use x="314.128906" xlink:href="#DejaVuSans-74"/>
      <use x="353.337891" xlink:href="#DejaVuSans-65"/>
      <use x="414.861328" xlink:href="#DejaVuSans-2e"/>
      <use x="446.648438" xlink:href="#DejaVuSans-61"/>
      <use x="507.927734" xlink:href="#DejaVuSans-20"/>
      <use x="539.714844" xlink:href="#DejaVuSans-5b"/>
      <use x="578.728516" xlink:href="#DejaVuSans-72"/>
      <use x="619.841797" xlink:href="#DejaVuSans-61"/>
      <use x="681.121094" xlink:href="#DejaVuSans-64"/>
      <use x="744.597656" xlink:href="#DejaVuSans-2f"/>
      <use x="778.289062" xlink:href="#DejaVuSans-73"/>
      <use x="830.388672" xlink:href="#DejaVuSans-5e"/>
      <use x="914.177734" xlink:href="#DejaVuSans-32"/>
      <use x="977.800781" xlink:href="#DejaVuSans-5d"/>
     </g>
    </g>
   </g>
  </g>
 </g>
 <defs>
  <clipPath id="peaceb27634">
   <rect height="77.942118" width="357.12" x="57.6" y="41.2992"/>
  </clipPath>
  <clipPath id="pe15da36db7">
   <rect height="77.942118" width="357.12" x="57.6" y="134.829741"/>
  </clipPath>
  <clipPath id="p05cfefa3fb">
   <rect height="77.942118" width="357.12" x="57.6" y="228.360282"/>
  </clipPath>
 </defs>
</svg>
