<?xml version="1.0" encoding="utf-8" standalone="no"?>
<!DOCTYPE svg PUBLIC "-//W3C//DTD SVG 1.1//EN"
  "http://www.w3.org/Graphics/SVG/1.1/DTD/svg11.dtd">
<!-- Created with matplotlib (https://matplotlib.org/) -->
<svg height="352.8pt" version="1.1" viewBox="0 0 519.12 352.8" width="519.12pt" xmlns="http://www.w3.org/2000/svg" xmlns:xlink="http://www.w3.org/1999/xlink">
 <metadata>
  <rdf:RDF xmlns:cc="http://creativecommons.org/ns#" xmlns:dc="http://purl.org/dc/elements/1.1/" xmlns:rdf="http://www.w3.org/1999/02/22-rdf-syntax-ns#">
   <cc:Work>
    <dc:type rdf:resource="http://purl.org/dc/dcmitype/StillImage"/>
    <dc:date>2022-02-25T07:57:35.207552</dc:date>
    <dc:format>image/svg+xml</dc:format>
    <dc:creator>
     <cc:Agent>
      <dc:title>Matplotlib v3.3.4, https://matplotlib.org/</dc:title>
     </cc:Agent>
    </dc:creator>
   </cc:Work>
  </rdf:RDF>
 </metadata>
 <defs>
  <style type="text/css">*{stroke-linecap:butt;stroke-linejoin:round;}</style>
 </defs>
 <g id="figure_1">
  <g id="patch_1">
   <path d="M 0 352.8 
L 519.12 352.8 
L 519.12 0 
L 0 0 
z
" style="fill:#ffffff;"/>
  </g>
  <g id="axes_1">
   <g id="patch_2">
    <path d="M 64.89 313.992 
L 467.208 313.992 
L 467.208 42.336 
L 64.89 42.336 
z
" style="fill:#ffffff;"/>
   </g>
   <g id="matplotlib.axis_1">
    <g id="xtick_1">
     <g id="line2d_1">
      <path clip-path="url(#p105b3917d9)" d="M 83.177182 313.992 
L 83.177182 42.336 
" style="fill:none;stroke:#b0b0b0;stroke-linecap:square;stroke-width:0.5;"/>
     </g>
     <g id="line2d_2">
      <defs>
       <path d="M 0 0 
L 0 3.5 
" id="mce2728bb7a" style="stroke:#000000;stroke-width:0.8;"/>
      </defs>
      <g>
       <use style="stroke:#000000;stroke-width:0.8;" x="83.177182" xlink:href="#mce2728bb7a" y="313.992"/>
      </g>
     </g>
     <g id="text_1">
      <!-- 0.005 -->
      <g transform="translate(68.863119 328.590438)scale(0.1 -0.1)">
       <defs>
        <path d="M 31.78125 66.40625 
Q 24.171875 66.40625 20.328125 58.90625 
Q 16.5 51.421875 16.5 36.375 
Q 16.5 21.390625 20.328125 13.890625 
Q 24.171875 6.390625 31.78125 6.390625 
Q 39.453125 6.390625 43.28125 13.890625 
Q 47.125 21.390625 47.125 36.375 
Q 47.125 51.421875 43.28125 58.90625 
Q 39.453125 66.40625 31.78125 66.40625 
z
M 31.78125 74.21875 
Q 44.046875 74.21875 50.515625 64.515625 
Q 56.984375 54.828125 56.984375 36.375 
Q 56.984375 17.96875 50.515625 8.265625 
Q 44.046875 -1.421875 31.78125 -1.421875 
Q 19.53125 -1.421875 13.0625 8.265625 
Q 6.59375 17.96875 6.59375 36.375 
Q 6.59375 54.828125 13.0625 64.515625 
Q 19.53125 74.21875 31.78125 74.21875 
z
" id="DejaVuSans-48"/>
        <path d="M 10.6875 12.40625 
L 21 12.40625 
L 21 0 
L 10.6875 0 
z
" id="DejaVuSans-46"/>
        <path d="M 10.796875 72.90625 
L 49.515625 72.90625 
L 49.515625 64.59375 
L 19.828125 64.59375 
L 19.828125 46.734375 
Q 21.96875 47.46875 24.109375 47.828125 
Q 26.265625 48.1875 28.421875 48.1875 
Q 40.625 48.1875 47.75 41.5 
Q 54.890625 34.8125 54.890625 23.390625 
Q 54.890625 11.625 47.5625 5.09375 
Q 40.234375 -1.421875 26.90625 -1.421875 
Q 22.3125 -1.421875 17.546875 -0.640625 
Q 12.796875 0.140625 7.71875 1.703125 
L 7.71875 11.625 
Q 12.109375 9.234375 16.796875 8.0625 
Q 21.484375 6.890625 26.703125 6.890625 
Q 35.15625 6.890625 40.078125 11.328125 
Q 45.015625 15.765625 45.015625 23.390625 
Q 45.015625 31 40.078125 35.4375 
Q 35.15625 39.890625 26.703125 39.890625 
Q 22.75 39.890625 18.8125 39.015625 
Q 14.890625 38.140625 10.796875 36.28125 
z
" id="DejaVuSans-53"/>
       </defs>
       <use xlink:href="#DejaVuSans-48"/>
       <use x="63.623047" xlink:href="#DejaVuSans-46"/>
       <use x="95.410156" xlink:href="#DejaVuSans-48"/>
       <use x="159.033203" xlink:href="#DejaVuSans-48"/>
       <use x="222.65625" xlink:href="#DejaVuSans-53"/>
      </g>
     </g>
    </g>
    <g id="xtick_2">
     <g id="line2d_3">
      <path clip-path="url(#p105b3917d9)" d="M 135.426273 313.992 
L 135.426273 42.336 
" style="fill:none;stroke:#b0b0b0;stroke-linecap:square;stroke-width:0.5;"/>
     </g>
     <g id="line2d_4">
      <g>
       <use style="stroke:#000000;stroke-width:0.8;" x="135.426273" xlink:href="#mce2728bb7a" y="313.992"/>
      </g>
     </g>
     <g id="text_2">
      <!-- 0.010 -->
      <g transform="translate(121.11221 328.590438)scale(0.1 -0.1)">
       <defs>
        <path d="M 12.40625 8.296875 
L 28.515625 8.296875 
L 28.515625 63.921875 
L 10.984375 60.40625 
L 10.984375 69.390625 
L 28.421875 72.90625 
L 38.28125 72.90625 
L 38.28125 8.296875 
L 54.390625 8.296875 
L 54.390625 0 
L 12.40625 0 
z
" id="DejaVuSans-49"/>
       </defs>
       <use xlink:href="#DejaVuSans-48"/>
       <use x="63.623047" xlink:href="#DejaVuSans-46"/>
       <use x="95.410156" xlink:href="#DejaVuSans-48"/>
       <use x="159.033203" xlink:href="#DejaVuSans-49"/>
       <use x="222.65625" xlink:href="#DejaVuSans-48"/>
      </g>
     </g>
    </g>
    <g id="xtick_3">
     <g id="line2d_5">
      <path clip-path="url(#p105b3917d9)" d="M 187.675364 313.992 
L 187.675364 42.336 
" style="fill:none;stroke:#b0b0b0;stroke-linecap:square;stroke-width:0.5;"/>
     </g>
     <g id="line2d_6">
      <g>
       <use style="stroke:#000000;stroke-width:0.8;" x="187.675364" xlink:href="#mce2728bb7a" y="313.992"/>
      </g>
     </g>
     <g id="text_3">
      <!-- 0.015 -->
      <g transform="translate(173.361301 328.590438)scale(0.1 -0.1)">
       <use xlink:href="#DejaVuSans-48"/>
       <use x="63.623047" xlink:href="#DejaVuSans-46"/>
       <use x="95.410156" xlink:href="#DejaVuSans-48"/>
       <use x="159.033203" xlink:href="#DejaVuSans-49"/>
       <use x="222.65625" xlink:href="#DejaVuSans-53"/>
      </g>
     </g>
    </g>
    <g id="xtick_4">
     <g id="line2d_7">
      <path clip-path="url(#p105b3917d9)" d="M 239.924455 313.992 
L 239.924455 42.336 
" style="fill:none;stroke:#b0b0b0;stroke-linecap:square;stroke-width:0.5;"/>
     </g>
     <g id="line2d_8">
      <g>
       <use style="stroke:#000000;stroke-width:0.8;" x="239.924455" xlink:href="#mce2728bb7a" y="313.992"/>
      </g>
     </g>
     <g id="text_4">
      <!-- 0.020 -->
      <g transform="translate(225.610392 328.590438)scale(0.1 -0.1)">
       <defs>
        <path d="M 19.1875 8.296875 
L 53.609375 8.296875 
L 53.609375 0 
L 7.328125 0 
L 7.328125 8.296875 
Q 12.9375 14.109375 22.625 23.890625 
Q 32.328125 33.6875 34.8125 36.53125 
Q 39.546875 41.84375 41.421875 45.53125 
Q 43.3125 49.21875 43.3125 52.78125 
Q 43.3125 58.59375 39.234375 62.25 
Q 35.15625 65.921875 28.609375 65.921875 
Q 23.96875 65.921875 18.8125 64.3125 
Q 13.671875 62.703125 7.8125 59.421875 
L 7.8125 69.390625 
Q 13.765625 71.78125 18.9375 73 
Q 24.125 74.21875 28.421875 74.21875 
Q 39.75 74.21875 46.484375 68.546875 
Q 53.21875 62.890625 53.21875 53.421875 
Q 53.21875 48.921875 51.53125 44.890625 
Q 49.859375 40.875 45.40625 35.40625 
Q 44.1875 33.984375 37.640625 27.21875 
Q 31.109375 20.453125 19.1875 8.296875 
z
" id="DejaVuSans-50"/>
       </defs>
       <use xlink:href="#DejaVuSans-48"/>
       <use x="63.623047" xlink:href="#DejaVuSans-46"/>
       <use x="95.410156" xlink:href="#DejaVuSans-48"/>
       <use x="159.033203" xlink:href="#DejaVuSans-50"/>
       <use x="222.65625" xlink:href="#DejaVuSans-48"/>
      </g>
     </g>
    </g>
    <g id="xtick_5">
     <g id="line2d_9">
      <path clip-path="url(#p105b3917d9)" d="M 292.173545 313.992 
L 292.173545 42.336 
" style="fill:none;stroke:#b0b0b0;stroke-linecap:square;stroke-width:0.5;"/>
     </g>
     <g id="line2d_10">
      <g>
       <use style="stroke:#000000;stroke-width:0.8;" x="292.173545" xlink:href="#mce2728bb7a" y="313.992"/>
      </g>
     </g>
     <g id="text_5">
      <!-- 0.025 -->
      <g transform="translate(277.859483 328.590438)scale(0.1 -0.1)">
       <use xlink:href="#DejaVuSans-48"/>
       <use x="63.623047" xlink:href="#DejaVuSans-46"/>
       <use x="95.410156" xlink:href="#DejaVuSans-48"/>
       <use x="159.033203" xlink:href="#DejaVuSans-50"/>
       <use x="222.65625" xlink:href="#DejaVuSans-53"/>
      </g>
     </g>
    </g>
    <g id="xtick_6">
     <g id="line2d_11">
      <path clip-path="url(#p105b3917d9)" d="M 344.422636 313.992 
L 344.422636 42.336 
" style="fill:none;stroke:#b0b0b0;stroke-linecap:square;stroke-width:0.5;"/>
     </g>
     <g id="line2d_12">
      <g>
       <use style="stroke:#000000;stroke-width:0.8;" x="344.422636" xlink:href="#mce2728bb7a" y="313.992"/>
      </g>
     </g>
     <g id="text_6">
      <!-- 0.030 -->
      <g transform="translate(330.108574 328.590438)scale(0.1 -0.1)">
       <defs>
        <path d="M 40.578125 39.3125 
Q 47.65625 37.796875 51.625 33 
Q 55.609375 28.21875 55.609375 21.1875 
Q 55.609375 10.40625 48.1875 4.484375 
Q 40.765625 -1.421875 27.09375 -1.421875 
Q 22.515625 -1.421875 17.65625 -0.515625 
Q 12.796875 0.390625 7.625 2.203125 
L 7.625 11.71875 
Q 11.71875 9.328125 16.59375 8.109375 
Q 21.484375 6.890625 26.8125 6.890625 
Q 36.078125 6.890625 40.9375 10.546875 
Q 45.796875 14.203125 45.796875 21.1875 
Q 45.796875 27.640625 41.28125 31.265625 
Q 36.765625 34.90625 28.71875 34.90625 
L 20.21875 34.90625 
L 20.21875 43.015625 
L 29.109375 43.015625 
Q 36.375 43.015625 40.234375 45.921875 
Q 44.09375 48.828125 44.09375 54.296875 
Q 44.09375 59.90625 40.109375 62.90625 
Q 36.140625 65.921875 28.71875 65.921875 
Q 24.65625 65.921875 20.015625 65.03125 
Q 15.375 64.15625 9.8125 62.3125 
L 9.8125 71.09375 
Q 15.4375 72.65625 20.34375 73.4375 
Q 25.25 74.21875 29.59375 74.21875 
Q 40.828125 74.21875 47.359375 69.109375 
Q 53.90625 64.015625 53.90625 55.328125 
Q 53.90625 49.265625 50.4375 45.09375 
Q 46.96875 40.921875 40.578125 39.3125 
z
" id="DejaVuSans-51"/>
       </defs>
       <use xlink:href="#DejaVuSans-48"/>
       <use x="63.623047" xlink:href="#DejaVuSans-46"/>
       <use x="95.410156" xlink:href="#DejaVuSans-48"/>
       <use x="159.033203" xlink:href="#DejaVuSans-51"/>
       <use x="222.65625" xlink:href="#DejaVuSans-48"/>
      </g>
     </g>
    </g>
    <g id="xtick_7">
     <g id="line2d_13">
      <path clip-path="url(#p105b3917d9)" d="M 396.671727 313.992 
L 396.671727 42.336 
" style="fill:none;stroke:#b0b0b0;stroke-linecap:square;stroke-width:0.5;"/>
     </g>
     <g id="line2d_14">
      <g>
       <use style="stroke:#000000;stroke-width:0.8;" x="396.671727" xlink:href="#mce2728bb7a" y="313.992"/>
      </g>
     </g>
     <g id="text_7">
      <!-- 0.035 -->
      <g transform="translate(382.357665 328.590438)scale(0.1 -0.1)">
       <use xlink:href="#DejaVuSans-48"/>
       <use x="63.623047" xlink:href="#DejaVuSans-46"/>
       <use x="95.410156" xlink:href="#DejaVuSans-48"/>
       <use x="159.033203" xlink:href="#DejaVuSans-51"/>
       <use x="222.65625" xlink:href="#DejaVuSans-53"/>
      </g>
     </g>
    </g>
    <g id="xtick_8">
     <g id="line2d_15">
      <path clip-path="url(#p105b3917d9)" d="M 448.920818 313.992 
L 448.920818 42.336 
" style="fill:none;stroke:#b0b0b0;stroke-linecap:square;stroke-width:0.5;"/>
     </g>
     <g id="line2d_16">
      <g>
       <use style="stroke:#000000;stroke-width:0.8;" x="448.920818" xlink:href="#mce2728bb7a" y="313.992"/>
      </g>
     </g>
     <g id="text_8">
      <!-- 0.040 -->
      <g transform="translate(434.606756 328.590438)scale(0.1 -0.1)">
       <defs>
        <path d="M 37.796875 64.3125 
L 12.890625 25.390625 
L 37.796875 25.390625 
z
M 35.203125 72.90625 
L 47.609375 72.90625 
L 47.609375 25.390625 
L 58.015625 25.390625 
L 58.015625 17.1875 
L 47.609375 17.1875 
L 47.609375 0 
L 37.796875 0 
L 37.796875 17.1875 
L 4.890625 17.1875 
L 4.890625 26.703125 
z
" id="DejaVuSans-52"/>
       </defs>
       <use xlink:href="#DejaVuSans-48"/>
       <use x="63.623047" xlink:href="#DejaVuSans-46"/>
       <use x="95.410156" xlink:href="#DejaVuSans-48"/>
       <use x="159.033203" xlink:href="#DejaVuSans-52"/>
       <use x="222.65625" xlink:href="#DejaVuSans-48"/>
      </g>
     </g>
    </g>
    <g id="text_9">
     <!-- $\dot{\delta}^- \; [m/s]$ -->
     <g transform="translate(244.049 344.690438)scale(0.1 -0.1)">
      <defs>
       <path d="M -29.59375 75.984375 
L -20.609375 75.984375 
L -20.609375 64.59375 
L -29.59375 64.59375 
z
M -25 56 
z
" id="DejaVuSans-775"/>
       <path d="M 54.25 63.328125 
Q 49.953125 66.75 38.28125 66.75 
Q 25.921875 66.75 24.8125 61.03125 
Q 23.921875 56.546875 36.375 54.203125 
Q 46.140625 52.390625 50.828125 46.921875 
Q 56.5 40.328125 53.859375 26.8125 
Q 51.3125 13.875 43.171875 6.25 
Q 34.96875 -1.421875 23.25 -1.421875 
Q 11.578125 -1.421875 6.34375 6.25 
Q 1.125 13.875 3.765625 27.296875 
Q 5.671875 37.25 13.921875 45.3125 
Q 17.140625 48.4375 21.140625 50.203125 
Q 14.265625 54.046875 15.625 60.9375 
Q 18.21875 74.21875 39.75 74.21875 
Q 50.53125 74.21875 55.71875 70.796875 
z
M 27.390625 47.75 
Q 23.828125 46.34375 20.40625 42.78125 
Q 15.140625 37.25 13.234375 27.296875 
Q 11.28125 17.390625 14.359375 11.8125 
Q 17.484375 6.203125 24.75 6.203125 
Q 31.9375 6.203125 37.203125 11.859375 
Q 42.53125 17.53125 44.34375 26.8125 
Q 46.1875 36.53125 42.671875 41.21875 
Q 38.921875 46.234375 32.859375 46.78125 
Q 29.78125 47.078125 27.390625 47.75 
z
" id="DejaVuSans-Oblique-948"/>
       <path d="M 10.59375 35.5 
L 73.1875 35.5 
L 73.1875 27.203125 
L 10.59375 27.203125 
z
" id="DejaVuSans-8722"/>
       <path d="M 8.59375 75.984375 
L 29.296875 75.984375 
L 29.296875 69 
L 17.578125 69 
L 17.578125 -6.203125 
L 29.296875 -6.203125 
L 29.296875 -13.1875 
L 8.59375 -13.1875 
z
" id="DejaVuSans-91"/>
       <path d="M 89.796875 33.015625 
L 83.40625 0 
L 74.421875 0 
L 80.71875 32.71875 
Q 81.109375 34.8125 81.296875 36.328125 
Q 81.5 37.84375 81.5 38.921875 
Q 81.5 43.3125 79.046875 45.75 
Q 76.609375 48.1875 72.21875 48.1875 
Q 65.671875 48.1875 60.546875 43.28125 
Q 55.421875 38.375 53.90625 30.515625 
L 47.90625 0 
L 38.921875 0 
L 45.3125 32.71875 
Q 45.703125 34.515625 45.890625 36.046875 
Q 46.09375 37.59375 46.09375 38.8125 
Q 46.09375 43.265625 43.65625 45.71875 
Q 41.21875 48.1875 36.921875 48.1875 
Q 30.28125 48.1875 25.140625 43.28125 
Q 20.015625 38.375 18.5 30.515625 
L 12.5 0 
L 3.515625 0 
L 14.203125 54.6875 
L 23.1875 54.6875 
L 21.484375 46.1875 
Q 25.140625 50.984375 30.046875 53.484375 
Q 34.96875 56 40.578125 56 
Q 46.53125 56 50.359375 52.875 
Q 54.203125 49.75 54.984375 44.1875 
Q 59.078125 49.953125 64.46875 52.96875 
Q 69.875 56 75.875 56 
Q 82.90625 56 86.734375 51.953125 
Q 90.578125 47.90625 90.578125 40.484375 
Q 90.578125 38.875 90.375 36.9375 
Q 90.1875 35.015625 89.796875 33.015625 
z
" id="DejaVuSans-Oblique-109"/>
       <path d="M 25.390625 72.90625 
L 33.6875 72.90625 
L 8.296875 -9.28125 
L 0 -9.28125 
z
" id="DejaVuSans-47"/>
       <path d="M 50 53.078125 
L 48.296875 44.578125 
Q 44.734375 46.53125 40.765625 47.5 
Q 36.8125 48.484375 32.625 48.484375 
Q 25.53125 48.484375 21.453125 46.0625 
Q 17.390625 43.65625 17.390625 39.5 
Q 17.390625 34.671875 26.859375 32.078125 
Q 27.59375 31.890625 27.9375 31.78125 
L 30.8125 30.90625 
Q 39.796875 28.421875 42.796875 25.6875 
Q 45.796875 22.953125 45.796875 18.21875 
Q 45.796875 9.515625 38.890625 4.046875 
Q 31.984375 -1.421875 20.796875 -1.421875 
Q 16.453125 -1.421875 11.671875 -0.578125 
Q 6.890625 0.25 1.125 2 
L 2.875 11.28125 
Q 7.8125 8.734375 12.59375 7.421875 
Q 17.390625 6.109375 21.78125 6.109375 
Q 28.375 6.109375 32.5 8.9375 
Q 36.625 11.765625 36.625 16.109375 
Q 36.625 20.796875 25.78125 23.6875 
L 24.859375 23.921875 
L 21.78125 24.703125 
Q 14.9375 26.515625 11.765625 29.46875 
Q 8.59375 32.421875 8.59375 37.015625 
Q 8.59375 45.75 15.15625 50.875 
Q 21.734375 56 33.015625 56 
Q 37.453125 56 41.671875 55.265625 
Q 45.90625 54.546875 50 53.078125 
z
" id="DejaVuSans-Oblique-115"/>
       <path d="M 30.421875 75.984375 
L 30.421875 -13.1875 
L 9.71875 -13.1875 
L 9.71875 -6.203125 
L 21.390625 -6.203125 
L 21.390625 69 
L 9.71875 69 
L 9.71875 75.984375 
z
" id="DejaVuSans-93"/>
      </defs>
      <use transform="translate(62.88916 31.015625)" xlink:href="#DejaVuSans-775"/>
      <use transform="translate(0 0.296875)" xlink:href="#DejaVuSans-Oblique-948"/>
      <use transform="translate(75.776367 38.578125)scale(0.7)" xlink:href="#DejaVuSans-8722"/>
      <use transform="translate(177.859917 0.296875)" xlink:href="#DejaVuSans-91"/>
      <use transform="translate(216.873589 0.296875)" xlink:href="#DejaVuSans-Oblique-109"/>
      <use transform="translate(314.285698 0.296875)" xlink:href="#DejaVuSans-47"/>
      <use transform="translate(347.977104 0.296875)" xlink:href="#DejaVuSans-Oblique-115"/>
      <use transform="translate(400.076714 0.296875)" xlink:href="#DejaVuSans-93"/>
     </g>
    </g>
   </g>
   <g id="matplotlib.axis_2">
    <g id="ytick_1">
     <g id="line2d_17">
      <path clip-path="url(#p105b3917d9)" d="M 64.89 301.644 
L 467.208 301.644 
" style="fill:none;stroke:#b0b0b0;stroke-linecap:square;stroke-width:0.5;"/>
     </g>
     <g id="line2d_18">
      <defs>
       <path d="M 0 0 
L -3.5 0 
" id="me0b939c71b" style="stroke:#000000;stroke-width:0.8;"/>
      </defs>
      <g>
       <use style="stroke:#000000;stroke-width:0.8;" x="64.89" xlink:href="#me0b939c71b" y="301.644"/>
      </g>
     </g>
     <g id="text_10">
      <!-- 0 -->
      <g transform="translate(51.5275 305.443219)scale(0.1 -0.1)">
       <use xlink:href="#DejaVuSans-48"/>
      </g>
     </g>
    </g>
    <g id="ytick_2">
     <g id="line2d_19">
      <path clip-path="url(#p105b3917d9)" d="M 64.89 270.774 
L 467.208 270.774 
" style="fill:none;stroke:#b0b0b0;stroke-linecap:square;stroke-width:0.5;"/>
     </g>
     <g id="line2d_20">
      <g>
       <use style="stroke:#000000;stroke-width:0.8;" x="64.89" xlink:href="#me0b939c71b" y="270.774"/>
      </g>
     </g>
     <g id="text_11">
      <!-- 250 -->
      <g transform="translate(38.8025 274.573219)scale(0.1 -0.1)">
       <use xlink:href="#DejaVuSans-50"/>
       <use x="63.623047" xlink:href="#DejaVuSans-53"/>
       <use x="127.246094" xlink:href="#DejaVuSans-48"/>
      </g>
     </g>
    </g>
    <g id="ytick_3">
     <g id="line2d_21">
      <path clip-path="url(#p105b3917d9)" d="M 64.89 239.904 
L 467.208 239.904 
" style="fill:none;stroke:#b0b0b0;stroke-linecap:square;stroke-width:0.5;"/>
     </g>
     <g id="line2d_22">
      <g>
       <use style="stroke:#000000;stroke-width:0.8;" x="64.89" xlink:href="#me0b939c71b" y="239.904"/>
      </g>
     </g>
     <g id="text_12">
      <!-- 500 -->
      <g transform="translate(38.8025 243.703219)scale(0.1 -0.1)">
       <use xlink:href="#DejaVuSans-53"/>
       <use x="63.623047" xlink:href="#DejaVuSans-48"/>
       <use x="127.246094" xlink:href="#DejaVuSans-48"/>
      </g>
     </g>
    </g>
    <g id="ytick_4">
     <g id="line2d_23">
      <path clip-path="url(#p105b3917d9)" d="M 64.89 209.034 
L 467.208 209.034 
" style="fill:none;stroke:#b0b0b0;stroke-linecap:square;stroke-width:0.5;"/>
     </g>
     <g id="line2d_24">
      <g>
       <use style="stroke:#000000;stroke-width:0.8;" x="64.89" xlink:href="#me0b939c71b" y="209.034"/>
      </g>
     </g>
     <g id="text_13">
      <!-- 750 -->
      <g transform="translate(38.8025 212.833219)scale(0.1 -0.1)">
       <defs>
        <path d="M 8.203125 72.90625 
L 55.078125 72.90625 
L 55.078125 68.703125 
L 28.609375 0 
L 18.3125 0 
L 43.21875 64.59375 
L 8.203125 64.59375 
z
" id="DejaVuSans-55"/>
       </defs>
       <use xlink:href="#DejaVuSans-55"/>
       <use x="63.623047" xlink:href="#DejaVuSans-53"/>
       <use x="127.246094" xlink:href="#DejaVuSans-48"/>
      </g>
     </g>
    </g>
    <g id="ytick_5">
     <g id="line2d_25">
      <path clip-path="url(#p105b3917d9)" d="M 64.89 178.164 
L 467.208 178.164 
" style="fill:none;stroke:#b0b0b0;stroke-linecap:square;stroke-width:0.5;"/>
     </g>
     <g id="line2d_26">
      <g>
       <use style="stroke:#000000;stroke-width:0.8;" x="64.89" xlink:href="#me0b939c71b" y="178.164"/>
      </g>
     </g>
     <g id="text_14">
      <!-- 1000 -->
      <g transform="translate(32.44 181.963219)scale(0.1 -0.1)">
       <use xlink:href="#DejaVuSans-49"/>
       <use x="63.623047" xlink:href="#DejaVuSans-48"/>
       <use x="127.246094" xlink:href="#DejaVuSans-48"/>
       <use x="190.869141" xlink:href="#DejaVuSans-48"/>
      </g>
     </g>
    </g>
    <g id="ytick_6">
     <g id="line2d_27">
      <path clip-path="url(#p105b3917d9)" d="M 64.89 147.294 
L 467.208 147.294 
" style="fill:none;stroke:#b0b0b0;stroke-linecap:square;stroke-width:0.5;"/>
     </g>
     <g id="line2d_28">
      <g>
       <use style="stroke:#000000;stroke-width:0.8;" x="64.89" xlink:href="#me0b939c71b" y="147.294"/>
      </g>
     </g>
     <g id="text_15">
      <!-- 1250 -->
      <g transform="translate(32.44 151.093219)scale(0.1 -0.1)">
       <use xlink:href="#DejaVuSans-49"/>
       <use x="63.623047" xlink:href="#DejaVuSans-50"/>
       <use x="127.246094" xlink:href="#DejaVuSans-53"/>
       <use x="190.869141" xlink:href="#DejaVuSans-48"/>
      </g>
     </g>
    </g>
    <g id="ytick_7">
     <g id="line2d_29">
      <path clip-path="url(#p105b3917d9)" d="M 64.89 116.424 
L 467.208 116.424 
" style="fill:none;stroke:#b0b0b0;stroke-linecap:square;stroke-width:0.5;"/>
     </g>
     <g id="line2d_30">
      <g>
       <use style="stroke:#000000;stroke-width:0.8;" x="64.89" xlink:href="#me0b939c71b" y="116.424"/>
      </g>
     </g>
     <g id="text_16">
      <!-- 1500 -->
      <g transform="translate(32.44 120.223219)scale(0.1 -0.1)">
       <use xlink:href="#DejaVuSans-49"/>
       <use x="63.623047" xlink:href="#DejaVuSans-53"/>
       <use x="127.246094" xlink:href="#DejaVuSans-48"/>
       <use x="190.869141" xlink:href="#DejaVuSans-48"/>
      </g>
     </g>
    </g>
    <g id="ytick_8">
     <g id="line2d_31">
      <path clip-path="url(#p105b3917d9)" d="M 64.89 85.554 
L 467.208 85.554 
" style="fill:none;stroke:#b0b0b0;stroke-linecap:square;stroke-width:0.5;"/>
     </g>
     <g id="line2d_32">
      <g>
       <use style="stroke:#000000;stroke-width:0.8;" x="64.89" xlink:href="#me0b939c71b" y="85.554"/>
      </g>
     </g>
     <g id="text_17">
      <!-- 1750 -->
      <g transform="translate(32.44 89.353219)scale(0.1 -0.1)">
       <use xlink:href="#DejaVuSans-49"/>
       <use x="63.623047" xlink:href="#DejaVuSans-55"/>
       <use x="127.246094" xlink:href="#DejaVuSans-53"/>
       <use x="190.869141" xlink:href="#DejaVuSans-48"/>
      </g>
     </g>
    </g>
    <g id="ytick_9">
     <g id="line2d_33">
      <path clip-path="url(#p105b3917d9)" d="M 64.89 54.684 
L 467.208 54.684 
" style="fill:none;stroke:#b0b0b0;stroke-linecap:square;stroke-width:0.5;"/>
     </g>
     <g id="line2d_34">
      <g>
       <use style="stroke:#000000;stroke-width:0.8;" x="64.89" xlink:href="#me0b939c71b" y="54.684"/>
      </g>
     </g>
     <g id="text_18">
      <!-- 2000 -->
      <g transform="translate(32.44 58.483219)scale(0.1 -0.1)">
       <use xlink:href="#DejaVuSans-50"/>
       <use x="63.623047" xlink:href="#DejaVuSans-48"/>
       <use x="127.246094" xlink:href="#DejaVuSans-48"/>
       <use x="190.869141" xlink:href="#DejaVuSans-48"/>
      </g>
     </g>
    </g>
    <g id="text_19">
     <!-- $d \; [Ns/m]$ -->
     <g transform="translate(26.360312 199.514)rotate(-90)scale(0.1 -0.1)">
      <defs>
       <path d="M 41.796875 8.203125 
Q 38.1875 3.46875 33.25 1.015625 
Q 28.328125 -1.421875 22.3125 -1.421875 
Q 14.109375 -1.421875 9.34375 4.171875 
Q 4.59375 9.765625 4.59375 19.484375 
Q 4.59375 27.59375 7.46875 34.9375 
Q 10.359375 42.28125 15.828125 48.09375 
Q 19.4375 51.953125 23.96875 53.96875 
Q 28.515625 56 33.5 56 
Q 38.765625 56 42.796875 53.453125 
Q 46.828125 50.921875 49.03125 46.1875 
L 54.890625 75.984375 
L 63.921875 75.984375 
L 49.125 0 
L 40.09375 0 
z
M 13.921875 21.09375 
Q 13.921875 14.015625 17.109375 10.0625 
Q 20.3125 6.109375 25.984375 6.109375 
Q 30.171875 6.109375 33.765625 8.125 
Q 37.359375 10.15625 40.09375 14.109375 
Q 42.96875 18.21875 44.625 23.578125 
Q 46.296875 28.953125 46.296875 34.1875 
Q 46.296875 40.96875 43.09375 44.765625 
Q 39.890625 48.578125 34.28125 48.578125 
Q 30.03125 48.578125 26.359375 46.578125 
Q 22.703125 44.578125 20.125 40.828125 
Q 17.28125 36.765625 15.59375 31.390625 
Q 13.921875 26.03125 13.921875 21.09375 
z
" id="DejaVuSans-Oblique-100"/>
       <path d="M 16.890625 72.90625 
L 30.171875 72.90625 
L 50.296875 10.40625 
L 62.5 72.90625 
L 72.125 72.90625 
L 57.90625 0 
L 44.578125 0 
L 24.515625 62.890625 
L 12.3125 0 
L 2.6875 0 
z
" id="DejaVuSans-Oblique-78"/>
      </defs>
      <use transform="translate(0 0.015625)" xlink:href="#DejaVuSans-Oblique-100"/>
      <use transform="translate(90.535698 0.015625)" xlink:href="#DejaVuSans-91"/>
      <use transform="translate(129.54937 0.015625)" xlink:href="#DejaVuSans-Oblique-78"/>
      <use transform="translate(204.354058 0.015625)" xlink:href="#DejaVuSans-Oblique-115"/>
      <use transform="translate(256.453667 0.015625)" xlink:href="#DejaVuSans-47"/>
      <use transform="translate(290.145073 0.015625)" xlink:href="#DejaVuSans-Oblique-109"/>
      <use transform="translate(387.557183 0.015625)" xlink:href="#DejaVuSans-93"/>
     </g>
    </g>
   </g>
   <g id="line2d_35">
    <path clip-path="url(#p105b3917d9)" d="M 83.177182 54.684 
L 86.871562 54.684 
L 90.565942 54.684 
L 94.260322 54.684 
L 97.954702 54.684 
L 101.649083 54.684 
L 105.343463 54.684 
L 109.037843 54.684 
L 112.732223 54.684 
L 116.426603 54.684 
L 120.120983 54.684 
L 123.815364 54.684 
L 127.509744 54.684 
L 131.204124 54.684 
L 134.898504 54.684 
L 138.592884 301.644 
L 142.287264 301.644 
L 145.981645 301.644 
L 149.676025 301.644 
L 153.370405 301.644 
L 157.064785 301.644 
L 160.759165 301.644 
L 164.453545 301.644 
L 168.147926 301.644 
L 171.842306 301.644 
L 175.536686 301.644 
L 179.231066 301.644 
L 182.925446 301.644 
L 186.619826 301.644 
L 190.314207 301.644 
L 194.008587 301.644 
L 197.702967 301.644 
L 201.397347 301.644 
L 205.091727 301.644 
L 208.786107 301.644 
L 212.480488 301.644 
L 216.174868 301.644 
L 219.869248 301.644 
L 223.563628 301.644 
L 227.258008 301.644 
L 230.952388 301.644 
L 234.646769 301.644 
L 238.341149 301.644 
L 242.035529 301.644 
L 245.729909 301.644 
L 249.424289 301.644 
L 253.118669 301.644 
L 256.81305 301.644 
L 260.50743 301.644 
L 264.20181 301.644 
L 267.89619 301.644 
L 271.59057 301.644 
L 275.28495 301.644 
L 278.979331 301.644 
L 282.673711 301.644 
L 286.368091 301.644 
L 290.062471 301.644 
L 293.756851 301.644 
L 297.451231 301.644 
L 301.145612 301.644 
L 304.839992 301.644 
L 308.534372 301.644 
L 312.228752 301.644 
L 315.923132 301.644 
L 319.617512 301.644 
L 323.311893 301.644 
L 327.006273 301.644 
L 330.700653 301.644 
L 334.395033 301.644 
L 338.089413 301.644 
L 341.783793 301.644 
L 345.478174 301.644 
L 349.172554 301.644 
L 352.866934 301.644 
L 356.561314 301.644 
L 360.255694 301.644 
L 363.950074 301.644 
L 367.644455 301.644 
L 371.338835 301.644 
L 375.033215 301.644 
L 378.727595 301.644 
L 382.421975 301.644 
L 386.116355 301.644 
L 389.810736 301.644 
L 393.505116 301.644 
L 397.199496 301.644 
L 400.893876 301.644 
L 404.588256 301.644 
L 408.282636 301.644 
L 411.977017 301.644 
L 415.671397 301.644 
L 419.365777 301.644 
L 423.060157 301.644 
L 426.754537 301.644 
L 430.448917 301.644 
L 434.143298 301.644 
L 437.837678 301.644 
L 441.532058 301.644 
L 445.226438 301.644 
L 448.920818 301.644 
" style="fill:none;stroke:#1f77b4;stroke-linecap:square;"/>
   </g>
   <g id="line2d_36">
    <path clip-path="url(#p105b3917d9)" d="M 83.177182 54.684 
L 86.871562 54.684 
L 90.565942 54.684 
L 94.260322 54.684 
L 97.954702 54.684 
L 101.649083 54.684 
L 105.343463 54.684 
L 109.037843 54.684 
L 112.732223 54.684 
L 116.426603 54.684 
L 120.120983 54.684 
L 123.815364 54.684 
L 127.509744 54.684 
L 131.204124 54.684 
L 134.898504 54.684 
L 138.592884 293.425835 
L 142.287264 293.698476 
L 145.981645 293.953607 
L 149.676025 294.192864 
L 153.370405 294.417683 
L 157.064785 294.629332 
L 160.759165 294.828937 
L 164.453545 295.017496 
L 168.147926 295.195902 
L 171.842306 295.364953 
L 175.536686 295.525366 
L 179.231066 295.677788 
L 182.925446 295.8228 
L 186.619826 295.96093 
L 190.314207 296.092657 
L 194.008587 296.218416 
L 197.702967 296.338603 
L 201.397347 296.45358 
L 205.091727 296.56368 
L 208.786107 296.669206 
L 212.480488 296.770437 
L 216.174868 296.867631 
L 219.869248 296.961023 
L 223.563628 297.050834 
L 227.258008 297.137265 
L 230.952388 297.220502 
L 234.646769 297.300721 
L 238.341149 297.378082 
L 242.035529 297.452736 
L 245.729909 297.524822 
L 249.424289 297.59447 
L 253.118669 297.661801 
L 256.81305 297.726931 
L 260.50743 297.789964 
L 264.20181 297.851001 
L 267.89619 297.910135 
L 271.59057 297.967453 
L 275.28495 298.023038 
L 278.979331 298.076967 
L 282.673711 298.129313 
L 286.368091 298.180145 
L 290.062471 298.229528 
L 293.756851 298.277523 
L 297.451231 298.324187 
L 301.145612 298.369575 
L 304.839992 298.413739 
L 308.534372 298.456727 
L 312.228752 298.498586 
L 315.923132 298.53936 
L 319.617512 298.57909 
L 323.311893 298.617817 
L 327.006273 298.655576 
L 330.700653 298.692406 
L 334.395033 298.728338 
L 338.089413 298.763406 
L 341.783793 298.797641 
L 345.478174 298.831071 
L 349.172554 298.863725 
L 352.866934 298.89563 
L 356.561314 298.926811 
L 360.255694 298.957292 
L 363.950074 298.987097 
L 367.644455 299.016248 
L 371.338835 299.044767 
L 375.033215 299.072672 
L 378.727595 299.099985 
L 382.421975 299.126724 
L 386.116355 299.152907 
L 389.810736 299.178551 
L 393.505116 299.203672 
L 397.199496 299.228286 
L 400.893876 299.252409 
L 404.588256 299.276054 
L 408.282636 299.299237 
L 411.977017 299.32197 
L 415.671397 299.344267 
L 419.365777 299.366139 
L 423.060157 299.387599 
L 426.754537 299.408659 
L 430.448917 299.429329 
L 434.143298 299.449621 
L 437.837678 299.469544 
L 441.532058 299.489108 
L 445.226438 299.508324 
L 448.920818 299.5272 
" style="fill:none;stroke:#ff7f0e;stroke-linecap:square;"/>
   </g>
   <g id="line2d_37">
    <path clip-path="url(#p105b3917d9)" d="M 83.177182 54.684 
L 86.871562 54.684 
L 90.565942 54.684 
L 94.260322 54.684 
L 97.954702 54.684 
L 101.649083 54.684 
L 105.343463 54.684 
L 109.037843 54.684 
L 112.732223 54.684 
L 116.426603 54.684 
L 120.120983 54.684 
L 123.815364 54.684 
L 127.509744 54.684 
L 131.204124 54.684 
L 134.898504 54.684 
L 138.592884 256.900659 
L 142.287264 258.385035 
L 145.981645 259.774084 
L 149.676025 261.076704 
L 153.370405 262.300717 
L 157.064785 263.453031 
L 160.759165 264.539766 
L 164.453545 265.566365 
L 168.147926 266.537686 
L 171.842306 267.458076 
L 175.536686 268.331439 
L 179.231066 269.16129 
L 182.925446 269.9508 
L 186.619826 270.702842 
L 190.314207 271.420021 
L 194.008587 272.104707 
L 197.702967 272.759058 
L 201.397347 273.385048 
L 205.091727 273.98448 
L 208.786107 274.55901 
L 212.480488 275.110158 
L 216.174868 275.639323 
L 219.869248 276.147794 
L 223.563628 276.636763 
L 227.258008 277.107329 
L 230.952388 277.560513 
L 234.646769 277.99726 
L 238.341149 278.418449 
L 242.035529 278.824896 
L 245.729909 279.217362 
L 249.424289 279.596557 
L 253.118669 279.963141 
L 256.81305 280.317735 
L 260.50743 280.660916 
L 264.20181 280.993227 
L 267.89619 281.315177 
L 271.59057 281.627242 
L 275.28495 281.929871 
L 278.979331 282.223486 
L 282.673711 282.508483 
L 286.368091 282.785236 
L 290.062471 283.054099 
L 293.756851 283.315402 
L 297.451231 283.569462 
L 301.145612 283.816575 
L 304.839992 284.057022 
L 308.534372 284.291069 
L 312.228752 284.518969 
L 315.923132 284.74096 
L 319.617512 284.957269 
L 323.311893 285.168113 
L 327.006273 285.373694 
L 330.700653 285.574208 
L 334.395033 285.769841 
L 338.089413 285.960767 
L 341.783793 286.147155 
L 345.478174 286.329165 
L 349.172554 286.506949 
L 352.866934 286.680653 
L 356.561314 286.850416 
L 360.255694 287.016369 
L 363.950074 287.178641 
L 367.644455 287.337352 
L 371.338835 287.492618 
L 375.033215 287.64455 
L 378.727595 287.793254 
L 382.421975 287.938832 
L 386.116355 288.081382 
L 389.810736 288.220998 
L 393.505116 288.357768 
L 397.199496 288.491779 
L 400.893876 288.623113 
L 404.588256 288.751851 
L 408.282636 288.878068 
L 411.977017 289.001837 
L 415.671397 289.12323 
L 419.365777 289.242313 
L 423.060157 289.359153 
L 426.754537 289.473811 
L 430.448917 289.586349 
L 434.143298 289.696825 
L 437.837678 289.805295 
L 441.532058 289.911813 
L 445.226438 290.016431 
L 448.920818 290.1192 
" style="fill:none;stroke:#2ca02c;stroke-linecap:square;"/>
   </g>
   <g id="line2d_38">
    <path clip-path="url(#p105b3917d9)" d="M 83.177182 54.684 
L 86.871562 54.684 
L 90.565942 54.684 
L 94.260322 54.684 
L 97.954702 54.684 
L 101.649083 54.684 
L 105.343463 54.684 
L 109.037843 54.684 
L 112.732223 54.684 
L 116.426603 54.684 
L 120.120983 54.684 
L 123.815364 54.684 
L 127.509744 54.684 
L 131.204124 54.684 
L 134.898504 54.684 
L 138.592884 129.062541 
L 142.287264 134.787992 
L 145.981645 140.145754 
L 149.676025 145.170144 
L 153.370405 149.891338 
L 157.064785 154.335977 
L 160.759165 158.527668 
L 164.453545 162.487409 
L 168.147926 166.233932 
L 171.842306 169.784009 
L 175.536686 173.152695 
L 179.231066 176.353546 
L 182.925446 179.3988 
L 186.619826 182.299534 
L 190.314207 185.065796 
L 194.008587 187.706726 
L 197.702967 190.230653 
L 201.397347 192.645184 
L 205.091727 194.95728 
L 208.786107 197.173325 
L 212.480488 199.299181 
L 216.174868 201.340246 
L 219.869248 203.301493 
L 223.563628 205.187513 
L 227.258008 207.002555 
L 230.952388 208.75055 
L 234.646769 210.435146 
L 238.341149 212.059731 
L 242.035529 213.627456 
L 245.729909 215.141254 
L 249.424289 216.603861 
L 253.118669 218.01783 
L 256.81305 219.385548 
L 260.50743 220.709247 
L 264.20181 221.991019 
L 267.89619 223.232825 
L 271.59057 224.436505 
L 275.28495 225.603789 
L 278.979331 226.736303 
L 282.673711 227.835577 
L 286.368091 228.903055 
L 290.062471 229.940095 
L 293.756851 230.947981 
L 297.451231 231.927926 
L 301.145612 232.881075 
L 304.839992 233.808513 
L 308.534372 234.711267 
L 312.228752 235.590308 
L 315.923132 236.44656 
L 319.617512 237.280897 
L 323.311893 238.094149 
L 327.006273 238.887106 
L 330.700653 239.660518 
L 334.395033 240.4151 
L 338.089413 241.15153 
L 341.783793 241.870456 
L 345.478174 242.572494 
L 349.172554 243.258233 
L 352.866934 243.928233 
L 356.561314 244.583031 
L 360.255694 245.223138 
L 363.950074 245.849043 
L 367.644455 246.461214 
L 371.338835 247.060097 
L 375.033215 247.64612 
L 378.727595 248.219694 
L 382.421975 248.781211 
L 386.116355 249.331047 
L 389.810736 249.869562 
L 393.505116 250.397104 
L 397.199496 250.914003 
L 400.893876 251.42058 
L 404.588256 251.917139 
L 408.282636 252.403975 
L 411.977017 252.881372 
L 415.671397 253.3496 
L 419.365777 253.808922 
L 423.060157 254.259589 
L 426.754537 254.701843 
L 430.448917 255.135919 
L 434.143298 255.56204 
L 437.837678 255.980423 
L 441.532058 256.391278 
L 445.226438 256.794806 
L 448.920818 257.1912 
" style="fill:none;stroke:#d62728;stroke-linecap:square;"/>
   </g>
   <g id="line2d_39">
    <path clip-path="url(#p105b3917d9)" d="M 83.177182 54.684 
L 86.871562 54.684 
L 90.565942 54.684 
L 94.260322 54.684 
L 97.954702 54.684 
L 101.649083 54.684 
L 105.343463 54.684 
L 109.037843 54.684 
L 112.732223 54.684 
L 116.426603 54.684 
L 120.120983 54.684 
L 123.815364 54.684 
L 127.509744 54.684 
L 131.204124 54.684 
L 134.898504 54.684 
L 138.592884 54.684 
L 142.287264 54.684 
L 145.981645 54.684 
L 149.676025 54.684 
L 153.370405 54.684 
L 157.064785 54.684 
L 160.759165 54.684 
L 164.453545 54.684 
L 168.147926 54.684 
L 171.842306 54.684 
L 175.536686 54.684 
L 179.231066 54.684 
L 182.925446 54.684 
L 186.619826 54.684 
L 190.314207 54.684 
L 194.008587 54.684 
L 197.702967 54.684 
L 201.397347 54.684 
L 205.091727 54.684 
L 208.786107 54.684 
L 212.480488 54.684 
L 216.174868 54.684 
L 219.869248 54.684 
L 223.563628 54.684 
L 227.258008 54.684 
L 230.952388 54.684 
L 234.646769 54.684 
L 238.341149 54.684 
L 242.035529 54.684 
L 245.729909 54.684 
L 249.424289 54.684 
L 253.118669 54.684 
L 256.81305 54.684 
L 260.50743 54.684 
L 264.20181 54.684 
L 267.89619 54.684 
L 271.59057 54.684 
L 275.28495 54.684 
L 278.979331 54.684 
L 282.673711 54.684 
L 286.368091 54.684 
L 290.062471 54.684 
L 293.756851 54.684 
L 297.451231 54.684 
L 301.145612 54.684 
L 304.839992 54.684 
L 308.534372 54.684 
L 312.228752 54.684 
L 315.923132 54.684 
L 319.617512 54.684 
L 323.311893 54.684 
L 327.006273 54.684 
L 330.700653 54.684 
L 334.395033 54.684 
L 338.089413 54.684 
L 341.783793 54.684 
L 345.478174 54.684 
L 349.172554 54.684 
L 352.866934 54.684 
L 356.561314 54.684 
L 360.255694 54.684 
L 363.950074 54.684 
L 367.644455 54.684 
L 371.338835 54.684 
L 375.033215 54.684 
L 378.727595 54.684 
L 382.421975 54.684 
L 386.116355 54.684 
L 389.810736 54.684 
L 393.505116 54.684 
L 397.199496 54.684 
L 400.893876 54.684 
L 404.588256 54.684 
L 408.282636 54.684 
L 411.977017 54.684 
L 415.671397 54.684 
L 419.365777 54.684 
L 423.060157 54.684 
L 426.754537 54.684 
L 430.448917 54.684 
L 434.143298 54.684 
L 437.837678 54.684 
L 441.532058 54.684 
L 445.226438 54.684 
L 448.920818 54.684 
" style="fill:none;stroke:#9467bd;stroke-linecap:square;"/>
   </g>
   <g id="patch_3">
    <path d="M 64.89 313.992 
L 64.89 42.336 
" style="fill:none;stroke:#000000;stroke-linecap:square;stroke-linejoin:miter;stroke-width:0.8;"/>
   </g>
   <g id="patch_4">
    <path d="M 467.208 313.992 
L 467.208 42.336 
" style="fill:none;stroke:#000000;stroke-linecap:square;stroke-linejoin:miter;stroke-width:0.8;"/>
   </g>
   <g id="patch_5">
    <path d="M 64.89 313.992 
L 467.208 313.992 
" style="fill:none;stroke:#000000;stroke-linecap:square;stroke-linejoin:miter;stroke-width:0.8;"/>
   </g>
   <g id="patch_6">
    <path d="M 64.89 42.336 
L 467.208 42.336 
" style="fill:none;stroke:#000000;stroke-linecap:square;stroke-linejoin:miter;stroke-width:0.8;"/>
   </g>
   <g id="legend_1">
    <g id="patch_7">
     <path d="M 298.708 123.726625 
L 460.208 123.726625 
Q 462.208 123.726625 462.208 121.726625 
L 462.208 49.336 
Q 462.208 47.336 460.208 47.336 
L 298.708 47.336 
Q 296.708 47.336 296.708 49.336 
L 296.708 121.726625 
Q 296.708 123.726625 298.708 123.726625 
z
" style="fill:#ffffff;opacity:0.8;stroke:#cccccc;stroke-linejoin:miter;"/>
    </g>
    <g id="line2d_40">
     <path d="M 300.708 55.434438 
L 320.708 55.434438 
" style="fill:none;stroke:#1f77b4;stroke-linecap:square;"/>
    </g>
    <g id="line2d_41"/>
    <g id="text_20">
     <!-- $cor = 1.0, v_{small}=0.01 \; m/s$ -->
     <g transform="translate(328.708 58.934438)scale(0.1 -0.1)">
      <defs>
       <path d="M 53.609375 52.59375 
L 51.8125 43.703125 
Q 48.578125 46.046875 44.9375 47.21875 
Q 41.3125 48.390625 37.40625 48.390625 
Q 33.109375 48.390625 29.21875 46.875 
Q 25.34375 45.359375 22.703125 42.578125 
Q 18.5 38.328125 16.203125 32.609375 
Q 13.921875 26.90625 13.921875 20.796875 
Q 13.921875 13.421875 17.609375 9.8125 
Q 21.296875 6.203125 28.8125 6.203125 
Q 32.515625 6.203125 36.6875 7.328125 
Q 40.875 8.453125 45.40625 10.6875 
L 43.703125 1.8125 
Q 39.796875 0.203125 35.671875 -0.609375 
Q 31.546875 -1.421875 27.203125 -1.421875 
Q 16.3125 -1.421875 10.453125 4.015625 
Q 4.59375 9.46875 4.59375 19.578125 
Q 4.59375 28.078125 7.640625 35.234375 
Q 10.6875 42.390625 16.703125 48.09375 
Q 20.796875 52 26.3125 54 
Q 31.84375 56 38.375 56 
Q 42.1875 56 45.9375 55.140625 
Q 49.703125 54.296875 53.609375 52.59375 
z
" id="DejaVuSans-Oblique-99"/>
       <path d="M 25.390625 -1.421875 
Q 15.765625 -1.421875 10.171875 4.515625 
Q 4.59375 10.453125 4.59375 20.703125 
Q 4.59375 26.65625 6.515625 32.828125 
Q 8.453125 39.015625 11.53125 43.21875 
Q 16.359375 49.75 22.3125 52.875 
Q 28.265625 56 35.796875 56 
Q 45.125 56 50.859375 50.1875 
Q 56.59375 44.390625 56.59375 35.015625 
Q 56.59375 28.515625 54.6875 22.0625 
Q 52.78125 15.625 49.703125 11.375 
Q 44.921875 4.828125 38.96875 1.703125 
Q 33.015625 -1.421875 25.390625 -1.421875 
z
M 13.921875 21 
Q 13.921875 13.578125 17.015625 9.890625 
Q 20.125 6.203125 26.421875 6.203125 
Q 35.453125 6.203125 41.375 14.078125 
Q 47.3125 21.96875 47.3125 34.078125 
Q 47.3125 41.15625 44.140625 44.765625 
Q 40.96875 48.390625 34.8125 48.390625 
Q 29.734375 48.390625 25.78125 46.015625 
Q 21.828125 43.65625 18.703125 38.8125 
Q 16.40625 35.203125 15.15625 30.5625 
Q 13.921875 25.921875 13.921875 21 
z
" id="DejaVuSans-Oblique-111"/>
       <path d="M 44.578125 46.390625 
Q 43.21875 47.125 41.453125 47.515625 
Q 39.703125 47.90625 37.703125 47.90625 
Q 30.515625 47.90625 25.140625 42.453125 
Q 19.78125 37.015625 18.015625 27.875 
L 12.5 0 
L 3.515625 0 
L 14.203125 54.6875 
L 23.1875 54.6875 
L 21.484375 46.1875 
Q 25.046875 50.921875 30 53.453125 
Q 34.96875 56 40.578125 56 
Q 42.046875 56 43.453125 55.828125 
Q 44.875 55.671875 46.296875 55.28125 
z
" id="DejaVuSans-Oblique-114"/>
       <path d="M 10.59375 45.40625 
L 73.1875 45.40625 
L 73.1875 37.203125 
L 10.59375 37.203125 
z
M 10.59375 25.484375 
L 73.1875 25.484375 
L 73.1875 17.1875 
L 10.59375 17.1875 
z
" id="DejaVuSans-61"/>
       <path d="M 11.71875 12.40625 
L 22.015625 12.40625 
L 22.015625 4 
L 14.015625 -11.625 
L 7.71875 -11.625 
L 11.71875 4 
z
" id="DejaVuSans-44"/>
       <path d="M 7.171875 54.6875 
L 16.703125 54.6875 
L 24.703125 8.203125 
L 50.875 54.6875 
L 60.40625 54.6875 
L 29.296875 0 
L 17.1875 0 
z
" id="DejaVuSans-Oblique-118"/>
       <path d="M 53.71875 31.203125 
L 47.609375 0 
L 38.625 0 
L 40.28125 8.296875 
Q 36.328125 3.421875 31.265625 1 
Q 26.21875 -1.421875 20.015625 -1.421875 
Q 13.03125 -1.421875 8.5625 2.84375 
Q 4.109375 7.125 4.109375 13.8125 
Q 4.109375 23.390625 11.75 28.953125 
Q 19.390625 34.515625 32.8125 34.515625 
L 45.3125 34.515625 
L 45.796875 36.921875 
Q 45.90625 37.3125 45.953125 37.765625 
Q 46 38.234375 46 39.203125 
Q 46 43.5625 42.453125 45.96875 
Q 38.921875 48.390625 32.515625 48.390625 
Q 28.125 48.390625 23.5 47.265625 
Q 18.890625 46.140625 14.015625 43.890625 
L 15.578125 52.203125 
Q 20.65625 54.109375 25.515625 55.046875 
Q 30.375 56 34.90625 56 
Q 44.578125 56 49.625 51.796875 
Q 54.6875 47.609375 54.6875 39.59375 
Q 54.6875 37.984375 54.4375 35.8125 
Q 54.203125 33.640625 53.71875 31.203125 
z
M 44 27.484375 
L 35.015625 27.484375 
Q 23.96875 27.484375 18.671875 24.53125 
Q 13.375 21.578125 13.375 15.375 
Q 13.375 11.078125 16.078125 8.640625 
Q 18.796875 6.203125 23.578125 6.203125 
Q 30.90625 6.203125 36.375 11.453125 
Q 41.84375 16.703125 43.609375 25.484375 
z
" id="DejaVuSans-Oblique-97"/>
       <path d="M 18.3125 75.984375 
L 27.296875 75.984375 
L 12.5 0 
L 3.515625 0 
z
" id="DejaVuSans-Oblique-108"/>
      </defs>
      <use transform="translate(0 0.78125)" xlink:href="#DejaVuSans-Oblique-99"/>
      <use transform="translate(54.980469 0.78125)" xlink:href="#DejaVuSans-Oblique-111"/>
      <use transform="translate(116.162109 0.78125)" xlink:href="#DejaVuSans-Oblique-114"/>
      <use transform="translate(176.757812 0.78125)" xlink:href="#DejaVuSans-61"/>
      <use transform="translate(280.029297 0.78125)" xlink:href="#DejaVuSans-49"/>
      <use transform="translate(343.652344 0.78125)" xlink:href="#DejaVuSans-46"/>
      <use transform="translate(375.439453 0.78125)" xlink:href="#DejaVuSans-48"/>
      <use transform="translate(439.0625 0.78125)" xlink:href="#DejaVuSans-44"/>
      <use transform="translate(490.332031 0.78125)" xlink:href="#DejaVuSans-Oblique-118"/>
      <use transform="translate(549.511719 -15.625)scale(0.7)" xlink:href="#DejaVuSans-Oblique-115"/>
      <use transform="translate(585.981445 -15.625)scale(0.7)" xlink:href="#DejaVuSans-Oblique-109"/>
      <use transform="translate(654.169922 -15.625)scale(0.7)" xlink:href="#DejaVuSans-Oblique-97"/>
      <use transform="translate(697.06543 -15.625)scale(0.7)" xlink:href="#DejaVuSans-Oblique-108"/>
      <use transform="translate(716.513672 -15.625)scale(0.7)" xlink:href="#DejaVuSans-Oblique-108"/>
      <use transform="translate(758.178711 0.78125)" xlink:href="#DejaVuSans-61"/>
      <use transform="translate(861.450195 0.78125)" xlink:href="#DejaVuSans-48"/>
      <use transform="translate(925.073242 0.78125)" xlink:href="#DejaVuSans-46"/>
      <use transform="translate(956.860352 0.78125)" xlink:href="#DejaVuSans-48"/>
      <use transform="translate(1020.483398 0.78125)" xlink:href="#DejaVuSans-49"/>
      <use transform="translate(1111.165581 0.78125)" xlink:href="#DejaVuSans-Oblique-109"/>
      <use transform="translate(1208.57769 0.78125)" xlink:href="#DejaVuSans-47"/>
      <use transform="translate(1242.269097 0.78125)" xlink:href="#DejaVuSans-Oblique-115"/>
     </g>
    </g>
    <g id="line2d_42">
     <path d="M 300.708 70.112563 
L 320.708 70.112563 
" style="fill:none;stroke:#ff7f0e;stroke-linecap:square;"/>
    </g>
    <g id="line2d_43"/>
    <g id="text_21">
     <!-- $cor = 0.7, v_{small}=0.01 \; m/s$ -->
     <g transform="translate(328.708 73.612563)scale(0.1 -0.1)">
      <use transform="translate(0 0.78125)" xlink:href="#DejaVuSans-Oblique-99"/>
      <use transform="translate(54.980469 0.78125)" xlink:href="#DejaVuSans-Oblique-111"/>
      <use transform="translate(116.162109 0.78125)" xlink:href="#DejaVuSans-Oblique-114"/>
      <use transform="translate(176.757812 0.78125)" xlink:href="#DejaVuSans-61"/>
      <use transform="translate(280.029297 0.78125)" xlink:href="#DejaVuSans-48"/>
      <use transform="translate(343.652344 0.78125)" xlink:href="#DejaVuSans-46"/>
      <use transform="translate(367.689453 0.78125)" xlink:href="#DejaVuSans-55"/>
      <use transform="translate(431.3125 0.78125)" xlink:href="#DejaVuSans-44"/>
      <use transform="translate(482.582031 0.78125)" xlink:href="#DejaVuSans-Oblique-118"/>
      <use transform="translate(541.761719 -15.625)scale(0.7)" xlink:href="#DejaVuSans-Oblique-115"/>
      <use transform="translate(578.231445 -15.625)scale(0.7)" xlink:href="#DejaVuSans-Oblique-109"/>
      <use transform="translate(646.419922 -15.625)scale(0.7)" xlink:href="#DejaVuSans-Oblique-97"/>
      <use transform="translate(689.31543 -15.625)scale(0.7)" xlink:href="#DejaVuSans-Oblique-108"/>
      <use transform="translate(708.763672 -15.625)scale(0.7)" xlink:href="#DejaVuSans-Oblique-108"/>
      <use transform="translate(750.428711 0.78125)" xlink:href="#DejaVuSans-61"/>
      <use transform="translate(853.700195 0.78125)" xlink:href="#DejaVuSans-48"/>
      <use transform="translate(917.323242 0.78125)" xlink:href="#DejaVuSans-46"/>
      <use transform="translate(949.110352 0.78125)" xlink:href="#DejaVuSans-48"/>
      <use transform="translate(1012.733398 0.78125)" xlink:href="#DejaVuSans-49"/>
      <use transform="translate(1103.415581 0.78125)" xlink:href="#DejaVuSans-Oblique-109"/>
      <use transform="translate(1200.82769 0.78125)" xlink:href="#DejaVuSans-47"/>
      <use transform="translate(1234.519097 0.78125)" xlink:href="#DejaVuSans-Oblique-115"/>
     </g>
    </g>
    <g id="line2d_44">
     <path d="M 300.708 84.790687 
L 320.708 84.790687 
" style="fill:none;stroke:#2ca02c;stroke-linecap:square;"/>
    </g>
    <g id="line2d_45"/>
    <g id="text_22">
     <!-- $cor = 0.3, v_{small}=0.01 \; m/s$ -->
     <g transform="translate(328.708 88.290687)scale(0.1 -0.1)">
      <use transform="translate(0 0.78125)" xlink:href="#DejaVuSans-Oblique-99"/>
      <use transform="translate(54.980469 0.78125)" xlink:href="#DejaVuSans-Oblique-111"/>
      <use transform="translate(116.162109 0.78125)" xlink:href="#DejaVuSans-Oblique-114"/>
      <use transform="translate(176.757812 0.78125)" xlink:href="#DejaVuSans-61"/>
      <use transform="translate(280.029297 0.78125)" xlink:href="#DejaVuSans-48"/>
      <use transform="translate(343.652344 0.78125)" xlink:href="#DejaVuSans-46"/>
      <use transform="translate(375.439453 0.78125)" xlink:href="#DejaVuSans-51"/>
      <use transform="translate(439.0625 0.78125)" xlink:href="#DejaVuSans-44"/>
      <use transform="translate(490.332031 0.78125)" xlink:href="#DejaVuSans-Oblique-118"/>
      <use transform="translate(549.511719 -15.625)scale(0.7)" xlink:href="#DejaVuSans-Oblique-115"/>
      <use transform="translate(585.981445 -15.625)scale(0.7)" xlink:href="#DejaVuSans-Oblique-109"/>
      <use transform="translate(654.169922 -15.625)scale(0.7)" xlink:href="#DejaVuSans-Oblique-97"/>
      <use transform="translate(697.06543 -15.625)scale(0.7)" xlink:href="#DejaVuSans-Oblique-108"/>
      <use transform="translate(716.513672 -15.625)scale(0.7)" xlink:href="#DejaVuSans-Oblique-108"/>
      <use transform="translate(758.178711 0.78125)" xlink:href="#DejaVuSans-61"/>
      <use transform="translate(861.450195 0.78125)" xlink:href="#DejaVuSans-48"/>
      <use transform="translate(925.073242 0.78125)" xlink:href="#DejaVuSans-46"/>
      <use transform="translate(956.860352 0.78125)" xlink:href="#DejaVuSans-48"/>
      <use transform="translate(1020.483398 0.78125)" xlink:href="#DejaVuSans-49"/>
      <use transform="translate(1111.165581 0.78125)" xlink:href="#DejaVuSans-Oblique-109"/>
      <use transform="translate(1208.57769 0.78125)" xlink:href="#DejaVuSans-47"/>
      <use transform="translate(1242.269097 0.78125)" xlink:href="#DejaVuSans-Oblique-115"/>
     </g>
    </g>
    <g id="line2d_46">
     <path d="M 300.708 99.468813 
L 320.708 99.468813 
" style="fill:none;stroke:#d62728;stroke-linecap:square;"/>
    </g>
    <g id="line2d_47"/>
    <g id="text_23">
     <!-- $cor = 0.1, v_{small}=0.01 \; m/s$ -->
     <g transform="translate(328.708 102.968813)scale(0.1 -0.1)">
      <use transform="translate(0 0.78125)" xlink:href="#DejaVuSans-Oblique-99"/>
      <use transform="translate(54.980469 0.78125)" xlink:href="#DejaVuSans-Oblique-111"/>
      <use transform="translate(116.162109 0.78125)" xlink:href="#DejaVuSans-Oblique-114"/>
      <use transform="translate(176.757812 0.78125)" xlink:href="#DejaVuSans-61"/>
      <use transform="translate(280.029297 0.78125)" xlink:href="#DejaVuSans-48"/>
      <use transform="translate(343.652344 0.78125)" xlink:href="#DejaVuSans-46"/>
      <use transform="translate(375.439453 0.78125)" xlink:href="#DejaVuSans-49"/>
      <use transform="translate(439.0625 0.78125)" xlink:href="#DejaVuSans-44"/>
      <use transform="translate(490.332031 0.78125)" xlink:href="#DejaVuSans-Oblique-118"/>
      <use transform="translate(549.511719 -15.625)scale(0.7)" xlink:href="#DejaVuSans-Oblique-115"/>
      <use transform="translate(585.981445 -15.625)scale(0.7)" xlink:href="#DejaVuSans-Oblique-109"/>
      <use transform="translate(654.169922 -15.625)scale(0.7)" xlink:href="#DejaVuSans-Oblique-97"/>
      <use transform="translate(697.06543 -15.625)scale(0.7)" xlink:href="#DejaVuSans-Oblique-108"/>
      <use transform="translate(716.513672 -15.625)scale(0.7)" xlink:href="#DejaVuSans-Oblique-108"/>
      <use transform="translate(758.178711 0.78125)" xlink:href="#DejaVuSans-61"/>
      <use transform="translate(861.450195 0.78125)" xlink:href="#DejaVuSans-48"/>
      <use transform="translate(925.073242 0.78125)" xlink:href="#DejaVuSans-46"/>
      <use transform="translate(956.860352 0.78125)" xlink:href="#DejaVuSans-48"/>
      <use transform="translate(1020.483398 0.78125)" xlink:href="#DejaVuSans-49"/>
      <use transform="translate(1111.165581 0.78125)" xlink:href="#DejaVuSans-Oblique-109"/>
      <use transform="translate(1208.57769 0.78125)" xlink:href="#DejaVuSans-47"/>
      <use transform="translate(1242.269097 0.78125)" xlink:href="#DejaVuSans-Oblique-115"/>
     </g>
    </g>
    <g id="line2d_48">
     <path d="M 300.708 114.146938 
L 320.708 114.146938 
" style="fill:none;stroke:#9467bd;stroke-linecap:square;"/>
    </g>
    <g id="line2d_49"/>
    <g id="text_24">
     <!-- $cor = 0.0, v_{small}=0.01 \; m/s$ -->
     <g transform="translate(328.708 117.646938)scale(0.1 -0.1)">
      <use transform="translate(0 0.78125)" xlink:href="#DejaVuSans-Oblique-99"/>
      <use transform="translate(54.980469 0.78125)" xlink:href="#DejaVuSans-Oblique-111"/>
      <use transform="translate(116.162109 0.78125)" xlink:href="#DejaVuSans-Oblique-114"/>
      <use transform="translate(176.757812 0.78125)" xlink:href="#DejaVuSans-61"/>
      <use transform="translate(280.029297 0.78125)" xlink:href="#DejaVuSans-48"/>
      <use transform="translate(343.652344 0.78125)" xlink:href="#DejaVuSans-46"/>
      <use transform="translate(375.439453 0.78125)" xlink:href="#DejaVuSans-48"/>
      <use transform="translate(439.0625 0.78125)" xlink:href="#DejaVuSans-44"/>
      <use transform="translate(490.332031 0.78125)" xlink:href="#DejaVuSans-Oblique-118"/>
      <use transform="translate(549.511719 -15.625)scale(0.7)" xlink:href="#DejaVuSans-Oblique-115"/>
      <use transform="translate(585.981445 -15.625)scale(0.7)" xlink:href="#DejaVuSans-Oblique-109"/>
      <use transform="translate(654.169922 -15.625)scale(0.7)" xlink:href="#DejaVuSans-Oblique-97"/>
      <use transform="translate(697.06543 -15.625)scale(0.7)" xlink:href="#DejaVuSans-Oblique-108"/>
      <use transform="translate(716.513672 -15.625)scale(0.7)" xlink:href="#DejaVuSans-Oblique-108"/>
      <use transform="translate(758.178711 0.78125)" xlink:href="#DejaVuSans-61"/>
      <use transform="translate(861.450195 0.78125)" xlink:href="#DejaVuSans-48"/>
      <use transform="translate(925.073242 0.78125)" xlink:href="#DejaVuSans-46"/>
      <use transform="translate(956.860352 0.78125)" xlink:href="#DejaVuSans-48"/>
      <use transform="translate(1020.483398 0.78125)" xlink:href="#DejaVuSans-49"/>
      <use transform="translate(1111.165581 0.78125)" xlink:href="#DejaVuSans-Oblique-109"/>
      <use transform="translate(1208.57769 0.78125)" xlink:href="#DejaVuSans-47"/>
      <use transform="translate(1242.269097 0.78125)" xlink:href="#DejaVuSans-Oblique-115"/>
     </g>
    </g>
   </g>
  </g>
 </g>
 <defs>
  <clipPath id="p105b3917d9">
   <rect height="271.656" width="402.318" x="64.89" y="42.336"/>
  </clipPath>
 </defs>
</svg>
