<?xml version="1.0" encoding="utf-8" standalone="no"?>
<!DOCTYPE svg PUBLIC "-//W3C//DTD SVG 1.1//EN"
  "http://www.w3.org/Graphics/SVG/1.1/DTD/svg11.dtd">
<!-- Created with matplotlib (https://matplotlib.org/) -->
<svg height="352.8pt" version="1.1" viewBox="0 0 519.12 352.8" width="519.12pt" xmlns="http://www.w3.org/2000/svg" xmlns:xlink="http://www.w3.org/1999/xlink">
 <metadata>
  <rdf:RDF xmlns:cc="http://creativecommons.org/ns#" xmlns:dc="http://purl.org/dc/elements/1.1/" xmlns:rdf="http://www.w3.org/1999/02/22-rdf-syntax-ns#">
   <cc:Work>
    <dc:type rdf:resource="http://purl.org/dc/dcmitype/StillImage"/>
    <dc:date>2022-02-25T08:10:47.721014</dc:date>
    <dc:format>image/svg+xml</dc:format>
    <dc:creator>
     <cc:Agent>
      <dc:title>Matplotlib v3.3.4, https://matplotlib.org/</dc:title>
     </cc:Agent>
    </dc:creator>
   </cc:Work>
  </rdf:RDF>
 </metadata>
 <defs>
  <style type="text/css">*{stroke-linecap:butt;stroke-linejoin:round;}</style>
 </defs>
 <g id="figure_1">
  <g id="patch_1">
   <path d="M 0 352.8 
L 519.12 352.8 
L 519.12 0 
L 0 0 
z
" style="fill:#ffffff;"/>
  </g>
  <g id="axes_1">
   <g id="patch_2">
    <path d="M 64.89 313.992 
L 467.208 313.992 
L 467.208 42.336 
L 64.89 42.336 
z
" style="fill:#ffffff;"/>
   </g>
   <g id="matplotlib.axis_1">
    <g id="xtick_1">
     <g id="line2d_1">
      <path clip-path="url(#pe51eca4ee7)" d="M 83.177182 313.992 
L 83.177182 42.336 
" style="fill:none;stroke:#b0b0b0;stroke-linecap:square;stroke-width:0.5;"/>
     </g>
     <g id="line2d_2">
      <defs>
       <path d="M 0 0 
L 0 3.5 
" id="m50454c9a4c" style="stroke:#000000;stroke-width:0.8;"/>
      </defs>
      <g>
       <use style="stroke:#000000;stroke-width:0.8;" x="83.177182" xlink:href="#m50454c9a4c" y="313.992"/>
      </g>
     </g>
     <g id="text_1">
      <!-- 0.005 -->
      <g transform="translate(68.863119 328.590438)scale(0.1 -0.1)">
       <defs>
        <path d="M 31.78125 66.40625 
Q 24.171875 66.40625 20.328125 58.90625 
Q 16.5 51.421875 16.5 36.375 
Q 16.5 21.390625 20.328125 13.890625 
Q 24.171875 6.390625 31.78125 6.390625 
Q 39.453125 6.390625 43.28125 13.890625 
Q 47.125 21.390625 47.125 36.375 
Q 47.125 51.421875 43.28125 58.90625 
Q 39.453125 66.40625 31.78125 66.40625 
z
M 31.78125 74.21875 
Q 44.046875 74.21875 50.515625 64.515625 
Q 56.984375 54.828125 56.984375 36.375 
Q 56.984375 17.96875 50.515625 8.265625 
Q 44.046875 -1.421875 31.78125 -1.421875 
Q 19.53125 -1.421875 13.0625 8.265625 
Q 6.59375 17.96875 6.59375 36.375 
Q 6.59375 54.828125 13.0625 64.515625 
Q 19.53125 74.21875 31.78125 74.21875 
z
" id="DejaVuSans-48"/>
        <path d="M 10.6875 12.40625 
L 21 12.40625 
L 21 0 
L 10.6875 0 
z
" id="DejaVuSans-46"/>
        <path d="M 10.796875 72.90625 
L 49.515625 72.90625 
L 49.515625 64.59375 
L 19.828125 64.59375 
L 19.828125 46.734375 
Q 21.96875 47.46875 24.109375 47.828125 
Q 26.265625 48.1875 28.421875 48.1875 
Q 40.625 48.1875 47.75 41.5 
Q 54.890625 34.8125 54.890625 23.390625 
Q 54.890625 11.625 47.5625 5.09375 
Q 40.234375 -1.421875 26.90625 -1.421875 
Q 22.3125 -1.421875 17.546875 -0.640625 
Q 12.796875 0.140625 7.71875 1.703125 
L 7.71875 11.625 
Q 12.109375 9.234375 16.796875 8.0625 
Q 21.484375 6.890625 26.703125 6.890625 
Q 35.15625 6.890625 40.078125 11.328125 
Q 45.015625 15.765625 45.015625 23.390625 
Q 45.015625 31 40.078125 35.4375 
Q 35.15625 39.890625 26.703125 39.890625 
Q 22.75 39.890625 18.8125 39.015625 
Q 14.890625 38.140625 10.796875 36.28125 
z
" id="DejaVuSans-53"/>
       </defs>
       <use xlink:href="#DejaVuSans-48"/>
       <use x="63.623047" xlink:href="#DejaVuSans-46"/>
       <use x="95.410156" xlink:href="#DejaVuSans-48"/>
       <use x="159.033203" xlink:href="#DejaVuSans-48"/>
       <use x="222.65625" xlink:href="#DejaVuSans-53"/>
      </g>
     </g>
    </g>
    <g id="xtick_2">
     <g id="line2d_3">
      <path clip-path="url(#pe51eca4ee7)" d="M 135.426273 313.992 
L 135.426273 42.336 
" style="fill:none;stroke:#b0b0b0;stroke-linecap:square;stroke-width:0.5;"/>
     </g>
     <g id="line2d_4">
      <g>
       <use style="stroke:#000000;stroke-width:0.8;" x="135.426273" xlink:href="#m50454c9a4c" y="313.992"/>
      </g>
     </g>
     <g id="text_2">
      <!-- 0.010 -->
      <g transform="translate(121.11221 328.590438)scale(0.1 -0.1)">
       <defs>
        <path d="M 12.40625 8.296875 
L 28.515625 8.296875 
L 28.515625 63.921875 
L 10.984375 60.40625 
L 10.984375 69.390625 
L 28.421875 72.90625 
L 38.28125 72.90625 
L 38.28125 8.296875 
L 54.390625 8.296875 
L 54.390625 0 
L 12.40625 0 
z
" id="DejaVuSans-49"/>
       </defs>
       <use xlink:href="#DejaVuSans-48"/>
       <use x="63.623047" xlink:href="#DejaVuSans-46"/>
       <use x="95.410156" xlink:href="#DejaVuSans-48"/>
       <use x="159.033203" xlink:href="#DejaVuSans-49"/>
       <use x="222.65625" xlink:href="#DejaVuSans-48"/>
      </g>
     </g>
    </g>
    <g id="xtick_3">
     <g id="line2d_5">
      <path clip-path="url(#pe51eca4ee7)" d="M 187.675364 313.992 
L 187.675364 42.336 
" style="fill:none;stroke:#b0b0b0;stroke-linecap:square;stroke-width:0.5;"/>
     </g>
     <g id="line2d_6">
      <g>
       <use style="stroke:#000000;stroke-width:0.8;" x="187.675364" xlink:href="#m50454c9a4c" y="313.992"/>
      </g>
     </g>
     <g id="text_3">
      <!-- 0.015 -->
      <g transform="translate(173.361301 328.590438)scale(0.1 -0.1)">
       <use xlink:href="#DejaVuSans-48"/>
       <use x="63.623047" xlink:href="#DejaVuSans-46"/>
       <use x="95.410156" xlink:href="#DejaVuSans-48"/>
       <use x="159.033203" xlink:href="#DejaVuSans-49"/>
       <use x="222.65625" xlink:href="#DejaVuSans-53"/>
      </g>
     </g>
    </g>
    <g id="xtick_4">
     <g id="line2d_7">
      <path clip-path="url(#pe51eca4ee7)" d="M 239.924455 313.992 
L 239.924455 42.336 
" style="fill:none;stroke:#b0b0b0;stroke-linecap:square;stroke-width:0.5;"/>
     </g>
     <g id="line2d_8">
      <g>
       <use style="stroke:#000000;stroke-width:0.8;" x="239.924455" xlink:href="#m50454c9a4c" y="313.992"/>
      </g>
     </g>
     <g id="text_4">
      <!-- 0.020 -->
      <g transform="translate(225.610392 328.590438)scale(0.1 -0.1)">
       <defs>
        <path d="M 19.1875 8.296875 
L 53.609375 8.296875 
L 53.609375 0 
L 7.328125 0 
L 7.328125 8.296875 
Q 12.9375 14.109375 22.625 23.890625 
Q 32.328125 33.6875 34.8125 36.53125 
Q 39.546875 41.84375 41.421875 45.53125 
Q 43.3125 49.21875 43.3125 52.78125 
Q 43.3125 58.59375 39.234375 62.25 
Q 35.15625 65.921875 28.609375 65.921875 
Q 23.96875 65.921875 18.8125 64.3125 
Q 13.671875 62.703125 7.8125 59.421875 
L 7.8125 69.390625 
Q 13.765625 71.78125 18.9375 73 
Q 24.125 74.21875 28.421875 74.21875 
Q 39.75 74.21875 46.484375 68.546875 
Q 53.21875 62.890625 53.21875 53.421875 
Q 53.21875 48.921875 51.53125 44.890625 
Q 49.859375 40.875 45.40625 35.40625 
Q 44.1875 33.984375 37.640625 27.21875 
Q 31.109375 20.453125 19.1875 8.296875 
z
" id="DejaVuSans-50"/>
       </defs>
       <use xlink:href="#DejaVuSans-48"/>
       <use x="63.623047" xlink:href="#DejaVuSans-46"/>
       <use x="95.410156" xlink:href="#DejaVuSans-48"/>
       <use x="159.033203" xlink:href="#DejaVuSans-50"/>
       <use x="222.65625" xlink:href="#DejaVuSans-48"/>
      </g>
     </g>
    </g>
    <g id="xtick_5">
     <g id="line2d_9">
      <path clip-path="url(#pe51eca4ee7)" d="M 292.173545 313.992 
L 292.173545 42.336 
" style="fill:none;stroke:#b0b0b0;stroke-linecap:square;stroke-width:0.5;"/>
     </g>
     <g id="line2d_10">
      <g>
       <use style="stroke:#000000;stroke-width:0.8;" x="292.173545" xlink:href="#m50454c9a4c" y="313.992"/>
      </g>
     </g>
     <g id="text_5">
      <!-- 0.025 -->
      <g transform="translate(277.859483 328.590438)scale(0.1 -0.1)">
       <use xlink:href="#DejaVuSans-48"/>
       <use x="63.623047" xlink:href="#DejaVuSans-46"/>
       <use x="95.410156" xlink:href="#DejaVuSans-48"/>
       <use x="159.033203" xlink:href="#DejaVuSans-50"/>
       <use x="222.65625" xlink:href="#DejaVuSans-53"/>
      </g>
     </g>
    </g>
    <g id="xtick_6">
     <g id="line2d_11">
      <path clip-path="url(#pe51eca4ee7)" d="M 344.422636 313.992 
L 344.422636 42.336 
" style="fill:none;stroke:#b0b0b0;stroke-linecap:square;stroke-width:0.5;"/>
     </g>
     <g id="line2d_12">
      <g>
       <use style="stroke:#000000;stroke-width:0.8;" x="344.422636" xlink:href="#m50454c9a4c" y="313.992"/>
      </g>
     </g>
     <g id="text_6">
      <!-- 0.030 -->
      <g transform="translate(330.108574 328.590438)scale(0.1 -0.1)">
       <defs>
        <path d="M 40.578125 39.3125 
Q 47.65625 37.796875 51.625 33 
Q 55.609375 28.21875 55.609375 21.1875 
Q 55.609375 10.40625 48.1875 4.484375 
Q 40.765625 -1.421875 27.09375 -1.421875 
Q 22.515625 -1.421875 17.65625 -0.515625 
Q 12.796875 0.390625 7.625 2.203125 
L 7.625 11.71875 
Q 11.71875 9.328125 16.59375 8.109375 
Q 21.484375 6.890625 26.8125 6.890625 
Q 36.078125 6.890625 40.9375 10.546875 
Q 45.796875 14.203125 45.796875 21.1875 
Q 45.796875 27.640625 41.28125 31.265625 
Q 36.765625 34.90625 28.71875 34.90625 
L 20.21875 34.90625 
L 20.21875 43.015625 
L 29.109375 43.015625 
Q 36.375 43.015625 40.234375 45.921875 
Q 44.09375 48.828125 44.09375 54.296875 
Q 44.09375 59.90625 40.109375 62.90625 
Q 36.140625 65.921875 28.71875 65.921875 
Q 24.65625 65.921875 20.015625 65.03125 
Q 15.375 64.15625 9.8125 62.3125 
L 9.8125 71.09375 
Q 15.4375 72.65625 20.34375 73.4375 
Q 25.25 74.21875 29.59375 74.21875 
Q 40.828125 74.21875 47.359375 69.109375 
Q 53.90625 64.015625 53.90625 55.328125 
Q 53.90625 49.265625 50.4375 45.09375 
Q 46.96875 40.921875 40.578125 39.3125 
z
" id="DejaVuSans-51"/>
       </defs>
       <use xlink:href="#DejaVuSans-48"/>
       <use x="63.623047" xlink:href="#DejaVuSans-46"/>
       <use x="95.410156" xlink:href="#DejaVuSans-48"/>
       <use x="159.033203" xlink:href="#DejaVuSans-51"/>
       <use x="222.65625" xlink:href="#DejaVuSans-48"/>
      </g>
     </g>
    </g>
    <g id="xtick_7">
     <g id="line2d_13">
      <path clip-path="url(#pe51eca4ee7)" d="M 396.671727 313.992 
L 396.671727 42.336 
" style="fill:none;stroke:#b0b0b0;stroke-linecap:square;stroke-width:0.5;"/>
     </g>
     <g id="line2d_14">
      <g>
       <use style="stroke:#000000;stroke-width:0.8;" x="396.671727" xlink:href="#m50454c9a4c" y="313.992"/>
      </g>
     </g>
     <g id="text_7">
      <!-- 0.035 -->
      <g transform="translate(382.357665 328.590438)scale(0.1 -0.1)">
       <use xlink:href="#DejaVuSans-48"/>
       <use x="63.623047" xlink:href="#DejaVuSans-46"/>
       <use x="95.410156" xlink:href="#DejaVuSans-48"/>
       <use x="159.033203" xlink:href="#DejaVuSans-51"/>
       <use x="222.65625" xlink:href="#DejaVuSans-53"/>
      </g>
     </g>
    </g>
    <g id="xtick_8">
     <g id="line2d_15">
      <path clip-path="url(#pe51eca4ee7)" d="M 448.920818 313.992 
L 448.920818 42.336 
" style="fill:none;stroke:#b0b0b0;stroke-linecap:square;stroke-width:0.5;"/>
     </g>
     <g id="line2d_16">
      <g>
       <use style="stroke:#000000;stroke-width:0.8;" x="448.920818" xlink:href="#m50454c9a4c" y="313.992"/>
      </g>
     </g>
     <g id="text_8">
      <!-- 0.040 -->
      <g transform="translate(434.606756 328.590438)scale(0.1 -0.1)">
       <defs>
        <path d="M 37.796875 64.3125 
L 12.890625 25.390625 
L 37.796875 25.390625 
z
M 35.203125 72.90625 
L 47.609375 72.90625 
L 47.609375 25.390625 
L 58.015625 25.390625 
L 58.015625 17.1875 
L 47.609375 17.1875 
L 47.609375 0 
L 37.796875 0 
L 37.796875 17.1875 
L 4.890625 17.1875 
L 4.890625 26.703125 
z
" id="DejaVuSans-52"/>
       </defs>
       <use xlink:href="#DejaVuSans-48"/>
       <use x="63.623047" xlink:href="#DejaVuSans-46"/>
       <use x="95.410156" xlink:href="#DejaVuSans-48"/>
       <use x="159.033203" xlink:href="#DejaVuSans-52"/>
       <use x="222.65625" xlink:href="#DejaVuSans-48"/>
      </g>
     </g>
    </g>
    <g id="text_9">
     <!-- $\dot{\delta}^- \; [m/s]$ -->
     <g transform="translate(244.049 344.690438)scale(0.1 -0.1)">
      <defs>
       <path d="M -29.59375 75.984375 
L -20.609375 75.984375 
L -20.609375 64.59375 
L -29.59375 64.59375 
z
M -25 56 
z
" id="DejaVuSans-775"/>
       <path d="M 54.25 63.328125 
Q 49.953125 66.75 38.28125 66.75 
Q 25.921875 66.75 24.8125 61.03125 
Q 23.921875 56.546875 36.375 54.203125 
Q 46.140625 52.390625 50.828125 46.921875 
Q 56.5 40.328125 53.859375 26.8125 
Q 51.3125 13.875 43.171875 6.25 
Q 34.96875 -1.421875 23.25 -1.421875 
Q 11.578125 -1.421875 6.34375 6.25 
Q 1.125 13.875 3.765625 27.296875 
Q 5.671875 37.25 13.921875 45.3125 
Q 17.140625 48.4375 21.140625 50.203125 
Q 14.265625 54.046875 15.625 60.9375 
Q 18.21875 74.21875 39.75 74.21875 
Q 50.53125 74.21875 55.71875 70.796875 
z
M 27.390625 47.75 
Q 23.828125 46.34375 20.40625 42.78125 
Q 15.140625 37.25 13.234375 27.296875 
Q 11.28125 17.390625 14.359375 11.8125 
Q 17.484375 6.203125 24.75 6.203125 
Q 31.9375 6.203125 37.203125 11.859375 
Q 42.53125 17.53125 44.34375 26.8125 
Q 46.1875 36.53125 42.671875 41.21875 
Q 38.921875 46.234375 32.859375 46.78125 
Q 29.78125 47.078125 27.390625 47.75 
z
" id="DejaVuSans-Oblique-948"/>
       <path d="M 10.59375 35.5 
L 73.1875 35.5 
L 73.1875 27.203125 
L 10.59375 27.203125 
z
" id="DejaVuSans-8722"/>
       <path d="M 8.59375 75.984375 
L 29.296875 75.984375 
L 29.296875 69 
L 17.578125 69 
L 17.578125 -6.203125 
L 29.296875 -6.203125 
L 29.296875 -13.1875 
L 8.59375 -13.1875 
z
" id="DejaVuSans-91"/>
       <path d="M 89.796875 33.015625 
L 83.40625 0 
L 74.421875 0 
L 80.71875 32.71875 
Q 81.109375 34.8125 81.296875 36.328125 
Q 81.5 37.84375 81.5 38.921875 
Q 81.5 43.3125 79.046875 45.75 
Q 76.609375 48.1875 72.21875 48.1875 
Q 65.671875 48.1875 60.546875 43.28125 
Q 55.421875 38.375 53.90625 30.515625 
L 47.90625 0 
L 38.921875 0 
L 45.3125 32.71875 
Q 45.703125 34.515625 45.890625 36.046875 
Q 46.09375 37.59375 46.09375 38.8125 
Q 46.09375 43.265625 43.65625 45.71875 
Q 41.21875 48.1875 36.921875 48.1875 
Q 30.28125 48.1875 25.140625 43.28125 
Q 20.015625 38.375 18.5 30.515625 
L 12.5 0 
L 3.515625 0 
L 14.203125 54.6875 
L 23.1875 54.6875 
L 21.484375 46.1875 
Q 25.140625 50.984375 30.046875 53.484375 
Q 34.96875 56 40.578125 56 
Q 46.53125 56 50.359375 52.875 
Q 54.203125 49.75 54.984375 44.1875 
Q 59.078125 49.953125 64.46875 52.96875 
Q 69.875 56 75.875 56 
Q 82.90625 56 86.734375 51.953125 
Q 90.578125 47.90625 90.578125 40.484375 
Q 90.578125 38.875 90.375 36.9375 
Q 90.1875 35.015625 89.796875 33.015625 
z
" id="DejaVuSans-Oblique-109"/>
       <path d="M 25.390625 72.90625 
L 33.6875 72.90625 
L 8.296875 -9.28125 
L 0 -9.28125 
z
" id="DejaVuSans-47"/>
       <path d="M 50 53.078125 
L 48.296875 44.578125 
Q 44.734375 46.53125 40.765625 47.5 
Q 36.8125 48.484375 32.625 48.484375 
Q 25.53125 48.484375 21.453125 46.0625 
Q 17.390625 43.65625 17.390625 39.5 
Q 17.390625 34.671875 26.859375 32.078125 
Q 27.59375 31.890625 27.9375 31.78125 
L 30.8125 30.90625 
Q 39.796875 28.421875 42.796875 25.6875 
Q 45.796875 22.953125 45.796875 18.21875 
Q 45.796875 9.515625 38.890625 4.046875 
Q 31.984375 -1.421875 20.796875 -1.421875 
Q 16.453125 -1.421875 11.671875 -0.578125 
Q 6.890625 0.25 1.125 2 
L 2.875 11.28125 
Q 7.8125 8.734375 12.59375 7.421875 
Q 17.390625 6.109375 21.78125 6.109375 
Q 28.375 6.109375 32.5 8.9375 
Q 36.625 11.765625 36.625 16.109375 
Q 36.625 20.796875 25.78125 23.6875 
L 24.859375 23.921875 
L 21.78125 24.703125 
Q 14.9375 26.515625 11.765625 29.46875 
Q 8.59375 32.421875 8.59375 37.015625 
Q 8.59375 45.75 15.15625 50.875 
Q 21.734375 56 33.015625 56 
Q 37.453125 56 41.671875 55.265625 
Q 45.90625 54.546875 50 53.078125 
z
" id="DejaVuSans-Oblique-115"/>
       <path d="M 30.421875 75.984375 
L 30.421875 -13.1875 
L 9.71875 -13.1875 
L 9.71875 -6.203125 
L 21.390625 -6.203125 
L 21.390625 69 
L 9.71875 69 
L 9.71875 75.984375 
z
" id="DejaVuSans-93"/>
      </defs>
      <use transform="translate(62.88916 31.015625)" xlink:href="#DejaVuSans-775"/>
      <use transform="translate(0 0.296875)" xlink:href="#DejaVuSans-Oblique-948"/>
      <use transform="translate(75.776367 38.578125)scale(0.7)" xlink:href="#DejaVuSans-8722"/>
      <use transform="translate(177.859917 0.296875)" xlink:href="#DejaVuSans-91"/>
      <use transform="translate(216.873589 0.296875)" xlink:href="#DejaVuSans-Oblique-109"/>
      <use transform="translate(314.285698 0.296875)" xlink:href="#DejaVuSans-47"/>
      <use transform="translate(347.977104 0.296875)" xlink:href="#DejaVuSans-Oblique-115"/>
      <use transform="translate(400.076714 0.296875)" xlink:href="#DejaVuSans-93"/>
     </g>
    </g>
   </g>
   <g id="matplotlib.axis_2">
    <g id="ytick_1">
     <g id="line2d_17">
      <path clip-path="url(#pe51eca4ee7)" d="M 64.89 301.644 
L 467.208 301.644 
" style="fill:none;stroke:#b0b0b0;stroke-linecap:square;stroke-width:0.5;"/>
     </g>
     <g id="line2d_18">
      <defs>
       <path d="M 0 0 
L -3.5 0 
" id="mb340fae211" style="stroke:#000000;stroke-width:0.8;"/>
      </defs>
      <g>
       <use style="stroke:#000000;stroke-width:0.8;" x="64.89" xlink:href="#mb340fae211" y="301.644"/>
      </g>
     </g>
     <g id="text_10">
      <!-- 0 -->
      <g transform="translate(51.5275 305.443219)scale(0.1 -0.1)">
       <use xlink:href="#DejaVuSans-48"/>
      </g>
     </g>
    </g>
    <g id="ytick_2">
     <g id="line2d_19">
      <path clip-path="url(#pe51eca4ee7)" d="M 64.89 270.774 
L 467.208 270.774 
" style="fill:none;stroke:#b0b0b0;stroke-linecap:square;stroke-width:0.5;"/>
     </g>
     <g id="line2d_20">
      <g>
       <use style="stroke:#000000;stroke-width:0.8;" x="64.89" xlink:href="#mb340fae211" y="270.774"/>
      </g>
     </g>
     <g id="text_11">
      <!-- 250 -->
      <g transform="translate(38.8025 274.573219)scale(0.1 -0.1)">
       <use xlink:href="#DejaVuSans-50"/>
       <use x="63.623047" xlink:href="#DejaVuSans-53"/>
       <use x="127.246094" xlink:href="#DejaVuSans-48"/>
      </g>
     </g>
    </g>
    <g id="ytick_3">
     <g id="line2d_21">
      <path clip-path="url(#pe51eca4ee7)" d="M 64.89 239.904 
L 467.208 239.904 
" style="fill:none;stroke:#b0b0b0;stroke-linecap:square;stroke-width:0.5;"/>
     </g>
     <g id="line2d_22">
      <g>
       <use style="stroke:#000000;stroke-width:0.8;" x="64.89" xlink:href="#mb340fae211" y="239.904"/>
      </g>
     </g>
     <g id="text_12">
      <!-- 500 -->
      <g transform="translate(38.8025 243.703219)scale(0.1 -0.1)">
       <use xlink:href="#DejaVuSans-53"/>
       <use x="63.623047" xlink:href="#DejaVuSans-48"/>
       <use x="127.246094" xlink:href="#DejaVuSans-48"/>
      </g>
     </g>
    </g>
    <g id="ytick_4">
     <g id="line2d_23">
      <path clip-path="url(#pe51eca4ee7)" d="M 64.89 209.034 
L 467.208 209.034 
" style="fill:none;stroke:#b0b0b0;stroke-linecap:square;stroke-width:0.5;"/>
     </g>
     <g id="line2d_24">
      <g>
       <use style="stroke:#000000;stroke-width:0.8;" x="64.89" xlink:href="#mb340fae211" y="209.034"/>
      </g>
     </g>
     <g id="text_13">
      <!-- 750 -->
      <g transform="translate(38.8025 212.833219)scale(0.1 -0.1)">
       <defs>
        <path d="M 8.203125 72.90625 
L 55.078125 72.90625 
L 55.078125 68.703125 
L 28.609375 0 
L 18.3125 0 
L 43.21875 64.59375 
L 8.203125 64.59375 
z
" id="DejaVuSans-55"/>
       </defs>
       <use xlink:href="#DejaVuSans-55"/>
       <use x="63.623047" xlink:href="#DejaVuSans-53"/>
       <use x="127.246094" xlink:href="#DejaVuSans-48"/>
      </g>
     </g>
    </g>
    <g id="ytick_5">
     <g id="line2d_25">
      <path clip-path="url(#pe51eca4ee7)" d="M 64.89 178.164 
L 467.208 178.164 
" style="fill:none;stroke:#b0b0b0;stroke-linecap:square;stroke-width:0.5;"/>
     </g>
     <g id="line2d_26">
      <g>
       <use style="stroke:#000000;stroke-width:0.8;" x="64.89" xlink:href="#mb340fae211" y="178.164"/>
      </g>
     </g>
     <g id="text_14">
      <!-- 1000 -->
      <g transform="translate(32.44 181.963219)scale(0.1 -0.1)">
       <use xlink:href="#DejaVuSans-49"/>
       <use x="63.623047" xlink:href="#DejaVuSans-48"/>
       <use x="127.246094" xlink:href="#DejaVuSans-48"/>
       <use x="190.869141" xlink:href="#DejaVuSans-48"/>
      </g>
     </g>
    </g>
    <g id="ytick_6">
     <g id="line2d_27">
      <path clip-path="url(#pe51eca4ee7)" d="M 64.89 147.294 
L 467.208 147.294 
" style="fill:none;stroke:#b0b0b0;stroke-linecap:square;stroke-width:0.5;"/>
     </g>
     <g id="line2d_28">
      <g>
       <use style="stroke:#000000;stroke-width:0.8;" x="64.89" xlink:href="#mb340fae211" y="147.294"/>
      </g>
     </g>
     <g id="text_15">
      <!-- 1250 -->
      <g transform="translate(32.44 151.093219)scale(0.1 -0.1)">
       <use xlink:href="#DejaVuSans-49"/>
       <use x="63.623047" xlink:href="#DejaVuSans-50"/>
       <use x="127.246094" xlink:href="#DejaVuSans-53"/>
       <use x="190.869141" xlink:href="#DejaVuSans-48"/>
      </g>
     </g>
    </g>
    <g id="ytick_7">
     <g id="line2d_29">
      <path clip-path="url(#pe51eca4ee7)" d="M 64.89 116.424 
L 467.208 116.424 
" style="fill:none;stroke:#b0b0b0;stroke-linecap:square;stroke-width:0.5;"/>
     </g>
     <g id="line2d_30">
      <g>
       <use style="stroke:#000000;stroke-width:0.8;" x="64.89" xlink:href="#mb340fae211" y="116.424"/>
      </g>
     </g>
     <g id="text_16">
      <!-- 1500 -->
      <g transform="translate(32.44 120.223219)scale(0.1 -0.1)">
       <use xlink:href="#DejaVuSans-49"/>
       <use x="63.623047" xlink:href="#DejaVuSans-53"/>
       <use x="127.246094" xlink:href="#DejaVuSans-48"/>
       <use x="190.869141" xlink:href="#DejaVuSans-48"/>
      </g>
     </g>
    </g>
    <g id="ytick_8">
     <g id="line2d_31">
      <path clip-path="url(#pe51eca4ee7)" d="M 64.89 85.554 
L 467.208 85.554 
" style="fill:none;stroke:#b0b0b0;stroke-linecap:square;stroke-width:0.5;"/>
     </g>
     <g id="line2d_32">
      <g>
       <use style="stroke:#000000;stroke-width:0.8;" x="64.89" xlink:href="#mb340fae211" y="85.554"/>
      </g>
     </g>
     <g id="text_17">
      <!-- 1750 -->
      <g transform="translate(32.44 89.353219)scale(0.1 -0.1)">
       <use xlink:href="#DejaVuSans-49"/>
       <use x="63.623047" xlink:href="#DejaVuSans-55"/>
       <use x="127.246094" xlink:href="#DejaVuSans-53"/>
       <use x="190.869141" xlink:href="#DejaVuSans-48"/>
      </g>
     </g>
    </g>
    <g id="ytick_9">
     <g id="line2d_33">
      <path clip-path="url(#pe51eca4ee7)" d="M 64.89 54.684 
L 467.208 54.684 
" style="fill:none;stroke:#b0b0b0;stroke-linecap:square;stroke-width:0.5;"/>
     </g>
     <g id="line2d_34">
      <g>
       <use style="stroke:#000000;stroke-width:0.8;" x="64.89" xlink:href="#mb340fae211" y="54.684"/>
      </g>
     </g>
     <g id="text_18">
      <!-- 2000 -->
      <g transform="translate(32.44 58.483219)scale(0.1 -0.1)">
       <use xlink:href="#DejaVuSans-50"/>
       <use x="63.623047" xlink:href="#DejaVuSans-48"/>
       <use x="127.246094" xlink:href="#DejaVuSans-48"/>
       <use x="190.869141" xlink:href="#DejaVuSans-48"/>
      </g>
     </g>
    </g>
    <g id="text_19">
     <!-- $d \; [Ns/m]$ -->
     <g transform="translate(26.360312 199.514)rotate(-90)scale(0.1 -0.1)">
      <defs>
       <path d="M 41.796875 8.203125 
Q 38.1875 3.46875 33.25 1.015625 
Q 28.328125 -1.421875 22.3125 -1.421875 
Q 14.109375 -1.421875 9.34375 4.171875 
Q 4.59375 9.765625 4.59375 19.484375 
Q 4.59375 27.59375 7.46875 34.9375 
Q 10.359375 42.28125 15.828125 48.09375 
Q 19.4375 51.953125 23.96875 53.96875 
Q 28.515625 56 33.5 56 
Q 38.765625 56 42.796875 53.453125 
Q 46.828125 50.921875 49.03125 46.1875 
L 54.890625 75.984375 
L 63.921875 75.984375 
L 49.125 0 
L 40.09375 0 
z
M 13.921875 21.09375 
Q 13.921875 14.015625 17.109375 10.0625 
Q 20.3125 6.109375 25.984375 6.109375 
Q 30.171875 6.109375 33.765625 8.125 
Q 37.359375 10.15625 40.09375 14.109375 
Q 42.96875 18.21875 44.625 23.578125 
Q 46.296875 28.953125 46.296875 34.1875 
Q 46.296875 40.96875 43.09375 44.765625 
Q 39.890625 48.578125 34.28125 48.578125 
Q 30.03125 48.578125 26.359375 46.578125 
Q 22.703125 44.578125 20.125 40.828125 
Q 17.28125 36.765625 15.59375 31.390625 
Q 13.921875 26.03125 13.921875 21.09375 
z
" id="DejaVuSans-Oblique-100"/>
       <path d="M 16.890625 72.90625 
L 30.171875 72.90625 
L 50.296875 10.40625 
L 62.5 72.90625 
L 72.125 72.90625 
L 57.90625 0 
L 44.578125 0 
L 24.515625 62.890625 
L 12.3125 0 
L 2.6875 0 
z
" id="DejaVuSans-Oblique-78"/>
      </defs>
      <use transform="translate(0 0.015625)" xlink:href="#DejaVuSans-Oblique-100"/>
      <use transform="translate(90.535698 0.015625)" xlink:href="#DejaVuSans-91"/>
      <use transform="translate(129.54937 0.015625)" xlink:href="#DejaVuSans-Oblique-78"/>
      <use transform="translate(204.354058 0.015625)" xlink:href="#DejaVuSans-Oblique-115"/>
      <use transform="translate(256.453667 0.015625)" xlink:href="#DejaVuSans-47"/>
      <use transform="translate(290.145073 0.015625)" xlink:href="#DejaVuSans-Oblique-109"/>
      <use transform="translate(387.557183 0.015625)" xlink:href="#DejaVuSans-93"/>
     </g>
    </g>
   </g>
   <g id="line2d_35">
    <path clip-path="url(#pe51eca4ee7)" d="M 83.177182 54.684 
L 135.164766 54.684 
L 135.530876 301.644 
L 448.920818 301.644 
L 448.920818 301.644 
" style="fill:none;stroke:#1f77b4;stroke-linecap:square;"/>
   </g>
   <g id="line2d_36">
    <path clip-path="url(#pe51eca4ee7)" d="M 83.177182 54.684 
L 135.164766 54.684 
L 135.530876 293.185267 
L 148.344717 294.108381 
L 163.721326 294.980957 
L 182.026813 295.788179 
L 204.359508 296.542231 
L 231.817739 297.239557 
L 266.232055 297.883728 
L 310.531334 298.479491 
L 368.010564 299.019102 
L 444.893611 299.506607 
L 448.920818 299.5272 
L 448.920818 299.5272 
" style="fill:none;stroke:#ff7f0e;stroke-linecap:square;"/>
   </g>
   <g id="line2d_37">
    <path clip-path="url(#pe51eca4ee7)" d="M 83.177182 54.684 
L 135.164766 54.684 
L 135.530876 255.590899 
L 141.022522 257.888085 
L 146.880278 260.098578 
L 153.104143 262.214975 
L 160.060229 264.338937 
L 167.382423 266.340741 
L 175.436838 268.308422 
L 184.223472 270.219162 
L 193.742325 272.056399 
L 203.993398 273.808944 
L 215.3428 275.521992 
L 227.790532 277.173702 
L 241.702702 278.788863 
L 257.079311 280.342843 
L 273.92036 281.819161 
L 292.958066 283.259529 
L 314.192432 284.637685 
L 337.989565 285.955667 
L 365.081686 287.227628 
L 395.834905 288.442595 
L 430.981441 289.6024 
L 448.920818 290.1192 
L 448.920818 290.1192 
" style="fill:none;stroke:#2ca02c;stroke-linecap:square;"/>
   </g>
   <g id="line2d_38">
    <path clip-path="url(#pe51eca4ee7)" d="M 83.177182 54.684 
L 135.164766 54.684 
L 135.530876 124.010611 
L 139.191973 130.017537 
L 143.21918 136.172748 
L 147.246387 141.901744 
L 151.273595 147.247313 
L 155.300802 152.246701 
L 159.694119 157.343928 
L 164.087436 162.10481 
L 168.846862 166.920156 
L 173.606289 171.414243 
L 178.365716 175.618183 
L 183.491252 179.852167 
L 188.982898 184.083849 
L 194.474545 188.031343 
L 200.332301 191.959907 
L 206.190057 195.625863 
L 212.413922 199.261643 
L 219.003898 202.849012 
L 225.959983 206.372673 
L 233.282178 209.820072 
L 240.970482 213.181157 
L 249.024897 216.44813 
L 257.445421 219.61519 
L 266.232055 222.678279 
L 275.384799 225.634848 
L 285.269762 228.588936 
L 295.520835 231.419296 
L 306.504127 234.218155 
L 318.219639 236.967725 
L 330.66737 239.653636 
L 343.847321 242.264629 
L 357.759491 244.792219 
L 372.769991 247.288618 
L 388.51271 249.681622 
L 405.719868 252.06728 
L 424.025355 254.375935 
L 443.795282 256.639341 
L 448.920818 257.1912 
L 448.920818 257.1912 
" style="fill:none;stroke:#d62728;stroke-linecap:square;"/>
   </g>
   <g id="line2d_39">
    <path clip-path="url(#pe51eca4ee7)" d="M 83.177182 54.684 
L 448.920818 54.684 
L 448.920818 54.684 
" style="fill:none;stroke:#9467bd;stroke-linecap:square;"/>
   </g>
   <g id="patch_3">
    <path d="M 64.89 313.992 
L 64.89 42.336 
" style="fill:none;stroke:#000000;stroke-linecap:square;stroke-linejoin:miter;stroke-width:0.8;"/>
   </g>
   <g id="patch_4">
    <path d="M 467.208 313.992 
L 467.208 42.336 
" style="fill:none;stroke:#000000;stroke-linecap:square;stroke-linejoin:miter;stroke-width:0.8;"/>
   </g>
   <g id="patch_5">
    <path d="M 64.89 313.992 
L 467.208 313.992 
" style="fill:none;stroke:#000000;stroke-linecap:square;stroke-linejoin:miter;stroke-width:0.8;"/>
   </g>
   <g id="patch_6">
    <path d="M 64.89 42.336 
L 467.208 42.336 
" style="fill:none;stroke:#000000;stroke-linecap:square;stroke-linejoin:miter;stroke-width:0.8;"/>
   </g>
   <g id="legend_1">
    <g id="patch_7">
     <path d="M 298.708 123.726625 
L 460.208 123.726625 
Q 462.208 123.726625 462.208 121.726625 
L 462.208 49.336 
Q 462.208 47.336 460.208 47.336 
L 298.708 47.336 
Q 296.708 47.336 296.708 49.336 
L 296.708 121.726625 
Q 296.708 123.726625 298.708 123.726625 
z
" style="fill:#ffffff;opacity:0.8;stroke:#cccccc;stroke-linejoin:miter;"/>
    </g>
    <g id="line2d_40">
     <path d="M 300.708 55.434438 
L 320.708 55.434438 
" style="fill:none;stroke:#1f77b4;stroke-linecap:square;"/>
    </g>
    <g id="line2d_41"/>
    <g id="text_20">
     <!-- $cor = 1.0, v_{small}=0.01 \; m/s$ -->
     <g transform="translate(328.708 58.934438)scale(0.1 -0.1)">
      <defs>
       <path d="M 53.609375 52.59375 
L 51.8125 43.703125 
Q 48.578125 46.046875 44.9375 47.21875 
Q 41.3125 48.390625 37.40625 48.390625 
Q 33.109375 48.390625 29.21875 46.875 
Q 25.34375 45.359375 22.703125 42.578125 
Q 18.5 38.328125 16.203125 32.609375 
Q 13.921875 26.90625 13.921875 20.796875 
Q 13.921875 13.421875 17.609375 9.8125 
Q 21.296875 6.203125 28.8125 6.203125 
Q 32.515625 6.203125 36.6875 7.328125 
Q 40.875 8.453125 45.40625 10.6875 
L 43.703125 1.8125 
Q 39.796875 0.203125 35.671875 -0.609375 
Q 31.546875 -1.421875 27.203125 -1.421875 
Q 16.3125 -1.421875 10.453125 4.015625 
Q 4.59375 9.46875 4.59375 19.578125 
Q 4.59375 28.078125 7.640625 35.234375 
Q 10.6875 42.390625 16.703125 48.09375 
Q 20.796875 52 26.3125 54 
Q 31.84375 56 38.375 56 
Q 42.1875 56 45.9375 55.140625 
Q 49.703125 54.296875 53.609375 52.59375 
z
" id="DejaVuSans-Oblique-99"/>
       <path d="M 25.390625 -1.421875 
Q 15.765625 -1.421875 10.171875 4.515625 
Q 4.59375 10.453125 4.59375 20.703125 
Q 4.59375 26.65625 6.515625 32.828125 
Q 8.453125 39.015625 11.53125 43.21875 
Q 16.359375 49.75 22.3125 52.875 
Q 28.265625 56 35.796875 56 
Q 45.125 56 50.859375 50.1875 
Q 56.59375 44.390625 56.59375 35.015625 
Q 56.59375 28.515625 54.6875 22.0625 
Q 52.78125 15.625 49.703125 11.375 
Q 44.921875 4.828125 38.96875 1.703125 
Q 33.015625 -1.421875 25.390625 -1.421875 
z
M 13.921875 21 
Q 13.921875 13.578125 17.015625 9.890625 
Q 20.125 6.203125 26.421875 6.203125 
Q 35.453125 6.203125 41.375 14.078125 
Q 47.3125 21.96875 47.3125 34.078125 
Q 47.3125 41.15625 44.140625 44.765625 
Q 40.96875 48.390625 34.8125 48.390625 
Q 29.734375 48.390625 25.78125 46.015625 
Q 21.828125 43.65625 18.703125 38.8125 
Q 16.40625 35.203125 15.15625 30.5625 
Q 13.921875 25.921875 13.921875 21 
z
" id="DejaVuSans-Oblique-111"/>
       <path d="M 44.578125 46.390625 
Q 43.21875 47.125 41.453125 47.515625 
Q 39.703125 47.90625 37.703125 47.90625 
Q 30.515625 47.90625 25.140625 42.453125 
Q 19.78125 37.015625 18.015625 27.875 
L 12.5 0 
L 3.515625 0 
L 14.203125 54.6875 
L 23.1875 54.6875 
L 21.484375 46.1875 
Q 25.046875 50.921875 30 53.453125 
Q 34.96875 56 40.578125 56 
Q 42.046875 56 43.453125 55.828125 
Q 44.875 55.671875 46.296875 55.28125 
z
" id="DejaVuSans-Oblique-114"/>
       <path d="M 10.59375 45.40625 
L 73.1875 45.40625 
L 73.1875 37.203125 
L 10.59375 37.203125 
z
M 10.59375 25.484375 
L 73.1875 25.484375 
L 73.1875 17.1875 
L 10.59375 17.1875 
z
" id="DejaVuSans-61"/>
       <path d="M 11.71875 12.40625 
L 22.015625 12.40625 
L 22.015625 4 
L 14.015625 -11.625 
L 7.71875 -11.625 
L 11.71875 4 
z
" id="DejaVuSans-44"/>
       <path d="M 7.171875 54.6875 
L 16.703125 54.6875 
L 24.703125 8.203125 
L 50.875 54.6875 
L 60.40625 54.6875 
L 29.296875 0 
L 17.1875 0 
z
" id="DejaVuSans-Oblique-118"/>
       <path d="M 53.71875 31.203125 
L 47.609375 0 
L 38.625 0 
L 40.28125 8.296875 
Q 36.328125 3.421875 31.265625 1 
Q 26.21875 -1.421875 20.015625 -1.421875 
Q 13.03125 -1.421875 8.5625 2.84375 
Q 4.109375 7.125 4.109375 13.8125 
Q 4.109375 23.390625 11.75 28.953125 
Q 19.390625 34.515625 32.8125 34.515625 
L 45.3125 34.515625 
L 45.796875 36.921875 
Q 45.90625 37.3125 45.953125 37.765625 
Q 46 38.234375 46 39.203125 
Q 46 43.5625 42.453125 45.96875 
Q 38.921875 48.390625 32.515625 48.390625 
Q 28.125 48.390625 23.5 47.265625 
Q 18.890625 46.140625 14.015625 43.890625 
L 15.578125 52.203125 
Q 20.65625 54.109375 25.515625 55.046875 
Q 30.375 56 34.90625 56 
Q 44.578125 56 49.625 51.796875 
Q 54.6875 47.609375 54.6875 39.59375 
Q 54.6875 37.984375 54.4375 35.8125 
Q 54.203125 33.640625 53.71875 31.203125 
z
M 44 27.484375 
L 35.015625 27.484375 
Q 23.96875 27.484375 18.671875 24.53125 
Q 13.375 21.578125 13.375 15.375 
Q 13.375 11.078125 16.078125 8.640625 
Q 18.796875 6.203125 23.578125 6.203125 
Q 30.90625 6.203125 36.375 11.453125 
Q 41.84375 16.703125 43.609375 25.484375 
z
" id="DejaVuSans-Oblique-97"/>
       <path d="M 18.3125 75.984375 
L 27.296875 75.984375 
L 12.5 0 
L 3.515625 0 
z
" id="DejaVuSans-Oblique-108"/>
      </defs>
      <use transform="translate(0 0.78125)" xlink:href="#DejaVuSans-Oblique-99"/>
      <use transform="translate(54.980469 0.78125)" xlink:href="#DejaVuSans-Oblique-111"/>
      <use transform="translate(116.162109 0.78125)" xlink:href="#DejaVuSans-Oblique-114"/>
      <use transform="translate(176.757812 0.78125)" xlink:href="#DejaVuSans-61"/>
      <use transform="translate(280.029297 0.78125)" xlink:href="#DejaVuSans-49"/>
      <use transform="translate(343.652344 0.78125)" xlink:href="#DejaVuSans-46"/>
      <use transform="translate(375.439453 0.78125)" xlink:href="#DejaVuSans-48"/>
      <use transform="translate(439.0625 0.78125)" xlink:href="#DejaVuSans-44"/>
      <use transform="translate(490.332031 0.78125)" xlink:href="#DejaVuSans-Oblique-118"/>
      <use transform="translate(549.511719 -15.625)scale(0.7)" xlink:href="#DejaVuSans-Oblique-115"/>
      <use transform="translate(585.981445 -15.625)scale(0.7)" xlink:href="#DejaVuSans-Oblique-109"/>
      <use transform="translate(654.169922 -15.625)scale(0.7)" xlink:href="#DejaVuSans-Oblique-97"/>
      <use transform="translate(697.06543 -15.625)scale(0.7)" xlink:href="#DejaVuSans-Oblique-108"/>
      <use transform="translate(716.513672 -15.625)scale(0.7)" xlink:href="#DejaVuSans-Oblique-108"/>
      <use transform="translate(758.178711 0.78125)" xlink:href="#DejaVuSans-61"/>
      <use transform="translate(861.450195 0.78125)" xlink:href="#DejaVuSans-48"/>
      <use transform="translate(925.073242 0.78125)" xlink:href="#DejaVuSans-46"/>
      <use transform="translate(956.860352 0.78125)" xlink:href="#DejaVuSans-48"/>
      <use transform="translate(1020.483398 0.78125)" xlink:href="#DejaVuSans-49"/>
      <use transform="translate(1111.165581 0.78125)" xlink:href="#DejaVuSans-Oblique-109"/>
      <use transform="translate(1208.57769 0.78125)" xlink:href="#DejaVuSans-47"/>
      <use transform="translate(1242.269097 0.78125)" xlink:href="#DejaVuSans-Oblique-115"/>
     </g>
    </g>
    <g id="line2d_42">
     <path d="M 300.708 70.112563 
L 320.708 70.112563 
" style="fill:none;stroke:#ff7f0e;stroke-linecap:square;"/>
    </g>
    <g id="line2d_43"/>
    <g id="text_21">
     <!-- $cor = 0.7, v_{small}=0.01 \; m/s$ -->
     <g transform="translate(328.708 73.612563)scale(0.1 -0.1)">
      <use transform="translate(0 0.78125)" xlink:href="#DejaVuSans-Oblique-99"/>
      <use transform="translate(54.980469 0.78125)" xlink:href="#DejaVuSans-Oblique-111"/>
      <use transform="translate(116.162109 0.78125)" xlink:href="#DejaVuSans-Oblique-114"/>
      <use transform="translate(176.757812 0.78125)" xlink:href="#DejaVuSans-61"/>
      <use transform="translate(280.029297 0.78125)" xlink:href="#DejaVuSans-48"/>
      <use transform="translate(343.652344 0.78125)" xlink:href="#DejaVuSans-46"/>
      <use transform="translate(367.689453 0.78125)" xlink:href="#DejaVuSans-55"/>
      <use transform="translate(431.3125 0.78125)" xlink:href="#DejaVuSans-44"/>
      <use transform="translate(482.582031 0.78125)" xlink:href="#DejaVuSans-Oblique-118"/>
      <use transform="translate(541.761719 -15.625)scale(0.7)" xlink:href="#DejaVuSans-Oblique-115"/>
      <use transform="translate(578.231445 -15.625)scale(0.7)" xlink:href="#DejaVuSans-Oblique-109"/>
      <use transform="translate(646.419922 -15.625)scale(0.7)" xlink:href="#DejaVuSans-Oblique-97"/>
      <use transform="translate(689.31543 -15.625)scale(0.7)" xlink:href="#DejaVuSans-Oblique-108"/>
      <use transform="translate(708.763672 -15.625)scale(0.7)" xlink:href="#DejaVuSans-Oblique-108"/>
      <use transform="translate(750.428711 0.78125)" xlink:href="#DejaVuSans-61"/>
      <use transform="translate(853.700195 0.78125)" xlink:href="#DejaVuSans-48"/>
      <use transform="translate(917.323242 0.78125)" xlink:href="#DejaVuSans-46"/>
      <use transform="translate(949.110352 0.78125)" xlink:href="#DejaVuSans-48"/>
      <use transform="translate(1012.733398 0.78125)" xlink:href="#DejaVuSans-49"/>
      <use transform="translate(1103.415581 0.78125)" xlink:href="#DejaVuSans-Oblique-109"/>
      <use transform="translate(1200.82769 0.78125)" xlink:href="#DejaVuSans-47"/>
      <use transform="translate(1234.519097 0.78125)" xlink:href="#DejaVuSans-Oblique-115"/>
     </g>
    </g>
    <g id="line2d_44">
     <path d="M 300.708 84.790687 
L 320.708 84.790687 
" style="fill:none;stroke:#2ca02c;stroke-linecap:square;"/>
    </g>
    <g id="line2d_45"/>
    <g id="text_22">
     <!-- $cor = 0.3, v_{small}=0.01 \; m/s$ -->
     <g transform="translate(328.708 88.290687)scale(0.1 -0.1)">
      <use transform="translate(0 0.78125)" xlink:href="#DejaVuSans-Oblique-99"/>
      <use transform="translate(54.980469 0.78125)" xlink:href="#DejaVuSans-Oblique-111"/>
      <use transform="translate(116.162109 0.78125)" xlink:href="#DejaVuSans-Oblique-114"/>
      <use transform="translate(176.757812 0.78125)" xlink:href="#DejaVuSans-61"/>
      <use transform="translate(280.029297 0.78125)" xlink:href="#DejaVuSans-48"/>
      <use transform="translate(343.652344 0.78125)" xlink:href="#DejaVuSans-46"/>
      <use transform="translate(375.439453 0.78125)" xlink:href="#DejaVuSans-51"/>
      <use transform="translate(439.0625 0.78125)" xlink:href="#DejaVuSans-44"/>
      <use transform="translate(490.332031 0.78125)" xlink:href="#DejaVuSans-Oblique-118"/>
      <use transform="translate(549.511719 -15.625)scale(0.7)" xlink:href="#DejaVuSans-Oblique-115"/>
      <use transform="translate(585.981445 -15.625)scale(0.7)" xlink:href="#DejaVuSans-Oblique-109"/>
      <use transform="translate(654.169922 -15.625)scale(0.7)" xlink:href="#DejaVuSans-Oblique-97"/>
      <use transform="translate(697.06543 -15.625)scale(0.7)" xlink:href="#DejaVuSans-Oblique-108"/>
      <use transform="translate(716.513672 -15.625)scale(0.7)" xlink:href="#DejaVuSans-Oblique-108"/>
      <use transform="translate(758.178711 0.78125)" xlink:href="#DejaVuSans-61"/>
      <use transform="translate(861.450195 0.78125)" xlink:href="#DejaVuSans-48"/>
      <use transform="translate(925.073242 0.78125)" xlink:href="#DejaVuSans-46"/>
      <use transform="translate(956.860352 0.78125)" xlink:href="#DejaVuSans-48"/>
      <use transform="translate(1020.483398 0.78125)" xlink:href="#DejaVuSans-49"/>
      <use transform="translate(1111.165581 0.78125)" xlink:href="#DejaVuSans-Oblique-109"/>
      <use transform="translate(1208.57769 0.78125)" xlink:href="#DejaVuSans-47"/>
      <use transform="translate(1242.269097 0.78125)" xlink:href="#DejaVuSans-Oblique-115"/>
     </g>
    </g>
    <g id="line2d_46">
     <path d="M 300.708 99.468813 
L 320.708 99.468813 
" style="fill:none;stroke:#d62728;stroke-linecap:square;"/>
    </g>
    <g id="line2d_47"/>
    <g id="text_23">
     <!-- $cor = 0.1, v_{small}=0.01 \; m/s$ -->
     <g transform="translate(328.708 102.968813)scale(0.1 -0.1)">
      <use transform="translate(0 0.78125)" xlink:href="#DejaVuSans-Oblique-99"/>
      <use transform="translate(54.980469 0.78125)" xlink:href="#DejaVuSans-Oblique-111"/>
      <use transform="translate(116.162109 0.78125)" xlink:href="#DejaVuSans-Oblique-114"/>
      <use transform="translate(176.757812 0.78125)" xlink:href="#DejaVuSans-61"/>
      <use transform="translate(280.029297 0.78125)" xlink:href="#DejaVuSans-48"/>
      <use transform="translate(343.652344 0.78125)" xlink:href="#DejaVuSans-46"/>
      <use transform="translate(375.439453 0.78125)" xlink:href="#DejaVuSans-49"/>
      <use transform="translate(439.0625 0.78125)" xlink:href="#DejaVuSans-44"/>
      <use transform="translate(490.332031 0.78125)" xlink:href="#DejaVuSans-Oblique-118"/>
      <use transform="translate(549.511719 -15.625)scale(0.7)" xlink:href="#DejaVuSans-Oblique-115"/>
      <use transform="translate(585.981445 -15.625)scale(0.7)" xlink:href="#DejaVuSans-Oblique-109"/>
      <use transform="translate(654.169922 -15.625)scale(0.7)" xlink:href="#DejaVuSans-Oblique-97"/>
      <use transform="translate(697.06543 -15.625)scale(0.7)" xlink:href="#DejaVuSans-Oblique-108"/>
      <use transform="translate(716.513672 -15.625)scale(0.7)" xlink:href="#DejaVuSans-Oblique-108"/>
      <use transform="translate(758.178711 0.78125)" xlink:href="#DejaVuSans-61"/>
      <use transform="translate(861.450195 0.78125)" xlink:href="#DejaVuSans-48"/>
      <use transform="translate(925.073242 0.78125)" xlink:href="#DejaVuSans-46"/>
      <use transform="translate(956.860352 0.78125)" xlink:href="#DejaVuSans-48"/>
      <use transform="translate(1020.483398 0.78125)" xlink:href="#DejaVuSans-49"/>
      <use transform="translate(1111.165581 0.78125)" xlink:href="#DejaVuSans-Oblique-109"/>
      <use transform="translate(1208.57769 0.78125)" xlink:href="#DejaVuSans-47"/>
      <use transform="translate(1242.269097 0.78125)" xlink:href="#DejaVuSans-Oblique-115"/>
     </g>
    </g>
    <g id="line2d_48">
     <path d="M 300.708 114.146938 
L 320.708 114.146938 
" style="fill:none;stroke:#9467bd;stroke-linecap:square;"/>
    </g>
    <g id="line2d_49"/>
    <g id="text_24">
     <!-- $cor = 0.0, v_{small}=0.01 \; m/s$ -->
     <g transform="translate(328.708 117.646938)scale(0.1 -0.1)">
      <use transform="translate(0 0.78125)" xlink:href="#DejaVuSans-Oblique-99"/>
      <use transform="translate(54.980469 0.78125)" xlink:href="#DejaVuSans-Oblique-111"/>
      <use transform="translate(116.162109 0.78125)" xlink:href="#DejaVuSans-Oblique-114"/>
      <use transform="translate(176.757812 0.78125)" xlink:href="#DejaVuSans-61"/>
      <use transform="translate(280.029297 0.78125)" xlink:href="#DejaVuSans-48"/>
      <use transform="translate(343.652344 0.78125)" xlink:href="#DejaVuSans-46"/>
      <use transform="translate(375.439453 0.78125)" xlink:href="#DejaVuSans-48"/>
      <use transform="translate(439.0625 0.78125)" xlink:href="#DejaVuSans-44"/>
      <use transform="translate(490.332031 0.78125)" xlink:href="#DejaVuSans-Oblique-118"/>
      <use transform="translate(549.511719 -15.625)scale(0.7)" xlink:href="#DejaVuSans-Oblique-115"/>
      <use transform="translate(585.981445 -15.625)scale(0.7)" xlink:href="#DejaVuSans-Oblique-109"/>
      <use transform="translate(654.169922 -15.625)scale(0.7)" xlink:href="#DejaVuSans-Oblique-97"/>
      <use transform="translate(697.06543 -15.625)scale(0.7)" xlink:href="#DejaVuSans-Oblique-108"/>
      <use transform="translate(716.513672 -15.625)scale(0.7)" xlink:href="#DejaVuSans-Oblique-108"/>
      <use transform="translate(758.178711 0.78125)" xlink:href="#DejaVuSans-61"/>
      <use transform="translate(861.450195 0.78125)" xlink:href="#DejaVuSans-48"/>
      <use transform="translate(925.073242 0.78125)" xlink:href="#DejaVuSans-46"/>
      <use transform="translate(956.860352 0.78125)" xlink:href="#DejaVuSans-48"/>
      <use transform="translate(1020.483398 0.78125)" xlink:href="#DejaVuSans-49"/>
      <use transform="translate(1111.165581 0.78125)" xlink:href="#DejaVuSans-Oblique-109"/>
      <use transform="translate(1208.57769 0.78125)" xlink:href="#DejaVuSans-47"/>
      <use transform="translate(1242.269097 0.78125)" xlink:href="#DejaVuSans-Oblique-115"/>
     </g>
    </g>
   </g>
  </g>
 </g>
 <defs>
  <clipPath id="pe51eca4ee7">
   <rect height="271.656" width="402.318" x="64.89" y="42.336"/>
  </clipPath>
 </defs>
</svg>
