<?xml version="1.0" encoding="UTF-8" standalone="no"?>
<!-- Created with matplotlib (http://matplotlib.org/) -->

<svg
   height="238.65305pt"
   version="1.1"
   viewBox="0 0 428.51501 238.65305"
   width="428.51501pt"
   id="svg1934"
   sodipodi:docname="plot_bouncingBall.svg"
   inkscape:version="1.1.1 (3bf5ae0d25, 2021-09-20)"
   xmlns:inkscape="http://www.inkscape.org/namespaces/inkscape"
   xmlns:sodipodi="http://sodipodi.sourceforge.net/DTD/sodipodi-0.dtd"
   xmlns:xlink="http://www.w3.org/1999/xlink"
   xmlns="http://www.w3.org/2000/svg"
   xmlns:svg="http://www.w3.org/2000/svg">
  <sodipodi:namedview
     id="namedview1936"
     pagecolor="#ffffff"
     bordercolor="#666666"
     borderopacity="1.0"
     inkscape:pageshadow="2"
     inkscape:pageopacity="0.0"
     inkscape:pagecheckerboard="0"
     inkscape:document-units="pt"
     showgrid="false"
     inkscape:zoom="1.477504"
     inkscape:cx="260.913"
     inkscape:cy="214.88944"
     inkscape:window-width="2330"
     inkscape:window-height="1088"
     inkscape:window-x="769"
     inkscape:window-y="114"
     inkscape:window-maximized="0"
     inkscape:current-layer="g1738"
     fit-margin-top="10"
     fit-margin-left="10"
     fit-margin-right="10"
     fit-margin-bottom="10"
     showguides="false" />
  <defs
     id="defs1383">
    <style
       type="text/css"
       id="style1381">
*{stroke-linecap:butt;stroke-linejoin:round;}
  </style>
  </defs>
  <g
     id="figure_1"
     transform="translate(-19.285,-19.5808)">
    <g
       id="axes_1">
      <g
         id="patch_2"
         transform="translate(0,8.7444)">
        <path
           d="M 60.75,222.3576 H 437.4 V 29.9808 H 60.75 Z"
           style="fill:#ffffff"
           id="path1388" />
      </g>
      <g
         id="matplotlib.axis_1">
        <g
           id="xtick_1">
          <g
             id="line2d_1">
            <path
               clip-path="url(#p96eefe03e0)"
               d="M 77.870455,222.3576 V 29.9808"
               style="fill:none;stroke:#b0b0b0;stroke-width:0.5;stroke-linecap:square"
               id="path1391" />
          </g>
          <g
             id="line2d_2">
            <defs
               id="defs1395">
              <path
                 d="M 0,0 V 3.5"
                 id="m0c132a9961"
                 style="stroke:#000000;stroke-width:0.8" />
            </defs>
            <g
               id="g1399">
              <use
                 style="stroke:#000000;stroke-width:0.8"
                 x="77.870453"
                 xlink:href="#m0c132a9961"
                 y="222.3576"
                 id="use1397"
                 width="100%"
                 height="100%" />
            </g>
          </g>
          <g
             id="text_1">
            <!-- 0.0 -->
            <defs
               id="defs1404">
              <path
                 d="m 31.78125,66.40625 q -7.609375,0 -11.453125,-7.5 Q 16.5,51.421875 16.5,36.375 q 0,-14.984375 3.828125,-22.484375 3.84375,-7.5 11.453125,-7.5 7.671875,0 11.5,7.5 3.84375,7.5 3.84375,22.484375 0,15.046875 -3.84375,22.53125 -3.828125,7.5 -11.5,7.5 z m 0,7.8125 q 12.265625,0 18.734375,-9.703125 6.46875,-9.6875 6.46875,-28.140625 0,-18.40625 -6.46875,-28.109375 -6.46875,-9.6875 -18.734375,-9.6875 -12.25,0 -18.71875,9.6875 Q 6.59375,17.96875 6.59375,36.375 q 0,18.453125 6.46875,28.140625 6.46875,9.703125 18.71875,9.703125 z"
                 id="DejaVuSans-30" />
              <path
                 d="M 10.6875,12.40625 H 21 V 0 H 10.6875 Z"
                 id="DejaVuSans-2e" />
            </defs>
            <g
               transform="matrix(0.08,0,0,-0.08,71.509205,235.43635)"
               id="g1412">
              <use
                 xlink:href="#DejaVuSans-30"
                 id="use1406"
                 x="0"
                 y="0"
                 width="100%"
                 height="100%" />
              <use
                 x="63.623047"
                 xlink:href="#DejaVuSans-2e"
                 id="use1408"
                 y="0"
                 width="100%"
                 height="100%" />
              <use
                 x="95.410156"
                 xlink:href="#DejaVuSans-30"
                 id="use1410"
                 y="0"
                 width="100%"
                 height="100%" />
            </g>
          </g>
        </g>
        <g
           id="xtick_2">
          <g
             id="line2d_3">
            <path
               clip-path="url(#p96eefe03e0)"
               d="M 134.93864,222.3576 V 29.9808"
               style="fill:none;stroke:#b0b0b0;stroke-width:0.5;stroke-linecap:square"
               id="path1416" />
          </g>
          <g
             id="line2d_4">
            <g
               id="g1421">
              <use
                 style="stroke:#000000;stroke-width:0.8"
                 x="134.93863"
                 xlink:href="#m0c132a9961"
                 y="222.3576"
                 id="use1419"
                 width="100%"
                 height="100%" />
            </g>
          </g>
          <g
             id="text_2">
            <!-- 0.5 -->
            <defs
               id="defs1425">
              <path
                 d="m 10.796875,72.90625 h 38.71875 v -8.3125 h -29.6875 V 46.734375 q 2.140625,0.734375 4.28125,1.09375 2.15625,0.359375 4.3125,0.359375 Q 40.625,48.1875 47.75,41.5 54.890625,34.8125 54.890625,23.390625 54.890625,11.625 47.5625,5.09375 40.234375,-1.421875 26.90625,-1.421875 q -4.59375,0 -9.359375,0.78125 -4.75,0.78125 -9.828125,2.34375 V 11.625 q 4.390625,-2.390625 9.078125,-3.5625 4.6875,-1.171875 9.90625,-1.171875 8.453125,0 13.375,4.4375 4.9375,4.4375 4.9375,12.0625 0,7.609375 -4.9375,12.046875 -4.921875,4.453125 -13.375,4.453125 -3.953125,0 -7.890625,-0.875 -3.921875,-0.875 -8.015625,-2.734375 z"
                 id="DejaVuSans-35" />
            </defs>
            <g
               transform="matrix(0.08,0,0,-0.08,128.57739,235.43635)"
               id="g1433">
              <use
                 xlink:href="#DejaVuSans-30"
                 id="use1427"
                 x="0"
                 y="0"
                 width="100%"
                 height="100%" />
              <use
                 x="63.623047"
                 xlink:href="#DejaVuSans-2e"
                 id="use1429"
                 y="0"
                 width="100%"
                 height="100%" />
              <use
                 x="95.410156"
                 xlink:href="#DejaVuSans-35"
                 id="use1431"
                 y="0"
                 width="100%"
                 height="100%" />
            </g>
          </g>
        </g>
        <g
           id="xtick_3">
          <g
             id="line2d_5">
            <path
               clip-path="url(#p96eefe03e0)"
               d="M 192.00682,222.3576 V 29.9808"
               style="fill:none;stroke:#b0b0b0;stroke-width:0.5;stroke-linecap:square"
               id="path1437" />
          </g>
          <g
             id="line2d_6">
            <g
               id="g1442">
              <use
                 style="stroke:#000000;stroke-width:0.8"
                 x="192.00682"
                 xlink:href="#m0c132a9961"
                 y="222.3576"
                 id="use1440"
                 width="100%"
                 height="100%" />
            </g>
          </g>
          <g
             id="text_3">
            <!-- 1.0 -->
            <defs
               id="defs1446">
              <path
                 d="m 12.40625,8.296875 h 16.109375 v 55.625 L 10.984375,60.40625 v 8.984375 l 17.4375,3.515625 H 38.28125 V 8.296875 H 54.390625 V 0 H 12.40625 Z"
                 id="DejaVuSans-31" />
            </defs>
            <g
               transform="matrix(0.08,0,0,-0.08,185.64557,235.43635)"
               id="g1454">
              <use
                 xlink:href="#DejaVuSans-31"
                 id="use1448"
                 x="0"
                 y="0"
                 width="100%"
                 height="100%" />
              <use
                 x="63.623047"
                 xlink:href="#DejaVuSans-2e"
                 id="use1450"
                 y="0"
                 width="100%"
                 height="100%" />
              <use
                 x="95.410156"
                 xlink:href="#DejaVuSans-30"
                 id="use1452"
                 y="0"
                 width="100%"
                 height="100%" />
            </g>
          </g>
        </g>
        <g
           id="xtick_4">
          <g
             id="line2d_7">
            <path
               clip-path="url(#p96eefe03e0)"
               d="M 249.075,222.3576 V 29.9808"
               style="fill:none;stroke:#b0b0b0;stroke-width:0.5;stroke-linecap:square"
               id="path1458" />
          </g>
          <g
             id="line2d_8">
            <g
               id="g1463">
              <use
                 style="stroke:#000000;stroke-width:0.8"
                 x="249.075"
                 xlink:href="#m0c132a9961"
                 y="222.3576"
                 id="use1461"
                 width="100%"
                 height="100%" />
            </g>
          </g>
          <g
             id="text_4">
            <!-- 1.5 -->
            <g
               transform="matrix(0.08,0,0,-0.08,242.71375,235.43635)"
               id="g1472">
              <use
                 xlink:href="#DejaVuSans-31"
                 id="use1466"
                 x="0"
                 y="0"
                 width="100%"
                 height="100%" />
              <use
                 x="63.623047"
                 xlink:href="#DejaVuSans-2e"
                 id="use1468"
                 y="0"
                 width="100%"
                 height="100%" />
              <use
                 x="95.410156"
                 xlink:href="#DejaVuSans-35"
                 id="use1470"
                 y="0"
                 width="100%"
                 height="100%" />
            </g>
          </g>
        </g>
        <g
           id="xtick_5">
          <g
             id="line2d_9">
            <path
               clip-path="url(#p96eefe03e0)"
               d="M 306.14318,222.3576 V 29.9808"
               style="fill:none;stroke:#b0b0b0;stroke-width:0.5;stroke-linecap:square"
               id="path1476" />
          </g>
          <g
             id="line2d_10">
            <g
               id="g1481">
              <use
                 style="stroke:#000000;stroke-width:0.8"
                 x="306.14319"
                 xlink:href="#m0c132a9961"
                 y="222.3576"
                 id="use1479"
                 width="100%"
                 height="100%" />
            </g>
          </g>
          <g
             id="text_5">
            <!-- 2.0 -->
            <defs
               id="defs1485">
              <path
                 d="M 19.1875,8.296875 H 53.609375 V 0 H 7.328125 v 8.296875 q 5.609375,5.8125 15.296875,15.59375 9.703125,9.796875 12.1875,12.640625 4.734375,5.3125 6.609375,9 1.890625,3.6875 1.890625,7.25 0,5.8125 -4.078125,9.46875 -4.078125,3.671875 -10.625,3.671875 -4.640625,0 -9.796875,-1.609375 -5.140625,-1.609375 -11,-4.890625 v 9.96875 Q 13.765625,71.78125 18.9375,73 q 5.1875,1.21875 9.484375,1.21875 11.328125,0 18.0625,-5.671875 6.734375,-5.65625 6.734375,-15.125 0,-4.5 -1.6875,-8.53125 Q 49.859375,40.875 45.40625,35.40625 44.1875,33.984375 37.640625,27.21875 31.109375,20.453125 19.1875,8.296875 Z"
                 id="DejaVuSans-32" />
            </defs>
            <g
               transform="matrix(0.08,0,0,-0.08,299.78193,235.43635)"
               id="g1493">
              <use
                 xlink:href="#DejaVuSans-32"
                 id="use1487"
                 x="0"
                 y="0"
                 width="100%"
                 height="100%" />
              <use
                 x="63.623047"
                 xlink:href="#DejaVuSans-2e"
                 id="use1489"
                 y="0"
                 width="100%"
                 height="100%" />
              <use
                 x="95.410156"
                 xlink:href="#DejaVuSans-30"
                 id="use1491"
                 y="0"
                 width="100%"
                 height="100%" />
            </g>
          </g>
        </g>
        <g
           id="xtick_6">
          <g
             id="line2d_11">
            <path
               clip-path="url(#p96eefe03e0)"
               d="M 363.21136,222.3576 V 29.9808"
               style="fill:none;stroke:#b0b0b0;stroke-width:0.5;stroke-linecap:square"
               id="path1497" />
          </g>
          <g
             id="line2d_12">
            <g
               id="g1502">
              <use
                 style="stroke:#000000;stroke-width:0.8"
                 x="363.21136"
                 xlink:href="#m0c132a9961"
                 y="222.3576"
                 id="use1500"
                 width="100%"
                 height="100%" />
            </g>
          </g>
          <g
             id="text_6">
            <!-- 2.5 -->
            <g
               transform="matrix(0.08,0,0,-0.08,356.85011,235.43635)"
               id="g1511">
              <use
                 xlink:href="#DejaVuSans-32"
                 id="use1505"
                 x="0"
                 y="0"
                 width="100%"
                 height="100%" />
              <use
                 x="63.623047"
                 xlink:href="#DejaVuSans-2e"
                 id="use1507"
                 y="0"
                 width="100%"
                 height="100%" />
              <use
                 x="95.410156"
                 xlink:href="#DejaVuSans-35"
                 id="use1509"
                 y="0"
                 width="100%"
                 height="100%" />
            </g>
          </g>
        </g>
        <g
           id="xtick_7">
          <g
             id="line2d_13">
            <path
               clip-path="url(#p96eefe03e0)"
               d="M 420.27954,222.3576 V 29.9808"
               style="fill:none;stroke:#b0b0b0;stroke-width:0.5;stroke-linecap:square"
               id="path1515" />
          </g>
          <g
             id="line2d_14">
            <g
               id="g1520">
              <use
                 style="stroke:#000000;stroke-width:0.8"
                 x="420.27954"
                 xlink:href="#m0c132a9961"
                 y="222.3576"
                 id="use1518"
                 width="100%"
                 height="100%" />
            </g>
          </g>
          <g
             id="text_7">
            <!-- 3.0 -->
            <defs
               id="defs1524">
              <path
                 d="M 40.578125,39.3125 Q 47.65625,37.796875 51.625,33 q 3.984375,-4.78125 3.984375,-11.8125 0,-10.78125 -7.421875,-16.703125 -7.421875,-5.90625 -21.09375,-5.90625 -4.578125,0 -9.4375,0.90625 -4.859375,0.90625 -10.03125,2.71875 v 9.515625 q 4.09375,-2.390625 8.96875,-3.609375 4.890625,-1.21875 10.21875,-1.21875 9.265625,0 14.125,3.65625 4.859375,3.65625 4.859375,10.640625 0,6.453125 -4.515625,10.078125 -4.515625,3.640625 -12.5625,3.640625 h -8.5 v 8.109375 h 8.890625 q 7.265625,0 11.125,2.90625 3.859375,2.90625 3.859375,8.375 0,5.609375 -3.984375,8.609375 -3.96875,3.015625 -11.390625,3.015625 -4.0625,0 -8.703125,-0.890625 Q 15.375,64.15625 9.8125,62.3125 v 8.78125 q 5.625,1.5625 10.53125,2.34375 4.90625,0.78125 9.25,0.78125 11.234375,0 17.765625,-5.109375 6.546875,-5.09375 6.546875,-13.78125 0,-6.0625 -3.46875,-10.234375 -3.46875,-4.171875 -9.859375,-5.78125 z"
                 id="DejaVuSans-33" />
            </defs>
            <g
               transform="matrix(0.08,0,0,-0.08,413.9183,235.43635)"
               id="g1532">
              <use
                 xlink:href="#DejaVuSans-33"
                 id="use1526"
                 x="0"
                 y="0"
                 width="100%"
                 height="100%" />
              <use
                 x="63.623047"
                 xlink:href="#DejaVuSans-2e"
                 id="use1528"
                 y="0"
                 width="100%"
                 height="100%" />
              <use
                 x="95.410156"
                 xlink:href="#DejaVuSans-30"
                 id="use1530"
                 y="0"
                 width="100%"
                 height="100%" />
            </g>
          </g>
        </g>
        <g
           id="text_8">
          <!-- time [s] -->
          <defs
             id="defs1544">
            <path
               d="M 18.3125,70.21875 V 54.6875 h 18.5 v -6.984375 h -18.5 v -29.6875 q 0,-6.6875 1.828125,-8.59375 1.828125,-1.90625 7.453125,-1.90625 H 36.8125 V 0 H 27.59375 Q 17.1875,0 13.234375,3.875 9.28125,7.765625 9.28125,18.015625 v 29.6875 H 2.6875 V 54.6875 h 6.59375 v 15.53125 z"
               id="DejaVuSans-74" />
            <path
               d="M 9.421875,54.6875 H 18.40625 V 0 H 9.421875 Z m 0,21.296875 H 18.40625 V 64.59375 H 9.421875 Z"
               id="DejaVuSans-69" />
            <path
               d="M 52,44.1875 Q 55.375,50.25 60.0625,53.125 64.75,56 71.09375,56 q 8.546875,0 13.1875,-5.984375 4.640625,-5.96875 4.640625,-17 V 0 h -9.03125 v 32.71875 q 0,7.859375 -2.796875,11.65625 -2.78125,3.8125 -8.484375,3.8125 -6.984375,0 -11.046875,-4.640625 -4.046875,-4.625 -4.046875,-12.640625 V 0 h -9.03125 v 32.71875 q 0,7.90625 -2.78125,11.6875 -2.78125,3.78125 -8.59375,3.78125 -6.890625,0 -10.953125,-4.65625 -4.046875,-4.65625 -4.046875,-12.625 V 0 h -9.03125 v 54.6875 h 9.03125 v -8.5 q 3.078125,5.03125 7.375,7.421875 Q 29.78125,56 35.6875,56 41.65625,56 45.828125,52.96875 50,49.953125 52,44.1875 Z"
               id="DejaVuSans-6d" />
            <path
               d="m 56.203125,29.59375 v -4.390625 h -41.3125 q 0.59375,-9.28125 5.59375,-14.140625 5,-4.859375 13.9375,-4.859375 5.171875,0 10.03125,1.265625 4.859375,1.265625 9.65625,3.8125 v -8.5 q -4.84375,-2.046875 -9.921875,-3.125 -5.078125,-1.078125 -10.296875,-1.078125 -13.09375,0 -20.734375,7.609375 -7.640625,7.625 -7.640625,20.625 0,13.421875 7.25,21.296875 Q 20.015625,56 32.328125,56 q 11.03125,0 17.453125,-7.109375 6.421875,-7.09375 6.421875,-19.296875 z m -8.984375,2.640625 q -0.09375,7.359375 -4.125,11.75 -4.03125,4.40625 -10.671875,4.40625 -7.515625,0 -12.03125,-4.25 -4.515625,-4.25 -5.203125,-11.96875 z"
               id="DejaVuSans-65" />
            <path
               id="DejaVuSans-20"
               d="" />
            <path
               d="M 8.59375,75.984375 H 29.296875 V 69 H 17.578125 V -6.203125 h 11.71875 V -13.1875 H 8.59375 Z"
               id="DejaVuSans-5b" />
            <path
               d="m 44.28125,53.078125 v -8.5 Q 40.484375,46.53125 36.375,47.5 q -4.09375,0.984375 -8.5,0.984375 -6.6875,0 -10.03125,-2.046875 Q 14.5,44.390625 14.5,40.28125 q 0,-3.125 2.390625,-4.90625 2.390625,-1.78125 9.625,-3.390625 l 3.078125,-0.6875 Q 39.15625,29.25 43.1875,25.515625 47.21875,21.78125 47.21875,15.09375 q 0,-7.625 -6.03125,-12.078125 -6.03125,-4.4375 -16.578125,-4.4375 -4.390625,0 -9.15625,0.859375 Q 10.6875,0.296875 5.421875,2 v 9.28125 q 4.984375,-2.59375 9.8125,-3.890625 4.828125,-1.28125 9.578125,-1.28125 6.34375,0 9.75,2.171875 3.421875,2.171875 3.421875,6.125 0,3.65625 -2.46875,5.609375 -2.453125,1.953125 -10.8125,3.765625 l -3.125,0.734375 q -8.34375,1.75 -12.0625,5.390625 -3.703125,3.640625 -3.703125,9.984375 0,7.71875 5.46875,11.90625 Q 16.75,56 26.8125,56 q 4.96875,0 9.359375,-0.734375 4.40625,-0.71875 8.109375,-2.1875 z"
               id="DejaVuSans-73" />
            <path
               d="M 30.421875,75.984375 V -13.1875 H 9.71875 v 6.984375 H 21.390625 V 69 H 9.71875 v 6.984375 z"
               id="DejaVuSans-5d" />
          </defs>
          <g
             transform="matrix(0.08,0,0,-0.08,233.56187,247.17885)"
             id="g1562">
            <use
               xlink:href="#DejaVuSans-74"
               id="use1546"
               x="0"
               y="0"
               width="100%"
               height="100%" />
            <use
               x="39.208984"
               xlink:href="#DejaVuSans-69"
               id="use1548"
               y="0"
               width="100%"
               height="100%" />
            <use
               x="66.992188"
               xlink:href="#DejaVuSans-6d"
               id="use1550"
               y="0"
               width="100%"
               height="100%" />
            <use
               x="164.4043"
               xlink:href="#DejaVuSans-65"
               id="use1552"
               y="0"
               width="100%"
               height="100%" />
            <use
               x="225.92773"
               xlink:href="#DejaVuSans-20"
               id="use1554"
               y="0"
               width="100%"
               height="100%" />
            <use
               x="257.71484"
               xlink:href="#DejaVuSans-5b"
               id="use1556"
               y="0"
               width="100%"
               height="100%" />
            <use
               x="296.72852"
               xlink:href="#DejaVuSans-73"
               id="use1558"
               y="0"
               width="100%"
               height="100%" />
            <use
               x="348.82812"
               xlink:href="#DejaVuSans-5d"
               id="use1560"
               y="0"
               width="100%"
               height="100%" />
          </g>
        </g>
      </g>
      <g
         id="matplotlib.axis_2">
        <g
           id="ytick_1">
          <g
             id="line2d_15">
            <path
               clip-path="url(#p96eefe03e0)"
               d="M 60.75,213.59849 H 437.4"
               style="fill:none;stroke:#b0b0b0;stroke-width:0.5;stroke-linecap:square"
               id="path1566" />
          </g>
          <g
             id="line2d_16">
            <defs
               id="defs1570">
              <path
                 d="M 0,0 H -3.5"
                 id="m6706a52689"
                 style="stroke:#000000;stroke-width:0.8" />
            </defs>
            <g
               id="g1574">
              <use
                 style="stroke:#000000;stroke-width:0.8"
                 x="60.75"
                 xlink:href="#m6706a52689"
                 y="213.5985"
                 id="use1572"
                 width="100%"
                 height="100%" />
            </g>
          </g>
          <g
             id="text_9">
            <!-- 0.0 -->
            <g
               transform="matrix(0.08,0,0,-0.08,41.0275,216.63787)"
               id="g1583">
              <use
                 xlink:href="#DejaVuSans-30"
                 id="use1577"
                 x="0"
                 y="0"
                 width="100%"
                 height="100%" />
              <use
                 x="63.623047"
                 xlink:href="#DejaVuSans-2e"
                 id="use1579"
                 y="0"
                 width="100%"
                 height="100%" />
              <use
                 x="95.410156"
                 xlink:href="#DejaVuSans-30"
                 id="use1581"
                 y="0"
                 width="100%"
                 height="100%" />
            </g>
          </g>
        </g>
        <g
           id="ytick_2">
          <g
             id="line2d_17">
            <path
               clip-path="url(#p96eefe03e0)"
               d="M 60.75,178.62383 H 437.4"
               style="fill:none;stroke:#b0b0b0;stroke-width:0.5;stroke-linecap:square"
               id="path1587" />
          </g>
          <g
             id="line2d_18">
            <g
               id="g1592">
              <use
                 style="stroke:#000000;stroke-width:0.8"
                 x="60.75"
                 xlink:href="#m6706a52689"
                 y="178.62384"
                 id="use1590"
                 width="100%"
                 height="100%" />
            </g>
          </g>
          <g
             id="text_10">
            <!-- 0.2 -->
            <g
               transform="matrix(0.08,0,0,-0.08,41.0275,181.66321)"
               id="g1601">
              <use
                 xlink:href="#DejaVuSans-30"
                 id="use1595"
                 x="0"
                 y="0"
                 width="100%"
                 height="100%" />
              <use
                 x="63.623047"
                 xlink:href="#DejaVuSans-2e"
                 id="use1597"
                 y="0"
                 width="100%"
                 height="100%" />
              <use
                 x="95.410156"
                 xlink:href="#DejaVuSans-32"
                 id="use1599"
                 y="0"
                 width="100%"
                 height="100%" />
            </g>
          </g>
        </g>
        <g
           id="ytick_3">
          <g
             id="line2d_19">
            <path
               clip-path="url(#p96eefe03e0)"
               d="M 60.75,143.64917 H 437.4"
               style="fill:none;stroke:#b0b0b0;stroke-width:0.5;stroke-linecap:square"
               id="path1605" />
          </g>
          <g
             id="line2d_20">
            <g
               id="g1610">
              <use
                 style="stroke:#000000;stroke-width:0.8"
                 x="60.75"
                 xlink:href="#m6706a52689"
                 y="143.64917"
                 id="use1608"
                 width="100%"
                 height="100%" />
            </g>
          </g>
          <g
             id="text_11">
            <!-- 0.4 -->
            <defs
               id="defs1614">
              <path
                 d="M 37.796875,64.3125 12.890625,25.390625 h 24.90625 z m -2.59375,8.59375 h 12.40625 V 25.390625 h 10.40625 V 17.1875 H 47.609375 V 0 h -9.8125 V 17.1875 H 4.890625 v 9.515625 z"
                 id="DejaVuSans-34" />
            </defs>
            <g
               transform="matrix(0.08,0,0,-0.08,41.0275,146.68855)"
               id="g1622">
              <use
                 xlink:href="#DejaVuSans-30"
                 id="use1616"
                 x="0"
                 y="0"
                 width="100%"
                 height="100%" />
              <use
                 x="63.623047"
                 xlink:href="#DejaVuSans-2e"
                 id="use1618"
                 y="0"
                 width="100%"
                 height="100%" />
              <use
                 x="95.410156"
                 xlink:href="#DejaVuSans-34"
                 id="use1620"
                 y="0"
                 width="100%"
                 height="100%" />
            </g>
          </g>
        </g>
        <g
           id="ytick_4">
          <g
             id="line2d_21">
            <path
               clip-path="url(#p96eefe03e0)"
               d="M 60.75,108.67452 H 437.4"
               style="fill:none;stroke:#b0b0b0;stroke-width:0.5;stroke-linecap:square"
               id="path1626" />
          </g>
          <g
             id="line2d_22">
            <g
               id="g1631">
              <use
                 style="stroke:#000000;stroke-width:0.8"
                 x="60.75"
                 xlink:href="#m6706a52689"
                 y="108.67451"
                 id="use1629"
                 width="100%"
                 height="100%" />
            </g>
          </g>
          <g
             id="text_12">
            <!-- 0.6 -->
            <defs
               id="defs1635">
              <path
                 d="m 33.015625,40.375 q -6.640625,0 -10.53125,-4.546875 -3.875,-4.53125 -3.875,-12.4375 0,-7.859375 3.875,-12.4375 3.890625,-4.5625 10.53125,-4.5625 6.640625,0 10.515625,4.5625 3.875,4.578125 3.875,12.4375 0,7.90625 -3.875,12.4375 Q 39.65625,40.375 33.015625,40.375 Z M 52.59375,71.296875 V 62.3125 q -3.71875,1.75 -7.5,2.671875 -3.78125,0.9375 -7.5,0.9375 -9.765625,0 -14.921875,-6.59375 -5.140625,-6.59375 -5.875,-19.921875 2.875,4.25 7.21875,6.515625 4.359375,2.265625 9.578125,2.265625 10.984375,0 17.359375,-6.671875 6.375,-6.65625 6.375,-18.125 0,-11.234375 -6.640625,-18.03125 -6.640625,-6.78125 -17.671875,-6.78125 -12.65625,0 -19.34375,9.6875 -6.6875,9.703125 -6.6875,28.109375 0,17.28125 8.203125,27.5625 8.203125,10.28125 22.015625,10.28125 3.71875,0 7.5,-0.734375 3.78125,-0.734375 7.890625,-2.1875 z"
                 id="DejaVuSans-36" />
            </defs>
            <g
               transform="matrix(0.08,0,0,-0.08,41.0275,111.71389)"
               id="g1643">
              <use
                 xlink:href="#DejaVuSans-30"
                 id="use1637"
                 x="0"
                 y="0"
                 width="100%"
                 height="100%" />
              <use
                 x="63.623047"
                 xlink:href="#DejaVuSans-2e"
                 id="use1639"
                 y="0"
                 width="100%"
                 height="100%" />
              <use
                 x="95.410156"
                 xlink:href="#DejaVuSans-36"
                 id="use1641"
                 y="0"
                 width="100%"
                 height="100%" />
            </g>
          </g>
        </g>
        <g
           id="ytick_5">
          <g
             id="line2d_23">
            <path
               clip-path="url(#p96eefe03e0)"
               d="M 60.75,73.699858 H 437.4"
               style="fill:none;stroke:#b0b0b0;stroke-width:0.5;stroke-linecap:square"
               id="path1647" />
          </g>
          <g
             id="line2d_24">
            <g
               id="g1652">
              <use
                 style="stroke:#000000;stroke-width:0.8"
                 x="60.75"
                 xlink:href="#m6706a52689"
                 y="73.69986"
                 id="use1650"
                 width="100%"
                 height="100%" />
            </g>
          </g>
          <g
             id="text_13">
            <!-- 0.8 -->
            <defs
               id="defs1656">
              <path
                 d="m 31.78125,34.625 q -7.03125,0 -11.0625,-3.765625 -4.015625,-3.765625 -4.015625,-10.34375 0,-6.59375 4.015625,-10.359375 4.03125,-3.765625 11.0625,-3.765625 7.03125,0 11.078125,3.78125 4.0625,3.796875 4.0625,10.34375 0,6.578125 -4.03125,10.34375 Q 38.875,34.625 31.78125,34.625 Z m -9.859375,4.1875 Q 15.578125,40.375 12.03125,44.71875 8.5,49.078125 8.5,55.328125 q 0,8.734375 6.21875,13.8125 6.234375,5.078125 17.0625,5.078125 10.890625,0 17.09375,-5.078125 6.203125,-5.078125 6.203125,-13.8125 0,-6.25 -3.546875,-10.609375 Q 48,40.375 41.703125,38.8125 q 7.125,-1.65625 11.09375,-6.5 3.984375,-4.828125 3.984375,-11.796875 0,-10.609375 -6.46875,-16.28125 -6.46875,-5.65625 -18.53125,-5.65625 -12.046875,0 -18.53125,5.65625 -6.46875,5.671875 -6.46875,16.28125 0,6.96875 4,11.796875 4.015625,4.84375 11.140625,6.5 z M 18.3125,54.390625 q 0,-5.65625 3.53125,-8.828125 3.546875,-3.171875 9.9375,-3.171875 6.359375,0 9.9375,3.171875 3.59375,3.171875 3.59375,8.828125 0,5.671875 -3.59375,8.84375 -3.578125,3.171875 -9.9375,3.171875 -6.390625,0 -9.9375,-3.171875 Q 18.3125,60.0625 18.3125,54.390625 Z"
                 id="DejaVuSans-38" />
            </defs>
            <g
               transform="matrix(0.08,0,0,-0.08,41.0275,76.739233)"
               id="g1664">
              <use
                 xlink:href="#DejaVuSans-30"
                 id="use1658"
                 x="0"
                 y="0"
                 width="100%"
                 height="100%" />
              <use
                 x="63.623047"
                 xlink:href="#DejaVuSans-2e"
                 id="use1660"
                 y="0"
                 width="100%"
                 height="100%" />
              <use
                 x="95.410156"
                 xlink:href="#DejaVuSans-38"
                 id="use1662"
                 y="0"
                 width="100%"
                 height="100%" />
            </g>
          </g>
        </g>
        <g
           id="ytick_6">
          <g
             id="line2d_25">
            <path
               clip-path="url(#p96eefe03e0)"
               d="M 60.75,38.7252 H 437.4"
               style="fill:none;stroke:#b0b0b0;stroke-width:0.5;stroke-linecap:square"
               id="path1668" />
          </g>
          <g
             id="line2d_26">
            <g
               id="g1673">
              <use
                 style="stroke:#000000;stroke-width:0.8"
                 x="60.75"
                 xlink:href="#m6706a52689"
                 y="38.725201"
                 id="use1671"
                 width="100%"
                 height="100%" />
            </g>
          </g>
          <g
             id="text_14">
            <!-- 1.0 -->
            <g
               transform="matrix(0.08,0,0,-0.08,41.0275,41.764575)"
               id="g1682">
              <use
                 xlink:href="#DejaVuSans-31"
                 id="use1676"
                 x="0"
                 y="0"
                 width="100%"
                 height="100%" />
              <use
                 x="63.623047"
                 xlink:href="#DejaVuSans-2e"
                 id="use1678"
                 y="0"
                 width="100%"
                 height="100%" />
              <use
                 x="95.410156"
                 xlink:href="#DejaVuSans-30"
                 id="use1680"
                 y="0"
                 width="100%"
                 height="100%" />
            </g>
          </g>
        </g>
        <g
           id="text_15">
          <!-- height [m] and cor [] -->
          <defs
             id="defs1694">
            <path
               d="M 54.890625,33.015625 V 0 H 45.90625 v 32.71875 q 0,7.765625 -3.03125,11.609375 -3.03125,3.859375 -9.078125,3.859375 -7.28125,0 -11.484375,-4.640625 -4.203125,-4.625 -4.203125,-12.640625 V 0 h -9.03125 v 75.984375 h 9.03125 V 46.1875 q 3.234375,4.9375 7.59375,7.375 4.375,2.4375 10.09375,2.4375 9.421875,0 14.25,-5.828125 4.84375,-5.828125 4.84375,-17.15625 z"
               id="DejaVuSans-68" />
            <path
               d="m 45.40625,27.984375 q 0,9.765625 -4.03125,15.125 -4.015625,5.375 -11.296875,5.375 -7.21875,0 -11.25,-5.375 -4.03125,-5.359375 -4.03125,-15.125 0,-9.71875 4.03125,-15.09375 4.03125,-5.375 11.25,-5.375 7.28125,0 11.296875,5.375 4.03125,5.375 4.03125,15.09375 z M 54.390625,6.78125 q 0,-13.953125 -6.203125,-20.765625 -6.1875,-6.8125 -18.984375,-6.8125 -4.734375,0 -8.9375,0.703125 -4.203125,0.703125 -8.15625,2.171875 V -9.1875 q 3.953125,-2.140625 7.8125,-3.15625 3.859375,-1.03125 7.859375,-1.03125 8.84375,0 13.234375,4.609375 4.390625,4.609375 4.390625,13.9375 V 9.625 Q 42.625,4.78125 38.28125,2.390625 33.9375,0 27.875,0 17.828125,0 11.671875,7.65625 q -6.15625,7.671875 -6.15625,20.328125 0,12.6875 6.15625,20.34375 Q 17.828125,56 27.875,56 q 6.0625,0 10.40625,-2.390625 4.34375,-2.390625 7.125,-7.21875 V 54.6875 h 8.984375 z"
               id="DejaVuSans-67" />
            <path
               d="m 34.28125,27.484375 q -10.890625,0 -15.09375,-2.484375 -4.203125,-2.484375 -4.203125,-8.5 0,-4.78125 3.15625,-7.59375 3.15625,-2.796875 8.5625,-2.796875 7.484375,0 12,5.296875 4.515625,5.296875 4.515625,14.078125 v 2 z m 17.921875,3.71875 V 0 H 43.21875 v 8.296875 q -3.078125,-4.96875 -7.671875,-7.34375 -4.59375,-2.375 -11.234375,-2.375 -8.390625,0 -13.359375,4.71875 Q 6,8.015625 6,15.921875 q 0,9.21875 6.171875,13.90625 6.1875,4.6875 18.4375,4.6875 H 43.21875 v 0.890625 q 0,6.203125 -4.078125,9.59375 -4.078125,3.390625 -11.453125,3.390625 -4.6875,0 -9.140625,-1.125 -4.4375,-1.125 -8.53125,-3.375 v 8.3125 q 4.921875,1.90625 9.5625,2.84375 Q 24.21875,56 28.609375,56 q 11.875,0 17.734375,-6.15625 5.859375,-6.140625 5.859375,-18.640625 z"
               id="DejaVuSans-61" />
            <path
               d="M 54.890625,33.015625 V 0 H 45.90625 v 32.71875 q 0,7.765625 -3.03125,11.609375 -3.03125,3.859375 -9.078125,3.859375 -7.28125,0 -11.484375,-4.640625 -4.203125,-4.625 -4.203125,-12.640625 V 0 h -9.03125 v 54.6875 h 9.03125 v -8.5 q 3.234375,4.9375 7.59375,7.375 4.375,2.4375 10.09375,2.4375 9.421875,0 14.25,-5.828125 4.84375,-5.828125 4.84375,-17.15625 z"
               id="DejaVuSans-6e" />
            <path
               d="m 45.40625,46.390625 v 29.59375 h 8.984375 V 0 H 45.40625 v 8.203125 q -2.828125,-4.875 -7.15625,-7.25 -4.3125,-2.375 -10.375,-2.375 -9.90625,0 -16.140625,7.90625 -6.21875,7.921875 -6.21875,20.8125 0,12.890625 6.21875,20.796875 Q 17.96875,56 27.875,56 q 6.0625,0 10.375,-2.375 4.328125,-2.359375 7.15625,-7.234375 z M 14.796875,27.296875 q 0,-9.90625 4.078125,-15.546875 4.078125,-5.640625 11.203125,-5.640625 7.125,0 11.21875,5.640625 4.109375,5.640625 4.109375,15.546875 0,9.90625 -4.109375,15.546875 -4.09375,5.640625 -11.21875,5.640625 -7.125,0 -11.203125,-5.640625 -4.078125,-5.640625 -4.078125,-15.546875 z"
               id="DejaVuSans-64" />
            <path
               d="M 48.78125,52.59375 V 44.1875 q -3.8125,2.109375 -7.640625,3.15625 -3.828125,1.046875 -7.734375,1.046875 -8.75,0 -13.59375,-5.546875 -4.828125,-5.53125 -4.828125,-15.546875 0,-10.015625 4.828125,-15.5625 4.84375,-5.53125 13.59375,-5.53125 3.90625,0 7.734375,1.046875 3.828125,1.046875 7.640625,3.15625 v -8.3125 q -3.765625,-1.75 -7.796875,-2.625 -4.015625,-0.890625 -8.5625,-0.890625 -12.359375,0 -19.640625,7.765625 -7.265625,7.765625 -7.265625,20.953125 0,13.375 7.34375,21.03125 Q 20.21875,56 33.015625,56 q 4.140625,0 8.09375,-0.859375 3.953125,-0.84375 7.671875,-2.546875 z"
               id="DejaVuSans-63" />
            <path
               d="m 30.609375,48.390625 q -7.21875,0 -11.421875,-5.640625 -4.203125,-5.640625 -4.203125,-15.453125 0,-9.8125 4.171875,-15.453125 4.1875,-5.640625 11.453125,-5.640625 7.1875,0 11.375,5.65625 4.203125,5.671875 4.203125,15.4375 0,9.71875 -4.203125,15.40625 -4.1875,5.6875 -11.375,5.6875 z m 0,7.609375 q 11.71875,0 18.40625,-7.625 6.703125,-7.609375 6.703125,-21.078125 0,-13.421875 -6.703125,-21.078125 -6.6875,-7.640625 -18.40625,-7.640625 -11.765625,0 -18.4375,7.640625 -6.65625,7.65625 -6.65625,21.078125 0,13.46875 6.65625,21.078125 Q 18.84375,56 30.609375,56 Z"
               id="DejaVuSans-6f" />
            <path
               d="m 41.109375,46.296875 q -1.515625,0.875 -3.296875,1.28125 Q 36.03125,48 33.890625,48 26.265625,48 22.1875,43.046875 18.109375,38.09375 18.109375,28.8125 V 0 h -9.03125 v 54.6875 h 9.03125 v -8.5 q 2.84375,4.984375 7.375,7.390625 Q 30.03125,56 36.53125,56 q 0.921875,0 2.046875,-0.125 1.125,-0.109375 2.484375,-0.359375 z"
               id="DejaVuSans-72" />
          </defs>
          <g
             transform="matrix(0,-0.08,-0.08,0,35.36375,167.95982)"
             id="g1738">
            <use
               xlink:href="#DejaVuSans-68"
               id="use1696"
               x="0"
               y="0"
               width="100%"
               height="100%" />
            <use
               x="63.378906"
               xlink:href="#DejaVuSans-65"
               id="use1698"
               y="0"
               width="100%"
               height="100%" />
            <use
               x="124.90234"
               xlink:href="#DejaVuSans-69"
               id="use1700"
               y="0"
               width="100%"
               height="100%" />
            <use
               x="152.68555"
               xlink:href="#DejaVuSans-67"
               id="use1702"
               y="0"
               width="100%"
               height="100%" />
            <use
               x="216.16211"
               xlink:href="#DejaVuSans-68"
               id="use1704"
               y="0"
               width="100%"
               height="100%" />
            <use
               x="279.54102"
               xlink:href="#DejaVuSans-74"
               id="use1706"
               y="0"
               width="100%"
               height="100%" />
            <use
               x="318.75"
               xlink:href="#DejaVuSans-20"
               id="use1708"
               y="0"
               width="100%"
               height="100%" />
            <use
               x="350.53711"
               xlink:href="#DejaVuSans-5b"
               id="use1710"
               y="0"
               width="100%"
               height="100%" />
            <use
               x="389.55078"
               xlink:href="#DejaVuSans-6d"
               id="use1712"
               y="0"
               width="100%"
               height="100%" />
            <use
               x="486.96289"
               xlink:href="#DejaVuSans-5d"
               id="use1714"
               y="0"
               width="100%"
               height="100%" />
            <use
               x="525.97656"
               xlink:href="#DejaVuSans-20"
               id="use1716"
               y="0"
               width="100%"
               height="100%" />
            <use
               x="557.76367"
               xlink:href="#DejaVuSans-61"
               id="use1718"
               y="0"
               width="100%"
               height="100%" />
            <use
               x="619.04297"
               xlink:href="#DejaVuSans-6e"
               id="use1720"
               y="0"
               width="100%"
               height="100%" />
            <use
               x="682.42188"
               xlink:href="#DejaVuSans-64"
               id="use1722"
               y="0"
               width="100%"
               height="100%" />
            <use
               x="745.89844"
               xlink:href="#DejaVuSans-20"
               id="use1724"
               y="0"
               width="100%"
               height="100%" />
            <use
               x="777.68555"
               xlink:href="#DejaVuSans-63"
               id="use1726"
               y="0"
               width="100%"
               height="100%" />
            <use
               x="832.66602"
               xlink:href="#DejaVuSans-6f"
               id="use1728"
               y="0"
               width="100%"
               height="100%" />
            <use
               x="893.84766"
               xlink:href="#DejaVuSans-72"
               id="use1730"
               y="0"
               width="100%"
               height="100%" />
            <use
               x="934.96094"
               xlink:href="#DejaVuSans-20"
               id="use1732"
               y="0"
               width="100%"
               height="100%" />
          </g>
        </g>
      </g>
      <g
         id="line2d_27">
        <path
           clip-path="url(#p96eefe03e0)"
           d="m 77.870455,38.7252 1.369636,0.123517 1.369636,0.370549 1.369637,0.617583 1.369636,0.864615 1.369636,1.111649 1.369637,1.358681 1.369636,1.605715 1.369636,1.852747 2.054455,3.242308 2.054455,3.798133 2.054454,4.353957 2.054455,4.909781 2.054454,5.465605 2.054452,6.021429 2.05446,6.577254 2.73927,9.634287 2.73927,10.62242 2.73928,11.61055 2.73927,12.59868 2.73927,13.58682 2.73927,14.57495 3.4241,19.60824 3.42409,21.1522 2.91317,19.21162 v 0 l 2.56537,-11.75368 2.73927,-11.59368 2.73928,-10.60554 2.73927,-9.61742 2.73927,-8.62928 2.05446,-5.8235 2.05445,-5.26768 2.05445,-4.71185 2.05446,-4.15603 2.05446,-3.6002 2.05445,-3.04438 1.36964,-1.72079 1.36963,-1.47376 1.36964,-1.22673 1.36963,-0.9797 1.36964,-0.73266 1.36964,-0.48563 1.36963,-0.2386 1.36964,0.008 1.36964,0.25547 1.36963,0.5025 1.36964,0.74954 1.36963,0.99656 1.36964,1.24361 1.36964,1.49063 1.36963,1.73767 2.05446,3.06969 2.05445,3.62551 2.05446,4.18134 2.05445,4.73716 2.05446,5.29298 2.05445,5.84881 2.05446,6.40463 2.73927,9.40413 2.73927,10.39226 2.73928,11.38039 2.73927,12.36853 0.41736,1.97126 2.32191,-7.36631 2.05445,-5.9258 2.05446,-5.36998 2.05445,-4.81416 2.05446,-4.25834 2.05445,-3.70251 2.05446,-3.14668 2.05445,-2.59086 1.36964,-1.41845 1.36964,-1.17142 1.36963,-0.92438 1.36964,-0.67735 1.36963,-0.43032 1.36964,-0.18329 1.36964,0.0637 1.36963,0.31078 1.36964,0.55782 1.36963,0.80485 1.36964,1.05188 1.36964,1.29891 1.36964,1.54595 1.36963,1.79298 2.05446,3.15265 2.05445,3.70848 2.05445,4.26431 2.05446,4.82013 2.05445,5.37595 2.05446,5.93178 2.29983,7.29963 v 0 l 1.80908,-3.99564 2.05445,-4.01498 2.05446,-3.45916 2.05445,-2.90333 1.36964,-1.62677 1.36963,-1.37973 1.36964,-1.1327 1.36964,-0.88566 1.36963,-0.63864 1.36964,-0.39159 1.36964,-0.14457 1.36963,0.10247 1.36964,0.3495 1.36963,0.59653 1.36964,0.84357 1.36964,1.0906 1.36963,1.33763 1.36964,1.58466 1.36964,1.8317 2.05445,3.21073 2.05445,3.76656 2.05446,4.32238 0.67285,1.53644 0.012,-0.0195 2.05445,-3.06648 1.36964,-1.73553 1.36964,-1.48849 1.36963,-1.24147 1.36964,-0.99443 1.36963,-0.74739 1.36964,-0.50037 1.36964,-0.25333 1.36963,-0.006 1.36964,0.24074 1.36964,0.48777 1.36963,0.7348 1.36964,0.98183 1.36963,1.22887 1.36964,1.4759 1.36964,1.72293 2.05445,3.04759 0.0818,0.13286 v 0 l 1.28783,-1.35971 1.36963,-1.20644 1.36964,-0.9594 1.36964,-0.71236 1.36963,-0.46534 1.36964,-0.2183 1.36964,0.0287 1.36963,0.27576 1.36964,0.5228 1.36964,0.76983 1.36963,1.01686 1.36964,1.2639 0.96924,1.04367 v 0 l 1.08521,-0.78893 1.36964,-0.7743 1.36964,-0.52728 1.36963,-0.28024 1.36964,-0.0332 1.36963,0.21382 1.36964,0.46086 1.36964,0.70789 1.45347,1.02139 v 0 l 1.2858,-0.60978 1.36964,-0.41006 1.36963,-0.16303 1.36964,0.084 1.36964,0.33104 1.72395,0.76783 v 0 l 1.01532,-0.32935 1.36964,-0.2292 1.36963,0.0178 1.36964,0.26487 0.81758,0.27585 v 0 l 1.23687,-0.238 1.36964,-0.0285 2.05445,0.1869 1.36964,-0.0485 1.36964,0.0911 1.36963,-7e-5 0.68482,0.0128 54.78545,0.0243 v 0"
           style="fill:none;stroke:#1f77b4;stroke-linecap:square"
           id="path1742" />
      </g>
      <g
         id="line2d_28">
        <path
           clip-path="url(#p96eefe03e0)"
           d="m 77.870455,38.7252 1.2555,0.103788 1.2555,0.311365 1.369636,0.57641 1.369636,0.823443 1.483773,1.170834 1.483773,1.460754 1.597909,1.897351 1.712045,2.405998 1.712046,2.791988 1.826182,3.403566 1.940318,4.097488 2.054454,4.878902 2.168591,5.752953 2.282722,6.724787 2.39687,7.799553 2.39686,8.556091 2.511,9.774959 2.62514,11.10705 2.73927,12.55751 2.85341,14.13149 2.96755,15.83413 3.08168,17.67058 3.19582,19.64598 3.28726,21.39632 0.0227,-0.10514 2.85341,-12.68245 2.73927,-11.16644 2.62514,-9.77394 2.511,-8.4998 2.39686,-7.3389 2.28273,-6.28607 2.16859,-5.33618 2.05445,-4.48405 1.94032,-3.72458 1.82619,-3.0526 1.71204,-2.46295 1.71205,-2.07696 1.5979,-1.59025 1.48378,-1.17559 1.48377,-0.88566 1.36964,-0.56022 1.36963,-0.31318 1.2555,-0.0701 1.2555,0.13751 1.36964,0.38674 1.36964,0.63378 1.36963,0.88081 1.48377,1.23299 1.48378,1.5229 1.59791,1.96428 1.71204,2.47771 1.82618,3.06834 1.82619,3.5075 1.94031,4.20793 2.05446,4.99583 2.16859,5.87638 2.28273,6.85472 2.39686,7.93597 2.511,9.12531 2.62514,10.42787 2.73927,11.84881 1.01865,4.49965 0.009,-0.0272 2.39686,-7.2073 2.28273,-6.16074 2.16859,-5.2171 2.05445,-4.37125 1.94032,-3.61805 1.82618,-2.95232 1.71205,-2.36895 1.59791,-1.86277 1.59791,-1.52653 1.48377,-1.11643 1.36964,-0.77321 1.36963,-0.52619 1.36964,-0.27915 1.2555,-0.0389 1.2555,0.1687 1.36964,0.42078 1.36963,0.66781 1.36964,0.91484 1.48377,1.26985 1.48377,1.55977 1.59791,2.00398 1.71205,2.52024 1.82618,3.11371 1.82618,3.55288 1.94032,4.25613 2.05445,5.04688 2.16859,5.93026 2.22783,6.6202 0.0549,-0.1185 2.05446,-4.1486 1.94031,-3.40775 1.82619,-2.75441 1.71204,-2.1834 1.59791,-1.68959 1.48378,-1.26784 1.48377,-0.97792 1.36963,-0.64536 1.36964,-0.39833 1.2555,-0.14813 1.2555,0.0595 1.2555,0.26703 1.36964,0.52804 1.36963,0.77507 1.36964,1.02211 1.48377,1.38605 1.59791,1.81691 1.59791,2.15314 1.71204,2.68006 1.82619,3.28418 1.88659,3.76779 0.0537,-0.0791 1.71205,-2.32145 1.59791,-1.81844 1.59791,-1.4822 1.48377,-1.07525 1.36964,-0.73522 1.36964,-0.48818 1.36963,-0.24115 1.2555,-0.004 1.2555,0.20354 1.36964,0.45877 1.36963,0.70581 1.36964,0.95284 1.48377,1.31102 1.59791,1.73609 1.59791,2.07234 0.6022,0.80462 v 0 l 1.56639,-1.41572 1.48378,-1.04306 1.36963,-0.70549 1.36964,-0.45846 1.36963,-0.21143 1.2555,0.0232 1.2555,0.23078 1.36964,0.4885 1.36964,0.73553 1.36963,0.98257 1.71205,1.27101 1.36964,-0.78949 1.36963,-0.54244 1.36964,-0.29542 1.2555,-0.0538 1.2555,0.15379 1.36963,0.40451 1.36964,0.65155 1.02723,0.54574 1.36963,-0.50595 1.36964,-0.25891 1.2555,-0.0203 1.2555,0.18725 1.36964,0.44101 0.57068,0.15522 1.36964,-0.29454 1.25549,-0.053 1.2555,0.15459 1.25551,0.15612 1.2555,-0.10944 1.25549,0.0981 0.79896,0.0382 1.2555,-0.0252 2.39686,0.0567 3.42409,0.009 h 68.36768 v 0"
           style="fill:none;stroke:#ff7f0e;stroke-linecap:square"
           id="path1745" />
      </g>
      <g
         id="patch_3">
        <path
           d="M 60.75,222.3576 V 29.9808"
           style="fill:none;stroke:#000000;stroke-width:0.8;stroke-linecap:square;stroke-linejoin:miter"
           id="path1751" />
      </g>
      <g
         id="patch_4">
        <path
           d="M 437.4,222.3576 V 29.9808"
           style="fill:none;stroke:#000000;stroke-width:0.8;stroke-linecap:square;stroke-linejoin:miter"
           id="path1754" />
      </g>
      <g
         id="patch_5">
        <path
           d="M 60.75,222.3576 H 437.4"
           style="fill:none;stroke:#000000;stroke-width:0.8;stroke-linecap:square;stroke-linejoin:miter"
           id="path1757" />
      </g>
      <g
         id="patch_6">
        <path
           d="M 60.75,29.9808 H 437.4"
           style="fill:none;stroke:#000000;stroke-width:0.8;stroke-linecap:square;stroke-linejoin:miter"
           id="path1760" />
      </g>
      <g
         id="legend_1">
        <g
           id="patch_7">
          <path
             d="M 308.12,71.6083 H 431.8 q 1.6,0 1.6,-1.6 V 35.5808 q 0,-1.6 -1.6,-1.6 H 308.12 q -1.6,0 -1.6,1.6 v 34.4275 q 0,1.6 1.6,1.6 z"
             style="opacity:0.8;fill:#ffffff;stroke:#cccccc;stroke-linejoin:miter"
             id="path1763" />
        </g>
        <g
           id="line2d_30">
          <path
             d="m 309.72,40.45955 h 16"
             style="fill:none;stroke:#1f77b4;stroke-linecap:square"
             id="path1766" />
        </g>
        <g
           id="line2d_31" />
        <g
           id="text_16">
          <!-- impulsive response -->
          <defs
             id="defs1774">
            <path
               d="m 18.109375,8.203125 v -29 H 9.078125 V 54.6875 h 9.03125 v -8.296875 q 2.84375,4.875 7.15625,7.234375 Q 29.59375,56 35.59375,56 q 9.96875,0 16.1875,-7.90625 6.234375,-7.90625 6.234375,-20.796875 0,-12.890625 -6.234375,-20.8125 -6.21875,-7.90625 -16.1875,-7.90625 -6,0 -10.328125,2.375 -4.3125,2.375 -7.15625,7.25 z M 48.6875,27.296875 q 0,9.90625 -4.078125,15.546875 -4.078125,5.640625 -11.203125,5.640625 -7.140625,0 -11.21875,-5.640625 -4.078125,-5.640625 -4.078125,-15.546875 0,-9.90625 4.078125,-15.546875 4.078125,-5.640625 11.21875,-5.640625 7.125,0 11.203125,5.640625 4.078125,5.640625 4.078125,15.546875 z"
               id="DejaVuSans-70" />
            <path
               d="M 8.5,21.578125 V 54.6875 h 8.984375 V 21.921875 q 0,-7.765625 3.015625,-11.65625 3.03125,-3.875 9.09375,-3.875 7.265625,0 11.484375,4.640625 4.234375,4.640625 4.234375,12.65625 v 31 h 8.984375 V 0 H 45.3125 V 8.40625 Q 42.046875,3.421875 37.71875,1 33.40625,-1.421875 27.6875,-1.421875 18.265625,-1.421875 13.375,4.4375 8.5,10.296875 8.5,21.578125 Z M 31.109375,56 Z"
               id="DejaVuSans-75" />
            <path
               d="M 9.421875,75.984375 H 18.40625 V 0 H 9.421875 Z"
               id="DejaVuSans-6c" />
            <path
               d="M 2.984375,54.6875 H 12.5 L 29.59375,8.796875 46.6875,54.6875 h 9.515625 L 35.6875,0 H 23.484375 Z"
               id="DejaVuSans-76" />
          </defs>
          <g
             transform="matrix(0.08,0,0,-0.08,332.12,43.25955)"
             id="g1812">
            <use
               xlink:href="#DejaVuSans-69"
               id="use1776"
               x="0"
               y="0"
               width="100%"
               height="100%" />
            <use
               x="27.783203"
               xlink:href="#DejaVuSans-6d"
               id="use1778"
               y="0"
               width="100%"
               height="100%" />
            <use
               x="125.19531"
               xlink:href="#DejaVuSans-70"
               id="use1780"
               y="0"
               width="100%"
               height="100%" />
            <use
               x="188.67188"
               xlink:href="#DejaVuSans-75"
               id="use1782"
               y="0"
               width="100%"
               height="100%" />
            <use
               x="252.05078"
               xlink:href="#DejaVuSans-6c"
               id="use1784"
               y="0"
               width="100%"
               height="100%" />
            <use
               x="279.83398"
               xlink:href="#DejaVuSans-73"
               id="use1786"
               y="0"
               width="100%"
               height="100%" />
            <use
               x="331.93359"
               xlink:href="#DejaVuSans-69"
               id="use1788"
               y="0"
               width="100%"
               height="100%" />
            <use
               x="359.7168"
               xlink:href="#DejaVuSans-76"
               id="use1790"
               y="0"
               width="100%"
               height="100%" />
            <use
               x="418.89648"
               xlink:href="#DejaVuSans-65"
               id="use1792"
               y="0"
               width="100%"
               height="100%" />
            <use
               x="480.41992"
               xlink:href="#DejaVuSans-20"
               id="use1794"
               y="0"
               width="100%"
               height="100%" />
            <use
               x="512.20703"
               xlink:href="#DejaVuSans-72"
               id="use1796"
               y="0"
               width="100%"
               height="100%" />
            <use
               x="553.28906"
               xlink:href="#DejaVuSans-65"
               id="use1798"
               y="0"
               width="100%"
               height="100%" />
            <use
               x="614.8125"
               xlink:href="#DejaVuSans-73"
               id="use1800"
               y="0"
               width="100%"
               height="100%" />
            <use
               x="666.91211"
               xlink:href="#DejaVuSans-70"
               id="use1802"
               y="0"
               width="100%"
               height="100%" />
            <use
               x="730.38867"
               xlink:href="#DejaVuSans-6f"
               id="use1804"
               y="0"
               width="100%"
               height="100%" />
            <use
               x="791.57031"
               xlink:href="#DejaVuSans-6e"
               id="use1806"
               y="0"
               width="100%"
               height="100%" />
            <use
               x="854.94922"
               xlink:href="#DejaVuSans-73"
               id="use1808"
               y="0"
               width="100%"
               height="100%" />
            <use
               x="907.04883"
               xlink:href="#DejaVuSans-65"
               id="use1810"
               y="0"
               width="100%"
               height="100%" />
          </g>
        </g>
        <g
           id="line2d_32">
          <path
             d="m 309.72,52.20205 h 16"
             style="fill:none;stroke:#ff7f0e;stroke-linecap:square"
             id="path1815" />
        </g>
        <g
           id="line2d_33" />
        <g
           id="text_17">
          <!-- compliant response -->
          <g
             transform="matrix(0.08,0,0,-0.08,332.12,55.00205)"
             id="g1855">
            <use
               xlink:href="#DejaVuSans-63"
               id="use1819"
               x="0"
               y="0"
               width="100%"
               height="100%" />
            <use
               x="54.980469"
               xlink:href="#DejaVuSans-6f"
               id="use1821"
               y="0"
               width="100%"
               height="100%" />
            <use
               x="116.16211"
               xlink:href="#DejaVuSans-6d"
               id="use1823"
               y="0"
               width="100%"
               height="100%" />
            <use
               x="213.57422"
               xlink:href="#DejaVuSans-70"
               id="use1825"
               y="0"
               width="100%"
               height="100%" />
            <use
               x="277.05078"
               xlink:href="#DejaVuSans-6c"
               id="use1827"
               y="0"
               width="100%"
               height="100%" />
            <use
               x="304.83398"
               xlink:href="#DejaVuSans-69"
               id="use1829"
               y="0"
               width="100%"
               height="100%" />
            <use
               x="332.61719"
               xlink:href="#DejaVuSans-61"
               id="use1831"
               y="0"
               width="100%"
               height="100%" />
            <use
               x="393.89648"
               xlink:href="#DejaVuSans-6e"
               id="use1833"
               y="0"
               width="100%"
               height="100%" />
            <use
               x="457.27539"
               xlink:href="#DejaVuSans-74"
               id="use1835"
               y="0"
               width="100%"
               height="100%" />
            <use
               x="496.48438"
               xlink:href="#DejaVuSans-20"
               id="use1837"
               y="0"
               width="100%"
               height="100%" />
            <use
               x="528.27148"
               xlink:href="#DejaVuSans-72"
               id="use1839"
               y="0"
               width="100%"
               height="100%" />
            <use
               x="569.35352"
               xlink:href="#DejaVuSans-65"
               id="use1841"
               y="0"
               width="100%"
               height="100%" />
            <use
               x="630.87695"
               xlink:href="#DejaVuSans-73"
               id="use1843"
               y="0"
               width="100%"
               height="100%" />
            <use
               x="682.97656"
               xlink:href="#DejaVuSans-70"
               id="use1845"
               y="0"
               width="100%"
               height="100%" />
            <use
               x="746.45312"
               xlink:href="#DejaVuSans-6f"
               id="use1847"
               y="0"
               width="100%"
               height="100%" />
            <use
               x="807.63477"
               xlink:href="#DejaVuSans-6e"
               id="use1849"
               y="0"
               width="100%"
               height="100%" />
            <use
               x="871.01367"
               xlink:href="#DejaVuSans-73"
               id="use1851"
               y="0"
               width="100%"
               height="100%" />
            <use
               x="923.11328"
               xlink:href="#DejaVuSans-65"
               id="use1853"
               y="0"
               width="100%"
               height="100%" />
          </g>
        </g>
        <g
           id="line2d_34">
          <path
             d="m 309.72,63.94455 h 16"
             style="fill:none;stroke:#2ca02c;stroke-linecap:square"
             id="path1858" />
        </g>
        <g
           id="line2d_35" />
        <g
           id="text_18">
          <!-- $cor_{res}$ (vsmall = 0.1 m/s) -->
          <defs
             id="defs1871">
            <path
               d="M 53.609375,52.59375 51.8125,43.703125 q -3.234375,2.34375 -6.875,3.515625 -3.625,1.171875 -7.53125,1.171875 -4.296875,0 -8.1875,-1.515625 -3.875,-1.515625 -6.515625,-4.296875 -4.203125,-4.25 -6.5,-9.96875 -2.28125,-5.703125 -2.28125,-11.8125 0,-7.375 3.6875,-10.984375 3.6875,-3.609375 11.203125,-3.609375 3.703125,0 7.875,1.125 4.1875,1.125 8.71875,3.359375 l -1.703125,-8.875 q -3.90625,-1.609375 -8.03125,-2.421875 -4.125,-0.8125 -8.46875,-0.8125 -10.890625,0 -16.75,5.4375 -5.859375,5.453125 -5.859375,15.5625 0,8.5 3.046875,15.65625 3.046875,7.15625 9.0625,12.859375 Q 20.796875,52 26.3125,54 q 5.53125,2 12.0625,2 3.8125,0 7.5625,-0.859375 3.765625,-0.84375 7.671875,-2.546875 z"
               id="DejaVuSans-Oblique-63" />
            <path
               d="m 25.390625,-1.421875 q -9.625,0 -15.21875,5.9375 -5.578125,5.9375 -5.578125,16.1875 0,5.953125 1.921875,12.125 1.9375,6.1875 5.015625,10.390625 Q 16.359375,49.75 22.3125,52.875 28.265625,56 35.796875,56 q 9.328125,0 15.0625,-5.8125 5.734375,-5.796875 5.734375,-15.171875 0,-6.5 -1.90625,-12.953125 Q 52.78125,15.625 49.703125,11.375 44.921875,4.828125 38.96875,1.703125 q -5.953125,-3.125 -13.578125,-3.125 z M 13.921875,21 q 0,-7.421875 3.09375,-11.109375 3.109375,-3.6875 9.40625,-3.6875 9.03125,0 14.953125,7.875 5.9375,7.890625 5.9375,20 0,7.078125 -3.171875,10.6875 -3.171875,3.625 -9.328125,3.625 -5.078125,0 -9.03125,-2.375 Q 21.828125,43.65625 18.703125,38.8125 16.40625,35.203125 15.15625,30.5625 13.921875,25.921875 13.921875,21 Z"
               id="DejaVuSans-Oblique-6f" />
            <path
               d="m 44.578125,46.390625 q -1.359375,0.734375 -3.125,1.125 -1.75,0.390625 -3.75,0.390625 -7.1875,0 -12.5625,-5.453125 -5.359375,-5.4375 -7.125,-14.578125 L 12.5,0 H 3.515625 l 10.6875,54.6875 H 23.1875 l -1.703125,-8.5 Q 25.046875,50.921875 30,53.453125 34.96875,56 40.578125,56 q 1.46875,0 2.875,-0.171875 1.421875,-0.15625 2.84375,-0.546875 z"
               id="DejaVuSans-Oblique-72" />
            <path
               d="m 48.09375,32.234375 q 0.15625,0.78125 0.21875,1.609375 0.07813,0.828125 0.07813,1.65625 0,5.953125 -3.5,9.421875 -3.484375,3.46875 -9.484375,3.46875 -6.6875,0 -11.828125,-4.234375 -5.125,-4.21875 -7.75,-11.984375 z m 7.8125,-7.03125 H 14.109375 Q 13.8125,23.34375 13.71875,22.265625 13.625,21.1875 13.625,20.40625 q 0,-6.78125 4.171875,-10.5 4.171875,-3.703125 11.796875,-3.703125 5.859375,0 11.078125,1.3125 5.234375,1.328125 9.71875,3.859375 L 48.6875,2.484375 q -4.84375,-1.953125 -10,-2.921875 -5.140625,-0.984375 -10.46875,-0.984375 -11.375,0 -17.5,5.4375 -6.125,5.453125 -6.125,15.46875 0,8.546875 3.046875,15.890625 3.046875,7.34375 8.96875,13.109375 3.796875,3.609375 9.046875,5.5625 Q 30.90625,56 36.8125,56 q 9.28125,0 14.765625,-5.5625 5.5,-5.5625 5.5,-14.9375 0,-2.25 -0.296875,-4.8125 Q 56.5,28.125 55.90625,25.203125 Z"
               id="DejaVuSans-Oblique-65" />
            <path
               d="m 50,53.078125 -1.703125,-8.5 Q 44.734375,46.53125 40.765625,47.5 36.8125,48.484375 32.625,48.484375 q -7.09375,0 -11.171875,-2.421875 -4.0625,-2.40625 -4.0625,-6.5625 0,-4.828125 9.46875,-7.421875 0.734375,-0.1875 1.078125,-0.296875 l 2.875,-0.875 q 8.984375,-2.484375 11.984375,-5.21875 3,-2.734375 3,-7.46875 0,-8.703125 -6.90625,-14.171875 -6.90625,-5.46875 -18.09375,-5.46875 -4.34375,0 -9.125,0.84375 Q 6.890625,0.25 1.125,2 l 1.75,9.28125 q 4.9375,-2.546875 9.71875,-3.859375 4.796875,-1.3125 9.1875,-1.3125 6.59375,0 10.71875,2.828125 4.125,2.828125 4.125,7.171875 0,4.6875 -10.84375,7.578125 l -0.921875,0.234375 -3.078125,0.78125 Q 14.9375,26.515625 11.765625,29.46875 8.59375,32.421875 8.59375,37.015625 8.59375,45.75 15.15625,50.875 21.734375,56 33.015625,56 q 4.4375,0 8.65625,-0.734375 Q 45.90625,54.546875 50,53.078125 Z"
               id="DejaVuSans-Oblique-73" />
            <path
               d="M 31,75.875 Q 24.46875,64.65625 21.28125,53.65625 18.109375,42.671875 18.109375,31.390625 18.109375,20.125 21.3125,9.0625 24.515625,-2 31,-13.1875 H 23.1875 Q 15.875,-1.703125 12.234375,9.375 8.59375,20.453125 8.59375,31.390625 q 0,10.890625 3.609375,21.921875 3.625,11.046875 10.984375,22.5625 z"
               id="DejaVuSans-28" />
            <path
               d="M 10.59375,45.40625 H 73.1875 V 37.203125 H 10.59375 Z m 0,-19.921875 H 73.1875 V 17.1875 H 10.59375 Z"
               id="DejaVuSans-3d" />
            <path
               d="M 25.390625,72.90625 H 33.6875 L 8.296875,-9.28125 H 0 Z"
               id="DejaVuSans-2f" />
            <path
               d="m 8.015625,75.875 h 7.8125 q 7.3125,-11.515625 10.953125,-22.5625 3.640625,-11.03125 3.640625,-21.921875 0,-10.9375 -3.640625,-22.015625 -3.640625,-11.078125 -10.953125,-22.5625 h -7.8125 Q 14.5,-2 17.703125,9.0625 20.90625,20.125 20.90625,31.390625 q 0,11.28125 -3.203125,22.265625 -3.203125,11 -9.6875,22.21875 z"
               id="DejaVuSans-29" />
          </defs>
        </g>
        <text
           xml:space="preserve"
           style="font-style:normal;font-variant:normal;font-weight:normal;font-stretch:normal;font-size:9.99998px;line-height:125%;font-family:sans-serif;-inkscape-font-specification:'sans-serif, Normal';font-variant-ligatures:normal;font-variant-caps:normal;font-variant-numeric:normal;font-feature-settings:normal;text-align:start;letter-spacing:0px;word-spacing:0px;writing-mode:lr-tb;text-anchor:start;fill:#000000;fill-opacity:1;stroke:none;stroke-width:0.75px;stroke-linecap:butt;stroke-linejoin:miter;stroke-opacity:1"
           x="331.83679"
           y="65.864845"
           id="text20238"><tspan
             sodipodi:role="line"
             id="tspan20236"
             style="font-style:italic;font-variant:normal;font-weight:normal;font-stretch:normal;font-size:8px;font-family:sans-serif;-inkscape-font-specification:'sans-serif, Italic';font-variant-ligatures:normal;font-variant-caps:normal;font-variant-numeric:normal;font-variant-east-asian:normal;stroke-width:0.75px"
             x="331.83679"
             y="65.864845">cor <tspan
   style="font-style:normal;font-variant:normal;font-weight:normal;font-stretch:normal;font-size:8px;font-family:sans-serif;-inkscape-font-specification:'sans-serif, Normal';font-variant-ligatures:normal;font-variant-caps:normal;font-variant-numeric:normal;font-variant-east-asian:normal"
   id="tspan25198">(vsmall = 0.01 m/s)</tspan></tspan></text>
      </g>
      <path
         style="fill:none;fill-rule:evenodd;stroke:#669900;stroke-width:0.748025px;stroke-linecap:butt;stroke-linejoin:miter;stroke-opacity:1"
         d="M 60.170986,91.260707 H 361.74463 l 0.19503,122.300543"
         id="path30536" />
      <path
         style="fill:#669900;fill-rule:evenodd;stroke:#669900;stroke-width:0.75px;stroke-linecap:butt;stroke-linejoin:miter;stroke-opacity:1"
         d="m 362.07002,213.47015 58.20954,0.12813"
         id="path31136" />
    </g>
  </g>
  <defs
     id="defs1932">
    <clipPath
       id="p96eefe03e0">
      <rect
         height="192.3768"
         width="376.64999"
         x="60.75"
         y="29.980801"
         id="rect1929" />
    </clipPath>
  </defs>
</svg>
