<?xml version="1.0" encoding="utf-8" standalone="no"?>
<!DOCTYPE svg PUBLIC "-//W3C//DTD SVG 1.1//EN"
  "http://www.w3.org/Graphics/SVG/1.1/DTD/svg11.dtd">
<!-- Created with matplotlib (http://matplotlib.org/) -->
<svg height="249pt" version="1.1" viewBox="0 0 486 249" width="486pt" xmlns="http://www.w3.org/2000/svg" xmlns:xlink="http://www.w3.org/1999/xlink">
 <defs>
  <style type="text/css">
*{stroke-linecap:butt;stroke-linejoin:round;}
  </style>
 </defs>
 <g id="figure_1">
  <g id="patch_1">
   <path d="M 0 249.84 
L 486 249.84 
L 486 0 
L 0 0 
z
" style="fill:#ffffff;"/>
  </g>
  <g id="axes_1">
   <g id="patch_2">
    <path d="M 60.75 222.3576 
L 437.4 222.3576 
L 437.4 29.9808 
L 60.75 29.9808 
z
" style="fill:#ffffff;"/>
   </g>
   <g id="matplotlib.axis_1">
    <g id="xtick_1">
     <g id="line2d_1">
      <path clip-path="url(#p96eefe03e0)" d="M 77.870455 222.3576 
L 77.870455 29.9808 
" style="fill:none;stroke:#b0b0b0;stroke-linecap:square;stroke-width:0.5;"/>
     </g>
     <g id="line2d_2">
      <defs>
       <path d="M 0 0 
L 0 3.5 
" id="m0c132a9961" style="stroke:#000000;stroke-width:0.8;"/>
      </defs>
      <g>
       <use style="stroke:#000000;stroke-width:0.8;" x="77.870455" xlink:href="#m0c132a9961" y="222.3576"/>
      </g>
     </g>
     <g id="text_1">
      <!-- 0.0 -->
      <defs>
       <path d="M 31.78125 66.40625 
Q 24.171875 66.40625 20.328125 58.90625 
Q 16.5 51.421875 16.5 36.375 
Q 16.5 21.390625 20.328125 13.890625 
Q 24.171875 6.390625 31.78125 6.390625 
Q 39.453125 6.390625 43.28125 13.890625 
Q 47.125 21.390625 47.125 36.375 
Q 47.125 51.421875 43.28125 58.90625 
Q 39.453125 66.40625 31.78125 66.40625 
z
M 31.78125 74.21875 
Q 44.046875 74.21875 50.515625 64.515625 
Q 56.984375 54.828125 56.984375 36.375 
Q 56.984375 17.96875 50.515625 8.265625 
Q 44.046875 -1.421875 31.78125 -1.421875 
Q 19.53125 -1.421875 13.0625 8.265625 
Q 6.59375 17.96875 6.59375 36.375 
Q 6.59375 54.828125 13.0625 64.515625 
Q 19.53125 74.21875 31.78125 74.21875 
z
" id="DejaVuSans-30"/>
       <path d="M 10.6875 12.40625 
L 21 12.40625 
L 21 0 
L 10.6875 0 
z
" id="DejaVuSans-2e"/>
      </defs>
      <g transform="translate(71.509205 235.43635)scale(0.08 -0.08)">
       <use xlink:href="#DejaVuSans-30"/>
       <use x="63.623047" xlink:href="#DejaVuSans-2e"/>
       <use x="95.410156" xlink:href="#DejaVuSans-30"/>
      </g>
     </g>
    </g>
    <g id="xtick_2">
     <g id="line2d_3">
      <path clip-path="url(#p96eefe03e0)" d="M 134.938636 222.3576 
L 134.938636 29.9808 
" style="fill:none;stroke:#b0b0b0;stroke-linecap:square;stroke-width:0.5;"/>
     </g>
     <g id="line2d_4">
      <g>
       <use style="stroke:#000000;stroke-width:0.8;" x="134.938636" xlink:href="#m0c132a9961" y="222.3576"/>
      </g>
     </g>
     <g id="text_2">
      <!-- 0.5 -->
      <defs>
       <path d="M 10.796875 72.90625 
L 49.515625 72.90625 
L 49.515625 64.59375 
L 19.828125 64.59375 
L 19.828125 46.734375 
Q 21.96875 47.46875 24.109375 47.828125 
Q 26.265625 48.1875 28.421875 48.1875 
Q 40.625 48.1875 47.75 41.5 
Q 54.890625 34.8125 54.890625 23.390625 
Q 54.890625 11.625 47.5625 5.09375 
Q 40.234375 -1.421875 26.90625 -1.421875 
Q 22.3125 -1.421875 17.546875 -0.640625 
Q 12.796875 0.140625 7.71875 1.703125 
L 7.71875 11.625 
Q 12.109375 9.234375 16.796875 8.0625 
Q 21.484375 6.890625 26.703125 6.890625 
Q 35.15625 6.890625 40.078125 11.328125 
Q 45.015625 15.765625 45.015625 23.390625 
Q 45.015625 31 40.078125 35.4375 
Q 35.15625 39.890625 26.703125 39.890625 
Q 22.75 39.890625 18.8125 39.015625 
Q 14.890625 38.140625 10.796875 36.28125 
z
" id="DejaVuSans-35"/>
      </defs>
      <g transform="translate(128.577386 235.43635)scale(0.08 -0.08)">
       <use xlink:href="#DejaVuSans-30"/>
       <use x="63.623047" xlink:href="#DejaVuSans-2e"/>
       <use x="95.410156" xlink:href="#DejaVuSans-35"/>
      </g>
     </g>
    </g>
    <g id="xtick_3">
     <g id="line2d_5">
      <path clip-path="url(#p96eefe03e0)" d="M 192.006818 222.3576 
L 192.006818 29.9808 
" style="fill:none;stroke:#b0b0b0;stroke-linecap:square;stroke-width:0.5;"/>
     </g>
     <g id="line2d_6">
      <g>
       <use style="stroke:#000000;stroke-width:0.8;" x="192.006818" xlink:href="#m0c132a9961" y="222.3576"/>
      </g>
     </g>
     <g id="text_3">
      <!-- 1.0 -->
      <defs>
       <path d="M 12.40625 8.296875 
L 28.515625 8.296875 
L 28.515625 63.921875 
L 10.984375 60.40625 
L 10.984375 69.390625 
L 28.421875 72.90625 
L 38.28125 72.90625 
L 38.28125 8.296875 
L 54.390625 8.296875 
L 54.390625 0 
L 12.40625 0 
z
" id="DejaVuSans-31"/>
      </defs>
      <g transform="translate(185.645568 235.43635)scale(0.08 -0.08)">
       <use xlink:href="#DejaVuSans-31"/>
       <use x="63.623047" xlink:href="#DejaVuSans-2e"/>
       <use x="95.410156" xlink:href="#DejaVuSans-30"/>
      </g>
     </g>
    </g>
    <g id="xtick_4">
     <g id="line2d_7">
      <path clip-path="url(#p96eefe03e0)" d="M 249.075 222.3576 
L 249.075 29.9808 
" style="fill:none;stroke:#b0b0b0;stroke-linecap:square;stroke-width:0.5;"/>
     </g>
     <g id="line2d_8">
      <g>
       <use style="stroke:#000000;stroke-width:0.8;" x="249.075" xlink:href="#m0c132a9961" y="222.3576"/>
      </g>
     </g>
     <g id="text_4">
      <!-- 1.5 -->
      <g transform="translate(242.71375 235.43635)scale(0.08 -0.08)">
       <use xlink:href="#DejaVuSans-31"/>
       <use x="63.623047" xlink:href="#DejaVuSans-2e"/>
       <use x="95.410156" xlink:href="#DejaVuSans-35"/>
      </g>
     </g>
    </g>
    <g id="xtick_5">
     <g id="line2d_9">
      <path clip-path="url(#p96eefe03e0)" d="M 306.143182 222.3576 
L 306.143182 29.9808 
" style="fill:none;stroke:#b0b0b0;stroke-linecap:square;stroke-width:0.5;"/>
     </g>
     <g id="line2d_10">
      <g>
       <use style="stroke:#000000;stroke-width:0.8;" x="306.143182" xlink:href="#m0c132a9961" y="222.3576"/>
      </g>
     </g>
     <g id="text_5">
      <!-- 2.0 -->
      <defs>
       <path d="M 19.1875 8.296875 
L 53.609375 8.296875 
L 53.609375 0 
L 7.328125 0 
L 7.328125 8.296875 
Q 12.9375 14.109375 22.625 23.890625 
Q 32.328125 33.6875 34.8125 36.53125 
Q 39.546875 41.84375 41.421875 45.53125 
Q 43.3125 49.21875 43.3125 52.78125 
Q 43.3125 58.59375 39.234375 62.25 
Q 35.15625 65.921875 28.609375 65.921875 
Q 23.96875 65.921875 18.8125 64.3125 
Q 13.671875 62.703125 7.8125 59.421875 
L 7.8125 69.390625 
Q 13.765625 71.78125 18.9375 73 
Q 24.125 74.21875 28.421875 74.21875 
Q 39.75 74.21875 46.484375 68.546875 
Q 53.21875 62.890625 53.21875 53.421875 
Q 53.21875 48.921875 51.53125 44.890625 
Q 49.859375 40.875 45.40625 35.40625 
Q 44.1875 33.984375 37.640625 27.21875 
Q 31.109375 20.453125 19.1875 8.296875 
z
" id="DejaVuSans-32"/>
      </defs>
      <g transform="translate(299.781932 235.43635)scale(0.08 -0.08)">
       <use xlink:href="#DejaVuSans-32"/>
       <use x="63.623047" xlink:href="#DejaVuSans-2e"/>
       <use x="95.410156" xlink:href="#DejaVuSans-30"/>
      </g>
     </g>
    </g>
    <g id="xtick_6">
     <g id="line2d_11">
      <path clip-path="url(#p96eefe03e0)" d="M 363.211364 222.3576 
L 363.211364 29.9808 
" style="fill:none;stroke:#b0b0b0;stroke-linecap:square;stroke-width:0.5;"/>
     </g>
     <g id="line2d_12">
      <g>
       <use style="stroke:#000000;stroke-width:0.8;" x="363.211364" xlink:href="#m0c132a9961" y="222.3576"/>
      </g>
     </g>
     <g id="text_6">
      <!-- 2.5 -->
      <g transform="translate(356.850114 235.43635)scale(0.08 -0.08)">
       <use xlink:href="#DejaVuSans-32"/>
       <use x="63.623047" xlink:href="#DejaVuSans-2e"/>
       <use x="95.410156" xlink:href="#DejaVuSans-35"/>
      </g>
     </g>
    </g>
    <g id="xtick_7">
     <g id="line2d_13">
      <path clip-path="url(#p96eefe03e0)" d="M 420.279545 222.3576 
L 420.279545 29.9808 
" style="fill:none;stroke:#b0b0b0;stroke-linecap:square;stroke-width:0.5;"/>
     </g>
     <g id="line2d_14">
      <g>
       <use style="stroke:#000000;stroke-width:0.8;" x="420.279545" xlink:href="#m0c132a9961" y="222.3576"/>
      </g>
     </g>
     <g id="text_7">
      <!-- 3.0 -->
      <defs>
       <path d="M 40.578125 39.3125 
Q 47.65625 37.796875 51.625 33 
Q 55.609375 28.21875 55.609375 21.1875 
Q 55.609375 10.40625 48.1875 4.484375 
Q 40.765625 -1.421875 27.09375 -1.421875 
Q 22.515625 -1.421875 17.65625 -0.515625 
Q 12.796875 0.390625 7.625 2.203125 
L 7.625 11.71875 
Q 11.71875 9.328125 16.59375 8.109375 
Q 21.484375 6.890625 26.8125 6.890625 
Q 36.078125 6.890625 40.9375 10.546875 
Q 45.796875 14.203125 45.796875 21.1875 
Q 45.796875 27.640625 41.28125 31.265625 
Q 36.765625 34.90625 28.71875 34.90625 
L 20.21875 34.90625 
L 20.21875 43.015625 
L 29.109375 43.015625 
Q 36.375 43.015625 40.234375 45.921875 
Q 44.09375 48.828125 44.09375 54.296875 
Q 44.09375 59.90625 40.109375 62.90625 
Q 36.140625 65.921875 28.71875 65.921875 
Q 24.65625 65.921875 20.015625 65.03125 
Q 15.375 64.15625 9.8125 62.3125 
L 9.8125 71.09375 
Q 15.4375 72.65625 20.34375 73.4375 
Q 25.25 74.21875 29.59375 74.21875 
Q 40.828125 74.21875 47.359375 69.109375 
Q 53.90625 64.015625 53.90625 55.328125 
Q 53.90625 49.265625 50.4375 45.09375 
Q 46.96875 40.921875 40.578125 39.3125 
z
" id="DejaVuSans-33"/>
      </defs>
      <g transform="translate(413.918295 235.43635)scale(0.08 -0.08)">
       <use xlink:href="#DejaVuSans-33"/>
       <use x="63.623047" xlink:href="#DejaVuSans-2e"/>
       <use x="95.410156" xlink:href="#DejaVuSans-30"/>
      </g>
     </g>
    </g>
    <g id="text_8">
     <!-- time [s] -->
     <defs>
      <path d="M 18.3125 70.21875 
L 18.3125 54.6875 
L 36.8125 54.6875 
L 36.8125 47.703125 
L 18.3125 47.703125 
L 18.3125 18.015625 
Q 18.3125 11.328125 20.140625 9.421875 
Q 21.96875 7.515625 27.59375 7.515625 
L 36.8125 7.515625 
L 36.8125 0 
L 27.59375 0 
Q 17.1875 0 13.234375 3.875 
Q 9.28125 7.765625 9.28125 18.015625 
L 9.28125 47.703125 
L 2.6875 47.703125 
L 2.6875 54.6875 
L 9.28125 54.6875 
L 9.28125 70.21875 
z
" id="DejaVuSans-74"/>
      <path d="M 9.421875 54.6875 
L 18.40625 54.6875 
L 18.40625 0 
L 9.421875 0 
z
M 9.421875 75.984375 
L 18.40625 75.984375 
L 18.40625 64.59375 
L 9.421875 64.59375 
z
" id="DejaVuSans-69"/>
      <path d="M 52 44.1875 
Q 55.375 50.25 60.0625 53.125 
Q 64.75 56 71.09375 56 
Q 79.640625 56 84.28125 50.015625 
Q 88.921875 44.046875 88.921875 33.015625 
L 88.921875 0 
L 79.890625 0 
L 79.890625 32.71875 
Q 79.890625 40.578125 77.09375 44.375 
Q 74.3125 48.1875 68.609375 48.1875 
Q 61.625 48.1875 57.5625 43.546875 
Q 53.515625 38.921875 53.515625 30.90625 
L 53.515625 0 
L 44.484375 0 
L 44.484375 32.71875 
Q 44.484375 40.625 41.703125 44.40625 
Q 38.921875 48.1875 33.109375 48.1875 
Q 26.21875 48.1875 22.15625 43.53125 
Q 18.109375 38.875 18.109375 30.90625 
L 18.109375 0 
L 9.078125 0 
L 9.078125 54.6875 
L 18.109375 54.6875 
L 18.109375 46.1875 
Q 21.1875 51.21875 25.484375 53.609375 
Q 29.78125 56 35.6875 56 
Q 41.65625 56 45.828125 52.96875 
Q 50 49.953125 52 44.1875 
z
" id="DejaVuSans-6d"/>
      <path d="M 56.203125 29.59375 
L 56.203125 25.203125 
L 14.890625 25.203125 
Q 15.484375 15.921875 20.484375 11.0625 
Q 25.484375 6.203125 34.421875 6.203125 
Q 39.59375 6.203125 44.453125 7.46875 
Q 49.3125 8.734375 54.109375 11.28125 
L 54.109375 2.78125 
Q 49.265625 0.734375 44.1875 -0.34375 
Q 39.109375 -1.421875 33.890625 -1.421875 
Q 20.796875 -1.421875 13.15625 6.1875 
Q 5.515625 13.8125 5.515625 26.8125 
Q 5.515625 40.234375 12.765625 48.109375 
Q 20.015625 56 32.328125 56 
Q 43.359375 56 49.78125 48.890625 
Q 56.203125 41.796875 56.203125 29.59375 
z
M 47.21875 32.234375 
Q 47.125 39.59375 43.09375 43.984375 
Q 39.0625 48.390625 32.421875 48.390625 
Q 24.90625 48.390625 20.390625 44.140625 
Q 15.875 39.890625 15.1875 32.171875 
z
" id="DejaVuSans-65"/>
      <path id="DejaVuSans-20"/>
      <path d="M 8.59375 75.984375 
L 29.296875 75.984375 
L 29.296875 69 
L 17.578125 69 
L 17.578125 -6.203125 
L 29.296875 -6.203125 
L 29.296875 -13.1875 
L 8.59375 -13.1875 
z
" id="DejaVuSans-5b"/>
      <path d="M 44.28125 53.078125 
L 44.28125 44.578125 
Q 40.484375 46.53125 36.375 47.5 
Q 32.28125 48.484375 27.875 48.484375 
Q 21.1875 48.484375 17.84375 46.4375 
Q 14.5 44.390625 14.5 40.28125 
Q 14.5 37.15625 16.890625 35.375 
Q 19.28125 33.59375 26.515625 31.984375 
L 29.59375 31.296875 
Q 39.15625 29.25 43.1875 25.515625 
Q 47.21875 21.78125 47.21875 15.09375 
Q 47.21875 7.46875 41.1875 3.015625 
Q 35.15625 -1.421875 24.609375 -1.421875 
Q 20.21875 -1.421875 15.453125 -0.5625 
Q 10.6875 0.296875 5.421875 2 
L 5.421875 11.28125 
Q 10.40625 8.6875 15.234375 7.390625 
Q 20.0625 6.109375 24.8125 6.109375 
Q 31.15625 6.109375 34.5625 8.28125 
Q 37.984375 10.453125 37.984375 14.40625 
Q 37.984375 18.0625 35.515625 20.015625 
Q 33.0625 21.96875 24.703125 23.78125 
L 21.578125 24.515625 
Q 13.234375 26.265625 9.515625 29.90625 
Q 5.8125 33.546875 5.8125 39.890625 
Q 5.8125 47.609375 11.28125 51.796875 
Q 16.75 56 26.8125 56 
Q 31.78125 56 36.171875 55.265625 
Q 40.578125 54.546875 44.28125 53.078125 
z
" id="DejaVuSans-73"/>
      <path d="M 30.421875 75.984375 
L 30.421875 -13.1875 
L 9.71875 -13.1875 
L 9.71875 -6.203125 
L 21.390625 -6.203125 
L 21.390625 69 
L 9.71875 69 
L 9.71875 75.984375 
z
" id="DejaVuSans-5d"/>
     </defs>
     <g transform="translate(233.561875 247.17885)scale(0.08 -0.08)">
      <use xlink:href="#DejaVuSans-74"/>
      <use x="39.208984" xlink:href="#DejaVuSans-69"/>
      <use x="66.992188" xlink:href="#DejaVuSans-6d"/>
      <use x="164.404297" xlink:href="#DejaVuSans-65"/>
      <use x="225.927734" xlink:href="#DejaVuSans-20"/>
      <use x="257.714844" xlink:href="#DejaVuSans-5b"/>
      <use x="296.728516" xlink:href="#DejaVuSans-73"/>
      <use x="348.828125" xlink:href="#DejaVuSans-5d"/>
     </g>
    </g>
   </g>
   <g id="matplotlib.axis_2">
    <g id="ytick_1">
     <g id="line2d_15">
      <path clip-path="url(#p96eefe03e0)" d="M 60.75 213.598491 
L 437.4 213.598491 
" style="fill:none;stroke:#b0b0b0;stroke-linecap:square;stroke-width:0.5;"/>
     </g>
     <g id="line2d_16">
      <defs>
       <path d="M 0 0 
L -3.5 0 
" id="m6706a52689" style="stroke:#000000;stroke-width:0.8;"/>
      </defs>
      <g>
       <use style="stroke:#000000;stroke-width:0.8;" x="60.75" xlink:href="#m6706a52689" y="213.598491"/>
      </g>
     </g>
     <g id="text_9">
      <!-- 0.0 -->
      <g transform="translate(41.0275 216.637866)scale(0.08 -0.08)">
       <use xlink:href="#DejaVuSans-30"/>
       <use x="63.623047" xlink:href="#DejaVuSans-2e"/>
       <use x="95.410156" xlink:href="#DejaVuSans-30"/>
      </g>
     </g>
    </g>
    <g id="ytick_2">
     <g id="line2d_17">
      <path clip-path="url(#p96eefe03e0)" d="M 60.75 178.623833 
L 437.4 178.623833 
" style="fill:none;stroke:#b0b0b0;stroke-linecap:square;stroke-width:0.5;"/>
     </g>
     <g id="line2d_18">
      <g>
       <use style="stroke:#000000;stroke-width:0.8;" x="60.75" xlink:href="#m6706a52689" y="178.623833"/>
      </g>
     </g>
     <g id="text_10">
      <!-- 0.2 -->
      <g transform="translate(41.0275 181.663208)scale(0.08 -0.08)">
       <use xlink:href="#DejaVuSans-30"/>
       <use x="63.623047" xlink:href="#DejaVuSans-2e"/>
       <use x="95.410156" xlink:href="#DejaVuSans-32"/>
      </g>
     </g>
    </g>
    <g id="ytick_3">
     <g id="line2d_19">
      <path clip-path="url(#p96eefe03e0)" d="M 60.75 143.649174 
L 437.4 143.649174 
" style="fill:none;stroke:#b0b0b0;stroke-linecap:square;stroke-width:0.5;"/>
     </g>
     <g id="line2d_20">
      <g>
       <use style="stroke:#000000;stroke-width:0.8;" x="60.75" xlink:href="#m6706a52689" y="143.649174"/>
      </g>
     </g>
     <g id="text_11">
      <!-- 0.4 -->
      <defs>
       <path d="M 37.796875 64.3125 
L 12.890625 25.390625 
L 37.796875 25.390625 
z
M 35.203125 72.90625 
L 47.609375 72.90625 
L 47.609375 25.390625 
L 58.015625 25.390625 
L 58.015625 17.1875 
L 47.609375 17.1875 
L 47.609375 0 
L 37.796875 0 
L 37.796875 17.1875 
L 4.890625 17.1875 
L 4.890625 26.703125 
z
" id="DejaVuSans-34"/>
      </defs>
      <g transform="translate(41.0275 146.688549)scale(0.08 -0.08)">
       <use xlink:href="#DejaVuSans-30"/>
       <use x="63.623047" xlink:href="#DejaVuSans-2e"/>
       <use x="95.410156" xlink:href="#DejaVuSans-34"/>
      </g>
     </g>
    </g>
    <g id="ytick_4">
     <g id="line2d_21">
      <path clip-path="url(#p96eefe03e0)" d="M 60.75 108.674516 
L 437.4 108.674516 
" style="fill:none;stroke:#b0b0b0;stroke-linecap:square;stroke-width:0.5;"/>
     </g>
     <g id="line2d_22">
      <g>
       <use style="stroke:#000000;stroke-width:0.8;" x="60.75" xlink:href="#m6706a52689" y="108.674516"/>
      </g>
     </g>
     <g id="text_12">
      <!-- 0.6 -->
      <defs>
       <path d="M 33.015625 40.375 
Q 26.375 40.375 22.484375 35.828125 
Q 18.609375 31.296875 18.609375 23.390625 
Q 18.609375 15.53125 22.484375 10.953125 
Q 26.375 6.390625 33.015625 6.390625 
Q 39.65625 6.390625 43.53125 10.953125 
Q 47.40625 15.53125 47.40625 23.390625 
Q 47.40625 31.296875 43.53125 35.828125 
Q 39.65625 40.375 33.015625 40.375 
z
M 52.59375 71.296875 
L 52.59375 62.3125 
Q 48.875 64.0625 45.09375 64.984375 
Q 41.3125 65.921875 37.59375 65.921875 
Q 27.828125 65.921875 22.671875 59.328125 
Q 17.53125 52.734375 16.796875 39.40625 
Q 19.671875 43.65625 24.015625 45.921875 
Q 28.375 48.1875 33.59375 48.1875 
Q 44.578125 48.1875 50.953125 41.515625 
Q 57.328125 34.859375 57.328125 23.390625 
Q 57.328125 12.15625 50.6875 5.359375 
Q 44.046875 -1.421875 33.015625 -1.421875 
Q 20.359375 -1.421875 13.671875 8.265625 
Q 6.984375 17.96875 6.984375 36.375 
Q 6.984375 53.65625 15.1875 63.9375 
Q 23.390625 74.21875 37.203125 74.21875 
Q 40.921875 74.21875 44.703125 73.484375 
Q 48.484375 72.75 52.59375 71.296875 
z
" id="DejaVuSans-36"/>
      </defs>
      <g transform="translate(41.0275 111.713891)scale(0.08 -0.08)">
       <use xlink:href="#DejaVuSans-30"/>
       <use x="63.623047" xlink:href="#DejaVuSans-2e"/>
       <use x="95.410156" xlink:href="#DejaVuSans-36"/>
      </g>
     </g>
    </g>
    <g id="ytick_5">
     <g id="line2d_23">
      <path clip-path="url(#p96eefe03e0)" d="M 60.75 73.699858 
L 437.4 73.699858 
" style="fill:none;stroke:#b0b0b0;stroke-linecap:square;stroke-width:0.5;"/>
     </g>
     <g id="line2d_24">
      <g>
       <use style="stroke:#000000;stroke-width:0.8;" x="60.75" xlink:href="#m6706a52689" y="73.699858"/>
      </g>
     </g>
     <g id="text_13">
      <!-- 0.8 -->
      <defs>
       <path d="M 31.78125 34.625 
Q 24.75 34.625 20.71875 30.859375 
Q 16.703125 27.09375 16.703125 20.515625 
Q 16.703125 13.921875 20.71875 10.15625 
Q 24.75 6.390625 31.78125 6.390625 
Q 38.8125 6.390625 42.859375 10.171875 
Q 46.921875 13.96875 46.921875 20.515625 
Q 46.921875 27.09375 42.890625 30.859375 
Q 38.875 34.625 31.78125 34.625 
z
M 21.921875 38.8125 
Q 15.578125 40.375 12.03125 44.71875 
Q 8.5 49.078125 8.5 55.328125 
Q 8.5 64.0625 14.71875 69.140625 
Q 20.953125 74.21875 31.78125 74.21875 
Q 42.671875 74.21875 48.875 69.140625 
Q 55.078125 64.0625 55.078125 55.328125 
Q 55.078125 49.078125 51.53125 44.71875 
Q 48 40.375 41.703125 38.8125 
Q 48.828125 37.15625 52.796875 32.3125 
Q 56.78125 27.484375 56.78125 20.515625 
Q 56.78125 9.90625 50.3125 4.234375 
Q 43.84375 -1.421875 31.78125 -1.421875 
Q 19.734375 -1.421875 13.25 4.234375 
Q 6.78125 9.90625 6.78125 20.515625 
Q 6.78125 27.484375 10.78125 32.3125 
Q 14.796875 37.15625 21.921875 38.8125 
z
M 18.3125 54.390625 
Q 18.3125 48.734375 21.84375 45.5625 
Q 25.390625 42.390625 31.78125 42.390625 
Q 38.140625 42.390625 41.71875 45.5625 
Q 45.3125 48.734375 45.3125 54.390625 
Q 45.3125 60.0625 41.71875 63.234375 
Q 38.140625 66.40625 31.78125 66.40625 
Q 25.390625 66.40625 21.84375 63.234375 
Q 18.3125 60.0625 18.3125 54.390625 
z
" id="DejaVuSans-38"/>
      </defs>
      <g transform="translate(41.0275 76.739233)scale(0.08 -0.08)">
       <use xlink:href="#DejaVuSans-30"/>
       <use x="63.623047" xlink:href="#DejaVuSans-2e"/>
       <use x="95.410156" xlink:href="#DejaVuSans-38"/>
      </g>
     </g>
    </g>
    <g id="ytick_6">
     <g id="line2d_25">
      <path clip-path="url(#p96eefe03e0)" d="M 60.75 38.7252 
L 437.4 38.7252 
" style="fill:none;stroke:#b0b0b0;stroke-linecap:square;stroke-width:0.5;"/>
     </g>
     <g id="line2d_26">
      <g>
       <use style="stroke:#000000;stroke-width:0.8;" x="60.75" xlink:href="#m6706a52689" y="38.7252"/>
      </g>
     </g>
     <g id="text_14">
      <!-- 1.0 -->
      <g transform="translate(41.0275 41.764575)scale(0.08 -0.08)">
       <use xlink:href="#DejaVuSans-31"/>
       <use x="63.623047" xlink:href="#DejaVuSans-2e"/>
       <use x="95.410156" xlink:href="#DejaVuSans-30"/>
      </g>
     </g>
    </g>
    <g id="text_15">
     <!-- height [m] and cor [] -->
     <defs>
      <path d="M 54.890625 33.015625 
L 54.890625 0 
L 45.90625 0 
L 45.90625 32.71875 
Q 45.90625 40.484375 42.875 44.328125 
Q 39.84375 48.1875 33.796875 48.1875 
Q 26.515625 48.1875 22.3125 43.546875 
Q 18.109375 38.921875 18.109375 30.90625 
L 18.109375 0 
L 9.078125 0 
L 9.078125 75.984375 
L 18.109375 75.984375 
L 18.109375 46.1875 
Q 21.34375 51.125 25.703125 53.5625 
Q 30.078125 56 35.796875 56 
Q 45.21875 56 50.046875 50.171875 
Q 54.890625 44.34375 54.890625 33.015625 
z
" id="DejaVuSans-68"/>
      <path d="M 45.40625 27.984375 
Q 45.40625 37.75 41.375 43.109375 
Q 37.359375 48.484375 30.078125 48.484375 
Q 22.859375 48.484375 18.828125 43.109375 
Q 14.796875 37.75 14.796875 27.984375 
Q 14.796875 18.265625 18.828125 12.890625 
Q 22.859375 7.515625 30.078125 7.515625 
Q 37.359375 7.515625 41.375 12.890625 
Q 45.40625 18.265625 45.40625 27.984375 
z
M 54.390625 6.78125 
Q 54.390625 -7.171875 48.1875 -13.984375 
Q 42 -20.796875 29.203125 -20.796875 
Q 24.46875 -20.796875 20.265625 -20.09375 
Q 16.0625 -19.390625 12.109375 -17.921875 
L 12.109375 -9.1875 
Q 16.0625 -11.328125 19.921875 -12.34375 
Q 23.78125 -13.375 27.78125 -13.375 
Q 36.625 -13.375 41.015625 -8.765625 
Q 45.40625 -4.15625 45.40625 5.171875 
L 45.40625 9.625 
Q 42.625 4.78125 38.28125 2.390625 
Q 33.9375 0 27.875 0 
Q 17.828125 0 11.671875 7.65625 
Q 5.515625 15.328125 5.515625 27.984375 
Q 5.515625 40.671875 11.671875 48.328125 
Q 17.828125 56 27.875 56 
Q 33.9375 56 38.28125 53.609375 
Q 42.625 51.21875 45.40625 46.390625 
L 45.40625 54.6875 
L 54.390625 54.6875 
z
" id="DejaVuSans-67"/>
      <path d="M 34.28125 27.484375 
Q 23.390625 27.484375 19.1875 25 
Q 14.984375 22.515625 14.984375 16.5 
Q 14.984375 11.71875 18.140625 8.90625 
Q 21.296875 6.109375 26.703125 6.109375 
Q 34.1875 6.109375 38.703125 11.40625 
Q 43.21875 16.703125 43.21875 25.484375 
L 43.21875 27.484375 
z
M 52.203125 31.203125 
L 52.203125 0 
L 43.21875 0 
L 43.21875 8.296875 
Q 40.140625 3.328125 35.546875 0.953125 
Q 30.953125 -1.421875 24.3125 -1.421875 
Q 15.921875 -1.421875 10.953125 3.296875 
Q 6 8.015625 6 15.921875 
Q 6 25.140625 12.171875 29.828125 
Q 18.359375 34.515625 30.609375 34.515625 
L 43.21875 34.515625 
L 43.21875 35.40625 
Q 43.21875 41.609375 39.140625 45 
Q 35.0625 48.390625 27.6875 48.390625 
Q 23 48.390625 18.546875 47.265625 
Q 14.109375 46.140625 10.015625 43.890625 
L 10.015625 52.203125 
Q 14.9375 54.109375 19.578125 55.046875 
Q 24.21875 56 28.609375 56 
Q 40.484375 56 46.34375 49.84375 
Q 52.203125 43.703125 52.203125 31.203125 
z
" id="DejaVuSans-61"/>
      <path d="M 54.890625 33.015625 
L 54.890625 0 
L 45.90625 0 
L 45.90625 32.71875 
Q 45.90625 40.484375 42.875 44.328125 
Q 39.84375 48.1875 33.796875 48.1875 
Q 26.515625 48.1875 22.3125 43.546875 
Q 18.109375 38.921875 18.109375 30.90625 
L 18.109375 0 
L 9.078125 0 
L 9.078125 54.6875 
L 18.109375 54.6875 
L 18.109375 46.1875 
Q 21.34375 51.125 25.703125 53.5625 
Q 30.078125 56 35.796875 56 
Q 45.21875 56 50.046875 50.171875 
Q 54.890625 44.34375 54.890625 33.015625 
z
" id="DejaVuSans-6e"/>
      <path d="M 45.40625 46.390625 
L 45.40625 75.984375 
L 54.390625 75.984375 
L 54.390625 0 
L 45.40625 0 
L 45.40625 8.203125 
Q 42.578125 3.328125 38.25 0.953125 
Q 33.9375 -1.421875 27.875 -1.421875 
Q 17.96875 -1.421875 11.734375 6.484375 
Q 5.515625 14.40625 5.515625 27.296875 
Q 5.515625 40.1875 11.734375 48.09375 
Q 17.96875 56 27.875 56 
Q 33.9375 56 38.25 53.625 
Q 42.578125 51.265625 45.40625 46.390625 
z
M 14.796875 27.296875 
Q 14.796875 17.390625 18.875 11.75 
Q 22.953125 6.109375 30.078125 6.109375 
Q 37.203125 6.109375 41.296875 11.75 
Q 45.40625 17.390625 45.40625 27.296875 
Q 45.40625 37.203125 41.296875 42.84375 
Q 37.203125 48.484375 30.078125 48.484375 
Q 22.953125 48.484375 18.875 42.84375 
Q 14.796875 37.203125 14.796875 27.296875 
z
" id="DejaVuSans-64"/>
      <path d="M 48.78125 52.59375 
L 48.78125 44.1875 
Q 44.96875 46.296875 41.140625 47.34375 
Q 37.3125 48.390625 33.40625 48.390625 
Q 24.65625 48.390625 19.8125 42.84375 
Q 14.984375 37.3125 14.984375 27.296875 
Q 14.984375 17.28125 19.8125 11.734375 
Q 24.65625 6.203125 33.40625 6.203125 
Q 37.3125 6.203125 41.140625 7.25 
Q 44.96875 8.296875 48.78125 10.40625 
L 48.78125 2.09375 
Q 45.015625 0.34375 40.984375 -0.53125 
Q 36.96875 -1.421875 32.421875 -1.421875 
Q 20.0625 -1.421875 12.78125 6.34375 
Q 5.515625 14.109375 5.515625 27.296875 
Q 5.515625 40.671875 12.859375 48.328125 
Q 20.21875 56 33.015625 56 
Q 37.15625 56 41.109375 55.140625 
Q 45.0625 54.296875 48.78125 52.59375 
z
" id="DejaVuSans-63"/>
      <path d="M 30.609375 48.390625 
Q 23.390625 48.390625 19.1875 42.75 
Q 14.984375 37.109375 14.984375 27.296875 
Q 14.984375 17.484375 19.15625 11.84375 
Q 23.34375 6.203125 30.609375 6.203125 
Q 37.796875 6.203125 41.984375 11.859375 
Q 46.1875 17.53125 46.1875 27.296875 
Q 46.1875 37.015625 41.984375 42.703125 
Q 37.796875 48.390625 30.609375 48.390625 
z
M 30.609375 56 
Q 42.328125 56 49.015625 48.375 
Q 55.71875 40.765625 55.71875 27.296875 
Q 55.71875 13.875 49.015625 6.21875 
Q 42.328125 -1.421875 30.609375 -1.421875 
Q 18.84375 -1.421875 12.171875 6.21875 
Q 5.515625 13.875 5.515625 27.296875 
Q 5.515625 40.765625 12.171875 48.375 
Q 18.84375 56 30.609375 56 
z
" id="DejaVuSans-6f"/>
      <path d="M 41.109375 46.296875 
Q 39.59375 47.171875 37.8125 47.578125 
Q 36.03125 48 33.890625 48 
Q 26.265625 48 22.1875 43.046875 
Q 18.109375 38.09375 18.109375 28.8125 
L 18.109375 0 
L 9.078125 0 
L 9.078125 54.6875 
L 18.109375 54.6875 
L 18.109375 46.1875 
Q 20.953125 51.171875 25.484375 53.578125 
Q 30.03125 56 36.53125 56 
Q 37.453125 56 38.578125 55.875 
Q 39.703125 55.765625 41.0625 55.515625 
z
" id="DejaVuSans-72"/>
     </defs>
     <g transform="translate(35.36375 167.959825)rotate(-90)scale(0.08 -0.08)">
      <use xlink:href="#DejaVuSans-68"/>
      <use x="63.378906" xlink:href="#DejaVuSans-65"/>
      <use x="124.902344" xlink:href="#DejaVuSans-69"/>
      <use x="152.685547" xlink:href="#DejaVuSans-67"/>
      <use x="216.162109" xlink:href="#DejaVuSans-68"/>
      <use x="279.541016" xlink:href="#DejaVuSans-74"/>
      <use x="318.75" xlink:href="#DejaVuSans-20"/>
      <use x="350.537109" xlink:href="#DejaVuSans-5b"/>
      <use x="389.550781" xlink:href="#DejaVuSans-6d"/>
      <use x="486.962891" xlink:href="#DejaVuSans-5d"/>
      <use x="525.976562" xlink:href="#DejaVuSans-20"/>
      <use x="557.763672" xlink:href="#DejaVuSans-61"/>
      <use x="619.042969" xlink:href="#DejaVuSans-6e"/>
      <use x="682.421875" xlink:href="#DejaVuSans-64"/>
      <use x="745.898438" xlink:href="#DejaVuSans-20"/>
      <use x="777.685547" xlink:href="#DejaVuSans-63"/>
      <use x="832.666016" xlink:href="#DejaVuSans-6f"/>
      <use x="893.847656" xlink:href="#DejaVuSans-72"/>
      <use x="934.960938" xlink:href="#DejaVuSans-20"/>
      <use x="966.748047" xlink:href="#DejaVuSans-5b"/>
      <use x="1005.761719" xlink:href="#DejaVuSans-5d"/>
     </g>
    </g>
   </g>
   <g id="line2d_27">
    <path clip-path="url(#p96eefe03e0)" d="M 77.870455 38.7252 
L 79.240091 38.848717 
L 80.609727 39.219266 
L 81.979364 39.836849 
L 83.349 40.701464 
L 84.718636 41.813113 
L 86.088273 43.171794 
L 87.457909 44.777509 
L 88.827545 46.630256 
L 90.882 49.872564 
L 92.936455 53.670697 
L 94.990909 58.024654 
L 97.045364 62.934435 
L 99.099818 68.40004 
L 101.154273 74.421469 
L 103.208727 80.998723 
L 105.948 90.63301 
L 108.687273 101.25543 
L 111.426545 112.865981 
L 114.165818 125.464664 
L 116.905091 139.051479 
L 119.644364 153.626427 
L 123.068455 173.234671 
L 126.492545 194.386873 
L 129.405721 213.598491 
L 129.405721 213.598491 
L 131.971091 201.844812 
L 134.710364 190.251133 
L 137.449636 179.645587 
L 140.188909 170.028172 
L 142.928182 161.39889 
L 144.982636 155.57539 
L 147.037091 150.307714 
L 149.091545 145.595862 
L 151.146 141.439835 
L 153.200455 137.839632 
L 155.254909 134.795253 
L 156.624545 133.074458 
L 157.994182 131.600697 
L 159.363818 130.373968 
L 160.733455 129.394272 
L 162.103091 128.66161 
L 163.472727 128.17598 
L 164.842364 127.937383 
L 166.212 127.94582 
L 167.581636 128.201289 
L 168.951273 128.703792 
L 170.320909 129.453327 
L 171.690545 130.449895 
L 173.060182 131.693497 
L 174.429818 133.184131 
L 175.799455 134.921799 
L 177.853909 137.991487 
L 179.908364 141.616999 
L 181.962818 145.798336 
L 184.017273 150.535496 
L 186.071727 155.828481 
L 188.126182 161.677291 
L 190.180636 168.081924 
L 192.919909 177.486051 
L 195.659182 187.87831 
L 198.398455 199.258701 
L 201.137727 211.627225 
L 201.555094 213.598491 
L 203.877 206.232184 
L 205.931455 200.306378 
L 207.985909 194.936395 
L 210.040364 190.122237 
L 212.094818 185.863903 
L 214.149273 182.161393 
L 216.203727 179.014708 
L 218.258182 176.423846 
L 219.627818 175.005397 
L 220.997455 173.83398 
L 222.367091 172.909597 
L 223.736727 172.232246 
L 225.106364 171.801929 
L 226.476 171.618644 
L 227.845636 171.682393 
L 229.215273 171.993174 
L 230.584909 172.550989 
L 231.954545 173.355836 
L 233.324182 174.407717 
L 234.693818 175.70663 
L 236.063455 177.252577 
L 237.433091 179.045556 
L 239.487545 182.198212 
L 241.542 185.906693 
L 243.596455 190.170997 
L 245.650909 194.991126 
L 247.705364 200.36708 
L 249.759818 206.298857 
L 252.059655 213.598491 
L 252.059655 213.598491 
L 253.868727 209.602847 
L 255.923182 205.587866 
L 257.977636 202.128709 
L 260.032091 199.225376 
L 261.401727 197.598612 
L 262.771364 196.218881 
L 264.141 195.086183 
L 265.510636 194.200517 
L 266.880273 193.561885 
L 268.249909 193.170286 
L 269.619545 193.02572 
L 270.989182 193.128187 
L 272.358818 193.477687 
L 273.728455 194.07422 
L 275.098091 194.917786 
L 276.467727 196.008385 
L 277.837364 197.346017 
L 279.207 198.930682 
L 280.576636 200.76238 
L 282.631091 203.973114 
L 284.685545 207.739672 
L 286.74 212.062055 
L 287.412848 213.598491 
L 287.424818 213.578995 
L 289.479273 210.512514 
L 290.848909 208.776985 
L 292.218545 207.288488 
L 293.588182 206.047025 
L 294.957818 205.052595 
L 296.327455 204.305198 
L 297.697091 203.804834 
L 299.066727 203.551502 
L 300.436364 203.545204 
L 301.806 203.785939 
L 303.175636 204.273707 
L 304.545273 205.008508 
L 305.914909 205.990341 
L 307.284545 207.219208 
L 308.654182 208.695108 
L 310.023818 210.418041 
L 312.078273 213.465627 
L 312.160082 213.598491 
L 312.160082 213.598491 
L 313.447909 212.238778 
L 314.817545 211.032344 
L 316.187182 210.072943 
L 317.556818 209.360575 
L 318.926455 208.89524 
L 320.296091 208.676938 
L 321.665727 208.705669 
L 323.035364 208.981433 
L 324.405 209.50423 
L 325.774636 210.274061 
L 327.144273 211.290924 
L 328.513909 212.55482 
L 329.483146 213.598491 
L 329.483146 213.598491 
L 330.568364 212.809564 
L 331.938 212.035255 
L 333.307636 211.507979 
L 334.677273 211.227736 
L 336.046909 211.194527 
L 337.416545 211.40835 
L 338.786182 211.869206 
L 340.155818 212.577095 
L 341.609289 213.598491 
L 341.609289 213.598491 
L 342.895091 212.988713 
L 344.264727 212.57865 
L 345.634364 212.41562 
L 347.004 212.499624 
L 348.373636 212.83066 
L 350.097589 213.598491 
L 350.097589 213.598491 
L 351.112909 213.269143 
L 352.482545 213.039943 
L 353.852182 213.057775 
L 355.221818 213.322641 
L 356.039398 213.598491 
L 356.039398 213.598491 
L 357.276273 213.360493 
L 358.645909 213.332009 
L 360.700364 213.518909 
L 362.07 213.470428 
L 363.439636 213.561501 
L 364.809273 213.561429 
L 365.494091 213.574211 
L 420.279545 213.598491 
L 420.279545 213.598491 
" style="fill:none;stroke:#1f77b4;stroke-linecap:square;"/>
   </g>
   <g id="line2d_28">
    <path clip-path="url(#p96eefe03e0)" d="M 77.870455 38.7252 
L 79.125955 38.828988 
L 80.381455 39.140353 
L 81.751091 39.716763 
L 83.120727 40.540206 
L 84.6045 41.71104 
L 86.088273 43.171794 
L 87.686182 45.069145 
L 89.398227 47.475143 
L 91.110273 50.267131 
L 92.936455 53.670697 
L 94.876773 57.768185 
L 96.931227 62.647087 
L 99.099818 68.40004 
L 101.382545 75.124827 
L 103.779409 82.92438 
L 106.176273 91.480471 
L 108.687273 101.255429 
L 111.312409 112.362479 
L 114.051682 124.919991 
L 116.905091 139.051479 
L 119.872636 154.885609 
L 122.954318 172.556188 
L 126.150136 192.202174 
L 129.437403 213.598489 
L 129.460091 213.49335 
L 132.3135 200.810898 
L 135.052773 189.644461 
L 137.677909 179.870525 
L 140.188909 171.370718 
L 142.585773 164.031818 
L 144.8685 157.745746 
L 147.037091 152.409574 
L 149.091545 147.925517 
L 151.031864 144.200937 
L 152.858045 141.148344 
L 154.570091 138.685394 
L 156.282136 136.608432 
L 157.880045 135.018183 
L 159.363818 133.842594 
L 160.847591 132.956926 
L 162.217227 132.396712 
L 163.586864 132.083532 
L 164.842364 132.013461 
L 166.097864 132.150967 
L 167.4675 132.537713 
L 168.837136 133.171492 
L 170.206773 134.052304 
L 171.690545 135.285287 
L 173.174318 136.808191 
L 174.772227 138.772472 
L 176.484273 141.250182 
L 178.310455 144.318518 
L 180.136636 147.826024 
L 182.076955 152.033948 
L 184.131409 157.029783 
L 186.3 162.906164 
L 188.582727 169.760876 
L 190.979591 177.69685 
L 193.490591 186.822162 
L 196.115727 197.250035 
L 198.855 209.098841 
L 199.873646 213.598489 
L 199.882227 213.571327 
L 202.279091 206.364029 
L 204.561818 200.203294 
L 206.730409 194.98619 
L 208.784864 190.614935 
L 210.725182 186.996891 
L 212.551364 184.044567 
L 214.263409 181.675618 
L 215.861318 179.812847 
L 217.459227 178.286316 
L 218.943 177.169894 
L 220.312636 176.396676 
L 221.682273 175.870492 
L 223.051909 175.591341 
L 224.307409 175.552464 
L 225.562909 175.721163 
L 226.932545 176.141938 
L 228.302182 176.809747 
L 229.671818 177.724589 
L 231.155591 178.994437 
L 232.639364 180.554206 
L 234.237273 182.558188 
L 235.949318 185.078434 
L 237.7755 188.192142 
L 239.601682 191.74502 
L 241.542 196.001153 
L 243.596455 201.048031 
L 245.765045 206.978293 
L 247.992867 213.598489 
L 248.047773 213.479991 
L 250.102227 209.331393 
L 252.042545 205.923636 
L 253.868727 203.16923 
L 255.580773 200.985829 
L 257.178682 199.296236 
L 258.662455 198.0284 
L 260.146227 197.050484 
L 261.515864 196.405119 
L 262.8855 196.006787 
L 264.141 195.85866 
L 265.3965 195.91811 
L 266.652 196.185137 
L 268.021636 196.713178 
L 269.391273 197.488253 
L 270.760909 198.510361 
L 272.244682 199.896414 
L 273.842591 201.713317 
L 275.4405 203.86646 
L 277.152545 206.546521 
L 278.978727 209.830699 
L 280.865322 213.598489 
L 280.919045 213.519397 
L 282.631091 211.197949 
L 284.229 209.379512 
L 285.826909 207.897314 
L 287.310682 206.822059 
L 288.680318 206.086842 
L 290.049955 205.598658 
L 291.419591 205.357508 
L 292.675091 205.353464 
L 293.930591 205.556997 
L 295.300227 206.015773 
L 296.669864 206.721582 
L 298.0395 207.674424 
L 299.523273 208.985439 
L 301.121182 210.721533 
L 302.719091 212.793866 
L 303.321288 213.598489 
L 303.321288 213.598489 
L 304.887682 212.182767 
L 306.371455 211.139713 
L 307.741091 210.434219 
L 309.110727 209.975758 
L 310.480364 209.76433 
L 311.735864 209.787533 
L 312.991364 210.018312 
L 314.361 210.506812 
L 315.730636 211.242344 
L 317.100273 212.224909 
L 318.812318 213.495918 
L 320.181955 212.706435 
L 321.551591 212.163986 
L 322.921227 211.868569 
L 324.176727 211.814783 
L 325.432227 211.968572 
L 326.801864 212.373083 
L 328.1715 213.024626 
L 329.198727 213.570372 
L 330.568364 213.064424 
L 331.938 212.805509 
L 333.1935 212.785182 
L 334.449 212.972431 
L 335.818636 213.413443 
L 336.389318 213.568663 
L 337.758955 213.274123 
L 339.014455 213.22114 
L 340.269955 213.375733 
L 341.525455 213.53185 
L 342.780955 213.422413 
L 344.036455 213.520552 
L 344.835409 213.558726 
L 346.090909 213.533504 
L 348.487773 213.590179 
L 351.911864 213.598694 
L 420.279545 213.598694 
L 420.279545 213.598694 
" style="fill:none;stroke:#ff7f0e;stroke-linecap:square;"/>
   </g>
   <g id="line2d_29">
    <path clip-path="url(#p96eefe03e0)" d="M 77.870455 91.187187 
L 363.109318 91.219769 
L 363.109318 91.572747 
L 365.140381 91.572747 
L 365.140381 93.385688 
L 366.53659 93.385688 
L 366.53659 98.910125 
L 367.452275 98.910125 
L 367.452275 111.176243 
L 367.548545 111.176243 
L 367.988586 111.176243 
L 367.988586 133.538213 
L 368.234118 133.538213 
L 368.305933 212.235748 
L 420.279545 212.235748 
L 420.279545 212.235748 
" style="fill:none;stroke:#2ca02c;stroke-linecap:square;"/>
   </g>
   <g id="patch_3">
    <path d="M 60.75 222.3576 
L 60.75 29.9808 
" style="fill:none;stroke:#000000;stroke-linecap:square;stroke-linejoin:miter;stroke-width:0.8;"/>
   </g>
   <g id="patch_4">
    <path d="M 437.4 222.3576 
L 437.4 29.9808 
" style="fill:none;stroke:#000000;stroke-linecap:square;stroke-linejoin:miter;stroke-width:0.8;"/>
   </g>
   <g id="patch_5">
    <path d="M 60.75 222.3576 
L 437.4 222.3576 
" style="fill:none;stroke:#000000;stroke-linecap:square;stroke-linejoin:miter;stroke-width:0.8;"/>
   </g>
   <g id="patch_6">
    <path d="M 60.75 29.9808 
L 437.4 29.9808 
" style="fill:none;stroke:#000000;stroke-linecap:square;stroke-linejoin:miter;stroke-width:0.8;"/>
   </g>
   <g id="legend_1">
    <g id="patch_7">
     <path d="M 308.12 71.6083 
L 431.8 71.6083 
Q 433.4 71.6083 433.4 70.0083 
L 433.4 35.5808 
Q 433.4 33.9808 431.8 33.9808 
L 308.12 33.9808 
Q 306.52 33.9808 306.52 35.5808 
L 306.52 70.0083 
Q 306.52 71.6083 308.12 71.6083 
z
" style="fill:#ffffff;opacity:0.8;stroke:#cccccc;stroke-linejoin:miter;"/>
    </g>
    <g id="line2d_30">
     <path d="M 309.72 40.45955 
L 325.72 40.45955 
" style="fill:none;stroke:#1f77b4;stroke-linecap:square;"/>
    </g>
    <g id="line2d_31"/>
    <g id="text_16">
     <!-- impulsive response -->
     <defs>
      <path d="M 18.109375 8.203125 
L 18.109375 -20.796875 
L 9.078125 -20.796875 
L 9.078125 54.6875 
L 18.109375 54.6875 
L 18.109375 46.390625 
Q 20.953125 51.265625 25.265625 53.625 
Q 29.59375 56 35.59375 56 
Q 45.5625 56 51.78125 48.09375 
Q 58.015625 40.1875 58.015625 27.296875 
Q 58.015625 14.40625 51.78125 6.484375 
Q 45.5625 -1.421875 35.59375 -1.421875 
Q 29.59375 -1.421875 25.265625 0.953125 
Q 20.953125 3.328125 18.109375 8.203125 
z
M 48.6875 27.296875 
Q 48.6875 37.203125 44.609375 42.84375 
Q 40.53125 48.484375 33.40625 48.484375 
Q 26.265625 48.484375 22.1875 42.84375 
Q 18.109375 37.203125 18.109375 27.296875 
Q 18.109375 17.390625 22.1875 11.75 
Q 26.265625 6.109375 33.40625 6.109375 
Q 40.53125 6.109375 44.609375 11.75 
Q 48.6875 17.390625 48.6875 27.296875 
z
" id="DejaVuSans-70"/>
      <path d="M 8.5 21.578125 
L 8.5 54.6875 
L 17.484375 54.6875 
L 17.484375 21.921875 
Q 17.484375 14.15625 20.5 10.265625 
Q 23.53125 6.390625 29.59375 6.390625 
Q 36.859375 6.390625 41.078125 11.03125 
Q 45.3125 15.671875 45.3125 23.6875 
L 45.3125 54.6875 
L 54.296875 54.6875 
L 54.296875 0 
L 45.3125 0 
L 45.3125 8.40625 
Q 42.046875 3.421875 37.71875 1 
Q 33.40625 -1.421875 27.6875 -1.421875 
Q 18.265625 -1.421875 13.375 4.4375 
Q 8.5 10.296875 8.5 21.578125 
z
M 31.109375 56 
z
" id="DejaVuSans-75"/>
      <path d="M 9.421875 75.984375 
L 18.40625 75.984375 
L 18.40625 0 
L 9.421875 0 
z
" id="DejaVuSans-6c"/>
      <path d="M 2.984375 54.6875 
L 12.5 54.6875 
L 29.59375 8.796875 
L 46.6875 54.6875 
L 56.203125 54.6875 
L 35.6875 0 
L 23.484375 0 
z
" id="DejaVuSans-76"/>
     </defs>
     <g transform="translate(332.12 43.25955)scale(0.08 -0.08)">
      <use xlink:href="#DejaVuSans-69"/>
      <use x="27.783203" xlink:href="#DejaVuSans-6d"/>
      <use x="125.195312" xlink:href="#DejaVuSans-70"/>
      <use x="188.671875" xlink:href="#DejaVuSans-75"/>
      <use x="252.050781" xlink:href="#DejaVuSans-6c"/>
      <use x="279.833984" xlink:href="#DejaVuSans-73"/>
      <use x="331.933594" xlink:href="#DejaVuSans-69"/>
      <use x="359.716797" xlink:href="#DejaVuSans-76"/>
      <use x="418.896484" xlink:href="#DejaVuSans-65"/>
      <use x="480.419922" xlink:href="#DejaVuSans-20"/>
      <use x="512.207031" xlink:href="#DejaVuSans-72"/>
      <use x="553.289062" xlink:href="#DejaVuSans-65"/>
      <use x="614.8125" xlink:href="#DejaVuSans-73"/>
      <use x="666.912109" xlink:href="#DejaVuSans-70"/>
      <use x="730.388672" xlink:href="#DejaVuSans-6f"/>
      <use x="791.570312" xlink:href="#DejaVuSans-6e"/>
      <use x="854.949219" xlink:href="#DejaVuSans-73"/>
      <use x="907.048828" xlink:href="#DejaVuSans-65"/>
     </g>
    </g>
    <g id="line2d_32">
     <path d="M 309.72 52.20205 
L 325.72 52.20205 
" style="fill:none;stroke:#ff7f0e;stroke-linecap:square;"/>
    </g>
    <g id="line2d_33"/>
    <g id="text_17">
     <!-- compliant response -->
     <g transform="translate(332.12 55.00205)scale(0.08 -0.08)">
      <use xlink:href="#DejaVuSans-63"/>
      <use x="54.980469" xlink:href="#DejaVuSans-6f"/>
      <use x="116.162109" xlink:href="#DejaVuSans-6d"/>
      <use x="213.574219" xlink:href="#DejaVuSans-70"/>
      <use x="277.050781" xlink:href="#DejaVuSans-6c"/>
      <use x="304.833984" xlink:href="#DejaVuSans-69"/>
      <use x="332.617188" xlink:href="#DejaVuSans-61"/>
      <use x="393.896484" xlink:href="#DejaVuSans-6e"/>
      <use x="457.275391" xlink:href="#DejaVuSans-74"/>
      <use x="496.484375" xlink:href="#DejaVuSans-20"/>
      <use x="528.271484" xlink:href="#DejaVuSans-72"/>
      <use x="569.353516" xlink:href="#DejaVuSans-65"/>
      <use x="630.876953" xlink:href="#DejaVuSans-73"/>
      <use x="682.976562" xlink:href="#DejaVuSans-70"/>
      <use x="746.453125" xlink:href="#DejaVuSans-6f"/>
      <use x="807.634766" xlink:href="#DejaVuSans-6e"/>
      <use x="871.013672" xlink:href="#DejaVuSans-73"/>
      <use x="923.113281" xlink:href="#DejaVuSans-65"/>
     </g>
    </g>
    <g id="line2d_34">
     <path d="M 309.72 63.94455 
L 325.72 63.94455 
" style="fill:none;stroke:#2ca02c;stroke-linecap:square;"/>
    </g>
    <g id="line2d_35"/>
    <g id="text_18">
     <!-- $cor_{res}$ (vsmall = 0.1 m/s) -->
     <defs>
      <path d="M 53.609375 52.59375 
L 51.8125 43.703125 
Q 48.578125 46.046875 44.9375 47.21875 
Q 41.3125 48.390625 37.40625 48.390625 
Q 33.109375 48.390625 29.21875 46.875 
Q 25.34375 45.359375 22.703125 42.578125 
Q 18.5 38.328125 16.203125 32.609375 
Q 13.921875 26.90625 13.921875 20.796875 
Q 13.921875 13.421875 17.609375 9.8125 
Q 21.296875 6.203125 28.8125 6.203125 
Q 32.515625 6.203125 36.6875 7.328125 
Q 40.875 8.453125 45.40625 10.6875 
L 43.703125 1.8125 
Q 39.796875 0.203125 35.671875 -0.609375 
Q 31.546875 -1.421875 27.203125 -1.421875 
Q 16.3125 -1.421875 10.453125 4.015625 
Q 4.59375 9.46875 4.59375 19.578125 
Q 4.59375 28.078125 7.640625 35.234375 
Q 10.6875 42.390625 16.703125 48.09375 
Q 20.796875 52 26.3125 54 
Q 31.84375 56 38.375 56 
Q 42.1875 56 45.9375 55.140625 
Q 49.703125 54.296875 53.609375 52.59375 
z
" id="DejaVuSans-Oblique-63"/>
      <path d="M 25.390625 -1.421875 
Q 15.765625 -1.421875 10.171875 4.515625 
Q 4.59375 10.453125 4.59375 20.703125 
Q 4.59375 26.65625 6.515625 32.828125 
Q 8.453125 39.015625 11.53125 43.21875 
Q 16.359375 49.75 22.3125 52.875 
Q 28.265625 56 35.796875 56 
Q 45.125 56 50.859375 50.1875 
Q 56.59375 44.390625 56.59375 35.015625 
Q 56.59375 28.515625 54.6875 22.0625 
Q 52.78125 15.625 49.703125 11.375 
Q 44.921875 4.828125 38.96875 1.703125 
Q 33.015625 -1.421875 25.390625 -1.421875 
z
M 13.921875 21 
Q 13.921875 13.578125 17.015625 9.890625 
Q 20.125 6.203125 26.421875 6.203125 
Q 35.453125 6.203125 41.375 14.078125 
Q 47.3125 21.96875 47.3125 34.078125 
Q 47.3125 41.15625 44.140625 44.765625 
Q 40.96875 48.390625 34.8125 48.390625 
Q 29.734375 48.390625 25.78125 46.015625 
Q 21.828125 43.65625 18.703125 38.8125 
Q 16.40625 35.203125 15.15625 30.5625 
Q 13.921875 25.921875 13.921875 21 
z
" id="DejaVuSans-Oblique-6f"/>
      <path d="M 44.578125 46.390625 
Q 43.21875 47.125 41.453125 47.515625 
Q 39.703125 47.90625 37.703125 47.90625 
Q 30.515625 47.90625 25.140625 42.453125 
Q 19.78125 37.015625 18.015625 27.875 
L 12.5 0 
L 3.515625 0 
L 14.203125 54.6875 
L 23.1875 54.6875 
L 21.484375 46.1875 
Q 25.046875 50.921875 30 53.453125 
Q 34.96875 56 40.578125 56 
Q 42.046875 56 43.453125 55.828125 
Q 44.875 55.671875 46.296875 55.28125 
z
" id="DejaVuSans-Oblique-72"/>
      <path d="M 48.09375 32.234375 
Q 48.25 33.015625 48.3125 33.84375 
Q 48.390625 34.671875 48.390625 35.5 
Q 48.390625 41.453125 44.890625 44.921875 
Q 41.40625 48.390625 35.40625 48.390625 
Q 28.71875 48.390625 23.578125 44.15625 
Q 18.453125 39.9375 15.828125 32.171875 
z
M 55.90625 25.203125 
L 14.109375 25.203125 
Q 13.8125 23.34375 13.71875 22.265625 
Q 13.625 21.1875 13.625 20.40625 
Q 13.625 13.625 17.796875 9.90625 
Q 21.96875 6.203125 29.59375 6.203125 
Q 35.453125 6.203125 40.671875 7.515625 
Q 45.90625 8.84375 50.390625 11.375 
L 48.6875 2.484375 
Q 43.84375 0.53125 38.6875 -0.4375 
Q 33.546875 -1.421875 28.21875 -1.421875 
Q 16.84375 -1.421875 10.71875 4.015625 
Q 4.59375 9.46875 4.59375 19.484375 
Q 4.59375 28.03125 7.640625 35.375 
Q 10.6875 42.71875 16.609375 48.484375 
Q 20.40625 52.09375 25.65625 54.046875 
Q 30.90625 56 36.8125 56 
Q 46.09375 56 51.578125 50.4375 
Q 57.078125 44.875 57.078125 35.5 
Q 57.078125 33.25 56.78125 30.6875 
Q 56.5 28.125 55.90625 25.203125 
z
" id="DejaVuSans-Oblique-65"/>
      <path d="M 50 53.078125 
L 48.296875 44.578125 
Q 44.734375 46.53125 40.765625 47.5 
Q 36.8125 48.484375 32.625 48.484375 
Q 25.53125 48.484375 21.453125 46.0625 
Q 17.390625 43.65625 17.390625 39.5 
Q 17.390625 34.671875 26.859375 32.078125 
Q 27.59375 31.890625 27.9375 31.78125 
L 30.8125 30.90625 
Q 39.796875 28.421875 42.796875 25.6875 
Q 45.796875 22.953125 45.796875 18.21875 
Q 45.796875 9.515625 38.890625 4.046875 
Q 31.984375 -1.421875 20.796875 -1.421875 
Q 16.453125 -1.421875 11.671875 -0.578125 
Q 6.890625 0.25 1.125 2 
L 2.875 11.28125 
Q 7.8125 8.734375 12.59375 7.421875 
Q 17.390625 6.109375 21.78125 6.109375 
Q 28.375 6.109375 32.5 8.9375 
Q 36.625 11.765625 36.625 16.109375 
Q 36.625 20.796875 25.78125 23.6875 
L 24.859375 23.921875 
L 21.78125 24.703125 
Q 14.9375 26.515625 11.765625 29.46875 
Q 8.59375 32.421875 8.59375 37.015625 
Q 8.59375 45.75 15.15625 50.875 
Q 21.734375 56 33.015625 56 
Q 37.453125 56 41.671875 55.265625 
Q 45.90625 54.546875 50 53.078125 
z
" id="DejaVuSans-Oblique-73"/>
      <path d="M 31 75.875 
Q 24.46875 64.65625 21.28125 53.65625 
Q 18.109375 42.671875 18.109375 31.390625 
Q 18.109375 20.125 21.3125 9.0625 
Q 24.515625 -2 31 -13.1875 
L 23.1875 -13.1875 
Q 15.875 -1.703125 12.234375 9.375 
Q 8.59375 20.453125 8.59375 31.390625 
Q 8.59375 42.28125 12.203125 53.3125 
Q 15.828125 64.359375 23.1875 75.875 
z
" id="DejaVuSans-28"/>
      <path d="M 10.59375 45.40625 
L 73.1875 45.40625 
L 73.1875 37.203125 
L 10.59375 37.203125 
z
M 10.59375 25.484375 
L 73.1875 25.484375 
L 73.1875 17.1875 
L 10.59375 17.1875 
z
" id="DejaVuSans-3d"/>
      <path d="M 25.390625 72.90625 
L 33.6875 72.90625 
L 8.296875 -9.28125 
L 0 -9.28125 
z
" id="DejaVuSans-2f"/>
      <path d="M 8.015625 75.875 
L 15.828125 75.875 
Q 23.140625 64.359375 26.78125 53.3125 
Q 30.421875 42.28125 30.421875 31.390625 
Q 30.421875 20.453125 26.78125 9.375 
Q 23.140625 -1.703125 15.828125 -13.1875 
L 8.015625 -13.1875 
Q 14.5 -2 17.703125 9.0625 
Q 20.90625 20.125 20.90625 31.390625 
Q 20.90625 42.671875 17.703125 53.65625 
Q 14.5 64.65625 8.015625 75.875 
z
" id="DejaVuSans-29"/>
     </defs>
     <g transform="translate(332.12 66.74455)scale(0.08 -0.08)">
      <use transform="translate(0 0.015625)" xlink:href="#DejaVuSans-Oblique-63"/>
      <use transform="translate(54.980469 0.015625)" xlink:href="#DejaVuSans-Oblique-6f"/>
      <use transform="translate(116.162109 0.015625)" xlink:href="#DejaVuSans-Oblique-72"/>
      <use transform="translate(157.275391 -16.390625)scale(0.7)" xlink:href="#DejaVuSans-Oblique-72"/>
      <use transform="translate(186.054688 -16.390625)scale(0.7)" xlink:href="#DejaVuSans-Oblique-65"/>
      <use transform="translate(229.121094 -16.390625)scale(0.7)" xlink:href="#DejaVuSans-Oblique-73"/>
      <use transform="translate(268.325195 0.015625)" xlink:href="#DejaVuSans-20"/>
      <use transform="translate(300.112305 0.015625)" xlink:href="#DejaVuSans-28"/>
      <use transform="translate(339.125977 0.015625)" xlink:href="#DejaVuSans-76"/>
      <use transform="translate(398.305664 0.015625)" xlink:href="#DejaVuSans-73"/>
      <use transform="translate(450.405273 0.015625)" xlink:href="#DejaVuSans-6d"/>
      <use transform="translate(547.817383 0.015625)" xlink:href="#DejaVuSans-61"/>
      <use transform="translate(609.09668 0.015625)" xlink:href="#DejaVuSans-6c"/>
      <use transform="translate(636.879883 0.015625)" xlink:href="#DejaVuSans-6c"/>
      <use transform="translate(664.663086 0.015625)" xlink:href="#DejaVuSans-20"/>
      <use transform="translate(696.450195 0.015625)" xlink:href="#DejaVuSans-3d"/>
      <use transform="translate(780.239258 0.015625)" xlink:href="#DejaVuSans-20"/>
      <use transform="translate(812.026367 0.015625)" xlink:href="#DejaVuSans-30"/>
      <use transform="translate(875.649414 0.015625)" xlink:href="#DejaVuSans-2e"/>
      <use transform="translate(907.436523 0.015625)" xlink:href="#DejaVuSans-31"/>
      <use transform="translate(971.05957 0.015625)" xlink:href="#DejaVuSans-20"/>
      <use transform="translate(1002.84668 0.015625)" xlink:href="#DejaVuSans-6d"/>
      <use transform="translate(1100.258789 0.015625)" xlink:href="#DejaVuSans-2f"/>
      <use transform="translate(1133.950195 0.015625)" xlink:href="#DejaVuSans-73"/>
      <use transform="translate(1186.049805 0.015625)" xlink:href="#DejaVuSans-29"/>
     </g>
    </g>
   </g>
  </g>
 </g>
 <defs>
  <clipPath id="p96eefe03e0">
   <rect height="192.3768" width="376.65" x="60.75" y="29.9808"/>
  </clipPath>
 </defs>
</svg>
