<?xml version="1.0" encoding="utf-8" standalone="no"?>
<!DOCTYPE svg PUBLIC "-//W3C//DTD SVG 1.1//EN"
  "http://www.w3.org/Graphics/SVG/1.1/DTD/svg11.dtd">
<!-- Created with matplotlib (https://matplotlib.org/) -->
<svg height="321.12pt" version="1.1" viewBox="0 0 450.72 321.12" width="450.72pt" xmlns="http://www.w3.org/2000/svg" xmlns:xlink="http://www.w3.org/1999/xlink">
 <metadata>
  <rdf:RDF xmlns:cc="http://creativecommons.org/ns#" xmlns:dc="http://purl.org/dc/elements/1.1/" xmlns:rdf="http://www.w3.org/1999/02/22-rdf-syntax-ns#">
   <cc:Work>
    <dc:type rdf:resource="http://purl.org/dc/dcmitype/StillImage"/>
    <dc:date>2022-01-19T17:53:14.793151</dc:date>
    <dc:format>image/svg+xml</dc:format>
    <dc:creator>
     <cc:Agent>
      <dc:title>Matplotlib v3.3.4, https://matplotlib.org/</dc:title>
     </cc:Agent>
    </dc:creator>
   </cc:Work>
  </rdf:RDF>
 </metadata>
 <defs>
  <style type="text/css">*{stroke-linecap:butt;stroke-linejoin:round;}</style>
 </defs>
 <g id="figure_1">
  <g id="patch_1">
   <path d="M 0 321.12 
L 450.72 321.12 
L 450.72 0 
L 0 0 
z
" style="fill:#ffffff;"/>
  </g>
  <g id="axes_1">
   <g id="patch_2">
    <path d="M 56.34 285.7968 
L 405.648 285.7968 
L 405.648 38.5344 
L 56.34 38.5344 
z
" style="fill:#ffffff;"/>
   </g>
   <g id="matplotlib.axis_1">
    <g id="xtick_1">
     <g id="line2d_1">
      <path clip-path="url(#p1e817763cb)" d="M 72.217636 285.7968 
L 72.217636 38.5344 
" style="fill:none;stroke:#b0b0b0;stroke-linecap:square;stroke-width:0.5;"/>
     </g>
     <g id="line2d_2">
      <defs>
       <path d="M 0 0 
L 0 3.5 
" id="mec07ff4dca" style="stroke:#000000;stroke-width:0.8;"/>
      </defs>
      <g>
       <use style="stroke:#000000;stroke-width:0.8;" x="72.217636" xlink:href="#mec07ff4dca" y="285.7968"/>
      </g>
     </g>
     <g id="text_1">
      <!-- 0.005 -->
      <g transform="translate(57.903574 300.395238)scale(0.1 -0.1)">
       <defs>
        <path d="M 31.78125 66.40625 
Q 24.171875 66.40625 20.328125 58.90625 
Q 16.5 51.421875 16.5 36.375 
Q 16.5 21.390625 20.328125 13.890625 
Q 24.171875 6.390625 31.78125 6.390625 
Q 39.453125 6.390625 43.28125 13.890625 
Q 47.125 21.390625 47.125 36.375 
Q 47.125 51.421875 43.28125 58.90625 
Q 39.453125 66.40625 31.78125 66.40625 
z
M 31.78125 74.21875 
Q 44.046875 74.21875 50.515625 64.515625 
Q 56.984375 54.828125 56.984375 36.375 
Q 56.984375 17.96875 50.515625 8.265625 
Q 44.046875 -1.421875 31.78125 -1.421875 
Q 19.53125 -1.421875 13.0625 8.265625 
Q 6.59375 17.96875 6.59375 36.375 
Q 6.59375 54.828125 13.0625 64.515625 
Q 19.53125 74.21875 31.78125 74.21875 
z
" id="DejaVuSans-48"/>
        <path d="M 10.6875 12.40625 
L 21 12.40625 
L 21 0 
L 10.6875 0 
z
" id="DejaVuSans-46"/>
        <path d="M 10.796875 72.90625 
L 49.515625 72.90625 
L 49.515625 64.59375 
L 19.828125 64.59375 
L 19.828125 46.734375 
Q 21.96875 47.46875 24.109375 47.828125 
Q 26.265625 48.1875 28.421875 48.1875 
Q 40.625 48.1875 47.75 41.5 
Q 54.890625 34.8125 54.890625 23.390625 
Q 54.890625 11.625 47.5625 5.09375 
Q 40.234375 -1.421875 26.90625 -1.421875 
Q 22.3125 -1.421875 17.546875 -0.640625 
Q 12.796875 0.140625 7.71875 1.703125 
L 7.71875 11.625 
Q 12.109375 9.234375 16.796875 8.0625 
Q 21.484375 6.890625 26.703125 6.890625 
Q 35.15625 6.890625 40.078125 11.328125 
Q 45.015625 15.765625 45.015625 23.390625 
Q 45.015625 31 40.078125 35.4375 
Q 35.15625 39.890625 26.703125 39.890625 
Q 22.75 39.890625 18.8125 39.015625 
Q 14.890625 38.140625 10.796875 36.28125 
z
" id="DejaVuSans-53"/>
       </defs>
       <use xlink:href="#DejaVuSans-48"/>
       <use x="63.623047" xlink:href="#DejaVuSans-46"/>
       <use x="95.410156" xlink:href="#DejaVuSans-48"/>
       <use x="159.033203" xlink:href="#DejaVuSans-48"/>
       <use x="222.65625" xlink:href="#DejaVuSans-53"/>
      </g>
     </g>
    </g>
    <g id="xtick_2">
     <g id="line2d_3">
      <path clip-path="url(#p1e817763cb)" d="M 117.582312 285.7968 
L 117.582312 38.5344 
" style="fill:none;stroke:#b0b0b0;stroke-linecap:square;stroke-width:0.5;"/>
     </g>
     <g id="line2d_4">
      <g>
       <use style="stroke:#000000;stroke-width:0.8;" x="117.582312" xlink:href="#mec07ff4dca" y="285.7968"/>
      </g>
     </g>
     <g id="text_2">
      <!-- 0.010 -->
      <g transform="translate(103.268249 300.395238)scale(0.1 -0.1)">
       <defs>
        <path d="M 12.40625 8.296875 
L 28.515625 8.296875 
L 28.515625 63.921875 
L 10.984375 60.40625 
L 10.984375 69.390625 
L 28.421875 72.90625 
L 38.28125 72.90625 
L 38.28125 8.296875 
L 54.390625 8.296875 
L 54.390625 0 
L 12.40625 0 
z
" id="DejaVuSans-49"/>
       </defs>
       <use xlink:href="#DejaVuSans-48"/>
       <use x="63.623047" xlink:href="#DejaVuSans-46"/>
       <use x="95.410156" xlink:href="#DejaVuSans-48"/>
       <use x="159.033203" xlink:href="#DejaVuSans-49"/>
       <use x="222.65625" xlink:href="#DejaVuSans-48"/>
      </g>
     </g>
    </g>
    <g id="xtick_3">
     <g id="line2d_5">
      <path clip-path="url(#p1e817763cb)" d="M 162.946987 285.7968 
L 162.946987 38.5344 
" style="fill:none;stroke:#b0b0b0;stroke-linecap:square;stroke-width:0.5;"/>
     </g>
     <g id="line2d_6">
      <g>
       <use style="stroke:#000000;stroke-width:0.8;" x="162.946987" xlink:href="#mec07ff4dca" y="285.7968"/>
      </g>
     </g>
     <g id="text_3">
      <!-- 0.015 -->
      <g transform="translate(148.632925 300.395238)scale(0.1 -0.1)">
       <use xlink:href="#DejaVuSans-48"/>
       <use x="63.623047" xlink:href="#DejaVuSans-46"/>
       <use x="95.410156" xlink:href="#DejaVuSans-48"/>
       <use x="159.033203" xlink:href="#DejaVuSans-49"/>
       <use x="222.65625" xlink:href="#DejaVuSans-53"/>
      </g>
     </g>
    </g>
    <g id="xtick_4">
     <g id="line2d_7">
      <path clip-path="url(#p1e817763cb)" d="M 208.311662 285.7968 
L 208.311662 38.5344 
" style="fill:none;stroke:#b0b0b0;stroke-linecap:square;stroke-width:0.5;"/>
     </g>
     <g id="line2d_8">
      <g>
       <use style="stroke:#000000;stroke-width:0.8;" x="208.311662" xlink:href="#mec07ff4dca" y="285.7968"/>
      </g>
     </g>
     <g id="text_4">
      <!-- 0.020 -->
      <g transform="translate(193.9976 300.395238)scale(0.1 -0.1)">
       <defs>
        <path d="M 19.1875 8.296875 
L 53.609375 8.296875 
L 53.609375 0 
L 7.328125 0 
L 7.328125 8.296875 
Q 12.9375 14.109375 22.625 23.890625 
Q 32.328125 33.6875 34.8125 36.53125 
Q 39.546875 41.84375 41.421875 45.53125 
Q 43.3125 49.21875 43.3125 52.78125 
Q 43.3125 58.59375 39.234375 62.25 
Q 35.15625 65.921875 28.609375 65.921875 
Q 23.96875 65.921875 18.8125 64.3125 
Q 13.671875 62.703125 7.8125 59.421875 
L 7.8125 69.390625 
Q 13.765625 71.78125 18.9375 73 
Q 24.125 74.21875 28.421875 74.21875 
Q 39.75 74.21875 46.484375 68.546875 
Q 53.21875 62.890625 53.21875 53.421875 
Q 53.21875 48.921875 51.53125 44.890625 
Q 49.859375 40.875 45.40625 35.40625 
Q 44.1875 33.984375 37.640625 27.21875 
Q 31.109375 20.453125 19.1875 8.296875 
z
" id="DejaVuSans-50"/>
       </defs>
       <use xlink:href="#DejaVuSans-48"/>
       <use x="63.623047" xlink:href="#DejaVuSans-46"/>
       <use x="95.410156" xlink:href="#DejaVuSans-48"/>
       <use x="159.033203" xlink:href="#DejaVuSans-50"/>
       <use x="222.65625" xlink:href="#DejaVuSans-48"/>
      </g>
     </g>
    </g>
    <g id="xtick_5">
     <g id="line2d_9">
      <path clip-path="url(#p1e817763cb)" d="M 253.676338 285.7968 
L 253.676338 38.5344 
" style="fill:none;stroke:#b0b0b0;stroke-linecap:square;stroke-width:0.5;"/>
     </g>
     <g id="line2d_10">
      <g>
       <use style="stroke:#000000;stroke-width:0.8;" x="253.676338" xlink:href="#mec07ff4dca" y="285.7968"/>
      </g>
     </g>
     <g id="text_5">
      <!-- 0.025 -->
      <g transform="translate(239.362275 300.395238)scale(0.1 -0.1)">
       <use xlink:href="#DejaVuSans-48"/>
       <use x="63.623047" xlink:href="#DejaVuSans-46"/>
       <use x="95.410156" xlink:href="#DejaVuSans-48"/>
       <use x="159.033203" xlink:href="#DejaVuSans-50"/>
       <use x="222.65625" xlink:href="#DejaVuSans-53"/>
      </g>
     </g>
    </g>
    <g id="xtick_6">
     <g id="line2d_11">
      <path clip-path="url(#p1e817763cb)" d="M 299.041013 285.7968 
L 299.041013 38.5344 
" style="fill:none;stroke:#b0b0b0;stroke-linecap:square;stroke-width:0.5;"/>
     </g>
     <g id="line2d_12">
      <g>
       <use style="stroke:#000000;stroke-width:0.8;" x="299.041013" xlink:href="#mec07ff4dca" y="285.7968"/>
      </g>
     </g>
     <g id="text_6">
      <!-- 0.030 -->
      <g transform="translate(284.72695 300.395238)scale(0.1 -0.1)">
       <defs>
        <path d="M 40.578125 39.3125 
Q 47.65625 37.796875 51.625 33 
Q 55.609375 28.21875 55.609375 21.1875 
Q 55.609375 10.40625 48.1875 4.484375 
Q 40.765625 -1.421875 27.09375 -1.421875 
Q 22.515625 -1.421875 17.65625 -0.515625 
Q 12.796875 0.390625 7.625 2.203125 
L 7.625 11.71875 
Q 11.71875 9.328125 16.59375 8.109375 
Q 21.484375 6.890625 26.8125 6.890625 
Q 36.078125 6.890625 40.9375 10.546875 
Q 45.796875 14.203125 45.796875 21.1875 
Q 45.796875 27.640625 41.28125 31.265625 
Q 36.765625 34.90625 28.71875 34.90625 
L 20.21875 34.90625 
L 20.21875 43.015625 
L 29.109375 43.015625 
Q 36.375 43.015625 40.234375 45.921875 
Q 44.09375 48.828125 44.09375 54.296875 
Q 44.09375 59.90625 40.109375 62.90625 
Q 36.140625 65.921875 28.71875 65.921875 
Q 24.65625 65.921875 20.015625 65.03125 
Q 15.375 64.15625 9.8125 62.3125 
L 9.8125 71.09375 
Q 15.4375 72.65625 20.34375 73.4375 
Q 25.25 74.21875 29.59375 74.21875 
Q 40.828125 74.21875 47.359375 69.109375 
Q 53.90625 64.015625 53.90625 55.328125 
Q 53.90625 49.265625 50.4375 45.09375 
Q 46.96875 40.921875 40.578125 39.3125 
z
" id="DejaVuSans-51"/>
       </defs>
       <use xlink:href="#DejaVuSans-48"/>
       <use x="63.623047" xlink:href="#DejaVuSans-46"/>
       <use x="95.410156" xlink:href="#DejaVuSans-48"/>
       <use x="159.033203" xlink:href="#DejaVuSans-51"/>
       <use x="222.65625" xlink:href="#DejaVuSans-48"/>
      </g>
     </g>
    </g>
    <g id="xtick_7">
     <g id="line2d_13">
      <path clip-path="url(#p1e817763cb)" d="M 344.405688 285.7968 
L 344.405688 38.5344 
" style="fill:none;stroke:#b0b0b0;stroke-linecap:square;stroke-width:0.5;"/>
     </g>
     <g id="line2d_14">
      <g>
       <use style="stroke:#000000;stroke-width:0.8;" x="344.405688" xlink:href="#mec07ff4dca" y="285.7968"/>
      </g>
     </g>
     <g id="text_7">
      <!-- 0.035 -->
      <g transform="translate(330.091626 300.395238)scale(0.1 -0.1)">
       <use xlink:href="#DejaVuSans-48"/>
       <use x="63.623047" xlink:href="#DejaVuSans-46"/>
       <use x="95.410156" xlink:href="#DejaVuSans-48"/>
       <use x="159.033203" xlink:href="#DejaVuSans-51"/>
       <use x="222.65625" xlink:href="#DejaVuSans-53"/>
      </g>
     </g>
    </g>
    <g id="xtick_8">
     <g id="line2d_15">
      <path clip-path="url(#p1e817763cb)" d="M 389.770364 285.7968 
L 389.770364 38.5344 
" style="fill:none;stroke:#b0b0b0;stroke-linecap:square;stroke-width:0.5;"/>
     </g>
     <g id="line2d_16">
      <g>
       <use style="stroke:#000000;stroke-width:0.8;" x="389.770364" xlink:href="#mec07ff4dca" y="285.7968"/>
      </g>
     </g>
     <g id="text_8">
      <!-- 0.040 -->
      <g transform="translate(375.456301 300.395238)scale(0.1 -0.1)">
       <defs>
        <path d="M 37.796875 64.3125 
L 12.890625 25.390625 
L 37.796875 25.390625 
z
M 35.203125 72.90625 
L 47.609375 72.90625 
L 47.609375 25.390625 
L 58.015625 25.390625 
L 58.015625 17.1875 
L 47.609375 17.1875 
L 47.609375 0 
L 37.796875 0 
L 37.796875 17.1875 
L 4.890625 17.1875 
L 4.890625 26.703125 
z
" id="DejaVuSans-52"/>
       </defs>
       <use xlink:href="#DejaVuSans-48"/>
       <use x="63.623047" xlink:href="#DejaVuSans-46"/>
       <use x="95.410156" xlink:href="#DejaVuSans-48"/>
       <use x="159.033203" xlink:href="#DejaVuSans-52"/>
       <use x="222.65625" xlink:href="#DejaVuSans-48"/>
      </g>
     </g>
    </g>
    <g id="text_9">
     <!-- $\dot{\delta}^- \; [m/s]$ -->
     <g transform="translate(208.994 316.495238)scale(0.1 -0.1)">
      <defs>
       <path d="M -29.59375 75.984375 
L -20.609375 75.984375 
L -20.609375 64.59375 
L -29.59375 64.59375 
z
M -25 56 
z
" id="DejaVuSans-775"/>
       <path d="M 54.25 63.328125 
Q 49.953125 66.75 38.28125 66.75 
Q 25.921875 66.75 24.8125 61.03125 
Q 23.921875 56.546875 36.375 54.203125 
Q 46.140625 52.390625 50.828125 46.921875 
Q 56.5 40.328125 53.859375 26.8125 
Q 51.3125 13.875 43.171875 6.25 
Q 34.96875 -1.421875 23.25 -1.421875 
Q 11.578125 -1.421875 6.34375 6.25 
Q 1.125 13.875 3.765625 27.296875 
Q 5.671875 37.25 13.921875 45.3125 
Q 17.140625 48.4375 21.140625 50.203125 
Q 14.265625 54.046875 15.625 60.9375 
Q 18.21875 74.21875 39.75 74.21875 
Q 50.53125 74.21875 55.71875 70.796875 
z
M 27.390625 47.75 
Q 23.828125 46.34375 20.40625 42.78125 
Q 15.140625 37.25 13.234375 27.296875 
Q 11.28125 17.390625 14.359375 11.8125 
Q 17.484375 6.203125 24.75 6.203125 
Q 31.9375 6.203125 37.203125 11.859375 
Q 42.53125 17.53125 44.34375 26.8125 
Q 46.1875 36.53125 42.671875 41.21875 
Q 38.921875 46.234375 32.859375 46.78125 
Q 29.78125 47.078125 27.390625 47.75 
z
" id="DejaVuSans-Oblique-948"/>
       <path d="M 10.59375 35.5 
L 73.1875 35.5 
L 73.1875 27.203125 
L 10.59375 27.203125 
z
" id="DejaVuSans-8722"/>
       <path d="M 8.59375 75.984375 
L 29.296875 75.984375 
L 29.296875 69 
L 17.578125 69 
L 17.578125 -6.203125 
L 29.296875 -6.203125 
L 29.296875 -13.1875 
L 8.59375 -13.1875 
z
" id="DejaVuSans-91"/>
       <path d="M 89.796875 33.015625 
L 83.40625 0 
L 74.421875 0 
L 80.71875 32.71875 
Q 81.109375 34.8125 81.296875 36.328125 
Q 81.5 37.84375 81.5 38.921875 
Q 81.5 43.3125 79.046875 45.75 
Q 76.609375 48.1875 72.21875 48.1875 
Q 65.671875 48.1875 60.546875 43.28125 
Q 55.421875 38.375 53.90625 30.515625 
L 47.90625 0 
L 38.921875 0 
L 45.3125 32.71875 
Q 45.703125 34.515625 45.890625 36.046875 
Q 46.09375 37.59375 46.09375 38.8125 
Q 46.09375 43.265625 43.65625 45.71875 
Q 41.21875 48.1875 36.921875 48.1875 
Q 30.28125 48.1875 25.140625 43.28125 
Q 20.015625 38.375 18.5 30.515625 
L 12.5 0 
L 3.515625 0 
L 14.203125 54.6875 
L 23.1875 54.6875 
L 21.484375 46.1875 
Q 25.140625 50.984375 30.046875 53.484375 
Q 34.96875 56 40.578125 56 
Q 46.53125 56 50.359375 52.875 
Q 54.203125 49.75 54.984375 44.1875 
Q 59.078125 49.953125 64.46875 52.96875 
Q 69.875 56 75.875 56 
Q 82.90625 56 86.734375 51.953125 
Q 90.578125 47.90625 90.578125 40.484375 
Q 90.578125 38.875 90.375 36.9375 
Q 90.1875 35.015625 89.796875 33.015625 
z
" id="DejaVuSans-Oblique-109"/>
       <path d="M 25.390625 72.90625 
L 33.6875 72.90625 
L 8.296875 -9.28125 
L 0 -9.28125 
z
" id="DejaVuSans-47"/>
       <path d="M 50 53.078125 
L 48.296875 44.578125 
Q 44.734375 46.53125 40.765625 47.5 
Q 36.8125 48.484375 32.625 48.484375 
Q 25.53125 48.484375 21.453125 46.0625 
Q 17.390625 43.65625 17.390625 39.5 
Q 17.390625 34.671875 26.859375 32.078125 
Q 27.59375 31.890625 27.9375 31.78125 
L 30.8125 30.90625 
Q 39.796875 28.421875 42.796875 25.6875 
Q 45.796875 22.953125 45.796875 18.21875 
Q 45.796875 9.515625 38.890625 4.046875 
Q 31.984375 -1.421875 20.796875 -1.421875 
Q 16.453125 -1.421875 11.671875 -0.578125 
Q 6.890625 0.25 1.125 2 
L 2.875 11.28125 
Q 7.8125 8.734375 12.59375 7.421875 
Q 17.390625 6.109375 21.78125 6.109375 
Q 28.375 6.109375 32.5 8.9375 
Q 36.625 11.765625 36.625 16.109375 
Q 36.625 20.796875 25.78125 23.6875 
L 24.859375 23.921875 
L 21.78125 24.703125 
Q 14.9375 26.515625 11.765625 29.46875 
Q 8.59375 32.421875 8.59375 37.015625 
Q 8.59375 45.75 15.15625 50.875 
Q 21.734375 56 33.015625 56 
Q 37.453125 56 41.671875 55.265625 
Q 45.90625 54.546875 50 53.078125 
z
" id="DejaVuSans-Oblique-115"/>
       <path d="M 30.421875 75.984375 
L 30.421875 -13.1875 
L 9.71875 -13.1875 
L 9.71875 -6.203125 
L 21.390625 -6.203125 
L 21.390625 69 
L 9.71875 69 
L 9.71875 75.984375 
z
" id="DejaVuSans-93"/>
      </defs>
      <use transform="translate(62.88916 31.015625)" xlink:href="#DejaVuSans-775"/>
      <use transform="translate(0 0.296875)" xlink:href="#DejaVuSans-Oblique-948"/>
      <use transform="translate(75.776367 38.578125)scale(0.7)" xlink:href="#DejaVuSans-8722"/>
      <use transform="translate(177.859917 0.296875)" xlink:href="#DejaVuSans-91"/>
      <use transform="translate(216.873589 0.296875)" xlink:href="#DejaVuSans-Oblique-109"/>
      <use transform="translate(314.285698 0.296875)" xlink:href="#DejaVuSans-47"/>
      <use transform="translate(347.977104 0.296875)" xlink:href="#DejaVuSans-Oblique-115"/>
      <use transform="translate(400.076714 0.296875)" xlink:href="#DejaVuSans-93"/>
     </g>
    </g>
   </g>
   <g id="matplotlib.axis_2">
    <g id="ytick_1">
     <g id="line2d_17">
      <path clip-path="url(#p1e817763cb)" d="M 56.34 274.5576 
L 405.648 274.5576 
" style="fill:none;stroke:#b0b0b0;stroke-linecap:square;stroke-width:0.5;"/>
     </g>
     <g id="line2d_18">
      <defs>
       <path d="M 0 0 
L -3.5 0 
" id="m66bdb86dd2" style="stroke:#000000;stroke-width:0.8;"/>
      </defs>
      <g>
       <use style="stroke:#000000;stroke-width:0.8;" x="56.34" xlink:href="#m66bdb86dd2" y="274.5576"/>
      </g>
     </g>
     <g id="text_10">
      <!-- 0 -->
      <g transform="translate(42.9775 278.356819)scale(0.1 -0.1)">
       <use xlink:href="#DejaVuSans-48"/>
      </g>
     </g>
    </g>
    <g id="ytick_2">
     <g id="line2d_19">
      <path clip-path="url(#p1e817763cb)" d="M 56.34 229.6008 
L 405.648 229.6008 
" style="fill:none;stroke:#b0b0b0;stroke-linecap:square;stroke-width:0.5;"/>
     </g>
     <g id="line2d_20">
      <g>
       <use style="stroke:#000000;stroke-width:0.8;" x="56.34" xlink:href="#m66bdb86dd2" y="229.6008"/>
      </g>
     </g>
     <g id="text_11">
      <!-- 200 -->
      <g transform="translate(30.2525 233.400019)scale(0.1 -0.1)">
       <use xlink:href="#DejaVuSans-50"/>
       <use x="63.623047" xlink:href="#DejaVuSans-48"/>
       <use x="127.246094" xlink:href="#DejaVuSans-48"/>
      </g>
     </g>
    </g>
    <g id="ytick_3">
     <g id="line2d_21">
      <path clip-path="url(#p1e817763cb)" d="M 56.34 184.644 
L 405.648 184.644 
" style="fill:none;stroke:#b0b0b0;stroke-linecap:square;stroke-width:0.5;"/>
     </g>
     <g id="line2d_22">
      <g>
       <use style="stroke:#000000;stroke-width:0.8;" x="56.34" xlink:href="#m66bdb86dd2" y="184.644"/>
      </g>
     </g>
     <g id="text_12">
      <!-- 400 -->
      <g transform="translate(30.2525 188.443219)scale(0.1 -0.1)">
       <use xlink:href="#DejaVuSans-52"/>
       <use x="63.623047" xlink:href="#DejaVuSans-48"/>
       <use x="127.246094" xlink:href="#DejaVuSans-48"/>
      </g>
     </g>
    </g>
    <g id="ytick_4">
     <g id="line2d_23">
      <path clip-path="url(#p1e817763cb)" d="M 56.34 139.6872 
L 405.648 139.6872 
" style="fill:none;stroke:#b0b0b0;stroke-linecap:square;stroke-width:0.5;"/>
     </g>
     <g id="line2d_24">
      <g>
       <use style="stroke:#000000;stroke-width:0.8;" x="56.34" xlink:href="#m66bdb86dd2" y="139.6872"/>
      </g>
     </g>
     <g id="text_13">
      <!-- 600 -->
      <g transform="translate(30.2525 143.486419)scale(0.1 -0.1)">
       <defs>
        <path d="M 33.015625 40.375 
Q 26.375 40.375 22.484375 35.828125 
Q 18.609375 31.296875 18.609375 23.390625 
Q 18.609375 15.53125 22.484375 10.953125 
Q 26.375 6.390625 33.015625 6.390625 
Q 39.65625 6.390625 43.53125 10.953125 
Q 47.40625 15.53125 47.40625 23.390625 
Q 47.40625 31.296875 43.53125 35.828125 
Q 39.65625 40.375 33.015625 40.375 
z
M 52.59375 71.296875 
L 52.59375 62.3125 
Q 48.875 64.0625 45.09375 64.984375 
Q 41.3125 65.921875 37.59375 65.921875 
Q 27.828125 65.921875 22.671875 59.328125 
Q 17.53125 52.734375 16.796875 39.40625 
Q 19.671875 43.65625 24.015625 45.921875 
Q 28.375 48.1875 33.59375 48.1875 
Q 44.578125 48.1875 50.953125 41.515625 
Q 57.328125 34.859375 57.328125 23.390625 
Q 57.328125 12.15625 50.6875 5.359375 
Q 44.046875 -1.421875 33.015625 -1.421875 
Q 20.359375 -1.421875 13.671875 8.265625 
Q 6.984375 17.96875 6.984375 36.375 
Q 6.984375 53.65625 15.1875 63.9375 
Q 23.390625 74.21875 37.203125 74.21875 
Q 40.921875 74.21875 44.703125 73.484375 
Q 48.484375 72.75 52.59375 71.296875 
z
" id="DejaVuSans-54"/>
       </defs>
       <use xlink:href="#DejaVuSans-54"/>
       <use x="63.623047" xlink:href="#DejaVuSans-48"/>
       <use x="127.246094" xlink:href="#DejaVuSans-48"/>
      </g>
     </g>
    </g>
    <g id="ytick_5">
     <g id="line2d_25">
      <path clip-path="url(#p1e817763cb)" d="M 56.34 94.7304 
L 405.648 94.7304 
" style="fill:none;stroke:#b0b0b0;stroke-linecap:square;stroke-width:0.5;"/>
     </g>
     <g id="line2d_26">
      <g>
       <use style="stroke:#000000;stroke-width:0.8;" x="56.34" xlink:href="#m66bdb86dd2" y="94.7304"/>
      </g>
     </g>
     <g id="text_14">
      <!-- 800 -->
      <g transform="translate(30.2525 98.529619)scale(0.1 -0.1)">
       <defs>
        <path d="M 31.78125 34.625 
Q 24.75 34.625 20.71875 30.859375 
Q 16.703125 27.09375 16.703125 20.515625 
Q 16.703125 13.921875 20.71875 10.15625 
Q 24.75 6.390625 31.78125 6.390625 
Q 38.8125 6.390625 42.859375 10.171875 
Q 46.921875 13.96875 46.921875 20.515625 
Q 46.921875 27.09375 42.890625 30.859375 
Q 38.875 34.625 31.78125 34.625 
z
M 21.921875 38.8125 
Q 15.578125 40.375 12.03125 44.71875 
Q 8.5 49.078125 8.5 55.328125 
Q 8.5 64.0625 14.71875 69.140625 
Q 20.953125 74.21875 31.78125 74.21875 
Q 42.671875 74.21875 48.875 69.140625 
Q 55.078125 64.0625 55.078125 55.328125 
Q 55.078125 49.078125 51.53125 44.71875 
Q 48 40.375 41.703125 38.8125 
Q 48.828125 37.15625 52.796875 32.3125 
Q 56.78125 27.484375 56.78125 20.515625 
Q 56.78125 9.90625 50.3125 4.234375 
Q 43.84375 -1.421875 31.78125 -1.421875 
Q 19.734375 -1.421875 13.25 4.234375 
Q 6.78125 9.90625 6.78125 20.515625 
Q 6.78125 27.484375 10.78125 32.3125 
Q 14.796875 37.15625 21.921875 38.8125 
z
M 18.3125 54.390625 
Q 18.3125 48.734375 21.84375 45.5625 
Q 25.390625 42.390625 31.78125 42.390625 
Q 38.140625 42.390625 41.71875 45.5625 
Q 45.3125 48.734375 45.3125 54.390625 
Q 45.3125 60.0625 41.71875 63.234375 
Q 38.140625 66.40625 31.78125 66.40625 
Q 25.390625 66.40625 21.84375 63.234375 
Q 18.3125 60.0625 18.3125 54.390625 
z
" id="DejaVuSans-56"/>
       </defs>
       <use xlink:href="#DejaVuSans-56"/>
       <use x="63.623047" xlink:href="#DejaVuSans-48"/>
       <use x="127.246094" xlink:href="#DejaVuSans-48"/>
      </g>
     </g>
    </g>
    <g id="ytick_6">
     <g id="line2d_27">
      <path clip-path="url(#p1e817763cb)" d="M 56.34 49.7736 
L 405.648 49.7736 
" style="fill:none;stroke:#b0b0b0;stroke-linecap:square;stroke-width:0.5;"/>
     </g>
     <g id="line2d_28">
      <g>
       <use style="stroke:#000000;stroke-width:0.8;" x="56.34" xlink:href="#m66bdb86dd2" y="49.7736"/>
      </g>
     </g>
     <g id="text_15">
      <!-- 1000 -->
      <g transform="translate(23.89 53.572819)scale(0.1 -0.1)">
       <use xlink:href="#DejaVuSans-49"/>
       <use x="63.623047" xlink:href="#DejaVuSans-48"/>
       <use x="127.246094" xlink:href="#DejaVuSans-48"/>
       <use x="190.869141" xlink:href="#DejaVuSans-48"/>
      </g>
     </g>
    </g>
    <g id="text_16">
     <!-- $d \; [Ns/m]$ -->
     <g transform="translate(17.810312 183.5156)rotate(-90)scale(0.1 -0.1)">
      <defs>
       <path d="M 41.796875 8.203125 
Q 38.1875 3.46875 33.25 1.015625 
Q 28.328125 -1.421875 22.3125 -1.421875 
Q 14.109375 -1.421875 9.34375 4.171875 
Q 4.59375 9.765625 4.59375 19.484375 
Q 4.59375 27.59375 7.46875 34.9375 
Q 10.359375 42.28125 15.828125 48.09375 
Q 19.4375 51.953125 23.96875 53.96875 
Q 28.515625 56 33.5 56 
Q 38.765625 56 42.796875 53.453125 
Q 46.828125 50.921875 49.03125 46.1875 
L 54.890625 75.984375 
L 63.921875 75.984375 
L 49.125 0 
L 40.09375 0 
z
M 13.921875 21.09375 
Q 13.921875 14.015625 17.109375 10.0625 
Q 20.3125 6.109375 25.984375 6.109375 
Q 30.171875 6.109375 33.765625 8.125 
Q 37.359375 10.15625 40.09375 14.109375 
Q 42.96875 18.21875 44.625 23.578125 
Q 46.296875 28.953125 46.296875 34.1875 
Q 46.296875 40.96875 43.09375 44.765625 
Q 39.890625 48.578125 34.28125 48.578125 
Q 30.03125 48.578125 26.359375 46.578125 
Q 22.703125 44.578125 20.125 40.828125 
Q 17.28125 36.765625 15.59375 31.390625 
Q 13.921875 26.03125 13.921875 21.09375 
z
" id="DejaVuSans-Oblique-100"/>
       <path d="M 16.890625 72.90625 
L 30.171875 72.90625 
L 50.296875 10.40625 
L 62.5 72.90625 
L 72.125 72.90625 
L 57.90625 0 
L 44.578125 0 
L 24.515625 62.890625 
L 12.3125 0 
L 2.6875 0 
z
" id="DejaVuSans-Oblique-78"/>
      </defs>
      <use transform="translate(0 0.015625)" xlink:href="#DejaVuSans-Oblique-100"/>
      <use transform="translate(90.535698 0.015625)" xlink:href="#DejaVuSans-91"/>
      <use transform="translate(129.54937 0.015625)" xlink:href="#DejaVuSans-Oblique-78"/>
      <use transform="translate(204.354058 0.015625)" xlink:href="#DejaVuSans-Oblique-115"/>
      <use transform="translate(256.453667 0.015625)" xlink:href="#DejaVuSans-47"/>
      <use transform="translate(290.145073 0.015625)" xlink:href="#DejaVuSans-Oblique-109"/>
      <use transform="translate(387.557183 0.015625)" xlink:href="#DejaVuSans-93"/>
     </g>
    </g>
   </g>
   <g id="line2d_29">
    <path clip-path="url(#p1e817763cb)" d="M 72.217636 49.7736 
L 75.42524 49.7736 
L 78.632843 49.7736 
L 81.840446 49.7736 
L 85.04805 49.7736 
L 88.255653 49.7736 
L 91.463256 49.7736 
L 94.67086 49.7736 
L 97.878463 49.7736 
L 101.086066 49.7736 
L 104.293669 49.7736 
L 107.501273 49.7736 
L 110.708876 49.7736 
L 113.916479 49.7736 
L 117.124083 49.7736 
L 120.331686 274.5576 
L 123.539289 274.5576 
L 126.746893 274.5576 
L 129.954496 274.5576 
L 133.162099 274.5576 
L 136.369702 274.5576 
L 139.577306 274.5576 
L 142.784909 274.5576 
L 145.992512 274.5576 
L 149.200116 274.5576 
L 152.407719 274.5576 
L 155.615322 274.5576 
L 158.822926 274.5576 
L 162.030529 274.5576 
L 165.238132 274.5576 
L 168.445736 274.5576 
L 171.653339 274.5576 
L 174.860942 274.5576 
L 178.068545 274.5576 
L 181.276149 274.5576 
L 184.483752 274.5576 
L 187.691355 274.5576 
L 190.898959 274.5576 
L 194.106562 274.5576 
L 197.314165 274.5576 
L 200.521769 274.5576 
L 203.729372 274.5576 
L 206.936975 274.5576 
L 210.144579 274.5576 
L 213.352182 274.5576 
L 216.559785 274.5576 
L 219.767388 274.5576 
L 222.974992 274.5576 
L 226.182595 274.5576 
L 229.390198 274.5576 
L 232.597802 274.5576 
L 235.805405 274.5576 
L 239.013008 274.5576 
L 242.220612 274.5576 
L 245.428215 274.5576 
L 248.635818 274.5576 
L 251.843421 274.5576 
L 255.051025 274.5576 
L 258.258628 274.5576 
L 261.466231 274.5576 
L 264.673835 274.5576 
L 267.881438 274.5576 
L 271.089041 274.5576 
L 274.296645 274.5576 
L 277.504248 274.5576 
L 280.711851 274.5576 
L 283.919455 274.5576 
L 287.127058 274.5576 
L 290.334661 274.5576 
L 293.542264 274.5576 
L 296.749868 274.5576 
L 299.957471 274.5576 
L 303.165074 274.5576 
L 306.372678 274.5576 
L 309.580281 274.5576 
L 312.787884 274.5576 
L 315.995488 274.5576 
L 319.203091 274.5576 
L 322.410694 274.5576 
L 325.618298 274.5576 
L 328.825901 274.5576 
L 332.033504 274.5576 
L 335.241107 274.5576 
L 338.448711 274.5576 
L 341.656314 274.5576 
L 344.863917 274.5576 
L 348.071521 274.5576 
L 351.279124 274.5576 
L 354.486727 274.5576 
L 357.694331 274.5576 
L 360.901934 274.5576 
L 364.109537 274.5576 
L 367.31714 274.5576 
L 370.524744 274.5576 
L 373.732347 274.5576 
L 376.93995 274.5576 
L 380.147554 274.5576 
L 383.355157 274.5576 
L 386.56276 274.5576 
L 389.770364 274.5576 
" style="fill:none;stroke:#1f77b4;stroke-linecap:square;"/>
   </g>
   <g id="line2d_30">
    <path clip-path="url(#p1e817763cb)" d="M 72.217636 49.7736 
L 75.42524 49.7736 
L 78.632843 49.7736 
L 81.840446 49.7736 
L 85.04805 49.7736 
L 88.255653 49.7736 
L 91.463256 49.7736 
L 94.67086 49.7736 
L 97.878463 49.7736 
L 101.086066 49.7736 
L 104.293669 49.7736 
L 107.501273 49.7736 
L 110.708876 49.7736 
L 113.916479 49.7736 
L 117.124083 49.7736 
L 120.331686 259.597186 
L 123.539289 260.093503 
L 126.746893 260.557946 
L 129.954496 260.993491 
L 133.162099 261.402753 
L 136.369702 261.788042 
L 139.577306 262.151403 
L 142.784909 262.494657 
L 145.992512 262.819429 
L 149.200116 263.127171 
L 152.407719 263.419189 
L 155.615322 263.696659 
L 158.822926 263.96064 
L 162.030529 264.212093 
L 165.238132 264.45189 
L 168.445736 264.680822 
L 171.653339 264.899611 
L 174.860942 265.108917 
L 178.068545 265.309344 
L 181.276149 265.501444 
L 184.483752 265.685727 
L 187.691355 265.862658 
L 190.898959 266.032671 
L 194.106562 266.196163 
L 197.314165 266.353502 
L 200.521769 266.505029 
L 203.729372 266.65106 
L 206.936975 266.791889 
L 210.144579 266.927789 
L 213.352182 267.059014 
L 216.559785 267.185802 
L 219.767388 267.308373 
L 222.974992 267.426935 
L 226.182595 267.541682 
L 229.390198 267.652793 
L 232.597802 267.760441 
L 235.805405 267.864783 
L 239.013008 267.96597 
L 242.220612 268.064144 
L 245.428215 268.159435 
L 248.635818 268.251971 
L 251.843421 268.341868 
L 255.051025 268.429238 
L 258.258628 268.514185 
L 261.466231 268.59681 
L 264.673835 268.677206 
L 267.881438 268.755462 
L 271.089041 268.831663 
L 274.296645 268.905888 
L 277.504248 268.978213 
L 280.711851 269.048711 
L 283.919455 269.117449 
L 287.127058 269.184494 
L 290.334661 269.249905 
L 293.542264 269.313744 
L 296.749868 269.376064 
L 299.957471 269.436921 
L 303.165074 269.496365 
L 306.372678 269.554445 
L 309.580281 269.611207 
L 312.787884 269.666695 
L 315.995488 269.720953 
L 319.203091 269.774019 
L 322.410694 269.825934 
L 325.618298 269.876734 
L 328.825901 269.926455 
L 332.033504 269.975131 
L 335.241107 270.022794 
L 338.448711 270.069476 
L 341.656314 270.115206 
L 344.863917 270.160014 
L 348.071521 270.203927 
L 351.279124 270.246972 
L 354.486727 270.289174 
L 357.694331 270.330558 
L 360.901934 270.371147 
L 364.109537 270.410963 
L 367.31714 270.45003 
L 370.524744 270.488367 
L 373.732347 270.525996 
L 376.93995 270.562934 
L 380.147554 270.599202 
L 383.355157 270.634818 
L 386.56276 270.669798 
L 389.770364 270.70416 
" style="fill:none;stroke:#ff7f0e;stroke-linecap:square;"/>
   </g>
   <g id="line2d_31">
    <path clip-path="url(#p1e817763cb)" d="M 72.217636 49.7736 
L 75.42524 49.7736 
L 78.632843 49.7736 
L 81.840446 49.7736 
L 85.04805 49.7736 
L 88.255653 49.7736 
L 91.463256 49.7736 
L 94.67086 49.7736 
L 97.878463 49.7736 
L 101.086066 49.7736 
L 104.293669 49.7736 
L 107.501273 49.7736 
L 110.708876 49.7736 
L 113.916479 49.7736 
L 117.124083 49.7736 
L 120.331686 193.106456 
L 123.539289 195.808627 
L 126.746893 198.337264 
L 129.954496 200.708563 
L 133.162099 202.936767 
L 136.369702 205.034448 
L 139.577306 207.012749 
L 142.784909 208.881579 
L 145.992512 210.64978 
L 149.200116 212.325266 
L 152.407719 213.915143 
L 155.615322 215.425809 
L 158.822926 216.86304 
L 162.030529 218.232063 
L 165.238132 219.537622 
L 168.445736 220.78403 
L 171.653339 221.975216 
L 174.860942 223.114773 
L 178.068545 224.205984 
L 181.276149 225.251863 
L 184.483752 226.255178 
L 187.691355 227.218474 
L 190.898959 228.144099 
L 194.106562 229.034221 
L 197.314165 229.890844 
L 200.521769 230.715824 
L 203.729372 231.510882 
L 206.936975 232.277617 
L 210.144579 233.017517 
L 213.352182 233.731965 
L 216.559785 234.422254 
L 219.767388 235.089587 
L 222.974992 235.735092 
L 226.182595 236.359822 
L 229.390198 236.964765 
L 232.597802 237.550844 
L 235.805405 238.118931 
L 239.013008 238.669839 
L 242.220612 239.204338 
L 245.428215 239.723149 
L 248.635818 240.226953 
L 251.843421 240.716392 
L 255.051025 241.192071 
L 258.258628 241.654564 
L 261.466231 242.10441 
L 264.673835 242.542122 
L 267.881438 242.968183 
L 271.089041 243.383054 
L 274.296645 243.787168 
L 277.504248 244.18094 
L 280.711851 244.56476 
L 283.919455 244.939002 
L 287.127058 245.30402 
L 290.334661 245.660151 
L 293.542264 246.007715 
L 296.749868 246.347017 
L 299.957471 246.67835 
L 303.165074 247.001989 
L 306.372678 247.318201 
L 309.580281 247.627238 
L 312.787884 247.929342 
L 315.995488 248.224742 
L 319.203091 248.513661 
L 322.410694 248.796308 
L 325.618298 249.072886 
L 328.825901 249.343589 
L 332.033504 249.608601 
L 335.241107 249.8681 
L 338.448711 250.122257 
L 341.656314 250.371234 
L 344.863917 250.615189 
L 348.071521 250.854271 
L 351.279124 251.088626 
L 354.486727 251.318393 
L 357.694331 251.543703 
L 360.901934 251.764687 
L 364.109537 251.981468 
L 367.31714 252.194164 
L 370.524744 252.402889 
L 373.732347 252.607754 
L 376.93995 252.808865 
L 380.147554 253.006325 
L 383.355157 253.200231 
L 386.56276 253.390679 
L 389.770364 253.57776 
" style="fill:none;stroke:#2ca02c;stroke-linecap:square;"/>
   </g>
   <g id="line2d_32">
    <path clip-path="url(#p1e817763cb)" d="M 72.217636 49.7736 
L 75.42524 49.7736 
L 78.632843 49.7736 
L 81.840446 49.7736 
L 85.04805 49.7736 
L 88.255653 49.7736 
L 91.463256 49.7736 
L 94.67086 49.7736 
L 97.878463 49.7736 
L 101.086066 49.7736 
L 104.293669 49.7736 
L 107.501273 49.7736 
L 110.708876 49.7736 
L 113.916479 49.7736 
L 117.124083 49.7736 
L 120.331686 49.7736 
L 123.539289 49.7736 
L 126.746893 49.7736 
L 129.954496 49.7736 
L 133.162099 49.7736 
L 136.369702 49.7736 
L 139.577306 49.7736 
L 142.784909 49.7736 
L 145.992512 49.7736 
L 149.200116 49.7736 
L 152.407719 49.7736 
L 155.615322 49.7736 
L 158.822926 52.02144 
L 162.030529 57.301959 
L 165.238132 62.337686 
L 168.445736 67.145257 
L 171.653339 71.739834 
L 174.860942 76.135265 
L 178.068545 80.344224 
L 181.276149 84.37833 
L 184.483752 88.248257 
L 187.691355 91.963828 
L 190.898959 95.534097 
L 194.106562 98.967424 
L 197.314165 102.271541 
L 200.521769 105.453605 
L 203.729372 108.520258 
L 206.936975 111.477666 
L 210.144579 114.331565 
L 213.352182 117.087295 
L 216.559785 119.749837 
L 219.767388 122.323837 
L 222.974992 124.813642 
L 226.182595 127.223315 
L 229.390198 129.556663 
L 232.597802 131.817257 
L 235.805405 134.008446 
L 239.013008 136.13338 
L 242.220612 138.195017 
L 245.428215 140.196145 
L 248.635818 142.139389 
L 251.843421 144.027225 
L 255.051025 145.861989 
L 258.258628 147.645889 
L 261.466231 149.38101 
L 264.673835 151.069326 
L 267.881438 152.712706 
L 271.089041 154.312921 
L 274.296645 155.871648 
L 277.504248 157.390481 
L 280.711851 158.870932 
L 283.919455 160.314438 
L 287.127058 161.722364 
L 290.334661 163.09601 
L 293.542264 164.436614 
L 296.749868 165.745352 
L 299.957471 167.023348 
L 303.165074 168.271673 
L 306.372678 169.491347 
L 309.580281 170.683347 
L 312.787884 171.848603 
L 315.995488 172.988006 
L 319.203091 174.102406 
L 322.410694 175.192617 
L 325.618298 176.259419 
L 328.825901 177.303557 
L 332.033504 178.325747 
L 335.241107 179.326673 
L 338.448711 180.306991 
L 341.656314 181.267332 
L 344.863917 182.2083 
L 348.071521 183.130476 
L 351.279124 184.034416 
L 354.486727 184.920657 
L 357.694331 185.789713 
L 360.901934 186.64208 
L 364.109537 187.478233 
L 367.31714 188.298631 
L 370.524744 189.103715 
L 373.732347 189.893909 
L 376.93995 190.669623 
L 380.147554 191.431252 
L 383.355157 192.179176 
L 386.56276 192.91376 
L 389.770364 193.63536 
" style="fill:none;stroke:#d62728;stroke-linecap:square;"/>
   </g>
   <g id="line2d_33">
    <path clip-path="url(#p1e817763cb)" d="M 72.217636 49.7736 
L 75.42524 49.7736 
L 78.632843 49.7736 
L 81.840446 49.7736 
L 85.04805 49.7736 
L 88.255653 49.7736 
L 91.463256 49.7736 
L 94.67086 49.7736 
L 97.878463 49.7736 
L 101.086066 49.7736 
L 104.293669 49.7736 
L 107.501273 49.7736 
L 110.708876 49.7736 
L 113.916479 49.7736 
L 117.124083 49.7736 
L 120.331686 49.7736 
L 123.539289 49.7736 
L 126.746893 49.7736 
L 129.954496 49.7736 
L 133.162099 49.7736 
L 136.369702 49.7736 
L 139.577306 49.7736 
L 142.784909 49.7736 
L 145.992512 49.7736 
L 149.200116 49.7736 
L 152.407719 49.7736 
L 155.615322 49.7736 
L 158.822926 49.7736 
L 162.030529 49.7736 
L 165.238132 49.7736 
L 168.445736 49.7736 
L 171.653339 49.7736 
L 174.860942 49.7736 
L 178.068545 49.7736 
L 181.276149 49.7736 
L 184.483752 49.7736 
L 187.691355 49.7736 
L 190.898959 49.7736 
L 194.106562 49.7736 
L 197.314165 49.7736 
L 200.521769 49.7736 
L 203.729372 49.7736 
L 206.936975 49.7736 
L 210.144579 49.7736 
L 213.352182 49.7736 
L 216.559785 49.7736 
L 219.767388 49.7736 
L 222.974992 49.7736 
L 226.182595 49.7736 
L 229.390198 49.7736 
L 232.597802 49.7736 
L 235.805405 49.7736 
L 239.013008 49.7736 
L 242.220612 49.7736 
L 245.428215 49.7736 
L 248.635818 49.7736 
L 251.843421 49.7736 
L 255.051025 49.7736 
L 258.258628 49.7736 
L 261.466231 49.7736 
L 264.673835 49.7736 
L 267.881438 49.7736 
L 271.089041 49.7736 
L 274.296645 49.7736 
L 277.504248 49.7736 
L 280.711851 49.7736 
L 283.919455 49.7736 
L 287.127058 49.7736 
L 290.334661 49.7736 
L 293.542264 49.7736 
L 296.749868 49.7736 
L 299.957471 49.7736 
L 303.165074 49.7736 
L 306.372678 49.7736 
L 309.580281 49.7736 
L 312.787884 49.7736 
L 315.995488 49.7736 
L 319.203091 49.7736 
L 322.410694 49.7736 
L 325.618298 49.7736 
L 328.825901 49.7736 
L 332.033504 49.7736 
L 335.241107 49.7736 
L 338.448711 49.7736 
L 341.656314 49.7736 
L 344.863917 49.7736 
L 348.071521 49.7736 
L 351.279124 49.7736 
L 354.486727 49.7736 
L 357.694331 49.7736 
L 360.901934 49.7736 
L 364.109537 49.7736 
L 367.31714 49.7736 
L 370.524744 49.7736 
L 373.732347 49.7736 
L 376.93995 49.7736 
L 380.147554 49.7736 
L 383.355157 49.7736 
L 386.56276 49.7736 
L 389.770364 49.7736 
" style="fill:none;stroke:#9467bd;stroke-linecap:square;"/>
   </g>
   <g id="patch_3">
    <path d="M 56.34 285.7968 
L 56.34 38.5344 
" style="fill:none;stroke:#000000;stroke-linecap:square;stroke-linejoin:miter;stroke-width:0.8;"/>
   </g>
   <g id="patch_4">
    <path d="M 405.648 285.7968 
L 405.648 38.5344 
" style="fill:none;stroke:#000000;stroke-linecap:square;stroke-linejoin:miter;stroke-width:0.8;"/>
   </g>
   <g id="patch_5">
    <path d="M 56.34 285.7968 
L 405.648 285.7968 
" style="fill:none;stroke:#000000;stroke-linecap:square;stroke-linejoin:miter;stroke-width:0.8;"/>
   </g>
   <g id="patch_6">
    <path d="M 56.34 38.5344 
L 405.648 38.5344 
" style="fill:none;stroke:#000000;stroke-linecap:square;stroke-linejoin:miter;stroke-width:0.8;"/>
   </g>
   <g id="legend_1">
    <g id="patch_7">
     <path d="M 237.148 119.925025 
L 398.648 119.925025 
Q 400.648 119.925025 400.648 117.925025 
L 400.648 45.5344 
Q 400.648 43.5344 398.648 43.5344 
L 237.148 43.5344 
Q 235.148 43.5344 235.148 45.5344 
L 235.148 117.925025 
Q 235.148 119.925025 237.148 119.925025 
z
" style="fill:#ffffff;opacity:0.8;stroke:#cccccc;stroke-linejoin:miter;"/>
    </g>
    <g id="line2d_34">
     <path d="M 239.148 51.632837 
L 259.148 51.632837 
" style="fill:none;stroke:#1f77b4;stroke-linecap:square;"/>
    </g>
    <g id="line2d_35"/>
    <g id="text_17">
     <!-- $cor = 1.0, v_{small}=0.01 \; m/s$ -->
     <g transform="translate(267.148 55.132837)scale(0.1 -0.1)">
      <defs>
       <path d="M 53.609375 52.59375 
L 51.8125 43.703125 
Q 48.578125 46.046875 44.9375 47.21875 
Q 41.3125 48.390625 37.40625 48.390625 
Q 33.109375 48.390625 29.21875 46.875 
Q 25.34375 45.359375 22.703125 42.578125 
Q 18.5 38.328125 16.203125 32.609375 
Q 13.921875 26.90625 13.921875 20.796875 
Q 13.921875 13.421875 17.609375 9.8125 
Q 21.296875 6.203125 28.8125 6.203125 
Q 32.515625 6.203125 36.6875 7.328125 
Q 40.875 8.453125 45.40625 10.6875 
L 43.703125 1.8125 
Q 39.796875 0.203125 35.671875 -0.609375 
Q 31.546875 -1.421875 27.203125 -1.421875 
Q 16.3125 -1.421875 10.453125 4.015625 
Q 4.59375 9.46875 4.59375 19.578125 
Q 4.59375 28.078125 7.640625 35.234375 
Q 10.6875 42.390625 16.703125 48.09375 
Q 20.796875 52 26.3125 54 
Q 31.84375 56 38.375 56 
Q 42.1875 56 45.9375 55.140625 
Q 49.703125 54.296875 53.609375 52.59375 
z
" id="DejaVuSans-Oblique-99"/>
       <path d="M 25.390625 -1.421875 
Q 15.765625 -1.421875 10.171875 4.515625 
Q 4.59375 10.453125 4.59375 20.703125 
Q 4.59375 26.65625 6.515625 32.828125 
Q 8.453125 39.015625 11.53125 43.21875 
Q 16.359375 49.75 22.3125 52.875 
Q 28.265625 56 35.796875 56 
Q 45.125 56 50.859375 50.1875 
Q 56.59375 44.390625 56.59375 35.015625 
Q 56.59375 28.515625 54.6875 22.0625 
Q 52.78125 15.625 49.703125 11.375 
Q 44.921875 4.828125 38.96875 1.703125 
Q 33.015625 -1.421875 25.390625 -1.421875 
z
M 13.921875 21 
Q 13.921875 13.578125 17.015625 9.890625 
Q 20.125 6.203125 26.421875 6.203125 
Q 35.453125 6.203125 41.375 14.078125 
Q 47.3125 21.96875 47.3125 34.078125 
Q 47.3125 41.15625 44.140625 44.765625 
Q 40.96875 48.390625 34.8125 48.390625 
Q 29.734375 48.390625 25.78125 46.015625 
Q 21.828125 43.65625 18.703125 38.8125 
Q 16.40625 35.203125 15.15625 30.5625 
Q 13.921875 25.921875 13.921875 21 
z
" id="DejaVuSans-Oblique-111"/>
       <path d="M 44.578125 46.390625 
Q 43.21875 47.125 41.453125 47.515625 
Q 39.703125 47.90625 37.703125 47.90625 
Q 30.515625 47.90625 25.140625 42.453125 
Q 19.78125 37.015625 18.015625 27.875 
L 12.5 0 
L 3.515625 0 
L 14.203125 54.6875 
L 23.1875 54.6875 
L 21.484375 46.1875 
Q 25.046875 50.921875 30 53.453125 
Q 34.96875 56 40.578125 56 
Q 42.046875 56 43.453125 55.828125 
Q 44.875 55.671875 46.296875 55.28125 
z
" id="DejaVuSans-Oblique-114"/>
       <path d="M 10.59375 45.40625 
L 73.1875 45.40625 
L 73.1875 37.203125 
L 10.59375 37.203125 
z
M 10.59375 25.484375 
L 73.1875 25.484375 
L 73.1875 17.1875 
L 10.59375 17.1875 
z
" id="DejaVuSans-61"/>
       <path d="M 11.71875 12.40625 
L 22.015625 12.40625 
L 22.015625 4 
L 14.015625 -11.625 
L 7.71875 -11.625 
L 11.71875 4 
z
" id="DejaVuSans-44"/>
       <path d="M 7.171875 54.6875 
L 16.703125 54.6875 
L 24.703125 8.203125 
L 50.875 54.6875 
L 60.40625 54.6875 
L 29.296875 0 
L 17.1875 0 
z
" id="DejaVuSans-Oblique-118"/>
       <path d="M 53.71875 31.203125 
L 47.609375 0 
L 38.625 0 
L 40.28125 8.296875 
Q 36.328125 3.421875 31.265625 1 
Q 26.21875 -1.421875 20.015625 -1.421875 
Q 13.03125 -1.421875 8.5625 2.84375 
Q 4.109375 7.125 4.109375 13.8125 
Q 4.109375 23.390625 11.75 28.953125 
Q 19.390625 34.515625 32.8125 34.515625 
L 45.3125 34.515625 
L 45.796875 36.921875 
Q 45.90625 37.3125 45.953125 37.765625 
Q 46 38.234375 46 39.203125 
Q 46 43.5625 42.453125 45.96875 
Q 38.921875 48.390625 32.515625 48.390625 
Q 28.125 48.390625 23.5 47.265625 
Q 18.890625 46.140625 14.015625 43.890625 
L 15.578125 52.203125 
Q 20.65625 54.109375 25.515625 55.046875 
Q 30.375 56 34.90625 56 
Q 44.578125 56 49.625 51.796875 
Q 54.6875 47.609375 54.6875 39.59375 
Q 54.6875 37.984375 54.4375 35.8125 
Q 54.203125 33.640625 53.71875 31.203125 
z
M 44 27.484375 
L 35.015625 27.484375 
Q 23.96875 27.484375 18.671875 24.53125 
Q 13.375 21.578125 13.375 15.375 
Q 13.375 11.078125 16.078125 8.640625 
Q 18.796875 6.203125 23.578125 6.203125 
Q 30.90625 6.203125 36.375 11.453125 
Q 41.84375 16.703125 43.609375 25.484375 
z
" id="DejaVuSans-Oblique-97"/>
       <path d="M 18.3125 75.984375 
L 27.296875 75.984375 
L 12.5 0 
L 3.515625 0 
z
" id="DejaVuSans-Oblique-108"/>
      </defs>
      <use transform="translate(0 0.78125)" xlink:href="#DejaVuSans-Oblique-99"/>
      <use transform="translate(54.980469 0.78125)" xlink:href="#DejaVuSans-Oblique-111"/>
      <use transform="translate(116.162109 0.78125)" xlink:href="#DejaVuSans-Oblique-114"/>
      <use transform="translate(176.757812 0.78125)" xlink:href="#DejaVuSans-61"/>
      <use transform="translate(280.029297 0.78125)" xlink:href="#DejaVuSans-49"/>
      <use transform="translate(343.652344 0.78125)" xlink:href="#DejaVuSans-46"/>
      <use transform="translate(375.439453 0.78125)" xlink:href="#DejaVuSans-48"/>
      <use transform="translate(439.0625 0.78125)" xlink:href="#DejaVuSans-44"/>
      <use transform="translate(490.332031 0.78125)" xlink:href="#DejaVuSans-Oblique-118"/>
      <use transform="translate(549.511719 -15.625)scale(0.7)" xlink:href="#DejaVuSans-Oblique-115"/>
      <use transform="translate(585.981445 -15.625)scale(0.7)" xlink:href="#DejaVuSans-Oblique-109"/>
      <use transform="translate(654.169922 -15.625)scale(0.7)" xlink:href="#DejaVuSans-Oblique-97"/>
      <use transform="translate(697.06543 -15.625)scale(0.7)" xlink:href="#DejaVuSans-Oblique-108"/>
      <use transform="translate(716.513672 -15.625)scale(0.7)" xlink:href="#DejaVuSans-Oblique-108"/>
      <use transform="translate(758.178711 0.78125)" xlink:href="#DejaVuSans-61"/>
      <use transform="translate(861.450195 0.78125)" xlink:href="#DejaVuSans-48"/>
      <use transform="translate(925.073242 0.78125)" xlink:href="#DejaVuSans-46"/>
      <use transform="translate(956.860352 0.78125)" xlink:href="#DejaVuSans-48"/>
      <use transform="translate(1020.483398 0.78125)" xlink:href="#DejaVuSans-49"/>
      <use transform="translate(1111.165581 0.78125)" xlink:href="#DejaVuSans-Oblique-109"/>
      <use transform="translate(1208.57769 0.78125)" xlink:href="#DejaVuSans-47"/>
      <use transform="translate(1242.269097 0.78125)" xlink:href="#DejaVuSans-Oblique-115"/>
     </g>
    </g>
    <g id="line2d_36">
     <path d="M 239.148 66.310962 
L 259.148 66.310962 
" style="fill:none;stroke:#ff7f0e;stroke-linecap:square;"/>
    </g>
    <g id="line2d_37"/>
    <g id="text_18">
     <!-- $cor = 0.7, v_{small}=0.01 \; m/s$ -->
     <g transform="translate(267.148 69.810962)scale(0.1 -0.1)">
      <defs>
       <path d="M 8.203125 72.90625 
L 55.078125 72.90625 
L 55.078125 68.703125 
L 28.609375 0 
L 18.3125 0 
L 43.21875 64.59375 
L 8.203125 64.59375 
z
" id="DejaVuSans-55"/>
      </defs>
      <use transform="translate(0 0.78125)" xlink:href="#DejaVuSans-Oblique-99"/>
      <use transform="translate(54.980469 0.78125)" xlink:href="#DejaVuSans-Oblique-111"/>
      <use transform="translate(116.162109 0.78125)" xlink:href="#DejaVuSans-Oblique-114"/>
      <use transform="translate(176.757812 0.78125)" xlink:href="#DejaVuSans-61"/>
      <use transform="translate(280.029297 0.78125)" xlink:href="#DejaVuSans-48"/>
      <use transform="translate(343.652344 0.78125)" xlink:href="#DejaVuSans-46"/>
      <use transform="translate(367.689453 0.78125)" xlink:href="#DejaVuSans-55"/>
      <use transform="translate(431.3125 0.78125)" xlink:href="#DejaVuSans-44"/>
      <use transform="translate(482.582031 0.78125)" xlink:href="#DejaVuSans-Oblique-118"/>
      <use transform="translate(541.761719 -15.625)scale(0.7)" xlink:href="#DejaVuSans-Oblique-115"/>
      <use transform="translate(578.231445 -15.625)scale(0.7)" xlink:href="#DejaVuSans-Oblique-109"/>
      <use transform="translate(646.419922 -15.625)scale(0.7)" xlink:href="#DejaVuSans-Oblique-97"/>
      <use transform="translate(689.31543 -15.625)scale(0.7)" xlink:href="#DejaVuSans-Oblique-108"/>
      <use transform="translate(708.763672 -15.625)scale(0.7)" xlink:href="#DejaVuSans-Oblique-108"/>
      <use transform="translate(750.428711 0.78125)" xlink:href="#DejaVuSans-61"/>
      <use transform="translate(853.700195 0.78125)" xlink:href="#DejaVuSans-48"/>
      <use transform="translate(917.323242 0.78125)" xlink:href="#DejaVuSans-46"/>
      <use transform="translate(949.110352 0.78125)" xlink:href="#DejaVuSans-48"/>
      <use transform="translate(1012.733398 0.78125)" xlink:href="#DejaVuSans-49"/>
      <use transform="translate(1103.415581 0.78125)" xlink:href="#DejaVuSans-Oblique-109"/>
      <use transform="translate(1200.82769 0.78125)" xlink:href="#DejaVuSans-47"/>
      <use transform="translate(1234.519097 0.78125)" xlink:href="#DejaVuSans-Oblique-115"/>
     </g>
    </g>
    <g id="line2d_38">
     <path d="M 239.148 80.989087 
L 259.148 80.989087 
" style="fill:none;stroke:#2ca02c;stroke-linecap:square;"/>
    </g>
    <g id="line2d_39"/>
    <g id="text_19">
     <!-- $cor = 0.3, v_{small}=0.01 \; m/s$ -->
     <g transform="translate(267.148 84.489087)scale(0.1 -0.1)">
      <use transform="translate(0 0.78125)" xlink:href="#DejaVuSans-Oblique-99"/>
      <use transform="translate(54.980469 0.78125)" xlink:href="#DejaVuSans-Oblique-111"/>
      <use transform="translate(116.162109 0.78125)" xlink:href="#DejaVuSans-Oblique-114"/>
      <use transform="translate(176.757812 0.78125)" xlink:href="#DejaVuSans-61"/>
      <use transform="translate(280.029297 0.78125)" xlink:href="#DejaVuSans-48"/>
      <use transform="translate(343.652344 0.78125)" xlink:href="#DejaVuSans-46"/>
      <use transform="translate(375.439453 0.78125)" xlink:href="#DejaVuSans-51"/>
      <use transform="translate(439.0625 0.78125)" xlink:href="#DejaVuSans-44"/>
      <use transform="translate(490.332031 0.78125)" xlink:href="#DejaVuSans-Oblique-118"/>
      <use transform="translate(549.511719 -15.625)scale(0.7)" xlink:href="#DejaVuSans-Oblique-115"/>
      <use transform="translate(585.981445 -15.625)scale(0.7)" xlink:href="#DejaVuSans-Oblique-109"/>
      <use transform="translate(654.169922 -15.625)scale(0.7)" xlink:href="#DejaVuSans-Oblique-97"/>
      <use transform="translate(697.06543 -15.625)scale(0.7)" xlink:href="#DejaVuSans-Oblique-108"/>
      <use transform="translate(716.513672 -15.625)scale(0.7)" xlink:href="#DejaVuSans-Oblique-108"/>
      <use transform="translate(758.178711 0.78125)" xlink:href="#DejaVuSans-61"/>
      <use transform="translate(861.450195 0.78125)" xlink:href="#DejaVuSans-48"/>
      <use transform="translate(925.073242 0.78125)" xlink:href="#DejaVuSans-46"/>
      <use transform="translate(956.860352 0.78125)" xlink:href="#DejaVuSans-48"/>
      <use transform="translate(1020.483398 0.78125)" xlink:href="#DejaVuSans-49"/>
      <use transform="translate(1111.165581 0.78125)" xlink:href="#DejaVuSans-Oblique-109"/>
      <use transform="translate(1208.57769 0.78125)" xlink:href="#DejaVuSans-47"/>
      <use transform="translate(1242.269097 0.78125)" xlink:href="#DejaVuSans-Oblique-115"/>
     </g>
    </g>
    <g id="line2d_40">
     <path d="M 239.148 95.667213 
L 259.148 95.667213 
" style="fill:none;stroke:#d62728;stroke-linecap:square;"/>
    </g>
    <g id="line2d_41"/>
    <g id="text_20">
     <!-- $cor = 0.1, v_{small}=0.01 \; m/s$ -->
     <g transform="translate(267.148 99.167213)scale(0.1 -0.1)">
      <use transform="translate(0 0.78125)" xlink:href="#DejaVuSans-Oblique-99"/>
      <use transform="translate(54.980469 0.78125)" xlink:href="#DejaVuSans-Oblique-111"/>
      <use transform="translate(116.162109 0.78125)" xlink:href="#DejaVuSans-Oblique-114"/>
      <use transform="translate(176.757812 0.78125)" xlink:href="#DejaVuSans-61"/>
      <use transform="translate(280.029297 0.78125)" xlink:href="#DejaVuSans-48"/>
      <use transform="translate(343.652344 0.78125)" xlink:href="#DejaVuSans-46"/>
      <use transform="translate(375.439453 0.78125)" xlink:href="#DejaVuSans-49"/>
      <use transform="translate(439.0625 0.78125)" xlink:href="#DejaVuSans-44"/>
      <use transform="translate(490.332031 0.78125)" xlink:href="#DejaVuSans-Oblique-118"/>
      <use transform="translate(549.511719 -15.625)scale(0.7)" xlink:href="#DejaVuSans-Oblique-115"/>
      <use transform="translate(585.981445 -15.625)scale(0.7)" xlink:href="#DejaVuSans-Oblique-109"/>
      <use transform="translate(654.169922 -15.625)scale(0.7)" xlink:href="#DejaVuSans-Oblique-97"/>
      <use transform="translate(697.06543 -15.625)scale(0.7)" xlink:href="#DejaVuSans-Oblique-108"/>
      <use transform="translate(716.513672 -15.625)scale(0.7)" xlink:href="#DejaVuSans-Oblique-108"/>
      <use transform="translate(758.178711 0.78125)" xlink:href="#DejaVuSans-61"/>
      <use transform="translate(861.450195 0.78125)" xlink:href="#DejaVuSans-48"/>
      <use transform="translate(925.073242 0.78125)" xlink:href="#DejaVuSans-46"/>
      <use transform="translate(956.860352 0.78125)" xlink:href="#DejaVuSans-48"/>
      <use transform="translate(1020.483398 0.78125)" xlink:href="#DejaVuSans-49"/>
      <use transform="translate(1111.165581 0.78125)" xlink:href="#DejaVuSans-Oblique-109"/>
      <use transform="translate(1208.57769 0.78125)" xlink:href="#DejaVuSans-47"/>
      <use transform="translate(1242.269097 0.78125)" xlink:href="#DejaVuSans-Oblique-115"/>
     </g>
    </g>
    <g id="line2d_42">
     <path d="M 239.148 110.345337 
L 259.148 110.345337 
" style="fill:none;stroke:#9467bd;stroke-linecap:square;"/>
    </g>
    <g id="line2d_43"/>
    <g id="text_21">
     <!-- $cor = 0.0, v_{small}=0.01 \; m/s$ -->
     <g transform="translate(267.148 113.845337)scale(0.1 -0.1)">
      <use transform="translate(0 0.78125)" xlink:href="#DejaVuSans-Oblique-99"/>
      <use transform="translate(54.980469 0.78125)" xlink:href="#DejaVuSans-Oblique-111"/>
      <use transform="translate(116.162109 0.78125)" xlink:href="#DejaVuSans-Oblique-114"/>
      <use transform="translate(176.757812 0.78125)" xlink:href="#DejaVuSans-61"/>
      <use transform="translate(280.029297 0.78125)" xlink:href="#DejaVuSans-48"/>
      <use transform="translate(343.652344 0.78125)" xlink:href="#DejaVuSans-46"/>
      <use transform="translate(375.439453 0.78125)" xlink:href="#DejaVuSans-48"/>
      <use transform="translate(439.0625 0.78125)" xlink:href="#DejaVuSans-44"/>
      <use transform="translate(490.332031 0.78125)" xlink:href="#DejaVuSans-Oblique-118"/>
      <use transform="translate(549.511719 -15.625)scale(0.7)" xlink:href="#DejaVuSans-Oblique-115"/>
      <use transform="translate(585.981445 -15.625)scale(0.7)" xlink:href="#DejaVuSans-Oblique-109"/>
      <use transform="translate(654.169922 -15.625)scale(0.7)" xlink:href="#DejaVuSans-Oblique-97"/>
      <use transform="translate(697.06543 -15.625)scale(0.7)" xlink:href="#DejaVuSans-Oblique-108"/>
      <use transform="translate(716.513672 -15.625)scale(0.7)" xlink:href="#DejaVuSans-Oblique-108"/>
      <use transform="translate(758.178711 0.78125)" xlink:href="#DejaVuSans-61"/>
      <use transform="translate(861.450195 0.78125)" xlink:href="#DejaVuSans-48"/>
      <use transform="translate(925.073242 0.78125)" xlink:href="#DejaVuSans-46"/>
      <use transform="translate(956.860352 0.78125)" xlink:href="#DejaVuSans-48"/>
      <use transform="translate(1020.483398 0.78125)" xlink:href="#DejaVuSans-49"/>
      <use transform="translate(1111.165581 0.78125)" xlink:href="#DejaVuSans-Oblique-109"/>
      <use transform="translate(1208.57769 0.78125)" xlink:href="#DejaVuSans-47"/>
      <use transform="translate(1242.269097 0.78125)" xlink:href="#DejaVuSans-Oblique-115"/>
     </g>
    </g>
   </g>
  </g>
 </g>
 <defs>
  <clipPath id="p1e817763cb">
   <rect height="247.2624" width="349.308" x="56.34" y="38.5344"/>
  </clipPath>
 </defs>
</svg>
